<svg xmlns="http://www.w3.org/2000/svg" id="line" width="404.059" height="54.082" viewBox="0 0 404.059 54.082">
    <defs>
        <clipPath id="clip-path">
            <path id="사각형_1921" d="M0 0H404.059V54.082H0z" class="cls-1"/>
        </clipPath>
        <style>
            .cls-1{fill:#60e7a3}
        </style>
    </defs>
    <g id="그룹_1471" clip-path="url(#clip-path)">
        <path id="패스_2370" d="M57.093 3.96c.595.241.347-2.568.432-3.071-.991.63-.4 3.8-.432 3.071" class="cls-1" transform="translate(346.243 5.074)"/>
        <path id="패스_2371" d="M56.666 3.291l.163-1.147-1.416 2.823z" class="cls-1" transform="translate(336.908 12.234)"/>
        <path id="패스_2372" d="M54.29 3.937c.927 4.774 3.328-.811 4.984.872l.29 1.086.687-3.855c-1.982.63-4.538 3.218-5.961 1.9" class="cls-1" transform="translate(330.08 11.64)"/>
        <path id="패스_2373" d="M53.686.788c.326 1.857-1.041 1.616 1.154.57a4 4 0 0 1-.219-.469 2.156 2.156 0 0 1-.935-.1" class="cls-1" transform="translate(325.643 4.497)"/>
        <path id="패스_2374" d="M53.848 1.419c.97-.141-.651-1.556 0 0" class="cls-1" transform="translate(326.423 3.967)"/>
        <path id="패스_2375" d="M53.637 4.216L54.89 2.54c-.276-1.1-1.416-1.334-1.005-2.14-1.3.925-1.012 2.018-.248 3.815" class="cls-1" transform="translate(322.166 2.29)"/>
        <path id="패스_2376" d="M52.916 2.381l.651-.711c-.12-.463-.3-.617-.651.711" class="cls-1" transform="translate(321.726 7.631)"/>
        <path id="패스_2377" d="M54.389 1.162l-1.381 1.5c.191.771.234 2.32.637-.543-.1 1.415.156.054.743-.959" class="cls-1" transform="translate(322.285 6.631)"/>
        <path id="패스_2378" d="M53.317 1.351c.729 1.033 1.664 1.676.4 3.352 2.428-.691 2.032-4.05-.4-3.352" class="cls-1" transform="translate(324.164 7.167)"/>
        <path id="패스_2379" d="M54.236 3.54l.977 1.388.807-1.609c-.4.8-1.862-1.281-1.784.221" class="cls-1" transform="translate(329.731 16.993)"/>
        <path id="패스_2380" d="M51.957.614a40.489 40.489 0 0 0 .581 4.01l.92-1.18c-.489-.691-1.416-1.321-1.5-2.829" class="cls-1" transform="translate(315.86 3.505)"/>
        <path id="패스_2381" d="M53.226 1.212l-1.388 1.763c1.26.194 1.48-.644 1.388-1.763" class="cls-1" transform="translate(315.172 6.916)"/>
        <path id="패스_2382" d="M53.276 5.435l2.273-3.7-2.719 3.753z" class="cls-1" transform="translate(321.205 9.891)"/>
        <path id="패스_2383" d="M51.714 2.618l.772-2.367-1.381 3.58z" class="cls-1" transform="translate(310.716 1.433)"/>
        <path id="패스_2384" d="M53.046 4.506c.566-1.958-.857-3.292-.241-4.506-.97.362-1.777 2.052-2.506 3.56.786-.845 1.635-.644 2.747.945" class="cls-1" transform="translate(305.815 .002)"/>
        <path id="패스_2385" d="M50.126 2.744A13.075 13.075 0 0 0 51.351.531a6.4 6.4 0 0 0-1.225 2.213" class="cls-1" transform="translate(304.763 3.031)"/>
        <path id="패스_2386" d="M52.482 3.869c-.12-.617-.347-2.226-1.147-2.9l.588 2.856c.17.02.368.027.559.04" class="cls-1" transform="translate(312.114 5.547)"/>
        <path id="패스_2387" d="M52.468 1.612l-.021-.094c-.6-.047-1.019-.114-1.2-.141.149.02.517.094 1.218.235" class="cls-1" transform="translate(311.597 7.858)"/>
        <path id="패스_2388" d="M51.639 1.414a.5.5 0 0 0-.142-.007c.057.275.092.369.142.007" class="cls-1" transform="translate(313.099 8.015)"/>
        <path id="패스_2389" d="M53.687 1.9c-.807 1.609-2.513 3.352-.807 5.773.566-1.971-.411-3.352.807-5.773" class="cls-1" transform="translate(317.061 10.87)"/>
        <path id="패스_2390" d="M51.621 3.656l1.508.637a5.455 5.455 0 0 1 .078-2.655z" class="cls-1" transform="translate(313.852 9.346)"/>
        <path id="패스_2391" d="M51.519 3.057l.722-.919-.559-.238z" class="cls-1" transform="translate(313.231 10.861)"/>
        <path id="패스_2392" d="M52.323 1.262a2.631 2.631 0 0 1-2.131 1.576 4.746 4.746 0 0 0 2.591.831c.113-.9.46-2.521-.46-2.407" class="cls-1" transform="translate(305.164 7.168)"/>
        <path id="패스_2393" d="M51.067 1.369c-.042.067-.1.1-.142.168.092.241.163.315.142-.168" class="cls-1" transform="translate(309.621 7.812)"/>
        <path id="패스_2394" d="M49.079 1.5c.05.154.085.349.135.516l.021-.5z" class="cls-1" transform="translate(298.397 8.571)"/>
        <path id="패스_2395" d="M50.733 2.591c.651.543 1.034-.161 1.388-1.053a3.241 3.241 0 0 1-1.536.516c-.05.409-.057.677.149.536" class="cls-1" transform="translate(307.371 8.776)"/>
        <path id="패스_2396" d="M49.818 1.243a10 10 0 0 0 1.14 1.562c-.34-.905-1.027-2.305-1.14-1.562" class="cls-1" transform="translate(302.89 5.893)"/>
        <path id="패스_2397" d="M50.954 1.684a.68.68 0 0 1 .1-.134c-.227-.61-.191-.308-.1.134" class="cls-1" transform="translate(309.365 6.88)"/>
        <path id="패스_2398" d="M51.6 1.277a7.764 7.764 0 0 0-.828 1.757 3.509 3.509 0 0 0 1.055-.966 6.641 6.641 0 0 1-.227-.791" class="cls-1" transform="translate(308.715 7.287)"/>
        <path id="패스_2399" d="M50.211 19.481c.078-2.655 1.742-5.129 3.243-2.3 1.416-2.011.361-10.728-.956-15.6a4.854 4.854 0 0 1-1.48 3.815c.538 1.448 3.328 3.352 2.11 5.773-1.94 1.388-1.614-.919-2.591-2.313.857 3.3-2.435 4.841-1.947 9.7l1.7-1.73c.042.751-.559 1.965-.078 2.655" class="cls-1" transform="translate(295.12 9.01)"/>
        <path id="패스_2400" d="M51.9 4.941l.6-.335c-.694-.456-1.2-1.509-2.152-3.574A5.429 5.429 0 0 0 49.1 4.21l3.009.335z" class="cls-1" transform="translate(298.531 5.889)"/>
        <path id="패스_2401" d="M52.322 3.054c-.439 2.9-1.89 4.137-.949 7.255 1.784-.221 1.218-2.427 2.273-3.694-2.874.751.807-1.616-1.3-3.232A3.479 3.479 0 0 1 53.9 2.6a7.9 7.9 0 0 1-1.514-1.3l.071.181.014-.007v.047c.127.355.17.57.028.369a.1.1 0 0 1-.064.054 9.669 9.669 0 0 1-.113 1.1c-.843-.59-.142-.751.113-1.1a4.081 4.081 0 0 0 .035-.422l-.014-.04-2.874 1.612c.623.4 1.388.3 2.74-.04" class="cls-1" transform="translate(301.455 7.401)"/>
        <path id="패스_2402" d="M52.262 4.265a2.183 2.183 0 0 1-.106-.67c-.177.355-.248.6.106.67" class="cls-1" transform="translate(316.214 20.511)"/>
        <path id="패스_2403" d="M53.178 9.381c.205-.409.368-1.562 1.048-1.274.609.858.021 1.388.064 2.333.4-.771 1.416-2.085.106-3.48l-.2.4c-1.175-.979-2.719-4.566-2.521-4.962a38.732 38.732 0 0 0 1.5 6.986" class="cls-1" transform="translate(314.087 13.665)"/>
        <path id="패스_2404" d="M52.966 2.608l-2.393 1.448 1.26 2.481-.078-1.5c1.373.57 1.055-1.274 1.211-2.434" class="cls-1" transform="translate(307.481 14.88)"/>
        <path id="패스_2405" d="M49.944 3.89l.283-3.058-1.338 4.325z" class="cls-1" transform="translate(297.241 4.751)"/>
        <path id="패스_2406" d="M49.223 3.608L49.3.952l-.807 1.609z" class="cls-1" transform="translate(294.84 5.435)"/>
        <path id="패스_2407" d="M24.327 6.561l-.708.764a2.388 2.388 0 0 0 .708-.764" class="cls-1" transform="translate(143.602 37.432)"/>
        <path id="패스_2408" d="M24.544 7.691l.113-1.307c-.234.724-.326 1.254-.113 1.307" class="cls-1" transform="translate(148.503 36.422)"/>
        <path id="패스_2409" d="M39.563 5.27C38.5 2.8 37.3-1.026 37.46 1.958l.354 2.9c.715-.53 1.274-.215 1.749.409" class="cls-1" transform="translate(227.663 4.957)"/>
        <path id="패스_2410" d="M30.342 5.831c.106.282.205.583.312.878.241-1 .46-1.924.665-2.789-.3.6-.63 1.24-.977 1.911" class="cls-1" transform="translate(184.477 22.365)"/>
        <path id="패스_2411" d="M31.447 7.581l-1.381-1.857a6.2 6.2 0 0 0 1.381 1.857" class="cls-1" transform="translate(182.799 32.657)"/>
        <path id="패스_2412" d="M20.448 7.069l-.786 2.97c1.289-.034.7-1.515.786-2.97" class="cls-1" transform="translate(119.544 40.33)"/>
        <path id="패스_2413" d="M45.993 3.035A4.272 4.272 0 0 0 43.756 1.3c1.09 1.656 1.982 4.157 2.237 1.73" class="cls-1" transform="translate(266.034 7.447)"/>
        <path id="패스_2414" d="M24.447 1.954a2.61 2.61 0 0 0-.581 1.777 2.108 2.108 0 0 0 .581-1.777" class="cls-1" transform="translate(145.096 11.149)"/>
        <path id="패스_2415" d="M43.393 2.382a6.963 6.963 0 0 0 .474.677 2.523 2.523 0 0 1 2.1-.717c-.807-1.234-1.727-1.991-2.57.04" class="cls-1" transform="translate(263.827 6.41)"/>
        <path id="패스_2416" d="M5.643 7.175a3.326 3.326 0 0 1-.234-.342c-.021.389.085.409.234.342" class="cls-1" transform="translate(32.872 38.983)"/>
        <path id="패스_2417" d="M1.212 2.864a3.029 3.029 0 0 1 1.211-.241c-.219-.194-.588-.174-1.211.241" class="cls-1" transform="translate(7.369 14.283)"/>
        <path id="패스_2418" d="M46.816 1.348c.666-.194.106-.322 0 0" class="cls-1" transform="translate(284.638 6.572)"/>
        <path id="패스_2419" d="M47.506 2.89a3.532 3.532 0 0 0-.248 1.41 4.424 4.424 0 0 1 .248-1.415" class="cls-1" transform="translate(287.326 16.489)"/>
        <path id="패스_2420" d="M42.541 4.028l-.057-.007c.205.563.17.456.057.007" class="cls-1" transform="translate(258.3 22.941)"/>
        <path id="패스_2421" d="M47.7 2.1a3.2 3.2 0 0 0-.864-.852 3.854 3.854 0 0 0 .864.852" class="cls-1" transform="translate(284.772 7.127)"/>
        <path id="패스_2422" d="M46.938 1.4a5.672 5.672 0 0 0 .588.275c.071-.483 0-.791-.588-.275" class="cls-1" transform="translate(285.38 6.455)"/>
        <path id="패스_2423" d="M46.686 1.348a1.709 1.709 0 0 1 1.076.288c-.135-.194-.191-.355-.156-.456a6.929 6.929 0 0 1-.92.168" class="cls-1" transform="translate(283.848 6.734)"/>
        <path id="패스_2424" d="M13.554 5.863c-.042-.094-.1-.148-.149-.275-.651 1.22-.361 1.019.149.275" class="cls-1" transform="translate(79.215 31.881)"/>
        <path id="패스_2425" d="M35.377 6.264c.028-.027.042-.107.071-.141l-.092-.1z" class="cls-1" transform="translate(214.962 34.362)"/>
        <path id="패스_2426" d="M35.027 15.589c.97-3.634 1.551-3.192 2.329-2.434l-.9-8.381z" class="cls-1" transform="translate(212.962 27.237)"/>
        <path id="패스_2427" d="M154.093 41.317l1.706 2.595c-1.961 4.325-3.441 2.856-1.827 6.517.12-9.112 6.492-1.006 6.613-10.1l1.126 1.9c-.319-.08-.361.456-.673.362 2.2 4.338 1.508-6.6 4.29-5.33a2.43 2.43 0 0 1 1.02 3.084l2.117-2.273c.623.168.5 1.75-.127 1.582l3.264-.764-.021.268a33.937 33.937 0 0 1 1.982-4.6c.85 1.3-.4.972-.177 2.105l1.784-2.226c.772 2.347-.7 4.653-1.961 4.331 1.812 9.072 1.473-2.306 5.2 2.964l-1.696 1.168c1.168 5.149 2.478 3.265 4.46 6.464-.481-1.676-3.986-8.073-2.046-10.366.566.684 1.3 1.006 2.336-.845.05 3.238 1.076 2.434 2.372 2.233l-.028 4.291c1.381-1.254 1.246-3.433 2.046-5.377 1.565.4 1.933 3.721 2.336 6.517 2.513.657-1.8-5.3 1.154-6.148 2.1 1.616 3.547-.154 6-2.749 1.48 1.462-.219 2.628.319 3.849l1.253-3.433c.319.074.227 1.126.184 1.656 1.069-1.334.028-4.284 1.727-5.471.4-4.727 3.6 6.866 5.65 1.475.538 1.214-.219 2.635-.035 4.291 2.853-3.554 2.457-2.581 4.779-7.349l2.067 2.789c-1.529-3.2.326-7.033 1.954-10.185-.545-1.549-1.02-2.9-1.331-3.547l2.641-2.333c.333.7.078 2.172-.333 3.969.177-.355.347-.711.474-1.033.977 1.576.51 4.056-.142 6.457-.333-.838-.666-1.737-.991-2.635a28.064 28.064 0 0 0-1.041 8.019 2.4 2.4 0 0 1 .864-1.173 4.831 4.831 0 0 0-.184 1.77c.1.449.368-.5.786-1.6l.673 4.767.12-1.9 3.526 2.95c2.436-4.841 4.517-11.948 8.446-13.966-.935 3.513-.135 5.726-.135 9.883-1.14-4.385-3.044 1.9-5.112 1.033 1.083.449.871 2.434.609 3.124l3.611-4.036c-.042 3.393.807 2.534 1.784 3.929-.807-6.7 2.669-4.506 4.135-6.577.12 2.253-.205 4.553-2.032 4.036 2.074 5.029 2.492-7.918 4.517-3.647-.446.067-.687-.282-.85.865 1.012-2.018 3.568-.456 2.995 1.515l-.439.054c2.952.758 8.97-.054 9.338-5.766.035.738-.3 6.879-.467 8.032l5.013-19.243c-.4 4.9 1.529 16.548-.878 19.344.708.684 1.586 1.488 3.044-.255-.489-.7-1.281-7.067-.637-7.523 1.869 5.431 1.289 2.9 3.561 7.523-.736-1.039-.035-8.73 1.1-8.5-.163 1.153.191 7.583-.212 8.388l2.726-7.57c-.694 1.368-.042 6.39.616 8.515-.311-1.475 2.443.107 3.179-.65L261 35.034c3.207 1.1 3.016-10.641 6.181-10.279-.361 1.562-.821 9.595.8 10.527.68-3.875 3.016-18.613 5.777-21.623l.566 2.206 2.117-2.541A191.735 191.735 0 0 1 269.6 36.2c1.218 1.737.368 2.6 2.152 2.38a2.532 2.532 0 0 1-1.458 3.279l4.177 1.287c-.248-4.512 3.122-4.559 2.91-8.314l-4.453 4.727c-.241-4.5 2.45-12.826 5.4-12.062.772 1.784-.46 8.026-.375 9.528.361-1.556 2.761-2.99 3.044-1.9l-1.225 2.427c1.664 1.676 2.6-6.008 4.63-1.73.68.282 2.1 5.78 2.188 3.118-1.175-5.136-1.593-21.04-.906-24.909.241.342 3.632 4.874 4.446 7.4 1.168 4.023-1.565 9.635-.559 13.081a8.918 8.918 0 0 1 .871-3.245c.729 1.046-.248 3.815 1.3 3.245.2-4.573 3.158.349.68-3.875 1.5-1.321 1.628.919 3.405.7-.6-2.95 1.473-10.071 2.981-11.392a12.031 12.031 0 0 0 .46 3.359c3.115.382 4.814 2.434 7.717 2.441.283 1.106 1.7 2.427 1.126 4.4.411-.811.772-2.367 1.664-2.488 1.784 3.936-1.989.644-.6 5.371.078-2.655 2.266-3.688 3.519-5.364-.446-4.1-2.952-.751-4.213.925-.078-5.659 2.067-11.613 5.069-14.261 2.393-1.435 1.09 3.647 1.5 2.829 4.538.939 3.731-9.923 7.54-5.88 1.536 3.587.163 7.168.524 9.769-1.947 1.388-3.044-2.253-4.368-2.092l1.657 1.683c-.609 1.207-1.9 2.125-2.634 1.093 1.288 3.225 7.66.536 11.193 3.487.6-1.22 1.657-2.481 1.133-3.922l-1.1.51c-1.055-2.89 2.032-4.043.616-5.377 1.451-2.065 3.073-5.3 5.183-3.674l.446 4.1c-.057-1.2-1.395-2.434-1.968-1.173.85-1.83 3.278 5.525 4.163.134L335.927 13c1.458-2.085 3.243-6.47 5.112-5.2-.892-4.05-.418.469-1.8-4.264 1.218 5.9-4.737-.194-2.825 5.994-1.416-5.5-2.365-2.306-4.191-6.986.078 1.348.665 2.581-.9 1.931a8.511 8.511 0 0 1-.326 1.2.732.732 0 0 1-.106-.1l.085.161c-.064.2-.071.248.035.054a5.659 5.659 0 0 1 .814 2.052c-.729 3.124-3.2 3.051-4.014 4.673-.927-.63.368-1.556-.156-3l-1.218 2.42c-.156-3.01-2.506-4.975-.361-6.765l-1.961-.107c-1.168-1.676-2.761-2.327-3.717-1.053-.927-.644-2.287 3.359-1.515.992l-3.044 1.9-.035-.758c-3.03-.342-6.16 5.062-9.685-.335-1.005.771-2.046 1.716-3.759.878l-.368-2.6c-1.3.925-3.958-2.561-4.482.161-1.5-6.993-6.365-1.455-8.68-2.675l-.042 3.406c-1.586-.174-3.087.8-5.034 2.192l.156 3c-1.664 2.494-4.375-2.085-7.052-1.75.17-1.147.85-.858 1.338-.168-3.285-6.752-6.691 5.015-9.65.1-.715 1.106-1.239.738-1.756-.007a.269.269 0 0 0 .177-.161.6.6 0 0 0-.3-.034c-.326-.516-.666-1.113-1.027-1.589a6.591 6.591 0 0 0 .864 1.6 4.38 4.38 0 0 0-2.216 1.214l-.388-3.213c-.071.04-.127.034-.191.094-.828-1.187-.637 1.535-.17 3.956a7.464 7.464 0 0 0-1.076 1.965c-.729-5.21-2.152 1.777-3.122-3.768-.524 2.715-4.142 2.085-4.51 7.791-.042-.738-.29-1.093.156-1.14-.935-.644-1.862-1.281-2.669.335l-.446-4.1-1.947 5.545c-1.26-2.488-1.791-3.936-.609-7.107-2.882 4.895-2.358 1.857-4.8 6.7l.085-2.655c-.892.107-2.273 3.681-2.839 1.5-2.067-5.022-9.9-.583-15.094-5.216 1.1 7.8-2.428-3.473-2.556 2.588-.319-1.844-1.048-2.883-.241-4.5-2.591 1.851-3.972-2.883-5.713 2.246-.326-1.857.524-2.722.248-3.815-.212.4-.814 1.616-1.1.516s.361-1.556.765-2.367c-2.676.342-2.867 6.041-2.995 11.392-1.388-2.514-2.06-2.152-2.995 1.368-.5-1.743-1.3-3.56.354-4.211-.942-.248-5.749-2.5-5.791 1.783-.3-1.079-1.31-.3-1.551.2-2.1-.235-2.287-.617-4.347-.188l.581.691c-.743 5.183-1.7 1.173-3.349 1.817l.035-.53c-3.851-3.688-1.621 1.8-5.43-2.407l.248 3.212c-.262 6.919-3.384-4.043-5.529-1.375l.807 1.83c-1.161 2.38-3.448-9.367-4.652-10.218-.269-.6.4-.972.758-1.415-3.186-4.05-.354 4.211-2.676 5.216-.46-2.266.481-5.78-1.1-6.189-.8-1.824-4.46 7.429-6.655 3.1.5 1.75.984 3.487-.085 4.821-1.65.644-4.574-6.571-6-1.033a3.474 3.474 0 0 1-.319-1.368c-1.253 1.435-4.092 2.414-4.821 5.411-1.317-11.09-7.823 5.5-7.93-4.747l-3.9.59.092-1.046c-2.506-.65-3.356 1.817-4.205 4.284-.588-.691-.177-1.649-.135-2.186-3.674-2.025-4.036-1.582-7.03 3.554l-.354-3.319c-.807 1.938-5.345-5.149-8.871-1.234a3.645 3.645 0 0 1 .368-1.5c-3.972 3.942-9.749-9.105-11.073 3.01l-2.62 3.01c3.448.905-.446 5.263.991 7.255-1.338.724-3.54-3.614-1.883-4.251l.269.6c.531-6.316-4.3-2.186-4.262-6.484-6.761.389-13.4-3.031-19.739-3.225l.793 4.895-2.208-.244c-.595-1.133-.835-3.828.75-3.641-.864-2.769-2.62 2.353-2.648 3.426-3.108-1.958 1.133-5.739.184-5.84l-1.281.375.3.57c-1.012 2.018-1.083 4.144-2.981 3.922-1.211-.966-.651-3.017-1.126-3.2 0-.349-.163-.51-.729-.134l-2.789-.389 1.168 3.862c-1.211 1.918-2.62-.174-1.281 4.2C78.451 12 70 16.442 68.822 14.356c-1.692 2.836-3.4 2.809-5.515 2.494.538.8.906 5.149-.92 4.633.545-8.983-3.387-3.855-4.949-10.305 1.374 4.271-5.168 1.12-3.023 7.181-1.53-.711-.135-3.359-1.315-5.459-3.575 3.52-8.007-2.172-12.468-.945-.05 1.18.715 2.97-.219 4.74l-2.438-5.865c-.878.59-.729 6.812-2.393 2.736.241.992.6 2.481.014 2.87-8.843-5.646-17.856 4.908-26.9-5.786 1.232 2.273.432 2.508-.489 2.6.609.543.028 2.917.163 4.512l-3.777-4.391C3.97 17.809.6 13.713.26 17.957l1.175-.778c-1.508 5.029 2.336 11.1 2.188 17.527C5.308 29 8.367 43.08 11.149 34.9c.651 1.3-.517 2.079-.163 3.56.7-2.756 1.579-3.346 3.228-2.125l-.177.677c4.588-.717 6.591 1.971 11.781 3.721l-.425-3.171c1.112.409 1.359 1.4 1.89 2.193 1.211-4.828-3.122-.235-2.025-5.558 1.551 6.443 7.823.007 8.907 7.342 1.713.02-.545-3.674 1.161-3.647l.481 1.978.4-2.568c1.126.409 1.72 2.89 1.784 4.573-.276-.194-.765.483-1.055.63 1.48 2.32 4.078-.845 4.588-.087l-1.65-1.207c4.63-1.918 10.351.63 14.8-3.46l-.361-1.5c3.405-2.816 2.775 1.609 6.528.288l-.127.355c.729-1.5 1.728-2.266 2.768-2.105-.927 1.763 1.834 3.386.609 5.344 3.689-3.017 1.812-2.36 4.205-7.959l.6 2.481c.807-2.26.864-3.446 2.74-4.11-1.522 2.152 1.246 3.775-.446 6.618 4.021 5.391 5.8-5.558 7.717 2.374 1.728-6.906-3.476-3.788-2.471-5.27-.885-2.239 1.43-5.156 2.676-4.479 1.267.134 2.266 8.777 5.444 8.609-.319-.027-.333.489-.651.463 1.211 1.743 2.3-2.4 3.795.436.765-4.17 1.9.215 2.06-5.1l-2.9 1.261c1.635-1.408 3.108-7.637 5.862-4.653a10.142 10.142 0 0 1-1.529 3.279c.814 1.556 1.515-1.053 2.365.543-.17 5.317-3.533 1.2-5.253 5.27.885 2.233 3.306-3.889 2.485 1.877 1.189-7.328 3.143.885 5.225-4.727l-.1 3.185c.333-.5 1.02-2.011 1.643-1.938l-1.076 4.137c1.692-3.54 3.4 3.037 5.041 1.106-3.5.134-.835-3.828-2.343-6.135 4.262-4.3 2.591 8.294 7.4 6.712-.644.463-2.478-1.877-1.473-3.366a7.5 7.5 0 0 1 2.747 3.513c3.186-.7-.538-3.265.8-5.237 1.14 3.862 1.55-1.6 2.938-2.856l.05 3.238c3.674 2.032.885-6.752 4.2-4.278l-1.331 4.5 1.7-1.18-.3 3.681c1.827-2.749 2.414-2.052 4.248-1.039-.453-2.273.17-5.873 1.784-5.994 1.126 1.911-.581 3.084 1.706 2.595-.5 2.032-1.027 4.579-2.06 1.609-.092 1.053-.489 2.032-.581 3.078 1.218 2.192 2.988.469 3.823.429a1.367 1.367 0 0 1-.906-.744l3.264-4.519a3.677 3.677 0 0 1-.269 3.151c.673-.362 1.119-1.851 2.1-2.146-.219 2.635-.127 5.351-1.515 6.6l3.125-2.948c.227 1.14 1.664 3.124 1.267 4.1 1.77 1.522 4.234-5.149 6.584-3.138a2.341 2.341 0 0 1 .843-1.388c2.188.57 4.17 3.775 6.712.141l1.529 4.7c2.018-1.1-2.067-5.914 1.289-7.731 2.372-1.535.942 4.01 1.8 5.31 1.161-2.394 3.165-7.248 5.409-3.44-.715.9-1.289.208-1.968.563m24.985-2.374c-.474.684-1.416 2.789-1.791.885.5-3.715.949-1.944 1.791-.885m37.927-8.227c-.347 1.073-.913.55-1.558-.664.453-.275.977-.161 1.558.664M322.638 6.981a.809.809 0 0 0-.05.154c-1.1-1.247-.708-.751.05-.154m2.262 1.374A1.948 1.948 0 0 0 325 7c-.142.825-.644.885-1.225.664.17.845.474 1.428 1.133.691m-241.083 4.05l.446.838c-.977.945-.708.1-.446-.838" class="cls-1" transform="translate(1.581 3.655)"/>
        <path id="패스_2428" d="M30.573 7.288a9.191 9.191 0 0 1-.234-1.757 1.893 1.893 0 0 0 .234 1.757" class="cls-1" transform="translate(183.758 31.556)"/>
        <path id="패스_2429" d="M19.922 7.016c-.028-.027-.05-.013-.078-.034a3.984 3.984 0 0 0-.071.583z" class="cls-1" transform="translate(120.219 39.833)"/>
        <path id="패스_2430" d="M42.036 7.356a3.677 3.677 0 0 1-.913-1.663c-.014.8.205 1.462.913 1.663" class="cls-1" transform="translate(250.019 32.48)"/>
        <path id="패스_2431" d="M49.012.951l-1.43.858c.694-.168.956.536 1.31 1.046-.042-.758-.326-1.851.12-1.9" class="cls-1" transform="translate(289.296 5.427)"/>
        <path id="패스_2432" d="M49.985 5.581c.205-.4.439-.047.644-.456l-.071-1.5a1.085 1.085 0 0 0-.573 1.958" class="cls-1" transform="translate(301.06 20.671)"/>
        <path id="패스_2433" d="M47.991 3.632c.149 2.716 1.034 1.784 2.039 1.268a.231.231 0 0 1-.177 0c.248-3.808-.814-2.534-1.862-1.267" class="cls-1" transform="translate(291.782 13.48)"/>
        <path id="패스_2434" d="M48.312 3.434a1.157 1.157 0 0 1 .927-.08c.106-1.529-.375-.315-.927.08" class="cls-1" transform="translate(293.734 14.852)"/>
        <path id="패스_2435" d="M47.323 4.313c.489.7.255-3.48.538-2.374.489-3.473-3.129 4.224-.538 2.374" class="cls-1" transform="translate(281.979 5.861)"/>
        <path id="패스_2436" d="M48.925 6.739l-.4-3.352-.534 2.713z" class="cls-1" transform="translate(291.781 19.324)"/>
        <path id="패스_2437" d="M47 4l1.621.912a1.426 1.426 0 0 1 .418-1.153C48.037 3.653 46.947 3 47 4" class="cls-1" transform="translate(285.725 19.695)"/>
        <path id="패스_2438" d="M47.283 3.982a1.136 1.136 0 0 0 1.289-.57 2.251 2.251 0 0 0-1.289.57" class="cls-1" transform="translate(287.478 19.467)"/>
        <path id="패스_2439" d="M49.206 4.834l-.481-.7-1.14-.234z" class="cls-1" transform="translate(289.312 22.264)"/>
        <path id="패스_2440" d="M46.074 3.466l-1.742.979c-.17 1.153.319 1.857.97 1.395.411-.811 1.055-1.261.772-2.374" class="cls-1" transform="translate(269.33 19.775)"/>
        <path id="패스_2441" d="M46.01 6.991a7.572 7.572 0 0 1-.81-2.541v4.164z" class="cls-1" transform="translate(274.831 25.389)"/>
        <path id="패스_2442" d="M45.655 4.983c-.156 1.153-2.506 3.346-.283 3.057.163-1.147 1.912-2.125.283-3.057" class="cls-1" transform="translate(270.075 28.429)"/>
        <path id="패스_2443" d="M40.847 10.1l.446-.06-.149-6.826z" class="cls-1" transform="translate(248.347 18.346)"/>
        <path id="패스_2444" d="M37.791 11.186c2.1 1.609.439-4.217 2.351-2.2.46-1.623-1.565-1.649-1.076-3.051-1.239 1.716-1.912.764-1.274 5.25" class="cls-1" transform="translate(228.28 33.866)"/>
        <path id="패스_2445" d="M37.761 6.826a7.26 7.26 0 0 0 .623-1.046 3.386 3.386 0 0 0-.623 1.046" class="cls-1" transform="translate(229.585 32.976)"/>
        <path id="패스_2446" d="M1.674 3.216L.321 1.808l.892 2.28z" class="cls-1" transform="translate(1.954 10.319)"/>
        <path id="패스_2447" d="M1.126 6.475L.758 2.13 0 6.072c.3-.194.885-.577 1.126.4" class="cls-1" transform="translate(0 12.153)"/>
        <path id="패스_2448" d="M26.982 9.719l.092-1.046c-.227-1.133-.538-1.214-1.168-1.381z" class="cls-1" transform="translate(157.507 41.602)"/>
        <path id="패스_2449" d="M23.762 10.468l.312.087-.63-3.929z" class="cls-1" transform="translate(142.532 37.803)"/>
        <path id="패스_2450" d="M21.378 9.819c.623.154 1.345-.731 1.968-.57-1.345.724-2.2-4.338-1.968.57" class="cls-1" transform="translate(129.743 43.648)"/>
    </g>
</svg>
