<svg xmlns="http://www.w3.org/2000/svg" width="40.95" height="28.793" viewBox="0 0 40.95 28.793">
    <path fill="#ff1a1a" d="M41.144 9.005a5.145 5.145 0 0 0-3.62-3.644c-3.193-.861-16-.861-16-.861s-12.805 0-16 .861a5.146 5.146 0 0 0-3.62 3.644c-.856 3.214-.856 9.92-.856 9.92s0 6.706.856 9.92a5.069 5.069 0 0 0 3.62 3.586c3.194.861 16 .861 16 .861s12.805 0 16-.861a5.069 5.069 0 0 0 3.62-3.586c.856-3.214.856-9.92.856-9.92s0-6.706-.856-9.92zM17.337 25.014V12.837l10.7 6.089-10.7 6.089z" transform="translate(-1.05 -4.5)"/>
</svg>
