<svg xmlns="http://www.w3.org/2000/svg" width="319" height="56.282" viewBox="0 0 319 56.282">
    <defs>
        <clipPath id="clip-path">
            <path id="사각형_1921" d="M0 0H319V56.282H0z" class="cls-1"/>
        </clipPath>
        <style>
            .cls-1{fill:#60e7a3}
        </style>
    </defs>
    <g id="line">
        <g id="그룹_1471" clip-path="url(#clip-path)">
            <path id="패스_2370" d="M57.063 4.085c.47.251.274-2.672.341-3.2-.783.656-.313 3.956-.341 3.2" class="cls-1" transform="translate(261.367 5.316)"/>
            <path id="패스_2371" d="M56.4 3.337l.129-1.193-1.116 2.938z" class="cls-1" transform="translate(254.32 12.819)"/>
            <path id="패스_2372" d="M54.29 4.015c.732 4.968 2.627-.844 3.935.907l.229 1.13L59 2.04c-1.565.656-3.583 3.349-4.706 1.975" class="cls-1" transform="translate(249.166 12.196)"/>
            <path id="패스_2373" d="M53.66.788c.257 1.933-.822 1.682.911.593A4.869 4.869 0 0 1 54.4.893a1.314 1.314 0 0 1-.738-.1" class="cls-1" transform="translate(245.816 4.712)"/>
            <path id="패스_2374" d="M53.814 1.448c.766-.147-.514-1.619 0 0" class="cls-1" transform="translate(246.405 4.157)"/>
            <path id="패스_2375" d="M53.5 4.371l.989-1.744C54.272 1.483 53.372 1.238 53.7.4c-1.023.963-.8 2.1-.2 3.97" class="cls-1" transform="translate(243.192 2.399)"/>
            <path id="패스_2376" d="M52.916 2.423l.514-.74c-.1-.481-.235-.642-.514.74" class="cls-1" transform="translate(242.86 7.996)"/>
            <path id="패스_2377" d="M54.1 1.162l-1.09 1.563c.151.8.184 2.414.5-.565-.078 1.472.123.056.587-1" class="cls-1" transform="translate(243.282 6.948)"/>
            <path id="패스_2378" d="M53.317 1.354c.576 1.075 1.314 1.744.319 3.489 1.917-.719 1.6-4.215-.319-3.489" class="cls-1" transform="translate(244.7 7.509)"/>
            <path id="패스_2379" d="M54.235 3.562l.771 1.444.637-1.675c-.319.83-1.47-1.333-1.409.23" class="cls-1" transform="translate(248.902 17.805)"/>
            <path id="패스_2380" d="M51.955.614c-.05 1.061.369 2.819.458 4.173l.727-1.228A5.458 5.458 0 0 1 51.955.614" class="cls-1" transform="translate(238.432 3.672)"/>
            <path id="패스_2381" d="M52.934 1.212l-1.1 1.835c.995.2 1.168-.67 1.1-1.835" class="cls-1" transform="translate(237.912 7.247)"/>
            <path id="패스_2382" d="M53.182 5.585l1.794-3.852-2.146 3.908z" class="cls-1" transform="translate(242.466 10.364)"/>
            <path id="패스_2383" d="M51.586 2.714L52.2.251l-1.09 3.726z" class="cls-1" transform="translate(234.548 1.501)"/>
            <path id="패스_2384" d="M52.468 4.689c.447-2.037-.676-3.426-.19-4.689-.766.377-1.4 2.135-1.979 3.705.62-.879 1.291-.67 2.169.984" class="cls-1" transform="translate(230.849 .002)"/>
            <path id="패스_2385" d="M50.126 2.834a15.279 15.279 0 0 0 .967-2.3 7.424 7.424 0 0 0-.967 2.3" class="cls-1" transform="translate(230.055 3.176)"/>
            <path id="패스_2386" d="M52.241 3.986a6.71 6.71 0 0 0-.906-3.014l.465 2.973c.134.021.291.028.442.042" class="cls-1" transform="translate(235.603 5.812)"/>
            <path id="패스_2387" d="M52.211 1.621l-.017-.1a9.238 9.238 0 0 1-.945-.147c.117.021.408.1.961.244" class="cls-1" transform="translate(235.213 8.233)"/>
            <path id="패스_2388" d="M51.609 1.414a.3.3 0 0 0-.112-.007c.045.286.073.384.112.007" class="cls-1" transform="translate(236.347 8.398)"/>
            <path id="패스_2389" d="M53.363 1.9c-.637 1.675-1.984 3.489-.637 6.008.447-2.051-.324-3.489.637-6.008" class="cls-1" transform="translate(239.338 11.39)"/>
            <path id="패스_2390" d="M51.621 3.738l1.191.663a7.432 7.432 0 0 1 .062-2.763z" class="cls-1" transform="translate(236.916 9.793)"/>
            <path id="패스_2391" d="M51.519 3.1l.57-.956-.442-.244z" class="cls-1" transform="translate(236.447 11.381)"/>
            <path id="패스_2392" d="M51.874 1.262A2.2 2.2 0 0 1 50.192 2.9a3.164 3.164 0 0 0 2.046.865c.089-.935.363-2.624-.363-2.505" class="cls-1" transform="translate(230.358 7.511)"/>
            <path id="패스_2393" d="M51.037 1.369c-.034.07-.078.1-.112.174.073.251.129.328.112-.174" class="cls-1" transform="translate(233.722 8.185)"/>
            <path id="패스_2394" d="M49.079 1.5c.039.16.067.363.106.537l.017-.516z" class="cls-1" transform="translate(225.249 8.98)"/>
            <path id="패스_2395" d="M50.7 2.634c.514.565.816-.167 1.1-1.1a2.178 2.178 0 0 1-1.213.537c-.039.426-.045.7.117.558" class="cls-1" transform="translate(232.023 9.196)"/>
            <path id="패스_2396" d="M49.818 1.251a10.789 10.789 0 0 0 .9 1.626c-.268-.942-.81-2.4-.9-1.626" class="cls-1" transform="translate(228.641 6.175)"/>
            <path id="패스_2397" d="M50.939 1.7a.729.729 0 0 1 .078-.14c-.179-.635-.151-.321-.078.14" class="cls-1" transform="translate(233.529 7.209)"/>
            <path id="패스_2398" d="M51.43 1.277a9.415 9.415 0 0 0-.654 1.828 3.236 3.236 0 0 0 .833-1c-.061-.216-.129-.53-.179-.823" class="cls-1" transform="translate(233.038 7.636)"/>
            <path id="패스_2399" d="M49.859 20.21c.061-2.763 1.375-5.338 2.56-2.393 1.118-2.093.285-11.164-.755-16.237A6.064 6.064 0 0 1 50.5 5.549c.425 1.507 2.627 3.489 1.666 6.008-1.535 1.443-1.278-.957-2.05-2.407.676 3.433-1.923 5.038-1.537 10.1l1.341-1.8c.034.782-.442 2.044-.061 2.763" class="cls-1" transform="translate(222.776 9.441)"/>
            <path id="패스_2400" d="M51.314 5.1l.475-.349c-.548-.474-.95-1.57-1.7-3.719a6.8 6.8 0 0 0-.989 3.307l2.376.349z" class="cls-1" transform="translate(225.35 6.171)"/>
            <path id="패스_2401" d="M51.745 3.125C51.4 6.14 50.253 7.43 51 10.675c1.409-.23.961-2.526 1.794-3.845-2.269.782.637-1.682-1.028-3.363a2.555 2.555 0 0 1 1.23-.809A7.128 7.128 0 0 1 51.8 1.3l.056.188.011-.007v.049c.1.37.134.593.022.384a.085.085 0 0 1-.05.056c-.011.426-.05.788-.089 1.144-.665-.614-.112-.782.089-1.144.011-.147.028-.286.028-.44l-.011-.042-2.274 1.679c.492.412 1.1.314 2.163-.042" class="cls-1" transform="translate(227.558 7.755)"/>
            <path id="패스_2402" d="M52.209 4.293a2.942 2.942 0 0 1-.084-.7c-.14.37-.2.628.084.7" class="cls-1" transform="translate(238.698 21.492)"/>
            <path id="패스_2403" d="M52.858 9.666c.162-.426.291-1.626.827-1.326.481.893.017 1.444.05 2.428.319-.8 1.118-2.17.084-3.621l-.157.412a12.8 12.8 0 0 1-1.99-5.164 51.6 51.6 0 0 0 1.185 7.271" class="cls-1" transform="translate(237.093 14.319)"/>
            <path id="패스_2404" d="M52.462 2.608l-1.889 1.507.995 2.585-.061-1.556c1.084.593.833-1.326.956-2.533" class="cls-1" transform="translate(232.106 15.592)"/>
            <path id="패스_2405" d="M49.722 4.014l.223-3.182-1.056 4.5z" class="cls-1" transform="translate(224.377 4.978)"/>
            <path id="패스_2406" d="M49.07 3.716l.061-2.764-.637 1.675z" class="cls-1" transform="translate(222.564 5.695)"/>
            <path id="패스_2407" d="M24.178 6.561l-.559.8a2.366 2.366 0 0 0 .559-.8" class="cls-1" transform="translate(108.4 39.222)"/>
            <path id="패스_2408" d="M24.519 7.745l.089-1.361c-.184.754-.257 1.3-.089 1.361" class="cls-1" transform="translate(112.1 38.164)"/>
            <path id="패스_2409" d="M39.117 5.449C38.278 2.881 37.328-1.1 37.457 2l.28 3.021c.565-.551 1.006-.223 1.381.426" class="cls-1" transform="translate(171.854 5.194)"/>
            <path id="패스_2410" d="M30.342 5.909c.084.293.162.607.246.914.19-1.04.363-2 .525-2.9-.235.628-.5 1.291-.771 1.989" class="cls-1" transform="translate(139.255 23.435)"/>
            <path id="패스_2411" d="M31.156 7.657l-1.09-1.933a6.649 6.649 0 0 0 1.09 1.933" class="cls-1" transform="translate(137.989 34.218)"/>
            <path id="패스_2412" d="M20.282 7.069l-.62 3.091c1.017-.035.553-1.577.62-3.091" class="cls-1" transform="translate(90.239 42.258)"/>
            <path id="패스_2413" d="M45.522 3.105c-.71-1.172-1.28-1.661-1.766-1.8.861 1.723 1.565 4.326 1.766 1.8" class="cls-1" transform="translate(200.819 7.803)"/>
            <path id="패스_2414" d="M24.324 1.954a3.321 3.321 0 0 0-.458 1.846 2.659 2.659 0 0 0 .458-1.849" class="cls-1" transform="translate(109.528 11.682)"/>
            <path id="패스_2415" d="M43.393 2.433a7.617 7.617 0 0 0 .374.7c.514-.516 1.023-.928 1.655-.747-.637-1.284-1.364-2.072-2.029.042" class="cls-1" transform="translate(199.153 6.716)"/>
            <path id="패스_2416" d="M5.593 7.189a3.668 3.668 0 0 1-.184-.356c-.017.4.067.426.184.356" class="cls-1" transform="translate(24.814 40.848)"/>
            <path id="패스_2417" d="M1.212 2.878a1.908 1.908 0 0 1 .956-.251c-.173-.2-.464-.181-.956.251" class="cls-1" transform="translate(5.563 14.966)"/>
            <path id="패스_2418" d="M46.816 1.356c.525-.2.084-.335 0 0" class="cls-1" transform="translate(214.863 6.886)"/>
            <path id="패스_2419" d="M47.454 2.89a4.721 4.721 0 0 0-.2 1.472 5.923 5.923 0 0 1 .2-1.472" class="cls-1" transform="translate(216.892 17.278)"/>
            <path id="패스_2420" d="M42.529 4.028l-.045-.007c.162.586.134.474.045.007" class="cls-1" transform="translate(194.982 24.038)"/>
            <path id="패스_2421" d="M47.52 2.135a3.039 3.039 0 0 0-.682-.886 3.7 3.7 0 0 0 .682.886" class="cls-1" transform="translate(214.964 7.468)"/>
            <path id="패스_2422" d="M46.938 1.409a4.089 4.089 0 0 0 .462.291c.056-.5 0-.823-.464-.286" class="cls-1" transform="translate(215.423 6.764)"/>
            <path id="패스_2423" d="M46.686 1.354a1.116 1.116 0 0 1 .85.3.752.752 0 0 1-.123-.474 4.309 4.309 0 0 1-.727.174" class="cls-1" transform="translate(214.267 7.056)"/>
            <path id="패스_2424" d="M13.443 5.874c-.034-.1-.078-.154-.117-.286-.514 1.27-.285 1.061.117.286" class="cls-1" transform="translate(59.796 33.405)"/>
            <path id="패스_2425" d="M35.373 6.274c.022-.028.034-.112.056-.147l-.073-.1z" class="cls-1" transform="translate(162.267 36.006)"/>
            <path id="패스_2426" d="M35.027 16.029c.766-3.782 1.224-3.321 1.839-2.533l-.71-8.722z" class="cls-1" transform="translate(160.757 28.54)"/>
            <path id="패스_2427" d="M121.709 42.972l1.347 2.7c-1.548 4.5-2.716 2.973-1.442 6.782.1-9.483 5.126-1.047 5.221-10.515l.889 1.975c-.252-.084-.285.474-.531.377 1.738 4.515 1.191-6.866 3.387-5.547a2.978 2.978 0 0 1 .8 3.21l1.671-2.365c.492.174.391 1.821-.1 1.647l2.577-.8-.017.279a41.934 41.934 0 0 1 1.565-4.787c.671 1.354-.319 1.012-.14 2.191l1.409-2.317c.609 2.442-.553 4.843-1.548 4.508 1.431 9.441 1.163-2.4 4.1 3.084l-1.336 1.221c.922 5.359 1.956 3.4 3.521 6.727-.38-1.744-3.147-8.4-1.615-10.788.447.712 1.028 1.047 1.845-.879.039 3.37.85 2.533 1.872 2.324l-.022 4.466c1.09-1.3.984-3.573 1.615-5.6 1.235.419 1.526 3.873 1.845 6.782 1.984.684-1.42-5.519.911-6.4 1.66 1.682 2.8-.16 4.734-2.861 1.168 1.521-.173 2.735.252 4.005l.989-3.573c.252.077.179 1.172.145 1.723.844-1.389.022-4.459 1.364-5.694.319-4.919 2.839 7.145 4.46 1.535.425 1.263-.173 2.742-.028 4.466 2.253-3.7 1.94-2.686 3.773-7.648l1.632 2.9c-1.207-3.328.257-7.32 1.543-10.6-.43-1.612-.8-3.021-1.051-3.691l2.085-2.428a10.728 10.728 0 0 1-.263 4.131c.14-.37.274-.74.375-1.075.771 1.64.4 4.222-.112 6.72-.263-.872-.525-1.807-.783-2.742a38.017 38.017 0 0 0-.822 8.345 2.563 2.563 0 0 1 .682-1.221 6.564 6.564 0 0 0-.145 1.842c.078.468.291-.523.62-1.661l.531 4.961.1-1.975 2.784 3.07c1.923-5.038 3.566-12.434 6.668-14.535-.738 3.656-.106 5.959-.106 10.285-.9-4.563-2.4 1.982-4.036 1.075.855.468.688 2.533.481 3.252l2.851-4.2c-.034 3.531.637 2.638 1.409 4.089-.637-6.978 2.107-4.689 3.264-6.845.1 2.345-.162 4.738-1.6 4.2 1.638 5.233 1.968-8.241 3.566-3.8-.352.07-.542-.293-.671.9.8-2.1 2.817-.474 2.364 1.577l-.347.056c2.331.788 7.082-.056 7.373-6 .028.768-.235 7.159-.369 8.359L197.2 18.18c-.313 5.1 1.207 17.221-.693 20.131.559.712 1.252 1.549 2.4-.265-.386-.726-1.012-7.355-.5-7.829 1.476 5.652 1.017 3.021 2.812 7.829-.581-1.082-.028-9.085.872-8.848-.129 1.2.151 7.892-.168 8.729l2.152-7.878c-.548 1.423-.034 6.65.486 8.862-.246-1.535 1.928.112 2.51-.677l-.961-1.8c2.532 1.144 2.381-11.074 4.88-10.7-.285 1.626-.648 9.985.632 10.955.537-4.033 2.381-19.37 4.561-22.5l.447 2.3 1.67-2.649c-1 6.064-3.834 18.833-5.405 23.808.961 1.807.291 2.707 1.7 2.477.52 2.142-.738 3.28-1.151 3.412l3.3 1.34c-.2-4.7 2.465-4.745 2.3-8.652l-3.516 4.919c-.19-4.682 1.934-13.348 4.265-12.553.609 1.856-.363 8.352-.3 9.915.285-1.619 2.18-3.112 2.4-1.975l-.967 2.526c1.314 1.744 2.051-6.252 3.656-1.8.537.293 1.66 6.015 1.727 3.245-.928-5.345-1.258-21.9-.715-25.922.19.356 2.867 5.073 3.51 7.7.922 4.187-1.235 10.027-.442 13.614a11.638 11.638 0 0 1 .688-3.377c.576 1.089-.2 3.97 1.028 3.377.156-4.759 2.493.363.537-4.033 1.185-1.375 1.286.956 2.689.733-.475-3.07 1.163-10.481 2.353-11.855a16.261 16.261 0 0 0 .363 3.5c2.459.4 3.8 2.533 6.093 2.54.224 1.151 1.341 2.526.889 4.577.324-.844.609-2.463 1.314-2.589 1.409 4.1-1.571.67-.475 5.589.061-2.763 1.789-3.838 2.778-5.582-.352-4.263-2.331-.782-3.326.963-.061-5.889 1.632-12.085 4-14.842 1.889-1.493.861 3.8 1.185 2.945 3.583.977 2.946-10.327 5.953-6.119 1.213 3.733.129 7.459.414 10.167-1.537 1.444-2.4-2.345-3.449-2.177l1.308 1.751c-.481 1.256-1.5 2.212-2.079 1.137 1.017 3.356 6.048.558 8.837 3.628.475-1.27 1.308-2.582.894-4.082l-.872.53c-.833-3.007 1.6-4.208.486-5.6 1.146-2.149 2.426-5.512 4.092-3.824l.352 4.27c-.045-1.249-1.1-2.533-1.554-1.221.671-1.9 2.588 5.75 3.287.14l-1.182-2.94c1.151-2.17 2.56-6.733 4.036-5.408-.7-4.215-.33.488-1.42-4.438.961 6.14-3.739-.2-2.23 6.238-1.118-5.722-1.867-2.4-3.309-7.271.061 1.4.525 2.686-.71 2.01a11.16 11.16 0 0 1-.257 1.249.687.687 0 0 1-.084-.1l.067.167c-.05.209-.056.258.028.056a7.072 7.072 0 0 1 .643 2.135c-.576 3.252-2.526 3.175-3.169 4.863-.732-.656.291-1.619-.123-3.119l-.961 2.519c-.123-3.133-1.979-5.177-.285-7.041l-1.548-.112c-.922-1.744-2.18-2.421-2.935-1.1-.732-.67-1.805 3.5-1.2 1.033l-2.4 1.982-.028-.788c-2.392-.356-4.863 5.268-7.646-.349-.794.8-1.615 1.786-2.968.914l-.291-2.707c-1.023.963-3.125-2.665-3.538.167-1.185-7.278-5.025-1.514-6.853-2.784l-.034 3.544c-1.252-.181-2.437.837-3.974 2.282l.123 3.126c-1.314 2.6-3.454-2.17-5.567-1.821.134-1.193.671-.893 1.056-.174-2.594-7.027-5.282 5.219-7.618.1-.565 1.151-.978.768-1.386-.007.056-.014.1-.07.14-.167a.367.367 0 0 0-.235-.035c-.257-.537-.525-1.158-.81-1.654a7.73 7.73 0 0 0 .682 1.668 3.3 3.3 0 0 0-1.75 1.263l-.311-3.353c-.056.042-.1.035-.151.1-.654-1.235-.5 1.6-.134 4.117a8.742 8.742 0 0 0-.85 2.044c-.576-5.422-1.7 1.849-2.465-3.921-.414 2.826-3.27 2.17-3.561 8.108-.034-.768-.229-1.137.123-1.186-.738-.67-1.47-1.333-2.107.349l-.352-4.27-1.534 5.771c-.995-2.589-1.414-4.1-.481-7.4-2.275 5.094-1.861 1.933-3.79 6.978l.067-2.763c-.7.112-1.794 3.831-2.241 1.556-1.632-5.226-7.814-.607-11.917-5.429.866 8.122-1.917-3.614-2.018 2.693-.252-1.919-.827-3-.19-4.682-2.046 1.926-3.136-3-4.511 2.338-.257-1.933.414-2.833.2-3.97-.168.419-.643 1.682-.866.537s.285-1.619.6-2.463c-2.113.356-2.264 6.287-2.364 11.855-1.1-2.617-1.627-2.24-2.364 1.423-.391-1.814-1.028-3.705.279-4.382-.743-.258-4.539-2.6-4.572 1.856-.24-1.123-1.034-.307-1.224.209-1.66-.244-1.805-.642-3.432-.2l.458.719c-.587 5.394-1.341 1.221-2.644 1.891l.028-.551c-3.041-3.838-1.28 1.877-4.287-2.505l.2 3.342c-.207 7.2-2.672-4.208-4.365-1.43l.637 1.9c-.917 2.477-2.722-9.748-3.672-10.634-.212-.621.313-1.012.6-1.472-2.515-4.215-.279 4.382-2.113 5.429-.363-2.358.38-6.015-.866-6.44-.632-1.9-3.521 7.731-5.254 3.224.391 1.821.777 3.628-.067 5.017-1.3.67-3.611-6.838-4.74-1.075a4.6 4.6 0 0 1-.252-1.423c-.989 1.493-3.231 2.512-3.806 5.631-1.04-11.541-6.176 5.722-6.26-4.94l-3.08.614.073-1.089c-1.979-.677-2.649 1.891-3.32 4.459-.464-.719-.14-1.717-.106-2.275-2.9-2.107-3.186-1.647-5.55 3.7l-.279-3.454c-.637 2.017-4.22-5.359-7-1.284a4.8 4.8 0 0 1 .291-1.556c-3.136 4.1-7.7-9.476-8.742 3.133l-2.068 3.133c2.722.942-.352 5.478.783 7.55-1.056.754-2.795-3.761-1.487-4.424l.212.628c.419-6.573-3.393-2.275-3.365-6.747-5.338.4-10.581-3.154-15.584-3.356l.626 5.094-1.744-.265c-.47-1.179-.66-3.984.592-3.789-.682-2.882-2.068 2.449-2.09 3.566-2.454-2.037.894-5.973.145-6.078l-1.012.391.235.593c-.8 2.1-.855 4.312-2.353 4.082-.956-1-.514-3.14-.889-3.328 0-.363-.129-.53-.576-.14l-2.2-.4.922 4.019c-.956 2-2.068-.181-1.012 4.368-1.559-7.02-8.228-2.4-9.161-4.57-1.336 2.952-2.683 2.924-4.354 2.6.425.83.715 5.359-.727 4.822.43-9.35-2.677-4.012-3.907-10.725 1.084 4.445-4.08 1.165-2.387 7.473-1.207-.74-.106-3.5-1.04-5.68-2.823 3.663-6.322-2.261-9.843-.984-.039 1.228.565 3.091-.173 4.933l-1.923-6.106c-.693.614-.576 7.089-1.889 2.847.19 1.033.475 2.582.011 2.986-6.981-5.875-14.1 5.108-21.235-6.022.973 2.365.341 2.61-.386 2.707.481.565.022 3.035.129 4.7l-2.985-4.57c-.505 4.613-3.166.35-3.434 4.767l.928-.809C0 23.085 3.032 29.407 2.915 36.092c1.33-5.938 3.745 8.715 5.942.2.514 1.354-.408 2.163-.129 3.705.553-2.868 1.246-3.482 2.549-2.212l-.14.7c3.622-.747 5.2 2.051 9.3 3.873l-.335-3.3c.878.426 1.073 1.458 1.492 2.282.956-5.024-2.465-.244-1.6-5.785 1.224 6.706 6.176.007 7.032 7.641 1.353.021-.43-3.824.917-3.8l.38 2.058.313-2.672c.889.426 1.358 3.007 1.409 4.759-.218-.2-.6.5-.833.656 1.168 2.414 3.22-.879 3.622-.091l-1.3-1.256c3.656-2 8.172.656 11.682-3.6l-.286-1.55c2.689-2.931 2.191 1.675 5.154.3l-.1.37c.576-1.563 1.364-2.358 2.186-2.191-.732 1.835 1.448 3.524.481 5.561 2.912-3.14 1.431-2.456 3.32-8.283l.475 2.582c.637-2.351.682-3.587 2.163-4.277-1.2 2.24.984 3.928-.352 6.887 3.175 5.61 4.578-5.785 6.093 2.47 1.364-7.187-2.744-3.942-1.951-5.484-.7-2.331 1.129-5.366 2.113-4.661 1 .14 1.789 9.134 4.3 8.959-.252-.028-.263.509-.514.481.956 1.814 1.817-2.5 3 .454.6-4.34 1.5.223 1.627-5.3l-2.294 1.312c1.291-1.465 2.454-7.948 4.628-4.843a12.317 12.317 0 0 1-1.207 3.412c.643 1.619 1.2-1.1 1.867.565-.134 5.533-2.789 1.249-4.147 5.484.7 2.324 2.61-4.047 1.962 1.954.939-7.627 2.482.921 4.125-4.919l-.078 3.314c.263-.523.8-2.093 1.3-2.017l-.85 4.305c1.336-3.684 2.683 3.161 3.98 1.151-2.761.14-.66-3.984-1.85-6.385 3.365-4.48 2.046 8.631 5.841 6.985-.509.481-1.956-1.954-1.163-3.5a7.809 7.809 0 0 1 2.161 3.656c2.515-.726-.425-3.4.632-5.45.9 4.019 1.224-1.661 2.32-2.973l.039 3.37c2.9 2.114.7-7.027 3.315-4.452l-1.048 4.683 1.342-1.228-.24 3.831c1.442-2.861 1.906-2.135 3.354-1.082-.358-2.365.134-6.112 1.409-6.238.889 1.989-.458 3.21 1.347 2.7-.391 2.114-.81 4.766-1.627 1.675-.073 1.1-.386 2.114-.458 3.2.961 2.282 2.359.488 3.018.447a1.2 1.2 0 0 1-.715-.775l2.577-4.7a4.916 4.916 0 0 1-.212 3.28c.531-.377.883-1.926 1.66-2.233-.173 2.742-.1 5.568-1.2 6.873l2.471-3.077c.179 1.186 1.314 3.252 1 4.263 1.4 1.584 3.343-5.359 5.2-3.266a2.658 2.658 0 0 1 .665-1.444c1.727.593 3.292 3.928 5.3.147l1.207 4.891c1.593-1.144-1.632-6.154 1.017-8.045 1.873-1.6.743 4.173 1.42 5.526.917-2.491 2.5-7.543 4.27-3.58-.565.935-1.017.216-1.554.586m19.725-2.47c-.374.712-1.118 2.9-1.414.921.4-3.866.749-2.024 1.414-.921m29.943-8.562c-.274 1.116-.721.572-1.23-.691.358-.286.771-.167 1.23.691m83.4-24.7a1.045 1.045 0 0 0-.039.16c-.866-1.3-.559-.782.039-.16m1.789 1.43a2.63 2.63 0 0 0 .073-1.409c-.112.858-.509.921-.967.691.134.879.374 1.486.894.719M66.233 12.884l.352.872c-.771.984-.559.1-.352-.872" class="cls-1" transform="translate(1.193 3.83)"/>
            <path id="패스_2428" d="M30.5 7.359a12.455 12.455 0 0 1-.184-1.828 2.509 2.509 0 0 0 .184 1.828" class="cls-1" transform="translate(138.712 33.065)"/>
            <path id="패스_2429" d="M19.89 7.017c-.022-.028-.039-.014-.061-.035a5.413 5.413 0 0 0-.056.607z" class="cls-1" transform="translate(90.749 41.738)"/>
            <path id="패스_2430" d="M41.843 7.423a4.294 4.294 0 0 1-.721-1.73c-.011.83.162 1.521.721 1.73" class="cls-1" transform="translate(188.73 34.033)"/>
            <path id="패스_2431" d="M48.711.951l-1.129.893c.548-.174.755.558 1.034 1.089-.034-.788-.257-1.926.1-1.982" class="cls-1" transform="translate(218.379 5.687)"/>
            <path id="패스_2432" d="M49.886 5.66c.162-.419.347-.049.509-.474l-.056-1.563a1.233 1.233 0 0 0-.453 2.037" class="cls-1" transform="translate(227.259 21.659)"/>
            <path id="패스_2433" d="M47.991 3.684C48.108 6.51 48.807 5.54 49.6 5c-.05.014-.1.035-.14 0 .2-3.963-.643-2.638-1.47-1.319" class="cls-1" transform="translate(220.256 14.125)"/>
            <path id="패스_2434" d="M48.312 3.468a.72.72 0 0 1 .732-.084c.084-1.591-.3-.328-.732.084" class="cls-1" transform="translate(221.729 15.562)"/>
            <path id="패스_2435" d="M47.124 4.446c.386.726.2-3.621.425-2.47.386-3.614-2.471 4.4-.425 2.47" class="cls-1" transform="translate(212.856 6.141)"/>
            <path id="패스_2436" d="M48.729 6.876l-.319-3.489-.419 2.819z" class="cls-1" transform="translate(220.255 20.249)"/>
            <path id="패스_2437" d="M47 4.018l1.28.949a1.767 1.767 0 0 1 .33-1.2c-.788-.1-1.649-.782-1.61.251" class="cls-1" transform="translate(215.684 20.637)"/>
            <path id="패스_2438" d="M47.283 4.005a.836.836 0 0 0 1.017-.593 1.6 1.6 0 0 0-1.017.593" class="cls-1" transform="translate(217.007 20.398)"/>
            <path id="패스_2439" d="M48.865 4.872l-.38-.726-.9-.244z" class="cls-1" transform="translate(218.391 23.329)"/>
            <path id="패스_2440" d="M45.7 3.466l-1.375 1.019c-.134 1.2.252 1.933.766 1.451.324-.844.833-1.312.609-2.47" class="cls-1" transform="translate(203.308 20.721)"/>
            <path id="패스_2441" d="M45.84 7.095a9.736 9.736 0 0 1-.64-2.645v4.333z" class="cls-1" transform="translate(207.46 26.603)"/>
            <path id="패스_2442" d="M45.4 4.983c-.123 1.2-1.979 3.482-.224 3.182.129-1.193 1.509-2.212.224-3.182" class="cls-1" transform="translate(203.87 29.789)"/>
            <path id="패스_2443" d="M40.847 10.382l.352-.063-.117-7.1z" class="cls-1" transform="translate(187.468 19.223)"/>
            <path id="패스_2444" d="M37.739 11.4c1.66 1.675.347-4.389 1.856-2.289.363-1.689-1.235-1.717-.85-3.175-.978 1.786-1.509.8-1.006 5.464" class="cls-1" transform="translate(172.321 35.486)"/>
            <path id="패스_2445" d="M37.761 6.869a8.328 8.328 0 0 0 .492-1.089 3.9 3.9 0 0 0-.492 1.089" class="cls-1" transform="translate(173.305 34.553)"/>
            <path id="패스_2446" d="M1.389 3.274L.321 1.808l.7 2.372z" class="cls-1" transform="translate(1.475 10.812)"/>
            <path id="패스_2447" d="M.889 6.652L.6 2.13 0 6.233c.235-.2.7-.6.889.419" class="cls-1" transform="translate(0 12.734)"/>
            <path id="패스_2448" d="M26.756 9.818l.073-1.089c-.179-1.179-.425-1.263-.922-1.437z" class="cls-1" transform="translate(118.896 43.591)"/>
            <path id="패스_2449" d="M23.695 10.624l.246.091-.5-4.089z" class="cls-1" transform="translate(107.592 39.61)"/>
            <path id="패스_2450" d="M21.37 9.907c.492.16 1.062-.761 1.554-.593-1.062.754-1.738-4.515-1.554.593" class="cls-1" transform="translate(97.939 45.735)"/>
        </g>
    </g>
</svg>
