<svg xmlns="http://www.w3.org/2000/svg" width="445.129" height="46.642" viewBox="0 0 445.129 46.642">
    <defs>
        <clipPath id="clip-path">
            <path id="사각형_1921" d="M0 0H445.129V46.642H0z" class="cls-1"/>
        </clipPath>
        <style>
            .cls-1{fill:#60e7a3}
        </style>
    </defs>
    <g id="line" transform="translate(2 11)">
        <g id="그룹_1471" clip-path="url(#clip-path)" transform="translate(-2 -11)">
            <path id="패스_2370" d="M57.108 3.537c.655.208.382-2.215.476-2.648-1.092.544-.437 3.279-.476 2.648" class="cls-1" transform="translate(387.225 4.253)"/>
            <path id="패스_2371" d="M56.794 3.133l.179-.989-1.56 2.434z" class="cls-1" transform="translate(376.784 10.256)"/>
            <path id="패스_2372" d="M54.29 3.676c1.022 4.117 3.666-.7 5.491.752l.32.937.757-3.325c-2.184.544-5 2.776-6.567 1.636" class="cls-1" transform="translate(369.148 9.758)"/>
            <path id="패스_2373" d="M53.7.788c.359 1.6-1.147 1.394 1.271.492a3.167 3.167 0 0 1-.242-.4A3.005 3.005 0 0 1 53.7.788" class="cls-1" transform="translate(364.186 3.77)"/>
            <path id="패스_2374" d="M53.864 1.319c1.069-.121-.718-1.342 0 0" class="cls-1" transform="translate(365.058 3.326)"/>
            <path id="패스_2375" d="M53.7 3.691l1.38-1.446c-.3-.948-1.56-1.151-1.108-1.845-1.427.8-1.115 1.741-.273 3.29" class="cls-1" transform="translate(360.298 1.919)"/>
            <path id="패스_2376" d="M52.916 2.237l.718-.613c-.133-.4-.328-.532-.718.613" class="cls-1" transform="translate(359.806 6.398)"/>
            <path id="패스_2377" d="M54.529 1.162l-1.521 1.3c.211.665.257 2 .7-.468-.109 1.22.172.046.819-.827" class="cls-1" transform="translate(360.431 5.559)"/>
            <path id="패스_2378" d="M53.317 1.338c.8.891 1.833 1.446.445 2.891 2.675-.6 2.238-3.493-.445-2.891" class="cls-1" transform="translate(362.532 6.008)"/>
            <path id="패스_2379" d="M54.236 3.462l1.076 1.2.888-1.391c-.445.688-2.051-1.1-1.965.191" class="cls-1" transform="translate(368.758 14.245)"/>
            <path id="패스_2380" d="M51.957.614a27.872 27.872 0 0 0 .64 3.458l1.014-1.018c-.538-.6-1.56-1.139-1.654-2.44" class="cls-1" transform="translate(353.246 2.938)"/>
            <path id="패스_2381" d="M53.367 1.212l-1.529 1.521c1.388.168 1.63-.555 1.529-1.521" class="cls-1" transform="translate(352.476 5.798)"/>
            <path id="패스_2382" d="M53.322 4.925l2.5-3.192-3 3.238z" class="cls-1" transform="translate(359.223 8.292)"/>
            <path id="패스_2383" d="M51.776 2.292l.85-2.041-1.521 3.088z" class="cls-1" transform="translate(347.492 1.201)"/>
            <path id="패스_2384" d="M53.325 3.886C53.949 2.2 52.381 1.047 53.06 0c-1.069.312-1.96 1.769-2.76 3.071.866-.729 1.8-.555 3.026.815" class="cls-1" transform="translate(342.011 .002)"/>
            <path id="패스_2385" d="M50.126 2.439A10.893 10.893 0 0 0 51.475.531a5.363 5.363 0 0 0-1.349 1.908" class="cls-1" transform="translate(340.835 2.541)"/>
            <path id="패스_2386" d="M52.6 3.47a4.118 4.118 0 0 0-1.264-2.5l.647 2.463c.187.017.406.023.616.035" class="cls-1" transform="translate(349.056 4.65)"/>
            <path id="패스_2387" d="M52.592 1.579l-.024-.079c-.663-.04-1.123-.1-1.318-.121.164.017.569.081 1.342.2" class="cls-1" transform="translate(348.478 6.587)"/>
            <path id="패스_2388" d="M51.653 1.413a.7.7 0 0 0-.156-.006c.062.237.1.318.156.006" class="cls-1" transform="translate(350.157 6.719)"/>
            <path id="패스_2389" d="M53.844 1.9c-.889 1.388-2.769 2.891-.889 4.979.624-1.7-.452-2.891.889-4.979" class="cls-1" transform="translate(354.588 9.112)"/>
            <path id="패스_2390" d="M51.621 3.379l1.661.549c-.039-.653-.359-1.6.086-2.29z" class="cls-1" transform="translate(351 7.835)"/>
            <path id="패스_2391" d="M51.519 2.9l.8-.792L51.7 1.9z" class="cls-1" transform="translate(350.305 9.105)"/>
            <path id="패스_2392" d="M52.54 1.261a2.964 2.964 0 0 1-2.348 1.359 6.284 6.284 0 0 0 2.855.717c.125-.775.507-2.174-.507-2.076" class="cls-1" transform="translate(341.284 6.009)"/>
            <path id="패스_2393" d="M51.081 1.369c-.047.058-.109.087-.156.145.1.208.179.272.156-.145" class="cls-1" transform="translate(346.268 6.549)"/>
            <path id="패스_2394" d="M49.079 1.5c.055.133.094.3.148.445l.023-.428z" class="cls-1" transform="translate(333.716 7.185)"/>
            <path id="패스_2395" d="M50.751 2.446c.718.468 1.139-.139 1.529-.908a4.272 4.272 0 0 1-1.693.445c-.055.353-.062.584.164.463" class="cls-1" transform="translate(343.751 7.357)"/>
            <path id="패스_2396" d="M49.818 1.214a9.1 9.1 0 0 0 1.256 1.347c-.374-.78-1.131-1.989-1.256-1.347" class="cls-1" transform="translate(338.741 4.94)"/>
            <path id="패스_2397" d="M50.961 1.618a.621.621 0 0 1 .109-.116c-.25-.526-.211-.266-.109.116" class="cls-1" transform="translate(345.982 5.768)"/>
            <path id="패스_2398" d="M51.689 1.277a6.188 6.188 0 0 0-.913 1.515 3.691 3.691 0 0 0 1.162-.833 4.813 4.813 0 0 1-.25-.682" class="cls-1" transform="translate(345.255 6.109)"/>
            <path id="패스_2399" d="M50.381 17.018c.086-2.29 1.919-4.424 3.572-1.983 1.56-1.735.4-9.252-1.053-13.456a3.711 3.711 0 0 1-1.63 3.29c.593 1.249 3.666 2.891 2.324 4.979-2.137 1.2-1.778-.792-2.855-1.995.944 2.845-2.683 4.175-2.145 8.367l1.872-1.492c.047.648-.616 1.694-.086 2.29" class="cls-1" transform="translate(330.051 7.553)"/>
            <path id="패스_2400" d="M52.19 4.4l.663-.289c-.764-.393-1.326-1.3-2.371-3.082A4.141 4.141 0 0 0 49.1 3.773l3.315.289z" class="cls-1" transform="translate(333.865 4.937)"/>
            <path id="패스_2401" d="M52.6 2.812c-.484 2.5-2.083 3.568-1.045 6.257 1.966-.191 1.342-2.093 2.5-3.186-3.167.648.889-1.394-1.435-2.787a4.337 4.337 0 0 1 1.716-.671A8.484 8.484 0 0 1 52.671 1.3l.078.156.016-.006v.04c.14.306.187.492.031.318a.1.1 0 0 1-.07.046 6.6 6.6 0 0 1-.126.946c-.928-.509-.156-.648.125-.948a2.774 2.774 0 0 0 .039-.364l-.016-.035-3.166 1.394c.686.341 1.529.26 3.018-.035" class="cls-1" transform="translate(337.136 6.205)"/>
            <path id="패스_2402" d="M52.287 4.173a1.512 1.512 0 0 1-.117-.578c-.195.306-.273.52.117.578" class="cls-1" transform="translate(353.641 17.195)"/>
            <path id="패스_2403" d="M53.332 8.42c.226-.353.406-1.347 1.154-1.1.671.74.023 1.2.07 2.012.445-.665 1.56-1.8.117-3l-.218.341c-1.295-.844-3-3.938-2.777-4.279a27.28 27.28 0 0 0 1.654 6.026" class="cls-1" transform="translate(351.262 11.456)"/>
            <path id="패스_2404" d="M53.209 2.608l-2.636 1.249L51.961 6l-.086-1.29c1.513.492 1.162-1.1 1.334-2.1" class="cls-1" transform="translate(343.874 12.475)"/>
            <path id="패스_2405" d="M50.051 3.469l.312-2.637-1.474 3.73z" class="cls-1" transform="translate(332.423 3.983)"/>
            <path id="패스_2406" d="M49.3 3.242l.086-2.29-.892 1.388z" class="cls-1" transform="translate(329.737 4.557)"/>
            <path id="패스_2407" d="M24.4 6.561l-.78.659a2.356 2.356 0 0 0 .78-.659" class="cls-1" transform="translate(160.599 31.38)"/>
            <path id="패스_2408" d="M24.557 7.512l.125-1.128c-.257.625-.359 1.081-.125 1.128" class="cls-1" transform="translate(166.08 30.533)"/>
            <path id="패스_2409" d="M39.778 4.665c-1.17-2.128-2.5-5.43-2.316-2.857l.39 2.5a1.438 1.438 0 0 1 1.926.353" class="cls-1" transform="translate(254.609 4.155)"/>
            <path id="패스_2410" d="M30.342 5.568c.117.243.226.5.343.758.265-.862.507-1.66.733-2.406-.328.52-.694 1.07-1.076 1.648" class="cls-1" transform="translate(206.312 18.749)"/>
            <path id="패스_2411" d="M31.587 7.326l-1.521-1.6a5.664 5.664 0 0 0 1.521 1.6" class="cls-1" transform="translate(204.436 27.377)"/>
            <path id="패스_2412" d="M20.528 7.069l-.866 2.562c1.42-.029.772-1.307.866-2.562" class="cls-1" transform="translate(133.693 33.809)"/>
            <path id="패스_2413" d="M46.221 2.8a4.8 4.8 0 0 0-2.465-1.5c1.2 1.428 2.184 3.585 2.465 1.492" class="cls-1" transform="translate(297.522 6.243)"/>
            <path id="패스_2414" d="M24.506 1.954a1.952 1.952 0 0 0-.64 1.532 1.59 1.59 0 0 0 .64-1.532" class="cls-1" transform="translate(162.27 9.347)"/>
            <path id="패스_2415" d="M43.393 2.209a6.246 6.246 0 0 0 .523.584 3.282 3.282 0 0 1 2.309-.619c-.889-1.064-1.9-1.717-2.831.035" class="cls-1" transform="translate(295.053 5.374)"/>
            <path id="패스_2416" d="M5.667 7.128a2.957 2.957 0 0 1-.257-.295c-.023.335.094.353.257.295" class="cls-1" transform="translate(36.763 32.681)"/>
            <path id="패스_2417" d="M1.212 2.814a4.146 4.146 0 0 1 1.334-.208c-.242-.168-.647-.15-1.334.208" class="cls-1" transform="translate(8.241 11.974)"/>
            <path id="패스_2418" d="M46.816 1.321c.733-.168.117-.278 0 0" class="cls-1" transform="translate(318.328 5.51)"/>
            <path id="패스_2419" d="M47.531 2.89a2.475 2.475 0 0 0-.273 1.22 3.094 3.094 0 0 1 .273-1.22" class="cls-1" transform="translate(321.334 13.823)"/>
            <path id="패스_2420" d="M42.546 4.027l-.062-.006c.226.486.187.393.062.006" class="cls-1" transform="translate(288.873 19.232)"/>
            <path id="패스_2421" d="M47.79 1.983a3.277 3.277 0 0 0-.952-.734 3.916 3.916 0 0 0 .952.734" class="cls-1" transform="translate(318.478 5.975)"/>
            <path id="패스_2422" d="M46.938 1.362c.257.11.452.173.647.237.078-.416 0-.682-.647-.237" class="cls-1" transform="translate(319.158 5.411)"/>
            <path id="패스_2423" d="M46.686 1.325a2.29 2.29 0 0 1 1.186.249c-.148-.168-.211-.306-.172-.393a9.555 9.555 0 0 1-1.014.145" class="cls-1" transform="translate(317.444 5.645)"/>
            <path id="패스_2424" d="M13.607 5.825a2.751 2.751 0 0 1-.164-.237c-.718 1.052-.4.879.164.237" class="cls-1" transform="translate(88.591 26.727)"/>
            <path id="패스_2425" d="M35.379 6.231c.031-.023.047-.093.078-.121l-.1-.087z" class="cls-1" transform="translate(240.405 28.807)"/>
            <path id="패스_2426" d="M35.027 14.1c1.069-3.134 1.708-2.752 2.566-2.1L36.6 4.774z" class="cls-1" transform="translate(238.168 22.834)"/>
            <path id="패스_2427" d="M169.729 35.721l1.88 2.238c-2.16 3.73-3.791 2.463-2.012 5.621.133-7.858 7.152-.867 7.285-8.714l1.24 1.636c-.351-.069-.4.393-.741.312 2.426 3.741 1.661-5.69 4.727-4.6 1.069.59 1.833 1.723 1.123 2.66l2.332-1.96c.686.145.546 1.509-.14 1.365l3.6-.659-.023.231a26.434 26.434 0 0 1 2.184-3.967c.936 1.122-.445.838-.195 1.816l1.965-1.92c.85 2.024-.772 4.013-2.16 3.736 2 7.824 1.622-1.989 5.725 2.556l-1.864 1.012c1.287 4.441 2.73 2.816 4.914 5.574-.53-1.446-4.391-6.962-2.254-8.94.624.59 1.435.867 2.574-.729.055 2.793 1.186 2.1 2.613 1.926l-.031 3.7c1.521-1.081 1.373-2.961 2.254-4.638 1.724.347 2.129 3.209 2.574 5.621 2.769.567-1.981-4.574 1.271-5.3 2.316 1.394 3.908-.133 6.606-2.371 1.63 1.261-.242 2.267.351 3.319l1.381-2.961c.351.064.25.971.2 1.428 1.178-1.151.031-3.7 1.9-4.719.445-4.077 3.962 5.921 6.224 1.272.593 1.047-.242 2.273-.039 3.7 3.143-3.065 2.706-2.226 5.265-6.338l2.277 2.406c-1.685-2.758.359-6.066 2.153-8.784-.6-1.336-1.123-2.5-1.466-3.059l2.909-2.012c.367.6.086 1.874-.367 3.423.195-.306.382-.613.523-.891 1.076 1.359.562 3.5-.156 5.569-.367-.723-.733-1.5-1.092-2.273a19.3 19.3 0 0 0-1.147 6.916 2.2 2.2 0 0 1 .952-1.012 3.307 3.307 0 0 0-.2 1.527c.109.387.406-.434.866-1.376l.741 4.111.133-1.636 3.884 2.544c2.683-4.175 4.976-10.3 9.3-12.045-1.03 3.03-.148 4.938-.148 8.523-1.256-3.782-3.354 1.642-5.631.891 1.193.387.959 2.1.671 2.695l3.978-3.481c-.047 2.926.889 2.186 1.965 3.389-.889-5.783 2.94-3.886 4.555-5.673.133 1.943-.226 3.926-2.238 3.481 2.285 4.337 2.745-6.829 4.976-3.146-.491.058-.757-.243-.936.746 1.115-1.741 3.931-.393 3.3 1.307l-.484.046c3.252.653 9.882-.046 10.288-4.973.039.636-.328 5.933-.515 6.927l5.522-16.6c-.437 4.227 1.685 14.271-.967 16.683.78.59 1.747 1.284 3.354-.22-.538-.6-1.412-6.095-.7-6.488 2.059 4.684 1.419 2.5 3.923 6.488-.811-.9-.039-7.529 1.217-7.332-.179.995.211 6.54-.234 7.234l3-6.528c-.764 1.18-.047 5.511.679 7.344-.343-1.272 2.691.093 3.5-.561L287.5 30.3c3.533.948 3.323-9.177 6.809-8.865-.4 1.347-.9 8.275.881 9.079.749-3.342 3.323-16.052 6.364-18.649l.624 1.9 2.332-2.192a139.759 139.759 0 0 1-7.542 19.73c1.341 1.5.406 2.244 2.371 2.053a2.129 2.129 0 0 1-1.607 2.828l4.6 1.11c-.273-3.892 3.44-3.932 3.206-7.17l-4.906 4.077c-.265-3.88 2.7-11.062 5.951-10.4.85 1.538-.507 6.922-.413 8.217.4-1.342 3.042-2.579 3.354-1.636l-1.349 2.093c1.833 1.446 2.862-5.181 5.1-1.492.749.243 2.316 4.985 2.41 2.689-1.295-4.429-1.755-18.146-1-21.482.265.295 4 4.2 4.9 6.384 1.287 3.47-1.724 8.31-.616 11.282a6.462 6.462 0 0 1 .959-2.8c.8.9-.273 3.29 1.435 2.8.218-3.944 3.479.3.749-3.342 1.654-1.139 1.794.792 3.752.607-.663-2.544 1.622-8.685 3.284-9.825a8.3 8.3 0 0 0 .507 2.9c3.432.33 5.3 2.1 8.5 2.1.312.954 1.872 2.093 1.24 3.793.452-.7.85-2.041 1.833-2.145 1.965 3.394-2.192.555-.663 4.632.086-2.29 2.5-3.18 3.876-4.626-.491-3.533-3.252-.648-4.641.8-.086-4.88 2.277-10.015 5.584-12.3 2.636-1.237 1.2 3.146 1.654 2.44 5 .81 4.11-8.558 8.307-5.071 1.693 3.094.179 6.182.577 8.425-2.145 1.2-3.354-1.943-4.812-1.8l1.825 1.451c-.671 1.041-2.1 1.833-2.9.943 1.419 2.781 8.439.463 12.331 3.007.663-1.052 1.825-2.14 1.248-3.383l-1.214.438c-1.162-2.492 2.238-3.487.679-4.638 1.6-1.781 3.385-4.568 5.709-3.169l.491 3.539c-.062-1.035-1.537-2.1-2.168-1.012.936-1.579 3.611 4.765 4.586.116l-1.653-2.44c1.607-1.8 3.572-5.58 5.631-4.481-.983-3.493-.46.4-1.981-3.678 1.342 5.089-5.218-.168-3.112 5.17-1.56-4.742-2.605-1.989-4.617-6.025.086 1.162.733 2.226-.991 1.665a6.131 6.131 0 0 1-.359 1.035.762.762 0 0 1-.117-.087l.094.139c-.07.173-.078.214.039.046a4.341 4.341 0 0 1 .9 1.769c-.8 2.695-3.525 2.631-4.422 4.03-1.022-.544.406-1.342-.172-2.585l-1.342 2.087c-.172-2.6-2.761-4.291-.4-5.835l-2.16-.093c-1.287-1.446-3.042-2.007-4.095-.908-1.022-.555-2.519 2.9-1.669.856l-3.354 1.642-.039-.653c-3.338-.295-6.786 4.366-10.67-.289-1.108.665-2.254 1.48-4.142.758l-.406-2.244c-1.427.8-4.36-2.209-4.937.139-1.654-6.031-7.012-1.255-9.562-2.307l-.047 2.938c-1.747-.15-3.4.694-5.546 1.891l.172 2.591c-1.833 2.151-4.82-1.8-7.768-1.509.187-.989.936-.74 1.474-.145-3.619-5.823-7.371 4.325-10.631.087-.788.954-1.365.636-1.934-.006a.284.284 0 0 0 .2-.139.827.827 0 0 0-.328-.029c-.359-.445-.733-.96-1.131-1.37a5.468 5.468 0 0 0 .952 1.382 5.368 5.368 0 0 0-2.441 1.047L290.7 5.4c-.078.035-.14.029-.211.081-.913-1.024-.7 1.324-.187 3.412a6.2 6.2 0 0 0-1.186 1.694c-.8-4.493-2.371 1.532-3.44-3.25-.577 2.342-4.563 1.8-4.968 6.719-.047-.636-.32-.943.172-.983-1.03-.555-2.051-1.1-2.94.289l-.491-3.539-2.149 4.786c-1.388-2.145-1.973-3.394-.671-6.13-3.174 4.221-2.6 1.6-5.288 5.783l.094-2.29c-.983.093-2.5 3.175-3.128 1.29-2.277-4.331-10.9-.5-16.629-4.5 1.209 6.731-2.675-3-2.816 2.232-.351-1.59-1.154-2.486-.265-3.88-2.855 1.6-4.376-2.486-6.294 1.937-.359-1.6.577-2.348.273-3.29-.234.347-.9 1.394-1.209.445s.4-1.342.842-2.041c-2.948.295-3.159 5.21-3.3 9.825-1.529-2.168-2.27-1.856-3.3 1.18-.546-1.5-1.435-3.071.39-3.631-1.037-.214-6.333-2.157-6.38 1.538-.335-.931-1.443-.254-1.708.173-2.316-.2-2.519-.532-4.789-.162l.64.6c-.819 4.47-1.872 1.012-3.689 1.567l.039-.457c-4.243-3.18-1.786 1.556-5.982-2.076l.273 2.77c-.289 5.968-3.728-3.487-6.091-1.185l.889 1.579c-1.279 2.053-3.8-8.078-5.124-8.813-.3-.515.437-.838.835-1.22-3.51-3.493-.39 3.631-2.948 4.5-.507-1.955.53-4.985-1.209-5.337-.881-1.573-4.914 6.407-7.332 2.672.546 1.509 1.084 3.007-.094 4.158-1.817.555-5.039-5.667-6.614-.891a2.471 2.471 0 0 1-.351-1.18c-1.381 1.237-4.508 2.082-5.312 4.667-1.451-9.564-8.619 4.742-8.736-4.094l-4.3.509.1-.9c-2.761-.561-3.7 1.567-4.633 3.7-.647-.6-.195-1.423-.148-1.885-4.048-1.746-4.446-1.365-7.745 3.065l-.39-2.862c-.889 1.671-5.889-4.441-9.773-1.064a2.6 2.6 0 0 1 .406-1.29c-4.376 3.4-10.74-7.853-12.2 2.6l-2.886 2.6c3.8.781-.491 4.539 1.092 6.257-1.474.625-3.9-3.117-2.075-3.666l.3.52c.585-5.447-4.734-1.885-4.7-5.592-7.449.335-14.765-2.614-21.745-2.781l.874 4.221-2.433-.22c-.655-.977-.92-3.3.827-3.14-.952-2.388-2.886 2.03-2.917 2.955-3.424-1.689 1.248-4.95.2-5.037l-1.412.324.328.492c-1.115 1.741-1.193 3.574-3.284 3.383-1.334-.833-.718-2.6-1.24-2.758 0-.3-.179-.439-.8-.116L88.7 9.306l1.287 3.331c-1.334 1.654-2.886-.15-1.412 3.62-2.175-5.817-11.482-1.989-12.784-3.787-1.864 2.446-3.744 2.423-6.076 2.151.593.688 1 4.441-1.014 4 .6-7.749-3.736-3.325-5.452-8.888 1.513 3.683-5.694.966-3.33 6.193-1.685-.613-.148-2.9-1.451-4.707-3.939 3.036-8.821-1.874-13.735-.815-.055 1.018.788 2.562-.242 4.088l-2.683-5.06c-.967.509-.8 5.875-2.636 2.359.265.856.663 2.14.016 2.475-9.742-4.869-19.671 4.233-29.631-4.99 1.357 1.96.476 2.163-.538 2.244.671.468.031 2.515.179 3.892L5.033 11.62c-.686 3.828-4.4.295-4.773 3.955l1.295-.675c-1.662 4.341 2.574 9.58 2.41 15.12 1.856-4.921 5.226 7.222 8.291.168.718 1.122-.569 1.793-.179 3.071.772-2.377 1.739-2.885 3.557-1.833l-.195.584c5.054-.619 7.261 1.7 12.978 3.209l-.468-2.735c1.225.353 1.5 1.209 2.082 1.891 1.334-4.163-3.44-.2-2.231-4.794 1.708 5.557 8.619.006 9.812 6.332 1.887.017-.6-3.169 1.279-3.146l.53 1.706.437-2.215c1.24.353 1.9 2.492 1.965 3.944-.3-.168-.842.416-1.162.544 1.63 2 4.493-.729 5.054-.075L43.9 35.629c5.1-1.654 11.4.544 16.3-2.984l-.4-1.29c3.752-2.429 3.057 1.388 7.191.249l-.14.306a3.225 3.225 0 0 1 3.05-1.816c-1.022 1.521 2.02 2.92.671 4.609 4.064-2.6 2-2.035 4.633-6.864l.663 2.14c.889-1.949.952-2.972 3.018-3.545-1.677 1.856 1.373 3.256-.491 5.707 4.43 4.649 6.388-4.794 8.5 2.047 1.9-5.956-3.83-3.267-2.722-4.545-.975-1.931 1.576-4.447 2.948-3.863 1.4.116 2.5 7.569 6 7.425-.351-.023-.367.422-.718.4 1.334 1.5 2.535-2.07 4.181.376.842-3.6 2.09.185 2.27-4.395l-3.19 1.087c1.8-1.214 3.424-6.586 6.458-4.013a8.063 8.063 0 0 1-1.685 2.828c.9 1.342 1.669-.908 2.605.468-.187 4.586-3.892 1.035-5.787 4.545.975 1.926 3.642-3.354 2.738 1.619 1.31-6.32 3.463.763 5.756-4.077l-.109 2.747c.367-.434 1.123-1.735 1.81-1.671l-1.186 3.568c1.864-3.053 3.744 2.619 5.553.954-3.853.116-.92-3.3-2.582-5.291 4.7-3.712 2.855 7.153 8.151 5.788-.71.4-2.73-1.619-1.622-2.9a7.04 7.04 0 0 1 3.026 3.03c3.51-.6-.593-2.816.881-4.516 1.256 3.331 1.708-1.376 3.237-2.463l.055 2.793c4.048 1.752.975-5.823 4.625-3.689l-1.466 3.88 1.872-1.018-.335 3.175c2.012-2.371 2.66-1.769 4.68-.9-.5-1.96.187-5.066 1.965-5.17 1.24 1.648-.64 2.66 1.88 2.238-.546 1.752-1.131 3.949-2.27 1.388-.1.908-.538 1.752-.64 2.654 1.342 1.891 3.291.4 4.212.37a1.488 1.488 0 0 1-1-.642l3.6-3.9a2.577 2.577 0 0 1-.3 2.718c.741-.312 1.232-1.6 2.316-1.85-.242 2.273-.14 4.614-1.669 5.7l3.447-2.55c.25.983 1.833 2.695 1.4 3.533 1.95 1.313 4.664-4.441 7.254-2.706a2 2 0 0 1 .928-1.2c2.41.492 4.594 3.256 7.394.121l1.685 4.054c2.223-.948-2.277-5.1 1.42-6.667 2.613-1.324 1.037 3.458 1.981 4.58 1.279-2.064 3.486-6.251 5.959-2.966-.788.775-1.42.179-2.168.486m27.525-2.047c-.523.59-1.56 2.406-1.973.763.554-3.2 1.045-1.677 1.973-.763m41.782-7.1c-.382.925-1.006.474-1.716-.572.5-.237 1.076-.139 1.716.572m116.37-20.47a.594.594 0 0 0-.055.133c-1.209-1.076-.78-.648.055-.133m2.5 1.185a1.347 1.347 0 0 0 .1-1.168c-.156.711-.71.763-1.349.572.187.729.523 1.232 1.248.6M92.318 10.787l.491.723c-1.076.815-.78.087-.491-.723" class="cls-1" transform="translate(1.768 3.064)"/>
            <path id="패스_2428" d="M30.608 7.046a6.317 6.317 0 0 1-.257-1.515 1.342 1.342 0 0 0 .257 1.515" class="cls-1" transform="translate(205.508 26.454)"/>
            <path id="패스_2429" d="M19.937 7.011c-.031-.023-.055-.012-.086-.029a2.729 2.729 0 0 0-.078.5z" class="cls-1" transform="translate(134.448 33.393)"/>
            <path id="패스_2430" d="M42.129 7.127a3.057 3.057 0 0 1-1.006-1.434 1.258 1.258 0 0 0 1.006 1.434" class="cls-1" transform="translate(279.611 27.229)"/>
            <path id="패스_2431" d="M49.158.951l-1.576.74c.764-.145 1.053.463 1.443.9-.047-.653-.359-1.6.133-1.642" class="cls-1" transform="translate(323.537 4.55)"/>
            <path id="패스_2432" d="M50.032 5.312c.226-.347.484-.04.71-.393l-.078-1.3c-.991.1-1.661 1.145-.632 1.689" class="cls-1" transform="translate(336.694 17.329)"/>
            <path id="패스_2433" d="M47.991 3.458C48.155 5.8 49.13 5 50.237 4.551a.32.32 0 0 1-.195 0c.273-3.284-.9-2.186-2.051-1.093" class="cls-1" transform="translate(326.318 11.301)"/>
            <path id="패스_2434" d="M48.312 3.32a1.6 1.6 0 0 1 1.022-.069c.117-1.318-.413-.272-1.022.069" class="cls-1" transform="translate(328.501 12.451)"/>
            <path id="패스_2435" d="M47.419 3.861c.538.6.281-3 .593-2.047.538-3-3.447 3.643-.593 2.047" class="cls-1" transform="translate(315.355 4.913)"/>
            <path id="패스_2436" d="M49.02 6.278l-.445-2.891-.585 2.336z" class="cls-1" transform="translate(326.316 16.2)"/>
            <path id="패스_2437" d="M47 3.921l1.786.786a1.1 1.1 0 0 1 .46-.995c-1.1-.087-2.3-.648-2.246.208" class="cls-1" transform="translate(319.544 16.511)"/>
            <path id="패스_2438" d="M47.283 3.9a1.4 1.4 0 0 0 1.42-.492 2.867 2.867 0 0 0-1.42.492" class="cls-1" transform="translate(321.504 16.32)"/>
            <path id="패스_2439" d="M49.371 4.706l-.53-.6-1.256-.2z" class="cls-1" transform="translate(323.555 18.665)"/>
            <path id="패스_2440" d="M46.254 3.466l-1.919.844c-.187.995.351 1.6 1.069 1.2.452-.7 1.162-1.087.85-2.047" class="cls-1" transform="translate(301.208 16.578)"/>
            <path id="패스_2441" d="M46.092 6.642A5.6 5.6 0 0 1 45.2 4.45v3.591z" class="cls-1" transform="translate(307.361 21.284)"/>
            <path id="패스_2442" d="M45.78 4.983c-.172.995-2.761 2.885-.312 2.637.179-.989 2.106-1.833.312-2.637" class="cls-1" transform="translate(302.041 23.833)"/>
            <path id="패스_2443" d="M40.847 9.154l.491-.052-.164-5.887z" class="cls-1" transform="translate(277.741 15.38)"/>
            <path id="패스_2444" d="M37.816 10.464c2.316 1.388.484-3.637 2.589-1.9.507-1.4-1.724-1.423-1.186-2.631-1.365 1.48-2.106.659-1.4 4.528" class="cls-1" transform="translate(255.3 28.391)"/>
            <path id="패스_2445" d="M37.761 6.682a6.181 6.181 0 0 0 .686-.9 2.86 2.86 0 0 0-.686.9" class="cls-1" transform="translate(256.758 27.645)"/>
            <path id="패스_2446" d="M1.811 3.023L.321 1.808 1.3 3.774z" class="cls-1" transform="translate(2.185 8.65)"/>
            <path id="패스_2447" d="M1.24 5.877L.835 2.13 0 5.53c.328-.168.975-.5 1.24.347" class="cls-1" transform="translate(0 10.188)"/>
            <path id="패스_2448" d="M27.092 9.385l.1-.9c-.25-.977-.593-1.047-1.287-1.191z" class="cls-1" transform="translate(176.15 34.876)"/>
            <path id="패스_2449" d="M23.794 9.939l.343.075-.694-3.389z" class="cls-1" transform="translate(159.402 31.691)"/>
            <path id="패스_2450" d="M21.382 9.521c.686.133 1.482-.63 2.168-.492-1.482.625-2.426-3.741-2.168.492" class="cls-1" transform="translate(145.1 36.591)"/>
        </g>
    </g>
</svg>
