<svg xmlns="http://www.w3.org/2000/svg" id="line" width="260" height="34.217" viewBox="0 0 260 34.217">
    <defs>
        <clipPath id="clip-path">
            <path id="사각형_1921" d="M0 0H260V34.217H0z" class="cls-1"/>
        </clipPath>
        <style>
            .cls-1{fill:#60e7a3}
        </style>
    </defs>
    <g id="그룹_1471" clip-path="url(#clip-path)">
        <path id="패스_2370" d="M57.042 2.832c.383.153.223-1.625.278-1.943-.638.4-.255 2.405-.278 1.943" class="cls-1" transform="translate(202.494 2.883)"/>
        <path id="패스_2371" d="M56.219 2.87l.1-.725-.906 1.785z" class="cls-1" transform="translate(197.034 6.953)"/>
        <path id="패스_2372" d="M54.29 3.241c.6 3.02 2.141-.513 3.207.551l.187.687.442-2.439c-1.276.4-2.92 2.036-3.836 1.2" class="cls-1" transform="translate(193.041 6.615)"/>
        <path id="패스_2373" d="M53.641.788c.21 1.175-.67 1.022.743.361a2.51 2.51 0 0 1-.141-.3 1.41 1.41 0 0 1-.6-.064" class="cls-1" transform="translate(190.446 2.556)"/>
        <path id="패스_2374" d="M53.791 1.153c.624-.089-.419-.984 0 0" class="cls-1" transform="translate(190.902 2.255)"/>
        <path id="패스_2375" d="M53.406 2.815l.806-1.061C54.034 1.059 53.3.91 53.565.4c-.834.585-.651 1.277-.159 2.414" class="cls-1" transform="translate(188.412 1.301)"/>
        <path id="패스_2376" d="M52.916 2l.419-.45c-.077-.293-.191-.39-.419.45" class="cls-1" transform="translate(188.155 4.337)"/>
        <path id="패스_2377" d="M53.9 1.162l-.888.95c.123.488.15 1.468.41-.344-.064.9.1.034.478-.607" class="cls-1" transform="translate(188.482 3.769)"/>
        <path id="패스_2378" d="M53.317 1.316c.469.653 1.071 1.061.26 2.121 1.562-.437 1.307-2.562-.26-2.121" class="cls-1" transform="translate(189.581 4.073)"/>
        <path id="패스_2379" d="M54.234 3.333l.629.878.519-1.018c-.26.5-1.2-.81-1.148.14" class="cls-1" transform="translate(192.836 9.657)"/>
        <path id="패스_2380" d="M51.955.614a25.213 25.213 0 0 0 .374 2.537l.591-.751a2.956 2.956 0 0 1-.966-1.79" class="cls-1" transform="translate(184.725 1.992)"/>
        <path id="패스_2381" d="M52.731 1.212l-.893 1.116c.811.123.952-.407.893-1.116" class="cls-1" transform="translate(184.322 3.931)"/>
        <path id="패스_2382" d="M53.117 4.075l1.463-2.342-1.75 2.376z" class="cls-1" transform="translate(187.85 5.621)"/>
        <path id="패스_2383" d="M51.5 1.748l.5-1.5-.888 2.265z" class="cls-1" transform="translate(181.716 .814)"/>
        <path id="패스_2384" d="M52.067 2.851c.364-1.239-.552-2.083-.155-2.851-.624.229-1.143 1.3-1.613 2.253.506-.535 1.052-.407 1.768.6" class="cls-1" transform="translate(178.85 .001)"/>
        <path id="패스_2385" d="M50.126 1.931a8.234 8.234 0 0 0 .788-1.4 4.03 4.03 0 0 0-.788 1.4" class="cls-1" transform="translate(178.234 1.723)"/>
        <path id="패스_2386" d="M52.073 2.8a3.367 3.367 0 0 0-.738-1.828l.378 1.807c.109.013.237.017.36.025" class="cls-1" transform="translate(182.533 3.153)"/>
        <path id="패스_2387" d="M52.034 1.525l-.014-.059c-.387-.03-.656-.072-.77-.089.1.013.333.059.784.148" class="cls-1" transform="translate(182.231 4.466)"/>
        <path id="패스_2388" d="M51.588 1.411a.329.329 0 0 0-.091 0c.036.174.059.233.091 0" class="cls-1" transform="translate(183.109 4.555)"/>
        <path id="패스_2389" d="M53.139 1.9c-.519 1.018-1.617 2.121-.519 3.652.364-1.247-.264-2.121.519-3.652" class="cls-1" transform="translate(185.427 6.177)"/>
        <path id="패스_2390" d="M51.621 2.915l.97.4a3.4 3.4 0 0 1 .05-1.68z" class="cls-1" transform="translate(183.55 5.312)"/>
        <path id="패스_2391" d="M51.519 2.633l.465-.581-.36-.148z" class="cls-1" transform="translate(183.187 6.173)"/>
        <path id="패스_2392" d="M51.563 1.26a1.692 1.692 0 0 1-1.371 1 3.09 3.09 0 0 0 1.667.526c.073-.568.3-1.6-.3-1.523" class="cls-1" transform="translate(178.469 4.074)"/>
        <path id="패스_2393" d="M51.016 1.369c-.027.042-.064.064-.091.106.059.153.1.2.091-.106" class="cls-1" transform="translate(181.075 4.44)"/>
        <path id="패스_2394" d="M49.079 1.5c.032.1.055.221.087.327l.014-.314z" class="cls-1" transform="translate(174.512 4.871)"/>
        <path id="패스_2395" d="M50.669 2.2c.419.344.665-.1.893-.666a2.109 2.109 0 0 1-.989.327c-.032.259-.036.428.1.339" class="cls-1" transform="translate(179.759 4.988)"/>
        <path id="패스_2396" d="M49.818 1.166a6.336 6.336 0 0 0 .733.988c-.219-.573-.661-1.459-.733-.988" class="cls-1" transform="translate(177.139 3.349)"/>
        <path id="패스_2397" d="M50.929 1.508a.43.43 0 0 1 .064-.085c-.146-.386-.123-.2-.064.085" class="cls-1" transform="translate(180.926 3.91)"/>
        <path id="패스_2398" d="M51.309 1.277a4.876 4.876 0 0 0-.533 1.111 2.245 2.245 0 0 0 .679-.611 4.147 4.147 0 0 1-.146-.5" class="cls-1" transform="translate(180.546 4.141)"/>
        <path id="패스_2399" d="M49.615 12.905c.05-1.68 1.121-3.245 2.087-1.455.911-1.273.232-6.787-.615-9.871a3.042 3.042 0 0 1-.952 2.414c.346.916 2.141 2.121 1.358 3.652-1.248.878-1.039-.581-1.667-1.464.551 2.087-1.567 3.063-1.253 6.138l1.093-1.094c.027.475-.36 1.243-.05 1.68" class="cls-1" transform="translate(172.595 5.12)"/>
        <path id="패스_2400" d="M50.905 3.505l.387-.212c-.446-.288-.774-.954-1.385-2.261a3.4 3.4 0 0 0-.807 2.011l1.936.212z" class="cls-1" transform="translate(174.59 3.347)"/>
        <path id="패스_2401" d="M51.345 2.408c-.282 1.833-1.216 2.617-.61 4.59 1.148-.14.784-1.536 1.462-2.337-1.85.475.519-1.022-.838-2.045a2.254 2.254 0 0 1 1-.492 5.063 5.063 0 0 1-.975-.827l.046.115h.009v.03c.082.225.109.361.018.233a.062.062 0 0 1-.041.034 6.018 6.018 0 0 1-.073.7c-.542-.373-.091-.475.073-.7a2.54 2.54 0 0 0 .023-.267l-.009-.025-1.85 1.022c.4.25.893.191 1.763-.025" class="cls-1" transform="translate(176.3 4.206)"/>
        <path id="패스_2402" d="M52.172 4.019a1.36 1.36 0 0 1-.068-.424c-.114.225-.159.382.068.424" class="cls-1" transform="translate(184.931 11.657)"/>
        <path id="패스_2403" d="M52.637 6.815c.132-.259.237-.988.674-.806.392.543.014.878.041 1.476.26-.488.911-1.319.068-2.2l-.128.25a6.715 6.715 0 0 1-1.622-3.139 24.15 24.15 0 0 0 .966 4.42" class="cls-1" transform="translate(183.687 7.766)"/>
        <path id="패스_2404" d="M52.113 2.608l-1.54.916.811 1.57-.05-.946c.884.361.679-.806.779-1.54" class="cls-1" transform="translate(179.824 8.457)"/>
        <path id="패스_2405" d="M49.568 2.767L49.75.832l-.861 2.736z" class="cls-1" transform="translate(173.835 2.7)"/>
        <path id="패스_2406" d="M48.963 2.632l.05-1.68-.519 1.018z" class="cls-1" transform="translate(172.431 3.089)"/>
        <path id="패스_2407" d="M24.075 6.561l-.456.484a1.521 1.521 0 0 0 .456-.484" class="cls-1" transform="translate(83.983 21.273)"/>
        <path id="패스_2408" d="M24.5 7.211l.073-.827c-.15.458-.21.793-.073.827" class="cls-1" transform="translate(86.849 20.699)"/>
        <path id="패스_2409" d="M38.808 3.653c-.683-1.561-1.458-3.983-1.353-2.1l.228 1.837c.46-.335.82-.136 1.125.259" class="cls-1" transform="translate(133.144 2.817)"/>
        <path id="패스_2410" d="M30.342 5.129c.068.178.132.369.2.556.155-.632.3-1.217.428-1.765-.191.382-.405.785-.629 1.209" class="cls-1" transform="translate(107.888 12.71)"/>
        <path id="패스_2411" d="M30.954 6.9l-.888-1.175a3.927 3.927 0 0 0 .888 1.175" class="cls-1" transform="translate(106.907 18.559)"/>
        <path id="패스_2412" d="M20.168 7.069l-.506 1.879c.829-.021.451-.959.506-1.879" class="cls-1" transform="translate(69.913 22.92)"/>
        <path id="패스_2413" d="M45.2 2.4a2.746 2.746 0 0 0-1.444-1.1c.7 1.048 1.276 2.63 1.44 1.094" class="cls-1" transform="translate(155.585 4.232)"/>
        <path id="패스_2414" d="M24.239 1.954a1.633 1.633 0 0 0-.374 1.124 1.32 1.32 0 0 0 .374-1.124" class="cls-1" transform="translate(84.857 6.336)"/>
        <path id="패스_2415" d="M43.393 1.92a4.406 4.406 0 0 0 .305.428 1.64 1.64 0 0 1 1.349-.454c-.519-.781-1.112-1.26-1.654.025" class="cls-1" transform="translate(154.294 3.643)"/>
        <path id="패스_2416" d="M5.559 7.049a2.1 2.1 0 0 1-.15-.216c-.014.246.055.259.15.216" class="cls-1" transform="translate(19.224 22.154)"/>
        <path id="패스_2417" d="M1.212 2.731a1.977 1.977 0 0 1 .779-.153c-.141-.123-.378-.11-.779.153" class="cls-1" transform="translate(4.31 8.117)"/>
        <path id="패스_2418" d="M46.816 1.276c.428-.123.068-.2 0 0" class="cls-1" transform="translate(166.465 3.735)"/>
        <path id="패스_2419" d="M47.417 2.89a2.2 2.2 0 0 0-.159.9 2.758 2.758 0 0 1 .159-.9" class="cls-1" transform="translate(168.037 9.371)"/>
        <path id="패스_2420" d="M42.52 4.025h-.036c.132.356.109.288.036 0" class="cls-1" transform="translate(151.062 13.038)"/>
        <path id="패스_2421" d="M47.394 1.788a2.042 2.042 0 0 0-.556-.539 2.459 2.459 0 0 0 .556.539" class="cls-1" transform="translate(166.543 4.051)"/>
        <path id="패스_2422" d="M46.938 1.3a3.679 3.679 0 0 0 .378.174c.046-.305 0-.5-.378-.174" class="cls-1" transform="translate(166.899 3.668)"/>
        <path id="패스_2423" d="M46.686 1.286a1.114 1.114 0 0 1 .692.182c-.087-.123-.123-.225-.1-.288a4.527 4.527 0 0 1-.592.106" class="cls-1" transform="translate(166.003 3.827)"/>
        <path id="패스_2424" d="M13.367 5.762c-.027-.059-.064-.093-.1-.174-.419.772-.232.645.1.174" class="cls-1" transform="translate(46.327 18.118)"/>
        <path id="패스_2425" d="M35.37 6.176c.018-.017.027-.068.046-.089l-.059-.064z" class="cls-1" transform="translate(125.716 19.528)"/>
        <path id="패스_2426" d="M35.027 11.616c.624-2.3 1-2.019 1.5-1.54l-.579-5.3z" class="cls-1" transform="translate(124.547 15.479)"/>
        <path id="패스_2427" d="M99.247 26.376l1.1 1.642c-1.262 2.736-2.214 1.807-1.175 4.123.077-5.765 4.178-.636 4.255-6.393l.724 1.2c-.205-.051-.232.288-.433.229 1.417 2.745.97-4.174 2.761-3.372a1.524 1.524 0 0 1 .656 1.951l1.362-1.438c.4.106.319 1.107-.082 1l2.1-.484-.014.17a21.284 21.284 0 0 1 1.276-2.91c.547.823-.26.615-.114 1.332l1.148-1.408c.5 1.485-.451 2.944-1.262 2.74 1.166 5.74.948-1.459 3.344 1.875l-1.089.742c.752 3.258 1.595 2.066 2.87 4.089-.31-1.061-2.565-5.107-1.317-6.558.364.433.838.636 1.5-.535.032 2.049.692 1.54 1.526 1.413l-.018 2.715c.888-.793.8-2.172 1.317-3.4 1.007.255 1.244 2.354 1.5 4.123 1.617.416-1.157-3.355.743-3.89 1.353 1.022 2.282-.1 3.859-1.739.952.925-.141 1.663.2 2.435l.806-2.172c.205.047.146.713.118 1.048.688-.844.018-2.711 1.112-3.462.26-2.991 2.314 4.344 3.635.933.346.768-.141 1.667-.023 2.715a14.7 14.7 0 0 0 3.075-4.649l1.33 1.765c-.984-2.023.21-4.45 1.257-6.444-.351-.98-.656-1.837-.856-2.244l1.7-1.476a4.916 4.916 0 0 1-.214 2.511c.114-.225.223-.45.305-.653.629 1 .328 2.566-.091 4.085-.214-.53-.428-1.1-.638-1.667a17.475 17.475 0 0 0-.67 5.074 1.522 1.522 0 0 1 .556-.742 3.008 3.008 0 0 0-.118 1.12c.064.284.237-.318.506-1.01l.433 3.016.077-1.2 2.269 1.867c1.567-3.063 2.907-7.559 5.435-8.836-.6 2.223-.087 3.623-.087 6.253-.733-2.774-1.959 1.2-3.289.653.7.284.56 1.54.392 1.977l2.323-2.554c-.027 2.146.519 1.6 1.148 2.486-.519-4.242 1.718-2.851 2.661-4.161.077 1.425-.132 2.88-1.307 2.554 1.335 3.182 1.6-5.01 2.907-2.308-.287.042-.442-.178-.547.547.651-1.277 2.3-.288 1.927.959l-.282.034c1.9.479 5.772-.034 6.009-3.648.023.467-.191 4.352-.3 5.082l3.234-12.181c-.255 3.1.984 10.469-.565 12.238.456.433 1.02.942 1.959-.161-.314-.441-.825-4.471-.41-4.76 1.2 3.436.829 1.837 2.292 4.76-.474-.658-.023-5.523.711-5.379-.1.73.123 4.8-.137 5.307l1.754-4.789c-.446.865-.027 4.043.4 5.387-.2-.933 1.572.068 2.046-.411l-.784-1.094c2.064.7 1.941-6.732 3.977-6.5-.232.988-.528 6.07.515 6.66.437-2.452 1.941-11.776 3.717-13.681l.364 1.4 1.362-1.608a119.783 119.783 0 0 1-4.405 14.474c.784 1.1.237 1.646 1.385 1.506a1.6 1.6 0 0 1-.938 2.074l2.688.814c-.159-2.855 2.009-2.885 1.872-5.26l-2.866 2.991c-.155-2.846 1.576-8.115 3.476-7.632.5 1.128-.3 5.078-.241 6.028.232-.984 1.777-1.892 1.959-1.2L180.116 24c1.071 1.061 1.672-3.8 2.979-1.094.437.178 1.353 3.657 1.408 1.973a71.1 71.1 0 0 1-.583-15.759 23.938 23.938 0 0 1 2.861 4.683c.752 2.545-1.007 6.1-.36 8.276a5.57 5.57 0 0 1 .56-2.053c.469.662-.159 2.414.838 2.053.128-2.893 2.032.221.437-2.452.966-.836 1.048.581 2.191.445-.387-1.867.948-6.372 1.918-7.207a7.493 7.493 0 0 0 .3 2.125c2 .242 3.1 1.54 4.966 1.544.182.7 1.093 1.536.724 2.783.264-.513.5-1.5 1.071-1.574 1.148 2.49-1.28.407-.387 3.4.05-1.68 1.458-2.333 2.264-3.394-.287-2.592-1.9-.475-2.711.585-.05-3.58 1.33-7.347 3.262-9.023 1.54-.908.7 2.308.966 1.79 2.92.594 2.4-6.278 4.852-3.72.989 2.27.1 4.535.337 6.181-1.253.878-1.959-1.425-2.811-1.324l1.066 1.065c-.392.764-1.225 1.345-1.695.691.829 2.04 4.929.339 7.2 2.206.387-.772 1.066-1.57.729-2.482l-.711.322c-.679-1.828 1.307-2.558.4-3.4.934-1.307 1.977-3.351 3.335-2.325l.287 2.6c-.036-.759-.9-1.54-1.266-.742.547-1.158 2.109 3.5 2.679.085l-.966-1.79c.938-1.319 2.087-4.094 3.289-3.288-.574-2.562-.269.3-1.157-2.7.784 3.733-3.048-.123-1.818 3.792-.911-3.479-1.522-1.459-2.7-4.42.05.853.428 1.633-.579 1.222a5.313 5.313 0 0 1-.21.759.47.47 0 0 1-.068-.064l.055.1c-.041.127-.046.157.023.034a3.547 3.547 0 0 1 .524 1.3c-.469 1.977-2.059 1.93-2.583 2.957-.6-.4.237-.984-.1-1.9l-.784 1.531c-.1-1.9-1.613-3.148-.232-4.28l-1.262-.068c-.752-1.061-1.777-1.472-2.392-.666-.6-.407-1.472 2.125-.975.628l-1.959 1.2-.023-.479c-1.95-.216-3.963 3.2-6.232-.212-.647.488-1.317 1.086-2.419.556l-.237-1.646c-.834.585-2.547-1.62-2.884.1-.966-4.425-4.1-.921-5.585-1.693l-.027 2.155c-1.02-.11-1.986.509-3.239 1.387l.1 1.9c-1.071 1.578-2.815-1.319-4.538-1.107.109-.725.547-.543.861-.106-2.114-4.272-4.305 3.173-6.209.064-.46.7-.8.467-1.13 0a.172.172 0 0 0 .114-.1.39.39 0 0 0-.191-.021c-.21-.327-.428-.7-.661-1.005a4.15 4.15 0 0 0 .556 1.014 2.834 2.834 0 0 0-1.426.768l-.251-2.04c-.046.025-.082.021-.123.059-.533-.751-.41.971-.109 2.5a4.7 4.7 0 0 0-.692 1.243c-.469-3.3-1.385 1.124-2.009-2.384-.337 1.718-2.665 1.319-2.9 4.929-.027-.467-.187-.691.1-.721-.6-.407-1.2-.81-1.717.212l-.287-2.6-1.253 3.508a4.527 4.527 0 0 1-.392-4.5c-1.854 3.1-1.517 1.175-3.089 4.242l.055-1.68c-.574.068-1.462 2.329-1.827.946-1.33-3.177-6.369-.369-9.713-3.3.706 4.938-1.563-2.2-1.645 1.637-.2-1.167-.674-1.824-.155-2.846-1.667 1.171-2.556-1.824-3.676 1.421-.21-1.175.337-1.722.159-2.414-.137.255-.524 1.022-.706.327s.232-.984.492-1.5c-1.722.216-1.845 3.822-1.927 7.207-.893-1.591-1.326-1.362-1.927.865-.319-1.1-.838-2.253.228-2.664-.606-.157-3.7-1.582-3.727 1.128-.2-.683-.843-.187-1 .127a6.322 6.322 0 0 0-2.8-.119l.374.437c-.478 3.279-1.093.742-2.155 1.15l.023-.335c-2.478-2.333-1.043 1.141-3.494-1.523l.159 2.032c-.169 4.378-2.178-2.558-3.558-.87l.519 1.158c-.747 1.506-2.219-5.926-2.993-6.465-.173-.378.255-.615.487-.9-2.05-2.562-.228 2.664-1.722 3.3-.3-1.434.31-3.657-.706-3.915-.515-1.154-2.87 4.7-4.282 1.96.319 1.107.633 2.206-.055 3.05C110.8 9.263 108.923 4.7 108 8.2a2.167 2.167 0 0 1-.205-.865c-.806.908-2.633 1.527-3.1 3.423-.847-7.016-5.034 3.479-5.1-3l-2.51.373.059-.662c-1.613-.411-2.159 1.15-2.706 2.711-.378-.437-.114-1.044-.087-1.383-2.364-1.281-2.6-1-4.524 2.248l-.228-2.1c-.519 1.226-3.44-3.258-5.708-.781a2.274 2.274 0 0 1 .237-.946C81.571 9.713 77.853 1.458 77 9.123l-1.686 1.9c2.219.573-.287 3.33.638 4.59-.861.458-2.278-2.286-1.212-2.689l.173.382c.342-4-2.765-1.383-2.743-4.1-4.351.246-8.624-1.917-12.7-2.04l.51 3.1-1.42-.166c-.383-.717-.538-2.422.483-2.3-.556-1.752-1.686 1.489-1.7 2.168-2-1.239.729-3.631.118-3.695l-.825.238.191.361c-.651 1.277-.7 2.622-1.918 2.482-.779-.611-.419-1.909-.724-2.023 0-.221-.1-.322-.469-.085L51.917 7l.752 2.443c-.779 1.213-1.686-.11-.825 2.656-1.271-4.268-6.706-1.459-7.467-2.779a2.941 2.941 0 0 1-3.548 1.58c.346.5.583 3.258-.592 2.931.351-5.684-2.182-2.439-3.184-6.52.884 2.7-3.326.708-1.945 4.543-.984-.45-.087-2.125-.847-3.453-2.3 2.227-5.153-1.374-8.023-.6-.032.747.46 1.879-.141 3l-1.569-3.714c-.565.373-.469 4.31-1.54 1.731.155.628.387 1.57.009 1.816-5.69-3.572-11.49 3.105-17.307-3.661.793 1.438.278 1.587-.314 1.646.392.344.018 1.845.1 2.855L3.048 8.695C2.647 11.5.479 8.911.26 11.6l.756-.492c-.97 3.182 1.5 7.025 1.408 11.089 1.084-3.61 3.052 5.3 4.843.123.419.823-.333 1.315-.1 2.253.451-1.744 1.016-2.117 2.077-1.345l-.114.428c2.952-.454 4.241 1.247 7.581 2.354L16.433 24c.715.259.875.887 1.216 1.387.779-3.054-2.009-.148-1.3-3.517 1 4.077 5.034 0 5.731 4.645 1.1.013-.351-2.325.747-2.308l.31 1.251.255-1.625c.724.259 1.107 1.828 1.148 2.893-.178-.123-.492.305-.679.4.952 1.468 2.624-.535 2.952-.055l-1.061-.764c2.979-1.213 6.66.4 9.521-2.189l-.232-.946c2.191-1.782 1.786 1.018 4.2.182l-.082.225c.469-.95 1.112-1.434 1.781-1.332-.6 1.116 1.18 2.142.392 3.381 2.374-1.909 1.166-1.493 2.706-5.035l.387 1.57c.519-1.43.556-2.18 1.763-2.6-.979 1.362.8 2.388-.287 4.187 2.588 3.411 3.731-3.517 4.966 1.5 1.112-4.369-2.237-2.4-1.59-3.334-.569-1.417.92-3.262 1.722-2.834.815.085 1.458 5.553 3.5 5.447-.205-.017-.214.31-.419.293.779 1.1 1.481-1.519 2.442.276.492-2.639 1.221.136 1.326-3.224l-1.863.8c1.052-.891 2-4.832 3.772-2.944a6.369 6.369 0 0 1-.984 2.074c.524.984.975-.666 1.522.344-.109 3.364-2.273.759-3.38 3.334.569 1.413 2.128-2.46 1.6 1.188.765-4.637 2.023.56 3.362-2.991l-.064 2.015c.214-.318.656-1.273 1.057-1.226l-.692 2.617c1.089-2.24 2.187 1.922 3.244.7-2.251.085-.538-2.422-1.508-3.882 2.743-2.723 1.667 5.247 4.761 4.246-.415.293-1.594-1.188-.948-2.13a4.761 4.761 0 0 1 1.768 2.223c2.05-.441-.346-2.066.515-3.313.733 2.443 1-1.01 1.891-1.807l.032 2.049c2.364 1.285.569-4.272 2.7-2.706l-.856 2.846 1.093-.747-.2 2.329c1.175-1.739 1.554-1.3 2.733-.658-.292-1.438.109-3.716 1.148-3.792.724 1.209-.374 1.951 1.1 1.642-.319 1.285-.661 2.9-1.326 1.018-.059.666-.314 1.285-.374 1.947.784 1.387 1.923.3 2.46.271a.877.877 0 0 1-.583-.471l2.1-2.859a2.292 2.292 0 0 1-.173 1.994c.433-.229.72-1.171 1.353-1.357-.141 1.667-.082 3.385-.975 4.178l2.014-1.871c.146.721 1.071 1.977.815 2.592 1.139.963 2.724-3.258 4.237-1.985a1.477 1.477 0 0 1 .542-.878c1.408.361 2.683 2.388 4.319.089l.984 2.974c1.3-.7-1.33-3.742.829-4.891 1.526-.971.606 2.537 1.157 3.36.747-1.514 2.036-4.586 3.481-2.176-.46.568-.829.132-1.266.356m16.077-1.5c-.305.433-.911 1.765-1.153.56.323-2.35.61-1.23 1.153-.56m24.405-5.205c-.223.679-.588.348-1-.42.292-.174.629-.1 1 .42M207.7 4.652a.5.5 0 0 0-.032.1c-.706-.789-.456-.475.032-.1m1.458.87a1.214 1.214 0 0 0 .059-.857c-.091.522-.415.56-.788.42.109.535.305.9.729.437M54.031 8.084l.287.53c-.629.6-.456.064-.287-.53" class="cls-1" transform="translate(.924 2.077)"/>
        <path id="패스_2428" d="M30.448 6.642a5.723 5.723 0 0 1-.15-1.111 1.181 1.181 0 0 0 .15 1.111" class="cls-1" transform="translate(107.467 17.933)"/>
        <path id="패스_2429" d="M19.869 7c-.018-.017-.032-.008-.05-.021a2.48 2.48 0 0 0-.046.369z" class="cls-1" transform="translate(70.307 22.637)"/>
        <path id="패스_2430" d="M41.71 6.745a2.315 2.315 0 0 1-.588-1.052c-.009.5.132.925.588 1.052" class="cls-1" transform="translate(146.218 18.458)"/>
        <path id="패스_2431" d="M48.5.951l-.92.543c.446-.106.615.339.843.662-.027-.479-.21-1.171.077-1.2" class="cls-1" transform="translate(169.189 3.084)"/>
        <path id="패스_2432" d="M49.818 4.862c.132-.255.282-.03.415-.288l-.046-.95a.684.684 0 0 0-.369 1.239" class="cls-1" transform="translate(176.069 11.747)"/>
        <path id="패스_2433" d="M47.991 3.166c.1 1.718.665 1.128 1.312.8a.151.151 0 0 1-.114 0c.159-2.41-.524-1.6-1.2-.8" class="cls-1" transform="translate(170.643 7.661)"/>
        <path id="패스_2434" d="M48.312 3.129a.756.756 0 0 1 .6-.051c.068-.967-.241-.2-.6.051" class="cls-1" transform="translate(171.784 8.44)"/>
        <path id="패스_2435" d="M46.986 3.106c.314.441.164-2.2.346-1.5.314-2.2-2.014 2.673-.346 1.5" class="cls-1" transform="translate(164.91 3.331)"/>
        <path id="패스_2436" d="M48.592 5.508l-.26-2.121-.341 1.713z" class="cls-1" transform="translate(170.642 10.982)"/>
        <path id="패스_2437" d="M47 3.8l1.043.577a.894.894 0 0 1 .269-.73c-.642-.064-1.344-.475-1.312.153" class="cls-1" transform="translate(167.101 11.193)"/>
        <path id="패스_2438" d="M47.283 3.773a.736.736 0 0 0 .829-.361 1.461 1.461 0 0 0-.829.361" class="cls-1" transform="translate(168.126 11.063)"/>
        <path id="패스_2439" d="M48.628 4.492l-.31-.441-.733-.151z" class="cls-1" transform="translate(169.198 12.653)"/>
        <path id="패스_2440" d="M45.441 3.466l-1.121.619c-.109.73.2 1.175.624.882.264-.513.679-.8.5-1.5" class="cls-1" transform="translate(157.512 11.238)"/>
        <path id="패스_2441" d="M45.722 6.058A4.734 4.734 0 0 1 45.2 4.45v2.634z" class="cls-1" transform="translate(160.73 14.429)"/>
        <path id="패스_2442" d="M45.215 4.983c-.1.73-1.613 2.117-.182 1.934.1-.725 1.23-1.345.182-1.934" class="cls-1" transform="translate(157.948 16.157)"/>
        <path id="패스_2443" d="M40.847 7.572l.287-.038-.1-4.318z" class="cls-1" transform="translate(145.24 10.426)"/>
        <path id="패스_2444" d="M37.7 9.258c1.353 1.018.282-2.668 1.512-1.391.3-1.027-1.007-1.044-.692-1.93-.8 1.086-1.23.484-.82 3.322" class="cls-1" transform="translate(133.505 19.246)"/>
        <path id="패스_2445" d="M37.761 6.442a4.579 4.579 0 0 0 .4-.662 2.134 2.134 0 0 0-.4.662" class="cls-1" transform="translate(134.268 18.74)"/>
        <path id="패스_2446" d="M1.192 2.7l-.87-.891L.9 3.251z" class="cls-1" transform="translate(1.143 5.864)"/>
        <path id="패스_2447" d="M.724 4.879L.487 2.13 0 4.624c.191-.123.569-.365.724.255" class="cls-1" transform="translate(0 6.907)"/>
        <path id="패스_2448" d="M26.6 8.828l.059-.662c-.146-.717-.346-.768-.752-.874z" class="cls-1" transform="translate(92.115 23.643)"/>
        <path id="패스_2449" d="M23.648 9.057l.2.055-.405-2.486z" class="cls-1" transform="translate(83.357 21.483)"/>
        <path id="패스_2450" d="M21.364 9.022c.4.1.866-.462 1.266-.361-.866.458-1.417-2.745-1.266.361" class="cls-1" transform="translate(75.878 24.805)"/>
    </g>
</svg>
