<svg xmlns="http://www.w3.org/2000/svg" width="308.537" height="39.066" viewBox="0 0 308.537 39.066">
    <defs>
        <clipPath id="clip-path">
            <path id="사각형_1921" d="M0 0H308.537V39.066H0z" class="cls-1"/>
        </clipPath>
        <style>
            .cls-1{fill:#60e7a3}
        </style>
    </defs>
    <g id="ilne">
        <g id="그룹_1471" clip-path="url(#clip-path)">
            <path id="패스_2370" d="M57.059 3.107c.454.174.265-1.855.33-2.218-.757.455-.3 2.746-.33 2.218" class="cls-1" transform="translate(250.927 3.418)"/>
            <path id="패스_2371" d="M56.37 2.972l.124-.828-1.081 2.039z" class="cls-1" transform="translate(244.161 8.242)"/>
            <path id="패스_2372" d="M54.29 3.411c.708 3.448 2.541-.586 3.806.63l.222.785.524-2.785c-1.514.455-3.465 2.325-4.552 1.371" class="cls-1" transform="translate(239.213 7.842)"/>
            <path id="패스_2373" d="M53.656.788c.249 1.342-.795 1.167.881.412a2.818 2.818 0 0 1-.167-.339 1.736 1.736 0 0 1-.714-.073" class="cls-1" transform="translate(235.997 3.03)"/>
            <path id="패스_2374" d="M53.81 1.218c.741-.1-.5-1.124 0 0" class="cls-1" transform="translate(236.562 2.673)"/>
            <path id="패스_2375" d="M53.484 3.157l.957-1.211C54.23 1.152 53.359.982 53.673.4c-.989.668-.773 1.458-.189 2.756" class="cls-1" transform="translate(233.478 1.543)"/>
            <path id="패스_2376" d="M52.916 2.091l.5-.513c-.092-.334-.227-.446-.5.513" class="cls-1" transform="translate(233.159 5.141)"/>
            <path id="패스_2377" d="M54.062 1.162l-1.054 1.085c.146.557.178 1.676.487-.392-.076 1.022.119.039.568-.693" class="cls-1" transform="translate(233.564 4.467)"/>
            <path id="패스_2378" d="M53.317 1.324c.557.746 1.27 1.211.308 2.422 1.854-.5 1.552-2.925-.308-2.422" class="cls-1" transform="translate(234.926 4.828)"/>
            <path id="패스_2379" d="M54.235 3.384l.746 1 .619-1.16c-.308.576-1.422-.925-1.362.16" class="cls-1" transform="translate(238.96 11.448)"/>
            <path id="패스_2380" d="M51.955.614a27.767 27.767 0 0 0 .443 2.9l.7-.852A3.344 3.344 0 0 1 51.955.614" class="cls-1" transform="translate(228.908 2.361)"/>
            <path id="패스_2381" d="M52.9 1.212l-1.06 1.274c.962.14 1.13-.465 1.06-1.274" class="cls-1" transform="translate(228.409 4.659)"/>
            <path id="패스_2382" d="M53.171 4.407l1.735-2.673-2.076 2.712z" class="cls-1" transform="translate(232.781 6.663)"/>
            <path id="패스_2383" d="M51.57 1.961l.589-1.71-1.054 2.586z" class="cls-1" transform="translate(225.179 .965)"/>
            <path id="패스_2384" d="M52.4 3.255C52.829 1.84 51.742.877 52.213 0c-.741.262-1.357 1.482-1.914 2.572.6-.61 1.249-.465 2.1.683" class="cls-1" transform="translate(221.628 .001)"/>
            <path id="패스_2385" d="M50.126 2.129a9.312 9.312 0 0 0 .935-1.6 4.562 4.562 0 0 0-.935 1.6" class="cls-1" transform="translate(220.865 2.042)"/>
            <path id="패스_2386" d="M52.211 3.064a3.763 3.763 0 0 0-.876-2.092l.449 2.063c.13.015.281.019.427.029" class="cls-1" transform="translate(226.192 3.737)"/>
            <path id="패스_2387" d="M52.18 1.547l-.016-.068c-.46-.034-.778-.082-.914-.1.114.015.395.068.93.17" class="cls-1" transform="translate(225.818 5.294)"/>
            <path id="패스_2388" d="M51.605 1.411a.405.405 0 0 0-.108 0c.043.2.07.266.108 0" class="cls-1" transform="translate(226.906 5.4)"/>
            <path id="패스_2389" d="M53.324 1.9c-.616 1.162-1.919 2.422-.616 4.17.433-1.424-.314-2.422.616-4.17" class="cls-1" transform="translate(229.778 7.323)"/>
            <path id="패스_2390" d="M51.621 3.1l1.152.46a3.735 3.735 0 0 1 .059-1.918z" class="cls-1" transform="translate(227.453 6.297)"/>
            <path id="패스_2391" d="M51.519 2.737l.551-.664-.427-.17z" class="cls-1" transform="translate(227.002 7.317)"/>
            <path id="패스_2392" d="M51.819 1.26a2.007 2.007 0 0 1-1.627 1.14 3.77 3.77 0 0 0 1.979.6c.087-.649.351-1.821-.351-1.739" class="cls-1" transform="translate(221.156 4.829)"/>
            <path id="패스_2393" d="M51.033 1.369c-.032.048-.076.073-.108.121.07.174.124.228.108-.121" class="cls-1" transform="translate(224.386 5.263)"/>
            <path id="패스_2394" d="M49.079 1.5c.038.111.065.252.1.373l.016-.358z" class="cls-1" transform="translate(216.252 5.774)"/>
            <path id="패스_2395" d="M50.691 2.3c.5.392.789-.116 1.06-.76a2.571 2.571 0 0 1-1.173.373c-.038.3-.043.489.114.387" class="cls-1" transform="translate(222.755 5.912)"/>
            <path id="패스_2396" d="M49.818 1.185a7.26 7.26 0 0 0 .87 1.128c-.259-.654-.784-1.666-.87-1.128" class="cls-1" transform="translate(219.508 3.97)"/>
            <path id="패스_2397" d="M50.937 1.551a.494.494 0 0 1 .076-.1c-.173-.441-.146-.223-.076.1" class="cls-1" transform="translate(224.201 4.635)"/>
            <path id="패스_2398" d="M51.409 1.277a5.479 5.479 0 0 0-.633 1.269 2.632 2.632 0 0 0 .806-.7 4.6 4.6 0 0 1-.173-.572" class="cls-1" transform="translate(223.729 4.909)"/>
            <path id="패스_2399" d="M49.816 14.511c.059-1.918 1.33-3.705 2.476-1.661 1.081-1.453.276-7.749-.73-11.27a3.4 3.4 0 0 1-1.13 2.756c.411 1.046 2.541 2.422 1.611 4.17-1.481 1-1.233-.664-1.979-1.671.654 2.383-1.86 3.5-1.487 7.008l1.3-1.25c.032.542-.427 1.419-.059 1.918" class="cls-1" transform="translate(213.877 6.07)"/>
            <path id="패스_2400" d="M51.242 3.856l.46-.242c-.53-.329-.919-1.09-1.643-2.581a3.8 3.8 0 0 0-.957 2.3l2.3.242z" class="cls-1" transform="translate(216.349 3.968)"/>
            <path id="패스_2401" d="M51.674 2.566c-.335 2.092-1.443 2.988-.724 5.24 1.362-.16.93-1.753 1.735-2.669-2.195.543.615-1.167-.995-2.337a2.72 2.72 0 0 1 1.189-.562 5.956 5.956 0 0 1-1.156-.938l.054.131h.011v.034c.1.257.13.412.022.266a.073.073 0 0 1-.049.039 6.62 6.62 0 0 1-.086.794c-.643-.426-.108-.542.086-.794a2.792 2.792 0 0 0 .027-.305l-.011-.029L49.582 2.6c.476.286 1.06.218 2.092-.029" class="cls-1" transform="translate(218.468 4.986)"/>
            <path id="패스_2402" d="M52.2 4.079a1.5 1.5 0 0 1-.081-.484c-.135.257-.189.436.081.484" class="cls-1" transform="translate(229.164 13.818)"/>
            <path id="패스_2403" d="M52.819 7.442c.157-.3.281-1.128.8-.92.465.62.016 1 .049 1.685.308-.557 1.081-1.506.081-2.514l-.151.286a7.561 7.561 0 0 1-1.925-3.584 26.678 26.678 0 0 0 1.146 5.047" class="cls-1" transform="translate(227.622 9.206)"/>
            <path id="패스_2404" d="M52.4 2.608l-1.827 1.046.962 1.792-.059-1.08c1.049.412.806-.92.924-1.758" class="cls-1" transform="translate(222.835 10.025)"/>
            <path id="패스_2405" d="M49.694 3.041l.217-2.209-1.022 3.124z" class="cls-1" transform="translate(215.414 3.201)"/>
            <path id="패스_2406" d="M49.051 2.87L49.11.952l-.616 1.162z" class="cls-1" transform="translate(213.674 3.662)"/>
            <path id="패스_2407" d="M24.16 6.561l-.541.552a1.765 1.765 0 0 0 .541-.552" class="cls-1" transform="translate(104.07 25.217)"/>
            <path id="패스_2408" d="M24.516 7.328l.086-.944c-.178.523-.249.906-.086.944" class="cls-1" transform="translate(107.622 24.537)"/>
            <path id="패스_2409" d="M39.062 4.048c-.811-1.782-1.73-4.548-1.606-2.393l.27 2.1c.546-.383.973-.155 1.335.3" class="cls-1" transform="translate(164.99 3.339)"/>
            <path id="패스_2410" d="M30.342 5.3c.081.2.157.421.238.634.184-.722.351-1.39.508-2.015-.227.436-.481.9-.746 1.38" class="cls-1" transform="translate(133.693 15.067)"/>
            <path id="패스_2411" d="M31.12 7.066l-1.054-1.342a4.5 4.5 0 0 0 1.054 1.342" class="cls-1" transform="translate(132.477 22)"/>
            <path id="패스_2412" d="M20.262 7.069l-.6 2.146c.984-.024.535-1.095.6-2.146" class="cls-1" transform="translate(86.635 27.17)"/>
            <path id="패스_2413" d="M45.464 2.555A3.256 3.256 0 0 0 43.756 1.3c.833 1.2 1.514 3 1.708 1.25" class="cls-1" transform="translate(192.798 5.017)"/>
            <path id="패스_2414" d="M24.309 1.954a1.819 1.819 0 0 0-.443 1.283 1.472 1.472 0 0 0 .443-1.283" class="cls-1" transform="translate(105.153 7.511)"/>
            <path id="패스_2415" d="M43.393 2.033a5.038 5.038 0 0 0 .362.489 2 2 0 0 1 1.6-.522c-.616-.891-1.319-1.438-1.962.029" class="cls-1" transform="translate(191.198 4.318)"/>
            <path id="패스_2416" d="M5.587 7.08a2.4 2.4 0 0 1-.178-.247c-.016.281.065.3.178.247" class="cls-1" transform="translate(23.823 26.263)"/>
            <path id="패스_2417" d="M1.212 2.763a2.427 2.427 0 0 1 .924-.174c-.168-.14-.449-.126-.924.174" class="cls-1" transform="translate(5.34 9.622)"/>
            <path id="패스_2418" d="M46.816 1.294c.508-.14.081-.232 0 0" class="cls-1" transform="translate(206.281 4.428)"/>
            <path id="패스_2419" d="M47.447 2.89a2.431 2.431 0 0 0-.189 1.022 3.043 3.043 0 0 1 .189-1.022" class="cls-1" transform="translate(208.228 11.108)"/>
            <path id="패스_2420" d="M42.527 4.026h-.043c.157.407.13.329.043 0" class="cls-1" transform="translate(187.193 15.455)"/>
            <path id="패스_2421" d="M47.5 1.864a2.384 2.384 0 0 0-.66-.615 2.867 2.867 0 0 0 .66.615" class="cls-1" transform="translate(206.378 4.802)"/>
            <path id="패스_2422" d="M46.938 1.324a4.45 4.45 0 0 0 .449.2c.054-.349 0-.572-.449-.2" class="cls-1" transform="translate(206.818 4.349)"/>
            <path id="패스_2423" d="M46.686 1.3a1.362 1.362 0 0 1 .822.208c-.1-.14-.146-.257-.119-.329a5.563 5.563 0 0 1-.7.121" class="cls-1" transform="translate(205.708 4.536)"/>
            <path id="패스_2424" d="M13.43 5.787c-.032-.068-.076-.107-.114-.2-.5.881-.276.736.114.2" class="cls-1" transform="translate(57.408 21.478)"/>
            <path id="패스_2425" d="M35.372 6.2c.022-.019.032-.077.054-.1l-.07-.073z" class="cls-1" transform="translate(155.786 23.15)"/>
            <path id="패스_2426" d="M35.027 12.586c.741-2.625 1.184-2.305 1.779-1.758l-.687-6.054z" class="cls-1" transform="translate(154.336 18.349)"/>
            <path id="패스_2427" d="M117.726 30.023l1.3 1.874c-1.5 3.124-2.627 2.063-1.395 4.708.092-6.582 4.957-.726 5.049-7.3l.86 1.371c-.243-.058-.276.329-.514.262 1.681 3.134 1.152-4.766 3.276-3.85a1.708 1.708 0 0 1 .778 2.228l1.616-1.642c.476.121.378 1.264-.1 1.143l2.492-.552-.016.194a23.84 23.84 0 0 1 1.514-3.322c.649.94-.308.7-.135 1.521l1.362-1.608c.589 1.7-.535 3.361-1.5 3.129 1.384 6.553 1.124-1.666 3.968 2.141l-1.281.846c.892 3.72 1.892 2.359 3.406 4.669-.368-1.211-3.044-5.831-1.562-7.488.432.494.995.726 1.784-.61.038 2.339.822 1.758 1.811 1.613l-.022 3.1c1.054-.906.951-2.48 1.562-3.884 1.195.291 1.476 2.688 1.784 4.708 1.919.475-1.373-3.831.881-4.441 1.606 1.167 2.709-.111 4.579-1.986 1.13 1.056-.168 1.9.243 2.78l.957-2.48c.243.053.173.814.141 1.2.816-.964.022-3.095 1.319-3.952.308-3.415 2.746 4.96 4.314 1.066.411.877-.168 1.9-.027 3.1 2.179-2.567 1.876-1.865 3.649-5.308l1.579 2.015c-1.168-2.31.249-5.081 1.492-7.357-.416-1.119-.778-2.1-1.016-2.562l2.017-1.685a5.41 5.41 0 0 1-.254 2.867c.135-.257.265-.513.362-.746.746 1.138.389 2.93-.108 4.664-.254-.605-.508-1.254-.757-1.9a19.243 19.243 0 0 0-.795 5.793 1.747 1.747 0 0 1 .66-.848 3.31 3.31 0 0 0-.141 1.279c.076.325.281-.363.6-1.153l.514 3.444.092-1.371 2.692 2.131c1.86-3.5 3.449-8.631 6.45-10.089-.714 2.538-.1 4.136-.1 7.139-.87-3.168-2.325 1.375-3.9.746.827.324.665 1.758.465 2.257l2.757-2.916c-.032 2.451.616 1.831 1.362 2.838-.616-4.843 2.038-3.255 3.157-4.751.092 1.627-.157 3.289-1.552 2.916 1.584 3.632 1.9-5.72 3.449-2.635-.341.048-.524-.2-.649.625.773-1.458 2.725-.329 2.287 1.095l-.335.039c2.254.547 6.85-.039 7.131-4.165.027.533-.227 4.969-.357 5.8l3.828-13.9c-.3 3.54 1.168 11.953-.67 13.973.541.494 1.211 1.075 2.325-.184-.373-.5-.979-5.1-.487-5.434 1.427 3.923.984 2.1 2.719 5.434-.562-.751-.027-6.306.843-6.141-.124.833.146 5.478-.162 6.059l2.081-5.468c-.53.988-.032 4.616.47 6.151-.238-1.066 1.865.077 2.427-.47l-.93-1.25c2.449.794 2.3-7.686 4.72-7.425-.276 1.128-.627 6.931.611 7.6.519-2.8 2.3-13.445 4.411-15.62l.432 1.593 1.612-1.841a132.938 132.938 0 0 1-5.228 16.525c.93 1.254.281 1.879 1.643 1.719a1.811 1.811 0 0 1-1.114 2.368l3.19.93c-.189-3.26 2.384-3.293 2.222-6.006l-3.4 3.415c-.184-3.25 1.871-9.265 4.125-8.713.589 1.288-.351 5.8-.287 6.882.276-1.124 2.108-2.16 2.325-1.371l-.935 1.753c1.27 1.211 1.984-4.34 3.536-1.25.519.2 1.606 4.175 1.671 2.252-.9-3.71-1.216-15.2-.692-17.993.184.247 2.773 3.521 3.4 5.347.892 2.906-1.195 6.96-.427 9.449a6.177 6.177 0 0 1 .665-2.344c.557.756-.189 2.756.995 2.344.151-3.3 2.411.252.519-2.8 1.146-.954 1.243.664 2.6.509-.46-2.131 1.124-7.275 2.276-8.229a8.253 8.253 0 0 0 .351 2.426c2.379.276 3.676 1.758 5.893 1.763.216.8 1.3 1.753.86 3.177.314-.586.589-1.71 1.27-1.8 1.362 2.843-1.519.465-.46 3.879.059-1.918 1.73-2.664 2.687-3.875-.341-2.959-2.254-.542-3.217.668-.059-4.088 1.579-8.389 3.871-10.3 1.827-1.036.833 2.635 1.146 2.044 3.465.678 2.849-7.168 5.758-4.248 1.173 2.591.124 5.177.4 7.057-1.487 1-2.325-1.627-3.336-1.511l1.265 1.216c-.465.872-1.454 1.535-2.011.789.984 2.33 5.85.387 8.547 2.519.46-.881 1.265-1.792.865-2.833l-.843.368c-.806-2.087 1.552-2.921.47-3.884 1.108-1.492 2.346-3.826 3.957-2.654l.341 2.964c-.043-.867-1.065-1.758-1.5-.848.649-1.322 2.5 3.991 3.179.1l-1.146-2.044c1.114-1.506 2.476-4.674 3.9-3.754-.681-2.925-.319.339-1.373-3.08.93 4.262-3.617-.14-2.157 4.33-1.081-3.971-1.806-1.666-3.2-5.047.059.974.508 1.865-.687 1.395a5.888 5.888 0 0 1-.249.867.549.549 0 0 1-.081-.073l.065.116c-.049.145-.054.179.027.039a3.963 3.963 0 0 1 .622 1.482c-.557 2.257-2.444 2.2-3.065 3.376-.708-.455.281-1.124-.119-2.165l-.93 1.748c-.119-2.175-1.914-3.594-.276-4.887l-1.5-.077c-.892-1.211-2.108-1.681-2.838-.76-.708-.465-1.746 2.426-1.157.717l-2.325 1.375-.027-.547c-2.314-.247-4.7 3.657-7.4-.242-.768.557-1.562 1.24-2.871.634l-.281-1.879c-.989.668-3.022-1.85-3.422.116-1.146-5.052-4.86-1.051-6.628-1.932l-.032 2.46c-1.211-.126-2.357.581-3.844 1.584l.119 2.17c-1.27 1.8-3.341-1.506-5.385-1.264.13-.828.649-.62 1.022-.121-2.508-4.877-5.109 3.623-7.369.073-.546.8-.946.533-1.341 0a.2.2 0 0 0 .135-.116.479.479 0 0 0-.227-.024c-.249-.373-.508-.8-.784-1.148a4.69 4.69 0 0 0 .66 1.158 3.41 3.41 0 0 0-1.692.877l-.3-2.33c-.054.029-.1.024-.146.068-.633-.857-.487 1.109-.13 2.858a5.312 5.312 0 0 0-.822 1.419c-.557-3.763-1.643 1.283-2.384-2.722-.4 1.962-3.163 1.506-3.444 5.628-.032-.533-.222-.789.119-.823-.714-.465-1.422-.925-2.038.242l-.341-2.964-1.486 4.003c-.962-1.8-1.368-2.843-.465-5.134-2.2 3.536-1.8 1.342-3.665 4.843l.065-1.918c-.681.077-1.735 2.659-2.168 1.08-1.579-3.628-7.558-.421-11.526-3.768.838 5.638-1.854-2.509-1.952 1.87-.243-1.332-.8-2.083-.184-3.25-1.979 1.337-3.033-2.083-4.363 1.623-.249-1.342.4-1.966.189-2.756-.162.291-.622 1.167-.838.373s.276-1.124.584-1.71c-2.044.247-2.19 4.364-2.287 8.229-1.06-1.816-1.573-1.555-2.287.988-.378-1.259-.995-2.572.27-3.042-.719-.179-4.39-1.807-4.422 1.288-.232-.78-1-.213-1.184.145-1.606-.17-1.746-.446-3.319-.136l.443.5c-.568 3.744-1.3.848-2.557 1.313l.027-.383c-2.941-2.664-1.238 1.3-4.147-1.739l.189 2.32c-.2 5-2.584-2.921-4.222-.993l.616 1.322c-.887 1.719-2.633-6.766-3.552-7.381-.205-.431.3-.7.578-1.022-2.433-2.925-.27 3.042-2.044 3.768-.351-1.637.368-4.175-.838-4.47-.611-1.317-3.406 5.366-5.082 2.238.378 1.264.751 2.519-.065 3.482-1.26.465-3.492-4.746-4.584-.746a2.4 2.4 0 0 1-.243-.988c-.957 1.036-3.125 1.744-3.682 3.909-1.006-8.011-5.974 3.972-6.055-3.429l-2.979.426.07-.756c-1.914-.47-2.563 1.313-3.211 3.095-.449-.5-.135-1.191-.1-1.579-2.806-1.463-3.082-1.143-5.368 2.567l-.27-2.4c-.616 1.4-4.082-3.72-6.774-.891a2.518 2.518 0 0 1 .281-1.08C96.75 11 92.338 1.574 91.327 10.325l-2 2.175c2.633.654-.341 3.8.757 5.24-1.022.523-2.7-2.611-1.438-3.071l.205.436c.405-4.562-3.282-1.579-3.255-4.683-5.163.281-10.234-2.189-15.072-2.33l.605 3.536-1.687-.184c-.454-.819-.638-2.766.573-2.63-.66-2-2 1.7-2.022 2.475-2.373-1.414.865-4.146.141-4.219l-.979.271.227.412c-.773 1.458-.827 2.993-2.276 2.833-.924-.7-.5-2.179-.86-2.31 0-.252-.124-.368-.557-.1L61.561 7.9l.892 2.79c-.924 1.385-2-.126-.979 3.032-1.508-4.872-7.958-1.666-8.861-3.172-1.292 2.049-2.595 2.029-4.211 1.8.411.576.692 3.72-.7 3.347.416-6.49-2.59-2.785-3.779-7.444 1.049 3.085-3.947.809-2.308 5.187-1.168-.513-.1-2.426-1.006-3.942-2.73 2.543-6.114-1.569-9.52-.683-.038.852.546 2.146-.168 3.424L29.059 8c-.67.426-.557 4.921-1.827 1.976.184.717.46 1.792.011 2.073C20.49 7.972 13.608 15.595 6.7 7.87c.941 1.642.33 1.811-.373 1.879.465.392.022 2.107.124 3.26L3.569 9.836c-.476 3.206-3.05.247-3.309 3.313l.9-.562c-1.152 3.632 1.784 8.02 1.671 12.66 1.287-4.122 3.622 6.049 5.747.14.5.94-.395 1.5-.124 2.572.535-1.991 1.206-2.417 2.465-1.535l-.135.489c3.5-.518 5.033 1.424 9 2.688l-.324-2.291c.849.3 1.038 1.012 1.443 1.584.924-3.487-2.384-.17-1.546-4.015 1.184 4.654 5.974 0 6.8 5.3 1.308.015-.416-2.654.887-2.635l.368 1.429.3-1.855c.86.3 1.314 2.087 1.362 3.3-.211-.14-.584.349-.806.455 1.13 1.676 3.114-.61 3.5-.063l-1.26-.872c3.536-1.385 7.9.455 11.3-2.5l-.276-1.08c2.6-2.034 2.119 1.162 4.985.208l-.1.257c.557-1.085 1.319-1.637 2.114-1.521-.708 1.274 1.4 2.446.465 3.86 2.817-2.179 1.384-1.7 3.211-5.749l.46 1.792c.616-1.632.66-2.489 2.092-2.969-1.162 1.555.951 2.727-.341 4.78 3.071 3.894 4.428-4.015 5.893 1.715 1.319-4.989-2.654-2.736-1.887-3.807-.676-1.618 1.092-3.724 2.044-3.235.968.1 1.73 6.34 4.157 6.219-.243-.019-.254.354-.5.334.924 1.259 1.757-1.734 2.9.315.584-3.013 1.449.155 1.573-3.681l-2.211.911c1.249-1.017 2.373-5.517 4.476-3.361A7.155 7.155 0 0 1 69.7 24.8c.622 1.124 1.157-.76 1.806.392-.13 3.841-2.7.867-4.011 3.807.676 1.613 2.525-2.809 1.9 1.356.908-5.294 2.4.639 3.99-3.415l-.076 2.3c.254-.363.778-1.453 1.254-1.4l-.822 2.988c1.292-2.557 2.595 2.194 3.849.8-2.671.1-.638-2.766-1.789-4.432 3.255-3.109 1.979 5.991 5.649 4.848-.492.334-1.892-1.356-1.124-2.431a5.483 5.483 0 0 1 2.1 2.538c2.433-.5-.411-2.359.611-3.783.87 2.79 1.184-1.153 2.244-2.063l.038 2.339c2.806 1.468.676-4.877 3.206-3.09L87.5 28.807l1.3-.852-.232 2.659c1.395-1.986 1.844-1.482 3.244-.751-.346-1.642.13-4.243 1.362-4.33.86 1.38-.443 2.228 1.3 1.874-.378 1.468-.784 3.308-1.573 1.162-.07.76-.373 1.468-.443 2.223.93 1.584 2.281.339 2.919.31a1.034 1.034 0 0 1-.692-.538l2.492-3.264a2.531 2.531 0 0 1-.205 2.276c.514-.262.854-1.337 1.606-1.55-.168 1.9-.1 3.865-1.157 4.771l2.39-2.136c.173.823 1.27 2.257.968 2.959 1.352 1.1 3.233-3.72 5.028-2.267a1.677 1.677 0 0 1 .643-1c1.671.412 3.184 2.727 5.125.1l1.168 3.4c1.541-.794-1.579-4.272.984-5.584 1.811-1.109.719 2.9 1.373 3.836.887-1.729 2.417-5.236 4.13-2.485-.546.649-.984.15-1.5.407m19.07-1.719c-.362.494-1.081 2.015-1.368.639.384-2.683.724-1.4 1.368-.639m28.961-5.943c-.265.775-.7.4-1.189-.479.346-.2.746-.116 1.189.479m80.665-17.144a.562.562 0 0 0-.038.111c-.838-.9-.541-.542.038-.111m1.73.993a1.337 1.337 0 0 0 .07-.978c-.108.6-.492.639-.935.479.13.61.362 1.032.865.5M64.069 9.139l.341.605c-.746.683-.541.073-.341-.605" class="cls-1" transform="translate(1.146 2.462)"/>
            <path id="패스_2428" d="M30.49 6.8a6.3 6.3 0 0 1-.178-1.269A1.306 1.306 0 0 0 30.49 6.8" class="cls-1" transform="translate(133.172 21.259)"/>
            <path id="패스_2429" d="M19.887 7.006c-.022-.019-.038-.01-.059-.024a2.73 2.73 0 0 0-.054.421z" class="cls-1" transform="translate(87.124 26.835)"/>
            <path id="패스_2430" d="M41.82 6.894a2.618 2.618 0 0 1-.7-1.2c-.011.576.157 1.056.7 1.2" class="cls-1" transform="translate(181.191 21.881)"/>
            <path id="패스_2431" d="M48.674.951l-1.092.62c.53-.121.73.387 1 .756-.032-.547-.249-1.337.092-1.375" class="cls-1" transform="translate(209.656 3.656)"/>
            <path id="패스_2432" d="M49.874 5.037c.157-.291.335-.034.492-.329l-.054-1.085c-.687.082-1.152.959-.438 1.414" class="cls-1" transform="translate(218.182 13.926)"/>
            <path id="패스_2433" d="M47.991 3.28c.114 1.962.789 1.288 1.557.915a.186.186 0 0 1-.135 0c.189-2.751-.622-1.831-1.422-.915" class="cls-1" transform="translate(211.458 9.082)"/>
            <path id="패스_2434" d="M48.312 3.2a.929.929 0 0 1 .708-.058c.081-1.1-.287-.228-.708.058" class="cls-1" transform="translate(212.872 10.005)"/>
            <path id="패스_2435" d="M47.1 3.4c.373.5.195-2.514.411-1.715.373-2.509-2.39 3.051-.411 1.715" class="cls-1" transform="translate(204.354 3.948)"/>
            <path id="패스_2436" d="M48.7 5.809l-.3-2.422-.405 1.957z" class="cls-1" transform="translate(211.457 13.019)"/>
            <path id="패스_2437" d="M47 3.845l1.238.659a1 1 0 0 1 .319-.833c-.762-.073-1.595-.542-1.557.174" class="cls-1" transform="translate(207.069 13.268)"/>
            <path id="패스_2438" d="M47.283 3.824a.887.887 0 0 0 .984-.412 1.77 1.77 0 0 0-.984.412" class="cls-1" transform="translate(208.339 13.115)"/>
            <path id="패스_2439" d="M48.823 4.576l-.368-.5-.87-.17z" class="cls-1" transform="translate(209.668 14.999)"/>
            <path id="패스_2440" d="M45.654 3.466l-1.33.707c-.13.833.243 1.342.741 1.007.314-.586.806-.911.589-1.715" class="cls-1" transform="translate(195.187 13.322)"/>
            <path id="패스_2441" d="M45.819 6.286A5.264 5.264 0 0 1 45.2 4.45v3.008z" class="cls-1" transform="translate(199.174 17.104)"/>
            <path id="패스_2442" d="M45.363 4.983c-.119.833-1.914 2.417-.216 2.209.124-.828 1.46-1.535.216-2.209" class="cls-1" transform="translate(195.727 19.152)"/>
            <path id="패스_2443" d="M40.847 8.19l.341-.044-.114-4.93z" class="cls-1" transform="translate(179.98 12.36)"/>
            <path id="패스_2444" d="M37.733 9.728c1.606 1.162.335-3.046 1.795-1.589.351-1.172-1.195-1.191-.822-2.2-.946 1.24-1.46.552-.973 3.792" class="cls-1" transform="translate(165.437 22.815)"/>
            <path id="패스_2445" d="M37.761 6.536a5.2 5.2 0 0 0 .476-.756 2.419 2.419 0 0 0-.476.756" class="cls-1" transform="translate(166.383 22.216)"/>
            <path id="패스_2446" d="M1.354 2.826L.321 1.808 1 3.455z" class="cls-1" transform="translate(1.416 6.952)"/>
            <path id="패스_2447" d="M.86 5.268L.578 2.13 0 4.978c.227-.14.676-.417.86.291" class="cls-1" transform="translate(0 8.188)"/>
            <path id="패스_2448" d="M26.728 9.045l.07-.756c-.173-.819-.411-.877-.892-1z" class="cls-1" transform="translate(114.147 28.027)"/>
            <path id="패스_2449" d="M23.686 9.4l.238.063-.481-2.838z" class="cls-1" transform="translate(103.295 25.467)"/>
            <path id="패스_2450" d="M21.369 9.217c.476.111 1.027-.528 1.5-.412-1.027.523-1.681-3.134-1.5.412" class="cls-1" transform="translate(94.027 29.405)"/>
        </g>
    </g>
</svg>
