<svg xmlns="http://www.w3.org/2000/svg" id="line" width="182" height="19.396" viewBox="0 0 182 19.396">
    <defs>
        <clipPath id="clip-path">
            <path id="사각형_1921" d="M0 0H182V19.397H0z" class="cls-1"/>
        </clipPath>
        <style>
            .cls-1{fill:#60e7a3}
        </style>
    </defs>
    <g id="그룹_1471" clip-path="url(#clip-path)">
        <path id="패스_2370" d="M57.014 1.99c.268.087.156-.921.195-1.1-.446.226-.179 1.363-.195 1.1" class="cls-1" transform="translate(124.661 1.249)"/>
        <path id="패스_2371" d="M55.977 2.555l.073-.411-.638 1.012z" class="cls-1" transform="translate(121.3 3.013)"/>
        <path id="패스_2372" d="M54.29 2.721c.418 1.712 1.5-.291 2.245.313l.131.39.309-1.383c-.893.226-2.044 1.154-2.685.681" class="cls-1" transform="translate(118.841 2.866)"/>
        <path id="패스_2373" d="M53.617.788c.147.666-.469.58.52.2a1.322 1.322 0 0 1-.1-.168 1.209 1.209 0 0 1-.421-.036" class="cls-1" transform="translate(117.244 1.108)"/>
        <path id="패스_2374" d="M53.76.955c.437-.05-.293-.558 0 0" class="cls-1" transform="translate(117.525 .977)"/>
        <path id="패스_2375" d="M53.281 1.769l.564-.6C53.721.774 53.207.69 53.392.4c-.584.332-.456.724-.112 1.368" class="cls-1" transform="translate(115.992 .564)"/>
        <path id="패스_2376" d="M52.916 1.712l.293-.255c-.054-.166-.134-.221-.293.255" class="cls-1" transform="translate(115.834 1.879)"/>
        <path id="패스_2377" d="M53.63 1.162l-.622.539c.086.277.105.832.287-.195-.045.507.07.019.335-.344" class="cls-1" transform="translate(116.035 1.633)"/>
        <path id="패스_2378" d="M53.317 1.29c.328.37.749.6.182 1.2 1.094-.248.915-1.452-.182-1.2" class="cls-1" transform="translate(116.711 1.765)"/>
        <path id="패스_2379" d="M54.234 3.18l.44.5.364-.577c-.182.286-.839-.459-.8.079" class="cls-1" transform="translate(118.716 4.184)"/>
        <path id="패스_2380" d="M51.954.614a11.771 11.771 0 0 0 .262 1.438l.415-.423c-.22-.248-.638-.474-.676-1.015" class="cls-1" transform="translate(113.722 .863)"/>
        <path id="패스_2381" d="M52.463 1.212l-.625.632c.568.07.666-.231.625-.632" class="cls-1" transform="translate(113.474 1.703)"/>
        <path id="패스_2382" d="M53.031 3.061l1.024-1.327L52.83 3.08z" class="cls-1" transform="translate(115.646 2.436)"/>
        <path id="패스_2383" d="M51.379 1.1l.348-.849-.622 1.284z" class="cls-1" transform="translate(111.87 .353)"/>
        <path id="패스_2384" d="M51.536 1.616C51.791.914 51.15.435 51.428 0c-.437.13-.8.736-1.129 1.277.354-.3.737-.231 1.237.339" class="cls-1" transform="translate(110.105 .001)"/>
        <path id="패스_2385" d="M50.126 1.325a4.531 4.531 0 0 0 .552-.794 2.229 2.229 0 0 0-.552.794" class="cls-1" transform="translate(109.726 .747)"/>
        <path id="패스_2386" d="M51.852 2.011a1.724 1.724 0 0 0-.517-1.039L51.6 2c.077.007.166.01.252.014" class="cls-1" transform="translate(112.373 1.366)"/>
        <path id="패스_2387" d="M51.8 1.461l-.01-.034c-.271-.017-.459-.041-.539-.05.067.007.233.034.549.084" class="cls-1" transform="translate(112.187 1.935)"/>
        <path id="패스_2388" d="M51.561 1.408a.283.283 0 0 0-.064 0c.026.1.041.132.064 0" class="cls-1" transform="translate(112.727 1.974)"/>
        <path id="패스_2389" d="M52.842 1.9c-.364.577-1.132 1.2-.364 2.07.255-.707-.185-1.2.364-2.07" class="cls-1" transform="translate(114.154 2.677)"/>
        <path id="패스_2390" d="M51.621 2.362l.679.228c-.016-.272-.147-.666.035-.952z" class="cls-1" transform="translate(112.999 2.302)"/>
        <path id="패스_2391" d="M51.519 2.317l.325-.329-.252-.088z" class="cls-1" transform="translate(112.775 2.675)"/>
        <path id="패스_2392" d="M51.152 1.258a1.207 1.207 0 0 1-.96.565 2.535 2.535 0 0 0 1.167.3c.051-.322.207-.9-.207-.863" class="cls-1" transform="translate(109.871 1.765)"/>
        <path id="패스_2393" d="M50.989 1.369c-.019.024-.045.036-.064.06.041.087.073.113.064-.06" class="cls-1" transform="translate(111.475 1.924)"/>
        <path id="패스_2394" d="M49.079 1.5c.022.055.038.125.061.185l.01-.178z" class="cls-1" transform="translate(107.434 2.111)"/>
        <path id="패스_2395" d="M50.635 1.916c.293.195.466-.058.625-.378a1.724 1.724 0 0 1-.692.185c-.022.147-.026.243.067.192" class="cls-1" transform="translate(110.665 2.161)"/>
        <path id="패스_2396" d="M49.818 1.108a3.761 3.761 0 0 0 .513.56c-.153-.325-.462-.827-.513-.56" class="cls-1" transform="translate(109.052 1.451)"/>
        <path id="패스_2397" d="M50.915 1.377a.257.257 0 0 1 .045-.048c-.1-.219-.086-.111-.045.048" class="cls-1" transform="translate(111.383 1.694)"/>
        <path id="패스_2398" d="M51.149 1.277a2.582 2.582 0 0 0-.373.63 1.51 1.51 0 0 0 .475-.346 2.024 2.024 0 0 1-.1-.284" class="cls-1" transform="translate(111.149 1.795)"/>
        <path id="패스_2399" d="M49.293 8c.035-.952.784-1.84 1.461-.825.638-.721.163-3.848-.431-5.6a1.554 1.554 0 0 1-.667 1.368c.242.519 1.5 1.2.95 2.07-.874.5-.727-.329-1.167-.83.386 1.183-1.1 1.736-.877 3.48l.765-.62c.019.269-.252.7-.035.952" class="cls-1" transform="translate(106.255 2.219)"/>
        <path id="패스_2400" d="M50.364 2.434l.271-.12c-.313-.164-.542-.541-.969-1.282a1.734 1.734 0 0 0-.564 1.14l1.355.12z" class="cls-1" transform="translate(107.483 1.45)"/>
        <path id="패스_2401" d="M50.816 1.927c-.2 1.039-.851 1.484-.427 2.6.8-.079.549-.871 1.024-1.325-1.295.269.364-.58-.587-1.159a1.755 1.755 0 0 1 .7-.279 3.466 3.466 0 0 1-.682-.469l.032.065h.006v.017c.057.127.077.2.013.132a.042.042 0 0 1-.029.019 2.786 2.786 0 0 1-.051.394c-.38-.212-.064-.269.051-.394a1.173 1.173 0 0 0 .016-.151l-.006-.014-1.295.58a1.922 1.922 0 0 0 1.234-.014" class="cls-1" transform="translate(108.536 1.823)"/>
        <path id="패스_2402" d="M52.123 3.835a.638.638 0 0 1-.048-.24c-.08.127-.112.216.048.24" class="cls-1" transform="translate(113.849 5.051)"/>
        <path id="패스_2403" d="M52.343 4.9c.092-.147.166-.56.472-.457.274.308.01.5.029.837.182-.277.638-.748.048-1.248l-.089.142a3.594 3.594 0 0 1-1.135-1.78 11.5 11.5 0 0 0 .675 2.506" class="cls-1" transform="translate(113.083 3.365)"/>
        <path id="패스_2404" d="M51.651 2.608l-1.078.519.568.89-.035-.536c.619.2.475-.457.545-.873" class="cls-1" transform="translate(110.705 3.664)"/>
        <path id="패스_2405" d="M49.364 1.929l.128-1.1-.6 1.551z" class="cls-1" transform="translate(107.018 1.17)"/>
        <path id="패스_2406" d="M48.822 1.9l.035-.952-.364.577z" class="cls-1" transform="translate(106.154 1.339)"/>
        <path id="패스_2407" d="M23.938 6.561l-.319.274a.968.968 0 0 0 .319-.274" class="cls-1" transform="translate(51.702 9.217)"/>
        <path id="패스_2408" d="M24.479 6.853l.051-.469c-.105.26-.147.45-.051.469" class="cls-1" transform="translate(53.467 8.969)"/>
        <path id="패스_2409" d="M38.4 2.447c-.478-.885-1.02-2.258-.947-1.188l.158 1.041a.581.581 0 0 1 .788.147" class="cls-1" transform="translate(81.967 1.221)"/>
        <path id="패스_2410" d="M30.342 4.605c.048.1.092.209.14.315l.3-1c-.134.216-.284.445-.44.685" class="cls-1" transform="translate(66.419 5.507)"/>
        <path id="패스_2411" d="M30.688 6.39l-.622-.666a2.339 2.339 0 0 0 .622.666" class="cls-1" transform="translate(65.815 8.041)"/>
        <path id="패스_2412" d="M20.016 7.069l-.354 1.065c.58-.012.316-.543.354-1.065" class="cls-1" transform="translate(43.04 9.931)"/>
        <path id="패스_2413" d="M44.764 1.925a1.955 1.955 0 0 0-1.008-.62c.491.594.893 1.491 1.008.62" class="cls-1" transform="translate(95.782 1.834)"/>
        <path id="패스_2414" d="M24.127 1.954a.819.819 0 0 0-.261.637.667.667 0 0 0 .261-.637" class="cls-1" transform="translate(52.24 2.746)"/>
        <path id="패스_2415" d="M43.393 1.575a2.583 2.583 0 0 0 .214.243 1.325 1.325 0 0 1 .944-.257c-.364-.442-.778-.714-1.158.014" class="cls-1" transform="translate(94.988 1.579)"/>
        <path id="패스_2416" d="M5.513 6.956a1.224 1.224 0 0 1-.105-.123c-.01.139.038.147.105.123" class="cls-1" transform="translate(11.835 9.599)"/>
        <path id="패스_2417" d="M1.212 2.632a1.669 1.669 0 0 1 .545-.087c-.1-.07-.265-.063-.545.087" class="cls-1" transform="translate(2.653 3.517)"/>
        <path id="패스_2418" d="M46.816 1.222c.3-.07.048-.115 0 0" class="cls-1" transform="translate(102.481 1.619)"/>
        <path id="패스_2419" d="M47.37 2.89a1.044 1.044 0 0 0-.112.507 1.3 1.3 0 0 1 .112-.507" class="cls-1" transform="translate(103.448 4.06)"/>
        <path id="패스_2420" d="M42.509 4.023h-.026c.092.2.077.164.026 0" class="cls-1" transform="translate(92.998 5.649)"/>
        <path id="패스_2421" d="M47.227 1.554a1.343 1.343 0 0 0-.389-.305 1.605 1.605 0 0 0 .389.305" class="cls-1" transform="translate(102.529 1.755)"/>
        <path id="패스_2422" d="M46.938 1.227c.105.046.185.072.265.1.032-.173 0-.284-.265-.1" class="cls-1" transform="translate(102.748 1.59)"/>
        <path id="패스_2423" d="M46.686 1.24a.923.923 0 0 1 .485.1c-.061-.07-.086-.127-.07-.164a3.846 3.846 0 0 1-.415.06" class="cls-1" transform="translate(102.196 1.658)"/>
        <path id="패스_2424" d="M13.265 5.687a1.144 1.144 0 0 1-.067-.1c-.293.438-.163.366.067.1" class="cls-1" transform="translate(28.52 7.85)"/>
        <path id="패스_2425" d="M35.366 6.11c.013-.01.019-.038.032-.05l-.041-.036z" class="cls-1" transform="translate(77.395 8.461)"/>
        <path id="패스_2426" d="M35.027 8.653c.437-1.3.7-1.145 1.049-.873l-.4-3.006z" class="cls-1" transform="translate(76.674 6.707)"/>
        <path id="패스_2427" d="M69.551 15.229l.769.931c-.883 1.551-1.55 1.024-.823 2.337.054-3.268 2.924-.361 2.979-3.624l.507.681c-.144-.029-.163.164-.3.13.992 1.556.679-2.366 1.933-1.912.437.245.749.717.459 1.106l.954-.815c.281.06.223.628-.057.568l1.47-.274-.01.1a11.048 11.048 0 0 1 .893-1.65c.383.467-.182.349-.08.755l.8-.8c.348.842-.316 1.669-.883 1.553.816 3.254.663-.827 2.341 1.063l-.762.421c.526 1.847 1.116 1.171 2.009 2.318-.217-.6-1.8-2.9-.922-3.718.255.245.587.361 1.052-.3.022 1.161.485.873 1.068.8l-.013 1.539c.622-.45.561-1.231.922-1.929.7.144.871 1.335 1.052 2.337 1.132.236-.81-1.9.52-2.205.947.58 1.6-.055 2.7-.986.667.524-.1.943.143 1.38l.564-1.231c.144.026.1.4.083.594.482-.479.013-1.537.778-1.962.182-1.7 1.62 2.462 2.545.529.242.435-.1.945-.016 1.539a8.453 8.453 0 0 0 2.153-2.636l.931 1c-.689-1.147.147-2.523.88-3.653-.246-.555-.459-1.041-.6-1.272l1.19-.837a2.284 2.284 0 0 1-.15 1.424c.08-.127.156-.255.214-.37.44.565.23 1.455-.064 2.316-.15-.3-.3-.623-.446-.945a8.151 8.151 0 0 0-.469 2.876.909.909 0 0 1 .389-.421 1.4 1.4 0 0 0-.083.635c.045.161.166-.18.354-.572l.3 1.71.054-.681 1.588 1.058c1.1-1.736 2.035-4.285 3.8-5.009-.421 1.26-.061 2.054-.061 3.545-.513-1.573-1.371.683-2.3.37.488.161.392.873.274 1.121l1.626-1.448c-.019 1.217.364.909.8 1.409-.364-2.4 1.2-1.616 1.862-2.359.054.808-.092 1.633-.915 1.448.934 1.8 1.123-2.84 2.035-1.308-.2.024-.309-.1-.383.31.456-.724 1.607-.164 1.349.543l-.2.019c1.33.272 4.04-.019 4.206-2.068.016.265-.134 2.467-.21 2.881l2.258-6.9c-.179 1.758.689 5.935-.4 6.938.319.245.714.534 1.371-.091-.22-.25-.577-2.535-.287-2.7.842 1.948.58 1.041 1.6 2.7-.332-.373-.016-3.131.5-3.049a26.877 26.877 0 0 1-.1 3.008l1.228-2.715c-.313.491-.019 2.292.277 3.054-.14-.529 1.1.038 1.432-.233l-.549-.62c1.445.394 1.359-3.816 2.784-3.686-.163.56-.37 3.441.36 3.775.306-1.39 1.359-6.676 2.6-7.755l.255.791.954-.911a58.735 58.735 0 0 1-3.084 8.205c.549.623.166.933.969.854a.886.886 0 0 1-.657 1.176l1.882.462c-.112-1.618 1.406-1.635 1.311-2.982l-2.006 1.7c-.108-1.614 1.1-4.6 2.433-4.326.348.64-.207 2.878-.169 3.417.163-.558 1.244-1.073 1.371-.681l-.552.871c.749.6 1.17-2.155 2.086-.62.306.1.947 2.073.985 1.118a32.724 32.724 0 0 1-.408-8.934 13.487 13.487 0 0 1 2 2.655c.526 1.443-.7 3.456-.252 4.692a2.717 2.717 0 0 1 .392-1.164c.329.375-.112 1.368.587 1.164.089-1.64 1.422.125.306-1.39.676-.474.733.329 1.534.252a5.874 5.874 0 0 1 1.343-4.086 3.5 3.5 0 0 0 .207 1.2c1.4.137 2.169.873 3.476.875.128.4.765.871.507 1.578.185-.291.348-.849.749-.892.8 1.412-.9.231-.271 1.926.035-.952 1.021-1.323 1.585-1.924-.2-1.469-1.33-.269-1.9.332a6.43 6.43 0 0 1 2.283-5.115c1.078-.515.491 1.308.676 1.015 2.044.337 1.681-3.559 3.4-2.109.692 1.287.073 2.571.236 3.5-.877.5-1.371-.808-1.968-.75l.746.6c-.274.433-.858.762-1.186.392.58 1.157 3.451.192 5.042 1.25.271-.438.746-.89.51-1.407l-.5.183c-.475-1.036.915-1.45.277-1.929.654-.741 1.384-1.9 2.334-1.318l.2 1.472c-.025-.43-.628-.873-.887-.421.383-.656 1.476 1.982 1.875.048l-.676-1.015c.657-.748 1.461-2.321 2.3-1.864-.4-1.452-.188.168-.81-1.529.549 2.116-2.133-.07-1.272 2.15-.638-1.972-1.065-.827-1.888-2.506.035.483.3.926-.4.693a2.578 2.578 0 0 1-.147.43.313.313 0 0 1-.048-.036l.038.058c-.029.072-.032.089.016.019a1.817 1.817 0 0 1 .367.736c-.328 1.121-1.441 1.094-1.808 1.676-.418-.226.166-.558-.07-1.075l-.549.868c-.07-1.08-1.129-1.784-.163-2.426l-.883-.038c-.526-.6-1.244-.834-1.674-.378-.418-.231-1.03 1.2-.682.356l-1.371.683-.016-.272c-1.365-.123-2.774 1.816-4.363-.12a1.687 1.687 0 0 1-1.693.315l-.166-.933c-.584.332-1.783-.919-2.019.058-.676-2.508-2.867-.522-3.91-.959l.014 1.224a4.079 4.079 0 0 0-2.267.786l.07 1.077c-.749.895-1.971-.748-3.176-.628.077-.411.383-.308.6-.06-1.48-2.422-3.014 1.8-4.347.036-.322.4-.558.265-.791 0a.116.116 0 0 0 .08-.058.333.333 0 0 0-.134-.012c-.147-.185-.3-.4-.462-.57a2.275 2.275 0 0 0 .389.575 2.175 2.175 0 0 0-1 .435l-.175-1.157c-.032.014-.057.012-.086.034-.373-.426-.287.551-.077 1.419a2.578 2.578 0 0 0-.485.7c-.328-1.868-.969.637-1.406-1.351-.236.974-1.866.748-2.031 2.794-.019-.265-.131-.392.07-.409-.421-.231-.839-.459-1.2.12l-.2-1.472-.877 1.989a2.164 2.164 0 0 1-.274-2.549c-1.3 1.755-1.062.666-2.162 2.4l.038-.952c-.4.038-1.024 1.32-1.279.536-.931-1.8-4.458-.209-6.8-1.871.494 2.8-1.094-1.246-1.151.928-.143-.661-.472-1.034-.108-1.614-1.166.674-1.788-1.026-2.573.812-.147-.666.236-.976.112-1.368-.1.144-.367.58-.494.185s.163-.558.344-.849c-1.205.123-1.292 2.167-1.349 4.086-.625-.9-.928-.772-1.349.491-.223-.625-.587-1.277.159-1.51-.424-.089-2.589-.9-2.609.64-.137-.387-.59-.106-.7.072a5.437 5.437 0 0 0-1.958-.067l.262.248c-.335 1.859-.765.421-1.508.652l.016-.19c-1.735-1.323-.73.647-2.446-.863L87 6.815c-.118 2.482-1.524-1.45-2.491-.493l.364.656c-.523.854-1.553-3.359-2.1-3.665-.121-.214.179-.349.341-.507-1.435-1.452-.159 1.51-1.205 1.871-.207-.813.217-2.073-.494-2.22-.36-.654-2.009 2.664-3 1.111.223.628.443 1.25-.038 1.729-.743.231-2.06-2.357-2.7-.37a1.041 1.041 0 0 1-.144-.491c-.564.515-1.843.866-2.172 1.941-.593-3.977-3.524 1.972-3.572-1.7l-1.757.212.041-.375c-1.129-.233-1.512.652-1.894 1.537-.265-.248-.08-.592-.061-.784-1.65-.729-1.818-.567-3.162 1.271l-.156-1.19c-.364.695-2.408-1.847-4-.442a1.1 1.1 0 0 1 .166-.536c-1.789 1.414-4.391-3.266-4.988 1.08L52.8 6.529c1.553.325-.2 1.888.446 2.6-.6.26-1.595-1.3-.848-1.525l.121.216c.239-2.265-1.936-.784-1.92-2.325-3.046.139-6.037-1.087-8.891-1.157l.357 1.762-.995-.1c-.268-.406-.376-1.373.338-1.306-.389-.993-1.18.844-1.193 1.229-1.4-.7.51-2.058.083-2.095l-.577.135.134.2c-.456.724-.488 1.486-1.343 1.407-.545-.346-.293-1.082-.507-1.147 0-.125-.073-.183-.328-.048l-1.257-.131.526 1.385c-.545.688-1.18-.063-.577 1.505-.89-2.419-4.694-.827-5.227-1.575a2.266 2.266 0 0 1-2.484.895c.242.286.408 1.847-.415 1.662.246-3.222-1.528-1.383-2.229-3.7.619 1.532-2.328.4-1.362 2.575-.689-.255-.061-1.2-.593-1.957-1.61 1.262-3.607-.779-5.616-.339-.022.423.322 1.065-.1 1.7l-1.1-2.1c-.4.212-.328 2.443-1.078.981.108.356.271.89.006 1.029-3.978-2.025-8.037 1.76-12.11-2.075.555.815.195.9-.22.933.274.195.013 1.046.073 1.618l-1.7-1.575C1.931 6.8.413 5.329.26 6.851l.529-.279c-.679 1.8 1.052 3.982.985 6.286.759-2.046 2.137 3 3.39.07.293.467-.233.745-.073 1.277.316-.988.711-1.2 1.454-.762l-.08.243c2.066-.257 2.969.707 5.307 1.335l-.191-1.137c.5.147.612.5.851.786.545-1.731-1.406-.084-.912-1.994.7 2.311 3.524 0 4.012 2.633.772.007-.246-1.318.523-1.308l.217.709.179-.921c.507.147.775 1.036.8 1.64-.124-.07-.344.173-.475.226.667.832 1.837-.3 2.066-.031l-.743-.433c2.086-.688 4.662.226 6.665-1.241l-.163-.536c1.534-1.01 1.25.577 2.94.1l-.057.127a1.315 1.315 0 0 1 1.247-.755c-.418.632.826 1.214.274 1.917 1.661-1.082.816-.846 1.894-2.854l.271.89c.364-.81.389-1.236 1.234-1.474-.686.772.561 1.354-.2 2.373 1.811 1.933 2.612-1.994 3.476.851.778-2.477-1.566-1.359-1.113-1.89-.4-.8.644-1.849 1.205-1.606.571.048 1.02 3.148 2.452 3.088-.144-.01-.15.176-.293.166.545.625 1.036-.861 1.709.156.344-1.5.855.077.928-1.828l-1.3.452c.737-.5 1.4-2.739 2.641-1.669a3.365 3.365 0 0 1-.689 1.176c.367.558.682-.378 1.065.195-.077 1.907-1.591.43-2.366 1.89.4.8 1.489-1.395 1.119.673.536-2.628 1.416.317 2.354-1.7l-.045 1.142c.15-.18.459-.721.74-.695l-.487 1.492c.762-1.27 1.531 1.089 2.271.4-1.575.048-.376-1.373-1.056-2.2 1.92-1.544 1.167 2.975 3.333 2.407-.29.166-1.116-.673-.663-1.207a2.9 2.9 0 0 1 1.237 1.26c1.435-.25-.242-1.171.36-1.878.513 1.385.7-.572 1.323-1.024l.022 1.161c1.655.729.4-2.422 1.891-1.534l-.6 1.614.765-.423-.137 1.32c.823-.986 1.087-.736 1.913-.373-.2-.815.077-2.107.8-2.15.507.685-.261 1.106.769.931-.223.729-.462 1.642-.928.577-.041.378-.22.729-.261 1.1.549.786 1.346.168 1.722.154a.608.608 0 0 1-.408-.267l1.47-1.621a1.086 1.086 0 0 1-.121 1.13c.3-.13.5-.664.947-.77-.1.945-.057 1.919-.682 2.369l1.41-1.06c.1.409.749 1.121.571 1.469.8.546 1.907-1.847 2.966-1.125a.831.831 0 0 1 .379-.5c.985.2 1.878 1.354 3.023.05l.689 1.686c.909-.394-.931-2.121.58-2.773 1.068-.551.424 1.438.81 1.9.523-.858 1.425-2.6 2.436-1.234-.322.322-.58.075-.887.2m11.256-.842c-.214.245-.638 1-.807.317.226-1.332.427-.7.807-.317m17.084-2.951c-.156.385-.411.2-.7-.238.2-.1.44-.058.7.238m47.58-8.513a.251.251 0 0 0-.022.055c-.494-.447-.319-.269.022-.055m1.021.493a.568.568 0 0 0 .041-.486c-.064.3-.29.317-.552.238.077.3.214.512.51.248M37.9 4.86l.2.3c-.44.339-.319.036-.2-.3" class="cls-1" transform="translate(.569 .9)"/>
        <path id="패스_2428" d="M30.381 6.161a2.668 2.668 0 0 1-.105-.63.565.565 0 0 0 .105.63" class="cls-1" transform="translate(66.16 7.77)"/>
        <path id="패스_2429" d="M19.84 6.994c-.013-.01-.022 0-.035-.012a1.153 1.153 0 0 0-.032.209z" class="cls-1" transform="translate(43.283 9.809)"/>
        <path id="패스_2430" d="M41.534 6.289a1.272 1.272 0 0 1-.411-.6.522.522 0 0 0 .411.6" class="cls-1" transform="translate(90.016 7.998)"/>
        <path id="패스_2431" d="M48.226.951l-.644.308c.313-.06.431.192.59.375-.019-.272-.147-.664.054-.683" class="cls-1" transform="translate(104.158 1.337)"/>
        <path id="패스_2432" d="M49.728 4.325c.092-.144.2-.017.29-.164l-.032-.539c-.405.041-.679.476-.258.7" class="cls-1" transform="translate(108.393 5.09)"/>
        <path id="패스_2433" d="M47.991 2.818c.067.974.466.64.918.454a.129.129 0 0 1-.08 0c.112-1.366-.367-.909-.839-.454" class="cls-1" transform="translate(105.053 3.32)"/>
        <path id="패스_2434" d="M48.312 2.9a.642.642 0 0 1 .418-.029c.048-.548-.169-.113-.418.029" class="cls-1" transform="translate(105.755 3.657)"/>
        <path id="패스_2435" d="M46.8 2.205c.22.25.115-1.248.242-.851.22-1.246-1.41 1.515-.242.851" class="cls-1" transform="translate(101.523 1.443)"/>
        <path id="패스_2436" d="M48.412 4.589l-.182-1.2-.239.972z" class="cls-1" transform="translate(105.052 4.759)"/>
        <path id="패스_2437" d="M47 3.647l.73.327a.46.46 0 0 1 .188-.414c-.45-.036-.941-.269-.918.087" class="cls-1" transform="translate(102.872 4.85)"/>
        <path id="패스_2438" d="M47.283 3.616a.568.568 0 0 0 .58-.2 1.159 1.159 0 0 0-.58.2" class="cls-1" transform="translate(103.503 4.794)"/>
        <path id="패스_2439" d="M48.315 4.237l-.217-.25-.513-.087z" class="cls-1" transform="translate(104.163 5.482)"/>
        <path id="패스_2440" d="M45.1 3.466l-.785.351c-.077.414.143.666.437.5.185-.291.475-.452.348-.851" class="cls-1" transform="translate(96.969 4.87)"/>
        <path id="패스_2441" d="M45.567 5.361a2.35 2.35 0 0 1-.367-.911v1.493z" class="cls-1" transform="translate(98.95 6.252)"/>
        <path id="패스_2442" d="M44.977 4.983c-.07.414-1.129 1.2-.128 1.1.073-.411.861-.762.128-1.1" class="cls-1" transform="translate(97.237 7.001)"/>
        <path id="패스_2443" d="M40.847 5.685l.2-.022-.067-2.448z" class="cls-1" transform="translate(89.414 4.518)"/>
        <path id="패스_2444" d="M37.657 7.819c.947.577.2-1.513 1.059-.789.207-.582-.7-.592-.485-1.094-.558.616-.861.274-.574 1.883" class="cls-1" transform="translate(82.19 8.339)"/>
        <path id="패스_2445" d="M37.761 6.155a2.567 2.567 0 0 0 .281-.375 1.188 1.188 0 0 0-.281.375" class="cls-1" transform="translate(82.659 8.12)"/>
        <path id="패스_2446" d="M.931 2.313l-.609-.5.4.818z" class="cls-1" transform="translate(.704 2.541)"/>
        <path id="패스_2447" d="M.507 3.688L.341 2.13 0 3.544c.134-.07.4-.207.507.144" class="cls-1" transform="translate(0 2.993)"/>
        <path id="패스_2448" d="M26.391 8.163l.041-.375c-.1-.406-.242-.435-.526-.5z" class="cls-1" transform="translate(56.709 10.244)"/>
        <path id="패스_2449" d="M23.587 8l.14.031-.284-1.409z" class="cls-1" transform="translate(51.317 9.309)"/>
        <path id="패스_2450" d="M21.357 8.428c.281.055.606-.262.887-.2-.606.26-.992-1.556-.887.2" class="cls-1" transform="translate(46.713 10.748)"/>
    </g>
</svg>
