<svg xmlns="http://www.w3.org/2000/svg" width="280.129" height="35.469" viewBox="0 0 280.129 35.469">
    <defs>
        <clipPath id="clip-path">
            <path id="사각형_1921" d="M0 0H280.129V35.469H0z" class="cls-1"/>
        </clipPath>
        <style>
            .cls-1{fill:#60e7a3}
        </style>
    </defs>
    <g id="line">
        <g id="그룹_1471" clip-path="url(#clip-path)">
            <path id="패스_2370" d="M57.049 2.9c.412.158.241-1.684.3-2.014-.687.413-.275 2.493-.3 2.014" class="cls-1" transform="translate(222.579 3.021)"/>
            <path id="패스_2371" d="M56.282 2.9l.113-.752L55.413 4z" class="cls-1" transform="translate(216.578 7.286)"/>
            <path id="패스_2372" d="M54.29 3.284c.643 3.131 2.307-.532 3.456.572l.2.712.476-2.528c-1.374.413-3.146 2.111-4.133 1.244" class="cls-1" transform="translate(212.189 6.932)"/>
            <path id="패스_2373" d="M53.648.788c.226 1.218-.722 1.06.8.374A2.558 2.558 0 0 1 54.3.854a1.576 1.576 0 0 1-.648-.066" class="cls-1" transform="translate(209.336 2.678)"/>
            <path id="패스_2374" d="M53.8 1.17c.672-.092-.452-1.02 0 0" class="cls-1" transform="translate(209.838 2.363)"/>
            <path id="패스_2375" d="M53.438 2.9l.869-1.1c-.191-.721-.982-.875-.7-1.4-.9.607-.7 1.324-.172 2.5" class="cls-1" transform="translate(207.101 1.364)"/>
            <path id="패스_2376" d="M52.916 2.022l.452-.466c-.083-.3-.206-.4-.452.466" class="cls-1" transform="translate(206.818 4.545)"/>
            <path id="패스_2377" d="M53.965 1.162l-.957.985c.133.506.162 1.521.442-.356-.069.928.108.035.515-.629" class="cls-1" transform="translate(207.178 3.949)"/>
            <path id="패스_2378" d="M53.317 1.318c.506.677 1.153 1.1.28 2.2 1.684-.453 1.409-2.656-.28-2.2" class="cls-1" transform="translate(208.386 4.268)"/>
            <path id="패스_2379" d="M54.235 3.346l.677.91.56-1.055c-.28.523-1.291-.84-1.237.145" class="cls-1" transform="translate(211.964 10.12)"/>
            <path id="패스_2380" d="M51.955.614a25.21 25.21 0 0 0 .4 2.63L53 2.47A3.036 3.036 0 0 1 51.955.614" class="cls-1" transform="translate(203.048 2.087)"/>
            <path id="패스_2381" d="M52.8 1.212l-.962 1.157c.874.128 1.026-.422.962-1.157" class="cls-1" transform="translate(202.605 4.119)"/>
            <path id="패스_2382" d="M53.14 4.161l1.576-2.427L52.83 4.2z" class="cls-1" transform="translate(206.484 5.89)"/>
            <path id="패스_2383" d="M51.527 1.8l.535-1.549-.957 2.349z" class="cls-1" transform="translate(199.741 .853)"/>
            <path id="패스_2384" d="M52.2 2.955C52.6 1.671 51.61.8 52.037 0 51.364.237 50.8 1.346 50.3 2.335c.545-.554 1.134-.422 1.9.62" class="cls-1" transform="translate(196.59 .001)"/>
            <path id="패스_2385" d="M50.126 1.982a8.455 8.455 0 0 0 .849-1.451 4.142 4.142 0 0 0-.849 1.451" class="cls-1" transform="translate(195.914 1.805)"/>
            <path id="패스_2386" d="M52.13 2.872a3.417 3.417 0 0 0-.8-1.9l.407 1.873c.118.013.255.018.388.026" class="cls-1" transform="translate(200.639 3.303)"/>
            <path id="패스_2387" d="M52.094 1.531l-.015-.062c-.417-.031-.707-.075-.83-.092.1.013.358.062.844.154" class="cls-1" transform="translate(200.307 4.679)"/>
            <path id="패스_2388" d="M51.6 1.411a.368.368 0 0 0-.1 0c.039.18.064.242.1 0" class="cls-1" transform="translate(201.272 4.773)"/>
            <path id="패스_2389" d="M53.215 1.9c-.56 1.055-1.742 2.2-.56 3.786.393-1.293-.285-2.2.56-3.786" class="cls-1" transform="translate(203.819 6.473)"/>
            <path id="패스_2390" d="M51.621 2.962l1.046.418a3.391 3.391 0 0 1 .054-1.741z" class="cls-1" transform="translate(201.757 5.566)"/>
            <path id="패스_2391" d="M51.519 2.66l.5-.6-.387-.16z" class="cls-1" transform="translate(201.358 6.468)"/>
            <path id="패스_2392" d="M51.669 1.26a1.823 1.823 0 0 1-1.477 1.033 3.423 3.423 0 0 0 1.8.545c.079-.589.319-1.653-.319-1.579" class="cls-1" transform="translate(196.172 4.269)"/>
            <path id="패스_2393" d="M51.023 1.369c-.029.044-.069.066-.1.11.064.158.113.207.1-.11" class="cls-1" transform="translate(199.037 4.652)"/>
            <path id="패스_2394" d="M49.079 1.5c.034.1.059.229.093.339l.015-.325z" class="cls-1" transform="translate(191.822 5.104)"/>
            <path id="패스_2395" d="M50.678 2.228c.452.356.717-.106.962-.69a2.334 2.334 0 0 1-1.065.339c-.034.268-.039.444.1.352" class="cls-1" transform="translate(197.59 5.226)"/>
            <path id="패스_2396" d="M49.818 1.171a6.592 6.592 0 0 0 .79 1.025c-.236-.594-.712-1.513-.79-1.025" class="cls-1" transform="translate(194.71 3.509)"/>
            <path id="패스_2397" d="M50.932 1.519A.449.449 0 0 1 51 1.431c-.157-.4-.133-.2-.069.088" class="cls-1" transform="translate(198.872 4.097)"/>
            <path id="패스_2398" d="M51.35 1.277a4.975 4.975 0 0 0-.574 1.152 2.39 2.39 0 0 0 .731-.633 4.175 4.175 0 0 1-.157-.519" class="cls-1" transform="translate(198.454 4.34)"/>
            <path id="패스_2399" d="M49.7 13.32c.054-1.741 1.207-3.364 2.248-1.508.982-1.319.25-7.036-.663-10.233a3.086 3.086 0 0 1-1.026 2.5c.373.95 2.307 2.2 1.463 3.786-1.345.91-1.119-.6-1.8-1.517.594 2.163-1.688 3.175-1.35 6.363l1.178-1.135c.029.493-.388 1.288-.054 1.741" class="cls-1" transform="translate(189.715 5.366)"/>
            <path id="패스_2400" d="M51.045 3.6l.417-.22c-.481-.3-.834-.989-1.492-2.344a3.449 3.449 0 0 0-.87 2.08l2.086.22z" class="cls-1" transform="translate(191.908 3.507)"/>
            <path id="패스_2401" d="M51.482 2.449c-.3 1.9-1.311 2.713-.658 4.758 1.237-.145.844-1.592 1.576-2.423-1.993.493.56-1.06-.9-2.12a2.47 2.47 0 0 1 1.08-.51 5.408 5.408 0 0 1-1.05-.857l.049.119h.01v.031c.088.233.118.374.02.242a.066.066 0 0 1-.044.035 6.01 6.01 0 0 1-.079.721c-.584-.387-.1-.493.079-.721a2.534 2.534 0 0 0 .025-.277l-.01-.026-1.993 1.06c.432.259.962.2 1.9-.026" class="cls-1" transform="translate(193.788 4.408)"/>
            <path id="패스_2402" d="M52.184 4.035a1.361 1.361 0 0 1-.074-.44c-.123.233-.172.4.074.44" class="cls-1" transform="translate(203.275 12.215)"/>
            <path id="패스_2403" d="M52.712 6.977c.142-.268.255-1.025.726-.835.422.563.015.91.044 1.53.28-.506.982-1.368.074-2.282l-.137.259a6.865 6.865 0 0 1-1.747-3.254 24.222 24.222 0 0 0 1.041 4.582" class="cls-1" transform="translate(201.908 8.138)"/>
            <path id="패스_2404" d="M52.232 2.608l-1.659.95.874 1.627-.054-.985c.952.374.731-.835.839-1.6" class="cls-1" transform="translate(197.661 8.862)"/>
            <path id="패스_2405" d="M49.62 2.838l.2-2.005-.928 2.836z" class="cls-1" transform="translate(191.078 2.829)"/>
            <path id="패스_2406" d="M49 2.694l.053-1.742-.56 1.055z" class="cls-1" transform="translate(189.535 3.237)"/>
            <path id="패스_2407" d="M24.11 6.561l-.491.5a1.6 1.6 0 0 0 .491-.5" class="cls-1" transform="translate(92.313 22.291)"/>
            <path id="패스_2408" d="M24.508 7.241l.079-.857c-.162.475-.226.822-.079.857" class="cls-1" transform="translate(95.464 21.69)"/>
            <path id="패스_2409" d="M38.913 3.755c-.736-1.618-1.571-4.129-1.458-2.172l.245 1.9c.5-.347.883-.141 1.212.268" class="cls-1" transform="translate(146.351 2.952)"/>
            <path id="패스_2410" d="M30.342 5.173c.074.185.142.383.216.576.167-.655.319-1.262.461-1.829-.206.4-.437.814-.677 1.253" class="cls-1" transform="translate(118.59 13.319)"/>
            <path id="패스_2411" d="M31.023 6.942l-.957-1.218a4.089 4.089 0 0 0 .957 1.218" class="cls-1" transform="translate(117.511 19.448)"/>
            <path id="패스_2412" d="M20.207 7.069l-.545 1.948c.893-.022.486-.994.545-1.948" class="cls-1" transform="translate(76.848 24.017)"/>
            <path id="패스_2413" d="M45.307 2.44a2.956 2.956 0 0 0-1.551-1.14c.756 1.086 1.374 2.726 1.551 1.135" class="cls-1" transform="translate(171.017 4.435)"/>
            <path id="패스_2414" d="M24.268 1.954a1.652 1.652 0 0 0-.4 1.165 1.336 1.336 0 0 0 .4-1.165" class="cls-1" transform="translate(93.274 6.64)"/>
            <path id="패스_2415" d="M43.393 1.949a4.573 4.573 0 0 0 .329.444 1.811 1.811 0 0 1 1.453-.471c-.56-.809-1.2-1.306-1.782.026" class="cls-1" transform="translate(169.598 3.817)"/>
            <path id="패스_2416" d="M5.57 7.057a2.18 2.18 0 0 1-.162-.224c-.015.255.059.268.162.224" class="cls-1" transform="translate(21.131 23.215)"/>
            <path id="패스_2417" d="M1.212 2.74a2.2 2.2 0 0 1 .839-.158c-.152-.128-.407-.114-.839.158" class="cls-1" transform="translate(4.737 8.506)"/>
            <path id="패스_2418" d="M46.816 1.281c.461-.128.074-.211 0 0" class="cls-1" transform="translate(182.977 3.914)"/>
            <path id="패스_2419" d="M47.43 2.89a2.207 2.207 0 0 0-.172.928 2.763 2.763 0 0 1 .172-.928" class="cls-1" transform="translate(184.705 9.82)"/>
            <path id="패스_2420" d="M42.523 4.025h-.039c.142.369.118.3.039 0" class="cls-1" transform="translate(166.046 13.662)"/>
            <path id="패스_2421" d="M47.437 1.807a2.164 2.164 0 0 0-.6-.558 2.6 2.6 0 0 0 .6.558" class="cls-1" transform="translate(183.063 4.245)"/>
            <path id="패스_2422" d="M46.938 1.306a4.041 4.041 0 0 0 .407.18c.049-.317 0-.519-.407-.18" class="cls-1" transform="translate(183.454 3.844)"/>
            <path id="패스_2423" d="M46.686 1.29a1.236 1.236 0 0 1 .746.189c-.093-.128-.133-.233-.108-.3a5.05 5.05 0 0 1-.638.11" class="cls-1" transform="translate(182.469 4.01)"/>
            <path id="패스_2424" d="M13.393 5.768c-.029-.062-.069-.1-.1-.18-.452.8-.25.668.1.18" class="cls-1" transform="translate(50.922 18.986)"/>
            <path id="패스_2425" d="M35.371 6.181c.02-.018.029-.07.049-.092l-.064-.066z" class="cls-1" transform="translate(138.186 20.463)"/>
            <path id="패스_2426" d="M35.027 11.867c.672-2.383 1.075-2.093 1.615-1.6l-.623-5.5z" class="cls-1" transform="translate(136.901 16.22)"/>
            <path id="패스_2427" d="M106.91 27.318l1.183 1.7c-1.36 2.836-2.385 1.873-1.266 4.274.083-5.976 4.5-.66 4.584-6.627l.78 1.244c-.221-.053-.25.3-.466.237 1.527 2.845 1.046-4.327 2.975-3.5a1.551 1.551 0 0 1 .707 2.023l1.468-1.491c.432.11.344 1.148-.088 1.038l2.263-.5-.015.176a21.645 21.645 0 0 1 1.374-3.017c.589.853-.28.638-.123 1.381l1.237-1.46c.535 1.539-.486 3.052-1.36 2.841 1.257 5.95 1.021-1.513 3.6 1.944l-1.173.77c.81 3.377 1.718 2.142 3.092 4.239-.334-1.1-2.763-5.294-1.419-6.8.393.449.9.66 1.62-.554.034 2.124.746 1.6 1.644 1.464l-.02 2.814c.957-.822.864-2.251 1.419-3.527 1.085.264 1.34 2.441 1.62 4.274 1.742.431-1.247-3.478.8-4.032 1.458 1.06 2.459-.1 4.157-1.8 1.026.959-.152 1.724.221 2.524l.869-2.251c.221.048.157.739.128 1.086.741-.875.02-2.81 1.2-3.588.28-3.1 2.493 4.5 3.917.967.373.8-.152 1.728-.025 2.814a15.209 15.209 0 0 0 3.313-4.819L146.561 23c-1.06-2.1.226-4.613 1.355-6.68-.378-1.016-.707-1.9-.923-2.326l1.831-1.53a4.912 4.912 0 0 1-.231 2.6c.123-.233.241-.466.329-.677.677 1.033.353 2.66-.1 4.235-.231-.55-.461-1.139-.687-1.728a17.471 17.471 0 0 0-.722 5.259 1.586 1.586 0 0 1 .6-.77 3.005 3.005 0 0 0-.128 1.161c.069.295.255-.33.545-1.047l.466 3.127.083-1.244 2.444 1.935c1.688-3.175 3.132-7.836 5.856-9.16-.648 2.3-.093 3.755-.093 6.482-.79-2.876-2.111 1.249-3.544.677.751.295.6 1.6.422 2.049l2.5-2.647c-.029 2.225.56 1.662 1.237 2.577-.56-4.4 1.851-2.955 2.867-4.314.083 1.478-.142 2.986-1.409 2.647 1.438 3.3 1.728-5.193 3.132-2.392-.309.044-.476-.185-.589.567.7-1.324 2.474-.3 2.076.994l-.3.035c2.047.5 6.219-.035 6.474-3.782.025.484-.206 4.512-.324 5.268l3.475-12.62c-.275 3.214 1.06 10.853-.609 12.686.491.449 1.1.976 2.111-.167-.339-.457-.888-4.635-.442-4.934 1.3 3.562.893 1.9 2.469 4.934-.51-.682-.025-5.725.766-5.576-.113.756.133 4.973-.147 5.5l1.89-4.965c-.481.9-.029 4.191.427 5.585-.216-.967 1.693.07 2.2-.427l-.844-1.135c2.224.721 2.091-6.979 4.285-6.741-.25 1.025-.569 6.293.555 6.9.471-2.542 2.091-12.207 4.005-14.181l.393 1.447 1.468-1.667a120.7 120.7 0 0 1-4.746 15c.844 1.139.255 1.706 1.492 1.561a1.644 1.644 0 0 1-1.011 2.15l2.9.844c-.172-2.959 2.165-2.99 2.017-5.453l-3.087 3.1c-.167-2.951 1.7-8.412 3.745-7.911.535 1.17-.319 5.264-.26 6.249.25-1.02 1.914-1.961 2.111-1.244l-.849 1.592c1.154 1.1 1.8-3.94 3.21-1.135.471.185 1.458 3.791 1.517 2.045-.815-3.368-1.1-13.8-.628-16.336a24.68 24.68 0 0 1 3.082 4.855c.81 2.638-1.085 6.319-.388 8.579a5.608 5.608 0 0 1 .6-2.128c.506.686-.172 2.5.9 2.128.137-3 2.189.229.471-2.542 1.041-.866 1.129.6 2.361.462-.417-1.935 1.021-6.6 2.066-7.471a7.493 7.493 0 0 0 .319 2.2c2.16.251 3.338 1.6 5.35 1.6.2.726 1.178 1.592.78 2.885.285-.532.535-1.552 1.153-1.631 1.237 2.581-1.379.422-.417 3.522.054-1.741 1.571-2.419 2.439-3.518-.309-2.687-2.047-.493-2.921.607-.054-3.711 1.433-7.616 3.514-9.353 1.659-.941.756 2.392 1.041 1.856 3.146.616 2.587-6.508 5.227-3.856 1.065 2.353.113 4.7.363 6.407-1.35.91-2.111-1.478-3.029-1.372l1.149 1.1c-.422.792-1.32 1.394-1.826.717.893 2.115 5.311.352 7.76 2.287.417-.8 1.149-1.627.785-2.572l-.766.334c-.731-1.9 1.409-2.652.427-3.527 1.006-1.354 2.13-3.474 3.593-2.41l.309 2.691c-.039-.787-.967-1.6-1.365-.77.589-1.2 2.273 3.623 2.886.088l-1.041-1.856c1.011-1.368 2.248-4.243 3.544-3.408-.618-2.656-.29.308-1.247-2.8.844 3.87-3.284-.128-1.958 3.931-.982-3.606-1.639-1.513-2.906-4.582.054.884.461 1.693-.623 1.266a5.344 5.344 0 0 1-.226.787.5.5 0 0 1-.074-.066l.059.106c-.044.132-.049.163.025.035a3.6 3.6 0 0 1 .564 1.346c-.506 2.049-2.219 2-2.783 3.065-.643-.413.255-1.02-.108-1.966l-.83 1.605c-.108-1.974-1.738-3.263-.25-4.437l-1.36-.07c-.81-1.1-1.914-1.526-2.577-.69-.643-.422-1.585 2.2-1.05.651l-2.115 1.248-.025-.5c-2.1-.224-4.27 3.32-6.715-.22-.7.506-1.419 1.126-2.606.576l-.255-1.706c-.9.607-2.744-1.68-3.107.106-1.041-4.586-4.413-.954-6.018-1.755l-.029 2.234c-1.1-.114-2.14.528-3.49 1.438l.108 1.97c-1.153 1.636-3.033-1.368-4.889-1.148.118-.752.589-.563.928-.11-2.277-4.428-4.638 3.289-6.69.066-.5.726-.859.484-1.217 0a.184.184 0 0 0 .123-.106.435.435 0 0 0-.206-.022c-.226-.339-.461-.73-.712-1.042a4.258 4.258 0 0 0 .6 1.051 3.1 3.1 0 0 0-1.536.8l-.27-2.115c-.049.026-.088.022-.133.062-.574-.778-.442 1.007-.118 2.594a4.823 4.823 0 0 0-.746 1.288c-.506-3.417-1.492 1.165-2.165-2.471-.363 1.781-2.871 1.368-3.127 5.11-.029-.484-.2-.717.108-.748-.648-.422-1.291-.84-1.85.22l-.311-2.696-1.35 3.637c-.874-1.631-1.242-2.581-.422-4.661-2 3.21-1.635 1.218-3.328 4.4l.059-1.741c-.618.07-1.576 2.414-1.968.981-1.433-3.294-6.862-.383-10.465-3.421.761 5.119-1.684-2.278-1.772 1.7-.221-1.209-.726-1.891-.167-2.951-1.8 1.214-2.754-1.891-3.961 1.473-.226-1.218.363-1.785.172-2.5-.147.264-.564 1.06-.761.339s.25-1.02.53-1.552c-1.855.224-1.988 3.962-2.076 7.471-.962-1.649-1.428-1.412-2.076.9-.344-1.143-.9-2.335.245-2.762-.653-.163-3.986-1.64-4.015 1.17-.211-.708-.908-.193-1.075.132-1.458-.154-1.585-.4-3.014-.123l.4.453c-.515 3.4-1.178.77-2.322 1.192l.025-.347c-2.67-2.419-1.124 1.183-3.765-1.579l.172 2.106c-.182 4.538-2.346-2.652-3.833-.9l.56 1.2c-.8 1.561-2.39-6.143-3.225-6.7-.187-.391.275-.638.525-.928-2.209-2.656-.245 2.762-1.855 3.421-.319-1.486.334-3.791-.761-4.059-.555-1.2-3.092 4.872-4.614 2.032.344 1.148.682 2.287-.059 3.162-1.144.422-3.171-4.309-4.162-.677a2.177 2.177 0 0 1-.221-.9c-.869.941-2.837 1.583-3.343 3.549-.913-7.273-5.424 3.606-5.5-3.113l-2.7.387.064-.686c-1.738-.427-2.327 1.192-2.916 2.81-.407-.453-.123-1.082-.093-1.434-2.547-1.328-2.8-1.038-4.874 2.331l-.245-2.177c-.56 1.271-3.706-3.377-6.15-.809a2.286 2.286 0 0 1 .255-.981c-2.754 2.586-6.759-5.972-7.677 1.974l-1.816 1.974c2.39.594-.309 3.452.687 4.758-.928.475-2.454-2.37-1.306-2.788l.187.4c.368-4.142-2.979-1.434-2.955-4.252-4.688.255-9.292-1.988-13.685-2.115l.55 3.21-1.531-.167c-.412-.743-.579-2.511.52-2.388-.6-1.816-1.816 1.543-1.836 2.247-2.155-1.284.785-3.764.128-3.83L61 6.725l.2.375c-.7 1.324-.751 2.718-2.066 2.572-.839-.633-.452-1.979-.78-2.1 0-.229-.113-.334-.506-.088l-1.934-.255.81 2.533c-.839 1.258-1.816-.114-.888 2.753-1.367-4.423-7.223-1.515-8.043-2.879-1.173 1.86-2.356 1.842-3.824 1.636.373.523.628 3.377-.638 3.039.378-5.892-2.351-2.528-3.431-6.759.952 2.8-3.583.734-2.1 4.71-1.06-.466-.093-2.2-.913-3.579-2.479 2.309-5.551-1.425-8.644-.62-.034.774.5 1.948-.152 3.109l-1.684-3.849c-.609.387-.506 4.468-1.659 1.794.167.651.417 1.627.01 1.882C18.627 7.3 12.379 14.218 6.111 7.2c.854 1.491.3 1.645-.339 1.706.422.356.02 1.913.113 2.959L3.264 8.989C2.832 11.9.5 9.214.26 12l.815-.51c-1.045 3.3 1.62 7.282 1.517 11.495 1.168-3.742 3.289 5.492 5.218.128.452.853-.358 1.363-.113 2.335.486-1.807 1.095-2.194 2.238-1.394l-.123.444c3.181-.471 4.57 1.293 8.168 2.441l-.295-2.08c.771.268.942.919 1.311 1.438.839-3.166-2.165-.154-1.4-3.645 1.075 4.226 5.424 0 6.175 4.815 1.188.013-.378-2.41.8-2.392l.334 1.3.275-1.684c.78.268 1.193 1.9 1.237 3-.191-.128-.53.317-.731.413 1.026 1.521 2.827-.554 3.181-.057l-1.144-.792c3.21-1.258 7.176.413 10.259-2.269L37.731 24c2.361-1.847 1.924 1.055 4.526.189l-.088.233c.506-.985 1.2-1.486 1.919-1.381-.643 1.157 1.271 2.221.422 3.5 2.557-1.979 1.257-1.548 2.916-5.22l.417 1.627c.56-1.482.6-2.26 1.9-2.7-1.055 1.412.864 2.476-.309 4.34 2.788 3.535 4.02-3.645 5.35 1.557 1.2-4.529-2.41-2.485-1.713-3.456-.614-1.469.992-3.382 1.855-2.937.879.088 1.571 5.756 3.775 5.646-.221-.018-.231.321-.452.3.839 1.143 1.6-1.574 2.631.286.53-2.735 1.315.141 1.428-3.342l-2.008.827c1.134-.923 2.155-5.009 4.064-3.052a6.5 6.5 0 0 1-1.06 2.15c.564 1.02 1.05-.69 1.639.356-.118 3.487-2.449.787-3.642 3.456.614 1.464 2.292-2.55 1.723 1.231.825-4.806 2.179.58 3.622-3.1l-.069 2.089c.231-.33.707-1.319 1.139-1.271l-.746 2.713c1.173-2.322 2.356 1.992 3.495.726-2.425.088-.579-2.511-1.625-4.024 2.955-2.823 1.8 5.44 5.129 4.4-.447.3-1.718-1.231-1.021-2.207a4.979 4.979 0 0 1 1.9 2.3c2.209-.457-.373-2.142.555-3.434.79 2.533 1.075-1.047 2.037-1.873l.034 2.124c2.547 1.332.614-4.428 2.911-2.806l-.923 2.951 1.178-.774-.211 2.414c1.266-1.8 1.674-1.346 2.945-.682-.314-1.491.118-3.852 1.237-3.931.78 1.253-.4 2.023 1.183 1.7-.344 1.332-.712 3-1.428 1.055-.064.69-.339 1.332-.4 2.018.844 1.438 2.071.308 2.651.281a.939.939 0 0 1-.628-.488l2.263-2.964a2.3 2.3 0 0 1-.187 2.067c.466-.237.776-1.214 1.458-1.407-.152 1.728-.088 3.509-1.05 4.331l2.17-1.939c.157.748 1.153 2.049.879 2.687 1.227 1 2.935-3.377 4.565-2.058a1.523 1.523 0 0 1 .584-.91c1.517.374 2.891 2.476 4.653.092l1.06 3.083c1.4-.721-1.433-3.878.893-5.07 1.644-1.007.653 2.63 1.247 3.483.8-1.57 2.194-4.754 3.75-2.256-.5.589-.893.136-1.365.369m17.322-1.557c-.329.449-.982 1.829-1.242.58.349-2.436.658-1.275 1.242-.58m26.294-5.4c-.241.7-.633.361-1.08-.435.314-.18.677-.106 1.08.435M223.76 4.8a.511.511 0 0 0-.034.1c-.761-.818-.491-.493.034-.1m1.571.9a1.214 1.214 0 0 0 .064-.888c-.1.541-.447.58-.849.435.118.554.329.937.785.453M58.194 8.356l.309.55c-.677.62-.491.066-.309-.55" class="cls-1" transform="translate(1.016 2.177)"/>
            <path id="패스_2428" d="M30.466 6.683a5.721 5.721 0 0 1-.166-1.152 1.186 1.186 0 0 0 .162 1.152" class="cls-1" transform="translate(118.127 18.792)"/>
            <path id="패스_2429" d="M19.876 7c-.02-.018-.034-.009-.054-.022a2.479 2.479 0 0 0-.049.383z" class="cls-1" transform="translate(77.281 23.722)"/>
            <path id="패스_2430" d="M41.756 6.784a2.377 2.377 0 0 1-.633-1.091c-.01.523.142.959.633 1.091" class="cls-1" transform="translate(160.722 19.342)"/>
            <path id="패스_2431" d="M48.574.951l-.992.563c.481-.11.663.352.908.686-.029-.5-.226-1.214.083-1.249" class="cls-1" transform="translate(185.971 3.232)"/>
            <path id="패스_2432" d="M49.841 4.907c.142-.264.3-.031.447-.3l-.049-.985c-.623.075-1.045.871-.4 1.284" class="cls-1" transform="translate(193.533 12.31)"/>
            <path id="패스_2433" d="M47.991 3.2c.1 1.781.717 1.17 1.414.831a.169.169 0 0 1-.123 0c.172-2.5-.564-1.662-1.291-.831" class="cls-1" transform="translate(187.569 8.028)"/>
            <path id="패스_2434" d="M48.312 3.148a.844.844 0 0 1 .643-.053c.074-1-.26-.207-.643.053" class="cls-1" transform="translate(188.824 8.844)"/>
            <path id="패스_2435" d="M47.033 3.182c.339.457.177-2.282.373-1.557.339-2.278-2.17 2.77-.373 1.557" class="cls-1" transform="translate(181.268 3.49)"/>
            <path id="패스_2436" d="M48.639 5.586l-.28-2.2-.368 1.777z" class="cls-1" transform="translate(187.569 11.508)"/>
            <path id="패스_2437" d="M47 3.808l1.124.6a.908.908 0 0 1 .29-.756c-.692-.066-1.448-.493-1.414.158" class="cls-1" transform="translate(183.676 11.729)"/>
            <path id="패스_2438" d="M47.283 3.786a.805.805 0 0 0 .893-.374 1.607 1.607 0 0 0-.893.374" class="cls-1" transform="translate(184.802 11.593)"/>
            <path id="패스_2439" d="M48.709 4.514l-.334-.457-.79-.154z" class="cls-1" transform="translate(185.981 13.259)"/>
            <path id="패스_2440" d="M45.529 3.466l-1.207.642c-.118.756.221 1.218.672.915.285-.532.731-.827.535-1.557" class="cls-1" transform="translate(173.136 11.776)"/>
            <path id="패스_2441" d="M45.763 6.117A4.779 4.779 0 0 1 45.2 4.45v2.731z" class="cls-1" transform="translate(176.673 15.119)"/>
            <path id="패스_2442" d="M45.276 4.983c-.108.756-1.738 2.194-.2 2.005.113-.752 1.325-1.394.2-2.005" class="cls-1" transform="translate(173.615 16.93)"/>
            <path id="패스_2443" d="M40.847 7.732l.309-.04-.1-4.476z" class="cls-1" transform="translate(159.647 10.925)"/>
            <path id="패스_2444" d="M37.716 9.379c1.458 1.055.3-2.766 1.63-1.442.319-1.064-1.085-1.082-.746-2-.859 1.126-1.325.5-.884 3.443" class="cls-1" transform="translate(146.748 20.168)"/>
            <path id="패스_2445" d="M37.761 6.466a4.717 4.717 0 0 0 .432-.686 2.2 2.2 0 0 0-.432.686" class="cls-1" transform="translate(147.586 19.638)"/>
            <path id="패스_2446" d="M1.259 2.732l-.938-.924L.94 3.3z" class="cls-1" transform="translate(1.256 6.145)"/>
            <path id="패스_2447" d="M.78 4.979L.525 2.13 0 4.716c.206-.128.614-.378.78.264" class="cls-1" transform="translate(0 7.238)"/>
            <path id="패스_2448" d="M26.652 8.884l.064-.686c-.157-.743-.373-.8-.81-.906z" class="cls-1" transform="translate(101.252 24.775)"/>
            <path id="패스_2449" d="M23.664 9.146l.216.057-.437-2.577z" class="cls-1" transform="translate(91.625 22.512)"/>
            <path id="패스_2450" d="M21.366 9.073c.432.1.933-.479 1.365-.374-.933.475-1.527-2.845-1.365.374" class="cls-1" transform="translate(83.404 25.993)"/>
        </g>
    </g>
</svg>
