<svg xmlns="http://www.w3.org/2000/svg" id="line" width="167.809" height="27.858" viewBox="0 0 167.809 27.858">
    <defs>
        <clipPath id="clip-path">
            <path id="사각형_1921" d="M0 0H167.809V27.858H0z" class="cls-1"/>
        </clipPath>
        <style>
            .cls-1{fill:#60e7a3}
        </style>
    </defs>
    <g id="그룹_1471" clip-path="url(#clip-path)">
        <path id="패스_2370" d="M57.009 2.471c.247.124.144-1.323.179-1.582-.412.325-.165 1.958-.179 1.582" class="cls-1" transform="translate(110.5 2.182)"/>
        <path id="패스_2371" d="M55.933 2.735L56 2.144 55.413 3.6z" class="cls-1" transform="translate(107.521 5.262)"/>
        <path id="패스_2372" d="M54.29 3.017c.385 2.459 1.382-.418 2.07.449l.121.56.285-1.986c-.823.325-1.885 1.658-2.476.977" class="cls-1" transform="translate(105.342 5.007)"/>
        <path id="패스_2373" d="M53.613.788c.135.957-.432.832.479.294A2.318 2.318 0 0 1 54 .84a.731.731 0 0 1-.388-.052" class="cls-1" transform="translate(103.926 1.934)"/>
        <path id="패스_2374" d="M53.755 1.068c.4-.073-.271-.8 0 0" class="cls-1" transform="translate(104.175 1.706)"/>
        <path id="패스_2375" d="M53.258 2.366l.52-.863C53.664.936 53.19.815 53.361.4c-.538.477-.42 1.04-.1 1.965" class="cls-1" transform="translate(102.816 .985)"/>
        <path id="패스_2376" d="M52.916 1.875l.271-.366c-.05-.238-.123-.318-.271.366" class="cls-1" transform="translate(102.676 3.282)"/>
        <path id="패스_2377" d="M53.581 1.162l-.573.774c.079.4.1 1.195.265-.28-.041.729.065.028.309-.494" class="cls-1" transform="translate(102.854 2.852)"/>
        <path id="패스_2378" d="M53.317 1.3c.3.532.691.863.168 1.727 1.009-.356.844-2.086-.168-1.727" class="cls-1" transform="translate(103.454 3.083)"/>
        <path id="패스_2379" d="M54.234 3.267l.406.715.335-.829c-.168.411-.773-.66-.741.114" class="cls-1" transform="translate(105.231 7.309)"/>
        <path id="패스_2380" d="M51.953.614c-.026.525.194 1.4.241 2.065l.382-.608a2.621 2.621 0 0 1-.623-1.457" class="cls-1" transform="translate(100.804 1.508)"/>
        <path id="패스_2381" d="M52.414 1.212l-.576.908c.523.1.615-.332.576-.908" class="cls-1" transform="translate(100.584 2.975)"/>
        <path id="패스_2382" d="M53.016 3.64l.944-1.906-1.13 1.934z" class="cls-1" transform="translate(102.51 4.254)"/>
        <path id="패스_2383" d="M51.358 1.47l.32-1.219-.573 1.849z" class="cls-1" transform="translate(99.162 .616)"/>
        <path id="패스_2384" d="M51.44 2.321c.235-1.008-.356-1.7-.1-2.321-.4.187-.738 1.057-1.041 1.834.326-.435.679-.332 1.141.487" class="cls-1" transform="translate(97.598 .001)"/>
        <path id="패스_2385" d="M50.126 1.671a7.328 7.328 0 0 0 .509-1.14 3.566 3.566 0 0 0-.509 1.14" class="cls-1" transform="translate(97.262 1.304)"/>
        <path id="패스_2386" d="M51.811 2.464a3.179 3.179 0 0 0-.476-1.492l.244 1.471c.071.01.153.014.232.021" class="cls-1" transform="translate(99.608 2.386)"/>
        <path id="패스_2387" d="M51.756 1.5l-.009-.048c-.25-.024-.423-.059-.5-.073.062.01.215.048.506.121" class="cls-1" transform="translate(99.443 3.38)"/>
        <path id="패스_2388" d="M51.556 1.409a.169.169 0 0 0-.059 0c.024.142.038.19.059 0" class="cls-1" transform="translate(99.923 3.447)"/>
        <path id="패스_2389" d="M52.788 1.9c-.335.829-1.044 1.727-.335 2.974.235-1.015-.171-1.727.335-2.974" class="cls-1" transform="translate(101.187 4.675)"/>
        <path id="패스_2390" d="M51.621 2.678l.626.328a3.465 3.465 0 0 1 .032-1.368z" class="cls-1" transform="translate(100.163 4.02)"/>
        <path id="패스_2391" d="M51.519 2.5l.3-.473-.233-.127z" class="cls-1" transform="translate(99.965 4.672)"/>
        <path id="패스_2392" d="M51.077 1.259a1.133 1.133 0 0 1-.885.812 1.72 1.72 0 0 0 1.076.428c.047-.463.191-1.3-.191-1.24" class="cls-1" transform="translate(97.39 3.083)"/>
        <path id="패스_2393" d="M50.984 1.369c-.018.035-.041.052-.059.086.038.124.068.162.059-.086" class="cls-1" transform="translate(98.813 3.36)"/>
        <path id="패스_2394" d="M49.079 1.5c.021.079.035.18.056.266l.009-.256z" class="cls-1" transform="translate(95.231 3.686)"/>
        <path id="패스_2395" d="M50.629 2.08c.271.28.429-.083.576-.542a1.182 1.182 0 0 1-.638.266c-.021.211-.024.349.062.276" class="cls-1" transform="translate(98.095 3.775)"/>
        <path id="패스_2396" d="M49.818 1.141a5.257 5.257 0 0 0 .473.8c-.141-.466-.426-1.188-.473-.8" class="cls-1" transform="translate(96.665 2.535)"/>
        <path id="패스_2397" d="M50.913 1.452a.356.356 0 0 1 .041-.069c-.094-.314-.079-.159-.041.069" class="cls-1" transform="translate(98.731 2.959)"/>
        <path id="패스_2398" d="M51.12 1.277a4.484 4.484 0 0 0-.344.9 1.629 1.629 0 0 0 .438-.5 4.072 4.072 0 0 1-.094-.408" class="cls-1" transform="translate(98.524 3.134)"/>
        <path id="패스_2399" d="M49.234 10.8c.032-1.368.723-2.642 1.347-1.185.588-1.036.15-5.526-.4-8.037a2.873 2.873 0 0 1-.615 1.965c.223.746 1.382 1.727.876 2.974-.806.715-.67-.473-1.076-1.192.356 1.7-1.011 2.494-.809 5l.706-.891c.018.387-.232 1.012-.032 1.368" class="cls-1" transform="translate(94.185 3.875)"/>
        <path id="패스_2400" d="M50.265 3.046l.25-.173a4.85 4.85 0 0 1-.894-1.841 3.221 3.221 0 0 0-.52 1.637l1.25.173z" class="cls-1" transform="translate(95.273 2.533)"/>
        <path id="패스_2401" d="M50.72 2.2c-.182 1.492-.785 2.131-.394 3.737.741-.114.506-1.25.944-1.9-1.194.387.335-.832-.541-1.665a1.356 1.356 0 0 1 .647-.4 3.606 3.606 0 0 1-.629-.673l.029.093h.006v.024c.053.183.071.294.012.19a.043.043 0 0 1-.026.028c-.006.211-.026.39-.047.566-.35-.3-.059-.387.047-.566.006-.073.015-.142.015-.218l-.006-.021-1.194.832c.259.2.576.155 1.138-.021" class="cls-1" transform="translate(96.207 3.183)"/>
        <path id="패스_2402" d="M52.114 3.94a1.375 1.375 0 0 1-.044-.345c-.074.183-.1.311.044.345" class="cls-1" transform="translate(100.917 8.822)"/>
        <path id="패스_2403" d="M52.29 5.994c.085-.211.153-.8.435-.656.253.442.009.715.026 1.2a1.6 1.6 0 0 0 .049-1.791l-.082.2a6.111 6.111 0 0 1-1.047-2.556 24.157 24.157 0 0 0 .623 3.6" class="cls-1" transform="translate(100.238 5.878)"/>
        <path id="패스_2404" d="M51.567 2.608l-.994.746.527 1.278-.032-.77c.57.294.438-.656.5-1.254" class="cls-1" transform="translate(98.13 6.4)"/>
        <path id="패스_2405" d="M49.327 2.407l.118-1.575-.556 2.228z" class="cls-1" transform="translate(94.862 2.043)"/>
        <path id="패스_2406" d="M48.8 2.32l.029-1.368-.335.829z" class="cls-1" transform="translate(94.095 2.338)"/>
        <path id="패스_2407" d="M23.913 6.561l-.294.394a1.173 1.173 0 0 0 .294-.394" class="cls-1" transform="translate(45.829 16.1)"/>
        <path id="패스_2408" d="M24.475 7.057l.047-.673c-.1.373-.135.646-.047.673" class="cls-1" transform="translate(47.394 15.665)"/>
        <path id="패스_2409" d="M38.324 3.136c-.441-1.271-.941-3.243-.873-1.706l.147 1.5c.3-.273.529-.111.726.211" class="cls-1" transform="translate(72.656 2.132)"/>
        <path id="패스_2410" d="M30.342 4.9c.044.145.085.3.129.452.1-.515.191-.991.276-1.437-.123.311-.262.639-.406.984" class="cls-1" transform="translate(58.874 9.62)"/>
        <path id="패스_2411" d="M30.639 6.681l-.573-.957a3.244 3.244 0 0 0 .573.957" class="cls-1" transform="translate(58.339 14.046)"/>
        <path id="패스_2412" d="M19.988 7.069L19.662 8.6c.535-.017.291-.781.326-1.53" class="cls-1" transform="translate(38.151 17.346)"/>
        <path id="패스_2413" d="M44.685 2.2c-.373-.58-.673-.822-.929-.891.453.853.823 2.141.929.891" class="cls-1" transform="translate(84.902 3.203)"/>
        <path id="패스_2414" d="M24.107 1.954a1.568 1.568 0 0 0-.241.915 1.257 1.257 0 0 0 .241-.915" class="cls-1" transform="translate(46.306 4.796)"/>
        <path id="패스_2415" d="M43.393 1.772a3.7 3.7 0 0 0 .2.349c.271-.256.538-.459.87-.37-.335-.635-.717-1.026-1.067.021" class="cls-1" transform="translate(84.198 2.757)"/>
        <path id="패스_2416" d="M5.5 7.009a1.779 1.779 0 0 1-.1-.176c-.009.2.035.211.1.176" class="cls-1" transform="translate(10.491 16.767)"/>
        <path id="패스_2417" d="M1.212 2.689a1.052 1.052 0 0 1 .5-.124c-.091-.1-.244-.09-.5.124" class="cls-1" transform="translate(2.352 6.143)"/>
        <path id="패스_2418" d="M46.816 1.253c.276-.1.044-.166 0 0" class="cls-1" transform="translate(90.84 2.827)"/>
        <path id="패스_2419" d="M47.361 2.89a2.209 2.209 0 0 0-.1.729 2.77 2.77 0 0 1 .1-.729" class="cls-1" transform="translate(91.697 7.092)"/>
        <path id="패스_2420" d="M42.508 4.024h-.024c.085.29.071.235.024 0" class="cls-1" transform="translate(82.434 9.867)"/>
        <path id="패스_2421" d="M47.2 1.688a1.52 1.52 0 0 0-.359-.439 1.847 1.847 0 0 0 .359.439" class="cls-1" transform="translate(90.882 3.066)"/>
        <path id="패스_2422" d="M46.938 1.269a2.179 2.179 0 0 0 .244.142c.029-.249 0-.408-.244-.142" class="cls-1" transform="translate(91.076 2.776)"/>
        <path id="패스_2423" d="M46.686 1.266a.61.61 0 0 1 .447.149.355.355 0 0 1-.065-.235 2.385 2.385 0 0 1-.382.086" class="cls-1" transform="translate(90.588 2.896)"/>
        <path id="패스_2424" d="M13.247 5.73c-.018-.048-.041-.076-.062-.142-.271.629-.15.525.062.142" class="cls-1" transform="translate(25.281 13.712)"/>
        <path id="패스_2425" d="M35.365 6.147c.012-.014.018-.055.029-.073l-.038-.052z" class="cls-1" transform="translate(68.603 14.78)"/>
        <path id="패스_2426" d="M35.027 10.345c.4-1.872.644-1.644.967-1.254l-.373-4.317z" class="cls-1" transform="translate(67.965 11.715)"/>
        <path id="패스_2427" d="M64.148 21.593l.709 1.337c-.814 2.228-1.429 1.471-.759 3.357.05-4.694 2.7-.518 2.746-5.2l.468.977c-.132-.041-.15.235-.279.187.914 2.235.626-3.4 1.782-2.746a1.416 1.416 0 0 1 .423 1.589l.879-1.171c.259.086.206.9-.053.815l1.356-.394-.009.138a19.9 19.9 0 0 1 .823-2.369c.353.67-.168.5-.074 1.084l.741-1.147c.32 1.209-.291 2.4-.814 2.231.753 4.673.612-1.188 2.158 1.527l-.7.6c.485 2.652 1.029 1.682 1.852 3.329-.2-.863-1.655-4.158-.85-5.339.235.352.541.518.97-.435.021 1.668.447 1.254.985 1.15l-.012 2.21c.573-.646.518-1.768.85-2.77.65.207.8 1.917.97 3.357 1.044.338-.747-2.732.479-3.167.873.832 1.473-.079 2.49-1.416.615.753-.091 1.354.132 1.982l.52-1.768c.132.038.094.58.076.853.444-.687.012-2.207.717-2.818.168-2.435 1.494 3.537 2.346.76.223.625-.091 1.357-.015 2.21a12.553 12.553 0 0 0 1.985-3.785l.86 1.439c-.635-1.647.135-3.623.812-5.246-.226-.8-.423-1.5-.553-1.827l1.1-1.2a5 5 0 0 1-.138 2.045c.074-.183.144-.366.2-.532a5.59 5.59 0 0 1-.059 3.326c-.138-.432-.276-.895-.412-1.357a17.744 17.744 0 0 0-.432 4.131 1.252 1.252 0 0 1 .359-.6 3.062 3.062 0 0 0-.076.912c.041.231.153-.259.326-.822l.279 2.456.05-.977 1.464 1.52c1.011-2.494 1.876-6.155 3.508-7.194-.388 1.81-.056 2.949-.056 5.091-.473-2.259-1.264.981-2.123.532.45.231.362 1.254.253 1.609l1.5-2.079c-.018 1.748.335 1.306.741 2.024-.335-3.454 1.109-2.321 1.717-3.388.05 1.16-.085 2.345-.844 2.079.862 2.59 1.035-4.079 1.876-1.879-.185.035-.285-.145-.353.446.42-1.04 1.482-.235 1.244.781l-.182.028a2.984 2.984 0 0 0 3.878-2.97c.015.38-.123 3.544-.194 4.138l2.082-9.912c-.165 2.525.635 8.524-.365 9.964.294.352.659.767 1.264-.131-.2-.359-.532-3.64-.265-3.875.776 2.8.535 1.5 1.479 3.875-.306-.535-.015-4.5.459-4.379-.068.594.079 3.906-.088 4.321l1.132-3.9a12 12 0 0 0 .256 4.386c-.129-.76 1.014.055 1.32-.335l-.506-.891c1.332.566 1.253-5.481 2.567-5.295-.15.8-.341 4.942.332 5.422.282-2 1.253-9.588 2.4-11.138l.235 1.136.879-1.309a117.2 117.2 0 0 1-2.843 11.784c.506.895.153 1.34.894 1.226a1.385 1.385 0 0 1-.606 1.689l1.735.663c-.1-2.324 1.3-2.349 1.208-4.283l-1.854 2.423c-.1-2.317 1.017-6.607 2.243-6.213.321.919-.191 4.134-.156 4.908.15-.8 1.147-1.54 1.264-.977l-.509 1.25c.691.863 1.079-3.095 1.923-.891.282.145.873 2.977.909 1.606A72.885 72.885 0 0 1 118.8 7.54a20.854 20.854 0 0 1 1.847 3.813c.485 2.072-.65 4.963-.232 6.738a5.468 5.468 0 0 1 .362-1.672c.3.539-.1 1.965.541 1.672.082-2.355 1.311.18.282-2 .623-.68.676.473 1.414.363-.25-1.52.612-5.187 1.238-5.868a7.594 7.594 0 0 0 .191 1.73c1.294.2 2 1.254 3.2 1.257.118.57.706 1.25.468 2.266.171-.418.321-1.219.691-1.281.741 2.027-.826.332-.25 2.766.032-1.368.941-1.9 1.461-2.763-.185-2.11-1.226-.387-1.749.477-.032-2.915.859-5.982 2.105-7.346.994-.739.453 1.879.623 1.457 1.885.484 1.55-5.112 3.132-3.029.638 1.848.068 3.692.218 5.032-.809.715-1.264-1.16-1.814-1.078l.688.867c-.253.622-.791 1.095-1.094.563.535 1.661 3.181.276 4.649 1.8a3.071 3.071 0 0 0 .47-2.02l-.459.262c-.438-1.489.844-2.083.256-2.77.6-1.064 1.276-2.728 2.152-1.893L139.377 9c-.024-.618-.579-1.254-.817-.6.353-.943 1.361 2.846 1.729.069L139.665 7c.606-1.074 1.347-3.333 2.123-2.677-.37-2.086-.173.242-.747-2.2.506 3.039-1.967-.1-1.173 3.088-.588-2.832-.982-1.188-1.741-3.6.032.694.276 1.33-.373.995a5.241 5.241 0 0 1-.135.618.344.344 0 0 1-.044-.052l.035.083c-.026.1-.029.128.015.028a3.349 3.349 0 0 1 .338 1.057c-.3 1.609-1.329 1.571-1.667 2.407-.385-.325.153-.8-.065-1.544l-.506 1.247c-.065-1.551-1.041-2.563-.15-3.485l-.814-.055c-.485-.863-1.147-1.2-1.544-.542-.385-.332-.95 1.73-.629.511l-1.264.981-.015-.39c-1.258-.176-2.558 2.608-4.022-.173-.418.4-.85.884-1.561.452l-.153-1.34c-.538.477-1.644-1.319-1.861.083-.623-3.6-2.643-.749-3.6-1.378l-.018 1.754c-.659-.09-1.282.414-2.091 1.129l.065 1.547c-.691 1.285-1.817-1.074-2.929-.9.071-.591.353-.442.556-.086-1.364-3.478-2.779 2.583-4.008.052-.3.57-.515.38-.729 0 .029-.007.053-.035.074-.083a.2.2 0 0 0-.123-.017c-.135-.266-.276-.573-.426-.819a3.7 3.7 0 0 0 .359.825 1.739 1.739 0 0 0-.92.625l-.162-1.661c-.029.021-.053.017-.079.048-.344-.611-.265.791-.071 2.038a4.191 4.191 0 0 0-.447 1.012c-.3-2.684-.894.915-1.3-1.941-.218 1.4-1.72 1.074-1.873 4.013-.018-.38-.121-.563.065-.587-.388-.332-.773-.66-1.108.173l-.185-2.114-.809 2.856a4.513 4.513 0 0 1-.253-3.661c-1.2 2.521-.979.957-1.994 3.454l.035-1.368c-.37.055-.944 1.9-1.179.77-.859-2.587-4.111-.3-6.269-2.687.456 4.02-1.009-1.789-1.061 1.333-.132-.95-.435-1.485-.1-2.317-1.076.953-1.65-1.485-2.373 1.157-.135-.957.218-1.4.1-1.965-.088.207-.338.832-.456.266s.15-.8.318-1.219c-1.111.176-1.191 3.112-1.244 5.868-.576-1.3-.856-1.109-1.244.7-.206-.9-.541-1.834.147-2.169-.391-.128-2.388-1.288-2.405.919-.126-.556-.544-.152-.644.1-.873-.121-.95-.318-1.805-.1l.241.356c-.309 2.67-.706.6-1.391.936l.015-.273c-1.6-1.9-.673.929-2.255-1.24l.1 1.654c-.109 3.564-1.405-2.083-2.3-.708l.335.943c-.482 1.226-1.432-4.825-1.932-5.263-.112-.307.165-.5.315-.729-1.323-2.086-.147 2.169-1.111 2.687-.191-1.167.2-2.977-.456-3.188-.332-.939-1.852 3.827-2.764 1.6a3.261 3.261 0 0 1-.035 2.483c-.685.332-1.9-3.385-2.493-.532a2.154 2.154 0 0 1-.132-.7c-.52.739-1.7 1.243-2 2.787-.547-5.712-3.249 2.832-3.293-2.445l-1.62.3.04-.527c-1.041-.335-1.394.936-1.747 2.207-.244-.356-.074-.85-.056-1.126-1.526-1.043-1.676-.815-2.92 1.83L57.92 7.4c-.335 1-2.22-2.652-3.684-.635A2.253 2.253 0 0 1 54.389 6c-1.65 2.031-4.049-4.69-4.6 1.551L48.7 9.1c1.432.466-.185 2.711.412 3.737-.556.373-1.47-1.862-.782-2.19l.112.311c.221-3.253-1.785-1.126-1.77-3.34-2.808.2-5.566-1.561-8.2-1.661l.329 2.521-.917-.131c-.247-.584-.347-1.972.312-1.875-.359-1.426-1.088 1.212-1.1 1.765-1.291-1.008.47-2.956.076-3.008l-.532.193.123.294c-.42 1.04-.45 2.134-1.238 2.02-.5-.5-.271-1.554-.468-1.647 0-.18-.068-.262-.3-.069l-1.158-.2.485 1.989c-.5.988-1.088-.09-.532 2.162-.82-3.474-4.328-1.188-4.819-2.262-.7 1.461-1.411 1.447-2.291 1.285.223.411.376 2.652-.382 2.387.226-4.628-1.408-1.986-2.055-5.308.57 2.2-2.146.577-1.256 3.7-.635-.366-.056-1.73-.547-2.811-1.485 1.813-3.326-1.119-5.178-.487a5.606 5.606 0 0 1-.091 2.442l-1.01-3.028c-.365.3-.3 3.509-.994 1.409.1.511.25 1.278.006 1.478C11.263 5.868 7.52 11.3 3.765 5.8c.512 1.171.179 1.292-.2 1.34.253.28.012 1.5.068 2.324L2.059 7.2C1.8 9.484.4 7.374.26 9.56l.488-.4c-.626 2.59.97 5.719.909 9.028.7-2.939 1.97 4.314 3.126.1.271.67-.215 1.071-.068 1.834.291-1.419.656-1.723 1.341-1.095l-.074.349c1.905-.37 2.737 1.015 4.893 1.917l-.175-1.634c.462.211.565.722.785 1.129.5-2.487-1.3-.121-.841-2.863.644 3.319 3.249 0 3.7 3.782.712.01-.226-1.893.482-1.879l.2 1.019.165-1.323c.468.211.715 1.489.741 2.355-.115-.1-.318.249-.438.325.615 1.195 1.694-.435 1.905-.045l-.685-.622c1.923-.988 4.3.325 6.145-1.782l-.15-.77c1.414-1.451 1.153.829 2.711.149l-.053.183c.3-.774.717-1.167 1.15-1.084-.385.908.762 1.744.253 2.753 1.532-1.554.753-1.216 1.747-4.1l.25 1.278c.335-1.164.359-1.775 1.138-2.117-.632 1.109.518 1.944-.185 3.409 1.67 2.777 2.408-2.863 3.2 1.223.717-3.557-1.444-1.951-1.026-2.715-.368-1.154.594-2.656 1.111-2.307.526.069.941 4.521 2.261 4.435-.132-.014-.138.252-.271.238.5.9.956-1.236 1.576.224.318-2.148.788.111.856-2.625l-1.2.649c.679-.725 1.291-3.934 2.435-2.4a5.865 5.865 0 0 1-.635 1.689c.338.8.629-.542.982.28-.071 2.739-1.467.618-2.182 2.715.368 1.15 1.373-2 1.032.967.494-3.775 1.306.456 2.17-2.435l-.041 1.641c.138-.259.423-1.036.682-1l-.447 2.131c.7-1.824 1.411 1.565 2.094.57-1.453.069-.347-1.972-.973-3.16 1.77-2.217 1.076 4.272 3.073 3.457-.268.238-1.029-.967-.612-1.734a3.834 3.834 0 0 1 1.141 1.81c1.323-.359-.223-1.682.332-2.7.473 1.989.644-.822 1.22-1.471l.021 1.668c1.526 1.046.368-3.478 1.744-2.2l-.553 2.317.706-.608-.126 1.9c.759-1.416 1-1.057 1.764-.535-.188-1.171.071-3.025.741-3.088.468.984-.241 1.589.709 1.337-.206 1.046-.426 2.359-.856.829-.038.542-.2 1.046-.241 1.585.506 1.129 1.241.242 1.588.221a.61.61 0 0 1-.376-.383l1.355-2.328a2.3 2.3 0 0 1-.112 1.623c.279-.186.465-.953.873-1.105-.091 1.357-.053 2.756-.629 3.4l1.3-1.523c.094.587.691 1.609.526 2.11.735.784 1.758-2.652 2.735-1.616a1.282 1.282 0 0 1 .35-.715c.909.294 1.732 1.944 2.787.073l.635 2.421c.838-.566-.859-3.046.535-3.982.985-.791.391 2.065.747 2.735.482-1.233 1.314-3.733 2.246-1.772-.3.463-.535.107-.817.29m10.375-1.222c-.2.352-.588 1.437-.744.456.209-1.913.394-1 .744-.456m15.752-4.238c-.144.553-.379.283-.647-.342.188-.142.406-.083.647.342m43.87-12.226a.494.494 0 0 0-.021.079c-.456-.642-.294-.387.021-.079m.941.708a1.228 1.228 0 0 0 .038-.7c-.059.425-.268.456-.509.342.071.435.2.736.47.356M34.965 6.7l.185.432c-.406.487-.294.052-.185-.432" class="cls-1" transform="translate(.504 1.572)"/>
        <path id="패스_2428" d="M30.369 6.436a5.813 5.813 0 0 1-.1-.9 1.176 1.176 0 0 0 .1.9" class="cls-1" transform="translate(58.645 13.572)"/>
        <path id="패스_2429" d="M19.835 7c-.012-.014-.021-.007-.032-.017a2.525 2.525 0 0 0-.029.3z" class="cls-1" transform="translate(38.367 17.133)"/>
        <path id="패스_2430" d="M41.5 6.55a2.06 2.06 0 0 1-.379-.857c-.006.411.085.753.379.857" class="cls-1" transform="translate(79.791 13.97)"/>
        <path id="패스_2431" d="M48.176.951l-.594.442c.288-.086.4.276.544.539-.018-.39-.135-.953.05-.981" class="cls-1" transform="translate(92.326 2.334)"/>
        <path id="패스_2432" d="M49.711 4.631c.085-.207.182-.024.268-.235l-.029-.774a.6.6 0 0 0-.238 1.008" class="cls-1" transform="translate(96.081 8.891)"/>
        <path id="패스_2433" d="M47.991 3.017c.062 1.4.429.919.847.653-.026.007-.05.017-.074 0 .1-1.962-.338-1.306-.773-.653" class="cls-1" transform="translate(93.12 5.798)"/>
        <path id="패스_2434" d="M48.312 3.031a.4.4 0 0 1 .388-.041c.044-.787-.156-.162-.385.041" class="cls-1" transform="translate(93.743 6.388)"/>
        <path id="패스_2435" d="M46.771 2.719c.2.359.106-1.792.223-1.223.2-1.789-1.3 2.176-.223 1.223" class="cls-1" transform="translate(89.991 2.521)"/>
        <path id="패스_2436" d="M48.379 5.114l-.168-1.727-.221 1.4z" class="cls-1" transform="translate(93.119 8.312)"/>
        <path id="패스_2437" d="M47 3.732l.673.47a.838.838 0 0 1 .173-.594c-.415-.052-.867-.387-.847.124" class="cls-1" transform="translate(91.187 8.471)"/>
        <path id="패스_2438" d="M47.283 3.706a.444.444 0 0 0 .535-.294.855.855 0 0 0-.535.294" class="cls-1" transform="translate(91.746 8.373)"/>
        <path id="패스_2439" d="M48.258 4.382l-.2-.359-.473-.123z" class="cls-1" transform="translate(92.331 9.576)"/>
        <path id="패스_2440" d="M45.036 3.466l-.723.5c-.071.594.132.957.4.718.171-.418.438-.649.321-1.223" class="cls-1" transform="translate(85.954 8.506)"/>
        <path id="패스_2441" d="M45.538 5.759A4.587 4.587 0 0 1 45.2 4.45v2.145z" class="cls-1" transform="translate(87.71 10.92)"/>
        <path id="패스_2442" d="M44.933 4.983c-.065.594-1.041 1.723-.118 1.575.068-.591.794-1.095.118-1.575" class="cls-1" transform="translate(86.192 12.228)"/>
        <path id="패스_2443" d="M40.847 6.762l.185-.031-.062-3.515z" class="cls-1" transform="translate(79.258 7.891)"/>
        <path id="패스_2444" d="M37.648 8.64c.873.829.182-2.172.976-1.133.191-.836-.65-.85-.447-1.571-.515.884-.794.394-.529 2.7" class="cls-1" transform="translate(72.854 14.566)"/>
        <path id="패스_2445" d="M37.761 6.319a4.009 4.009 0 0 0 .259-.539 1.878 1.878 0 0 0-.259.539" class="cls-1" transform="translate(73.27 14.183)"/>
        <path id="패스_2446" d="M.883 2.534l-.562-.726.37 1.174z" class="cls-1" transform="translate(.624 4.438)"/>
        <path id="패스_2447" d="M.468 4.368L.315 2.13 0 4.161c.123-.1.368-.3.468.207" class="cls-1" transform="translate(0 5.227)"/>
        <path id="패스_2448" d="M26.353 8.542L26.391 8c-.094-.584-.223-.625-.485-.711z" class="cls-1" transform="translate(50.267 17.893)"/>
        <path id="패스_2449" d="M23.575 8.6l.129.045-.262-2.024z" class="cls-1" transform="translate(45.488 16.259)"/>
        <path id="패스_2450" d="M21.355 8.767c.259.079.559-.376.817-.294-.559.373-.914-2.235-.817.294" class="cls-1" transform="translate(41.406 18.773)"/>
    </g>
</svg>
