<svg xmlns="http://www.w3.org/2000/svg" id="line" width="325.777" height="54.082" viewBox="0 0 325.777 54.082">
    <defs>
        <clipPath id="clip-path">
            <path id="사각형_1921" d="M0 0H325.777V54.082H0z" class="cls-1"/>
        </clipPath>
        <style>
            .cls-1{fill:#60e7a3}
        </style>
    </defs>
    <g id="그룹_1471" clip-path="url(#clip-path)">
        <path id="패스_2370" d="M57.065 3.96c.479.241.28-2.568.348-3.071-.8.63-.32 3.8-.348 3.071" class="cls-1" transform="translate(268.13 5.074)"/>
        <path id="패스_2371" d="M56.423 3.291l.131-1.147-1.141 2.823z" class="cls-1" transform="translate(260.9 12.234)"/>
        <path id="패스_2372" d="M54.29 3.937c.748 4.774 2.683-.811 4.019.872l.234 1.091.557-3.86c-1.6.63-3.659 3.218-4.806 1.9" class="cls-1" transform="translate(255.613 11.64)"/>
        <path id="패스_2373" d="M53.662.788c.263 1.857-.839 1.616.93.57a4.5 4.5 0 0 1-.177-.469 1.42 1.42 0 0 1-.754-.1" class="cls-1" transform="translate(252.176 4.497)"/>
        <path id="패스_2374" d="M53.817 1.419c.782-.141-.525-1.556 0 0" class="cls-1" transform="translate(252.781 3.967)"/>
        <path id="패스_2375" d="M53.511 4.216l1.01-1.676c-.221-1.1-1.141-1.334-.81-2.14-1.045.925-.816 2.018-.2 3.815" class="cls-1" transform="translate(249.484 2.29)"/>
        <path id="패스_2376" d="M52.916 2.381l.525-.711c-.1-.463-.24-.617-.525.711" class="cls-1" transform="translate(249.143 7.631)"/>
        <path id="패스_2377" d="M54.121 1.162l-1.113 1.5c.154.771.188 2.32.514-.543-.08 1.415.126.054.6-.959" class="cls-1" transform="translate(249.577 6.631)"/>
        <path id="패스_2378" d="M53.317 1.351c.588 1.033 1.341 1.676.325 3.352 1.958-.691 1.638-4.05-.325-3.352" class="cls-1" transform="translate(251.031 7.167)"/>
        <path id="패스_2379" d="M54.235 3.54l.788 1.388.651-1.609c-.325.8-1.5-1.281-1.438.221" class="cls-1" transform="translate(255.342 16.993)"/>
        <path id="패스_2380" d="M51.956.614c-.051 1.019.377 2.709.468 4.01l.742-1.18a5.089 5.089 0 0 1-1.21-2.83" class="cls-1" transform="translate(244.601 3.505)"/>
        <path id="패스_2381" d="M52.957 1.212l-1.119 1.763c1.016.194 1.193-.644 1.119-1.763" class="cls-1" transform="translate(244.068 6.916)"/>
        <path id="패스_2382" d="M53.19 5.435l1.832-3.7-2.192 3.753z" class="cls-1" transform="translate(248.74 9.891)"/>
        <path id="패스_2383" d="M51.6 2.618l.618-2.367-1.113 3.58z" class="cls-1" transform="translate(240.617 1.433)"/>
        <path id="패스_2384" d="M52.514 4.506c.456-1.958-.691-3.292-.194-4.506-.782.362-1.433 2.052-2.021 3.56.634-.845 1.319-.644 2.215.945" class="cls-1" transform="translate(236.822 .002)"/>
        <path id="패스_2385" d="M50.126 2.744a14.227 14.227 0 0 0 .988-2.213 6.922 6.922 0 0 0-.988 2.213" class="cls-1" transform="translate(236.007 3.031)"/>
        <path id="패스_2386" d="M52.26 3.869a6.172 6.172 0 0 0-.925-2.9l.474 2.856c.137.02.3.027.451.04" class="cls-1" transform="translate(241.7 5.547)"/>
        <path id="패스_2387" d="M52.232 1.612l-.017-.094c-.485-.047-.822-.114-.965-.141.12.02.417.094.982.235" class="cls-1" transform="translate(241.299 7.858)"/>
        <path id="패스_2388" d="M51.611 1.414a.328.328 0 0 0-.114-.007c.046.275.074.369.114.007" class="cls-1" transform="translate(242.462 8.015)"/>
        <path id="패스_2389" d="M53.389 1.9c-.651 1.609-2.026 3.352-.651 5.773.457-1.971-.331-3.352.651-5.773" class="cls-1" transform="translate(245.531 10.87)"/>
        <path id="패스_2390" d="M51.621 3.656l1.216.637a6.728 6.728 0 0 1 .063-2.655z" class="cls-1" transform="translate(243.046 9.346)"/>
        <path id="패스_2391" d="M51.519 3.057l.582-.919-.451-.238z" class="cls-1" transform="translate(242.565 10.861)"/>
        <path id="패스_2392" d="M51.91 1.262a2.2 2.2 0 0 1-1.718 1.576 3.34 3.34 0 0 0 2.089.831c.091-.9.371-2.521-.371-2.407" class="cls-1" transform="translate(236.318 7.168)"/>
        <path id="패스_2393" d="M51.039 1.369c-.034.067-.08.1-.114.168.074.241.131.315.114-.168" class="cls-1" transform="translate(239.769 7.812)"/>
        <path id="패스_2394" d="M49.079 1.5c.04.154.068.349.108.516l.017-.5z" class="cls-1" transform="translate(231.078 8.571)"/>
        <path id="패스_2395" d="M50.7 2.591c.525.543.833-.161 1.119-1.053a2.294 2.294 0 0 1-1.239.516c-.04.409-.046.677.12.536" class="cls-1" transform="translate(238.027 8.776)"/>
        <path id="패스_2396" d="M49.818 1.243a10.205 10.205 0 0 0 .919 1.562c-.274-.905-.828-2.305-.919-1.562" class="cls-1" transform="translate(234.557 5.893)"/>
        <path id="패스_2397" d="M50.94 1.684a.691.691 0 0 1 .08-.134c-.183-.61-.154-.308-.08.134" class="cls-1" transform="translate(239.571 6.88)"/>
        <path id="패스_2398" d="M51.444 1.277a8.7 8.7 0 0 0-.668 1.757 3.163 3.163 0 0 0 .851-.966 7.906 7.906 0 0 1-.183-.791" class="cls-1" transform="translate(239.068 7.287)"/>
        <path id="패스_2399" d="M49.887 19.481c.063-2.655 1.4-5.129 2.614-2.3 1.142-2.011.291-10.728-.771-15.6a5.577 5.577 0 0 1-1.193 3.815c.434 1.448 2.683 3.352 1.7 5.773-1.564 1.388-1.3-.919-2.089-2.313.691 3.3-1.964 4.841-1.57 9.7l1.37-1.73c.034.751-.451 1.965-.063 2.655" class="cls-1" transform="translate(228.54 9.01)"/>
        <path id="패스_2400" d="M51.361 4.941l.485-.335c-.559-.456-.97-1.509-1.735-3.574A6.253 6.253 0 0 0 49.1 4.21l2.426.335z" class="cls-1" transform="translate(231.181 5.889)"/>
        <path id="패스_2401" d="M51.791 3.054c-.354 2.9-1.524 4.137-.765 7.255 1.439-.221.982-2.427 1.832-3.694-2.318.751.651-1.616-1.05-3.232a2.632 2.632 0 0 1 1.256-.783 7 7 0 0 1-1.222-1.3l.057.181.011-.007v.047c.1.355.137.57.023.369a.084.084 0 0 1-.051.054c-.011.409-.051.758-.091 1.1-.679-.59-.114-.751.091-1.1.011-.141.029-.275.029-.422l-.011-.04-2.318 1.612c.5.4 1.119.3 2.209-.04" class="cls-1" transform="translate(233.446 7.401)"/>
        <path id="패스_2402" d="M52.213 4.265a2.668 2.668 0 0 1-.086-.67c-.143.355-.2.6.086.67" class="cls-1" transform="translate(244.875 20.511)"/>
        <path id="패스_2403" d="M52.884 9.381c.166-.409.3-1.562.845-1.274.491.858.017 1.388.051 2.333.325-.771 1.142-2.085.086-3.48l-.16.4a11.864 11.864 0 0 1-2.032-4.962 46.9 46.9 0 0 0 1.21 6.986" class="cls-1" transform="translate(243.228 13.665)"/>
        <path id="패스_2404" d="M52.5 2.608l-1.927 1.448 1.016 2.481-.063-1.5c1.107.57.851-1.274.976-2.434" class="cls-1" transform="translate(238.112 14.88)"/>
        <path id="패스_2405" d="M49.739 3.89l.229-3.058-1.079 4.325z" class="cls-1" transform="translate(230.182 4.751)"/>
        <path id="패스_2406" d="M49.082 3.608l.063-2.656-.651 1.609z" class="cls-1" transform="translate(228.323 5.435)"/>
        <path id="패스_2407" d="M24.19 6.561l-.571.764a2.278 2.278 0 0 0 .571-.764" class="cls-1" transform="translate(111.205 37.432)"/>
        <path id="패스_2408" d="M24.521 7.691l.091-1.307c-.188.724-.263 1.254-.091 1.307" class="cls-1" transform="translate(115 36.422)"/>
        <path id="패스_2409" d="M39.152 5.27c-.856-2.467-1.827-6.3-1.7-3.312l.285 2.9c.577-.53 1.027-.215 1.41.409" class="cls-1" transform="translate(176.301 4.957)"/>
        <path id="패스_2410" d="M30.342 5.831c.086.282.166.583.251.878.194-1 .371-1.924.537-2.789-.24.6-.508 1.24-.788 1.911" class="cls-1" transform="translate(142.859 22.365)"/>
        <path id="패스_2411" d="M31.179 7.581l-1.113-1.857a6.3 6.3 0 0 0 1.113 1.857" class="cls-1" transform="translate(141.559 32.657)"/>
        <path id="패스_2412" d="M20.3 7.069l-.634 2.97c1.039-.034.565-1.515.634-2.97" class="cls-1" transform="translate(92.574 40.33)"/>
        <path id="패스_2413" d="M45.56 3.035c-.725-1.126-1.307-1.6-1.8-1.73.879 1.656 1.6 4.157 1.8 1.73" class="cls-1" transform="translate(206.016 7.447)"/>
        <path id="패스_2414" d="M24.334 1.954a3.044 3.044 0 0 0-.468 1.777 2.441 2.441 0 0 0 .468-1.777" class="cls-1" transform="translate(112.362 11.149)"/>
        <path id="패스_2415" d="M43.393 2.382a7.185 7.185 0 0 0 .382.677c.525-.5 1.045-.892 1.69-.717-.651-1.234-1.393-1.991-2.072.04" class="cls-1" transform="translate(204.306 6.41)"/>
        <path id="패스_2416" d="M5.6 7.175a3.454 3.454 0 0 1-.188-.342c-.017.389.068.409.188.342" class="cls-1" transform="translate(25.456 38.983)"/>
        <path id="패스_2417" d="M1.212 2.864a2.043 2.043 0 0 1 .976-.241c-.177-.194-.474-.174-.976.241" class="cls-1" transform="translate(5.706 14.283)"/>
        <path id="패스_2418" d="M46.816 1.348c.537-.194.086-.322 0 0" class="cls-1" transform="translate(220.423 6.572)"/>
        <path id="패스_2419" d="M47.458 2.89a4.288 4.288 0 0 0-.2 1.415 5.378 5.378 0 0 1 .2-1.415" class="cls-1" transform="translate(222.504 16.489)"/>
        <path id="패스_2420" d="M42.53 4.028l-.046-.007c.166.563.137.456.046.007" class="cls-1" transform="translate(200.027 22.941)"/>
        <path id="패스_2421" d="M47.534 2.1a2.952 2.952 0 0 0-.7-.852 3.587 3.587 0 0 0 .7.852" class="cls-1" transform="translate(220.527 7.127)"/>
        <path id="패스_2422" d="M46.938 1.4a4.231 4.231 0 0 0 .474.275c.057-.483 0-.791-.474-.275" class="cls-1" transform="translate(220.997 6.455)"/>
        <path id="패스_2423" d="M46.686 1.348a1.184 1.184 0 0 1 .868.288.689.689 0 0 1-.126-.456 4.63 4.63 0 0 1-.742.168" class="cls-1" transform="translate(219.811 6.734)"/>
        <path id="패스_2424" d="M13.452 5.863c-.034-.094-.08-.148-.12-.275-.525 1.22-.291 1.019.12.275" class="cls-1" transform="translate(61.344 31.881)"/>
        <path id="패스_2425" d="M35.373 6.264c.023-.027.034-.107.057-.141l-.074-.1z" class="cls-1" transform="translate(166.466 34.362)"/>
        <path id="패스_2426" d="M35.027 15.589c.782-3.634 1.25-3.192 1.878-2.434l-.725-8.381z" class="cls-1" transform="translate(164.917 27.237)"/>
        <path id="패스_2427" d="M124.29 41.317l1.376 2.595c-1.581 4.325-2.774 2.856-1.473 6.517.1-9.112 5.234-1.006 5.332-10.1l.908 1.9c-.257-.08-.291.456-.542.362 1.775 4.338 1.216-6.6 3.459-5.33a2.75 2.75 0 0 1 .822 3.084l1.707-2.273c.5.168.4 1.75-.1 1.582l2.632-.764-.017.268a38.638 38.638 0 0 1 1.6-4.6c.685 1.3-.325.972-.143 2.105l1.438-2.226c.622 2.347-.565 4.653-1.581 4.331 1.461 9.072 1.187-2.306 4.19 2.964l-1.37 1.168c.942 5.149 2 3.265 3.6 6.464-.388-1.676-3.214-8.073-1.65-10.366.457.684 1.05 1.006 1.884-.845.04 3.238.868 2.434 1.912 2.233l-.023 4.291c1.113-1.254 1-3.433 1.65-5.377 1.262.4 1.558 3.721 1.884 6.517 2.026.657-1.45-5.3.93-6.148 1.7 1.616 2.86-.154 4.835-2.749 1.193 1.462-.177 2.628.257 3.849l1.01-3.433c.257.074.183 1.126.148 1.656.862-1.334.023-4.284 1.393-5.471.325-4.727 2.9 6.866 4.555 1.475.434 1.214-.177 2.635-.029 4.291 2.3-3.554 1.981-2.581 3.853-7.349l1.667 2.789c-1.233-3.2.263-7.033 1.575-10.185-.44-1.549-.822-2.9-1.073-3.547l2.129-2.333a9.716 9.716 0 0 1-.268 3.969c.143-.355.28-.711.382-1.033.788 1.576.411 4.056-.114 6.457-.268-.838-.537-1.737-.8-2.635a34.447 34.447 0 0 0-.839 8.019 2.431 2.431 0 0 1 .7-1.173 5.945 5.945 0 0 0-.148 1.77c.08.449.3-.5.634-1.6l.542 4.767.1-1.9 2.843 2.95c1.964-4.841 3.642-11.948 6.81-13.966-.753 3.513-.108 5.726-.108 9.883-.919-4.385-2.455 1.9-4.121 1.033.873.449.7 2.434.491 3.124l2.901-4.027c-.034 3.393.651 2.534 1.438 3.929-.651-6.7 2.152-4.506 3.334-6.577.1 2.253-.166 4.553-1.638 4.036 1.673 5.029 2.009-7.918 3.642-3.647-.36.067-.554-.282-.685.865.816-2.018 2.877-.456 2.415 1.515l-.354.054c2.38.758 7.232-.054 7.529-5.766.029.738-.24 6.879-.377 8.032l4.041-19.243c-.32 4.9 1.233 16.548-.708 19.344.571.684 1.279 1.488 2.455-.255-.394-.7-1.033-7.067-.514-7.523 1.507 5.431 1.039 2.9 2.871 7.523-.594-1.039-.029-8.73.891-8.5-.131 1.153.154 7.583-.171 8.388l2.2-7.57c-.559 1.368-.034 6.39.5 8.515-.251-1.475 1.969.107 2.563-.65l-.982-1.73c2.586 1.1 2.432-10.641 4.983-10.279-.291 1.562-.662 9.595.645 10.527.548-3.875 2.432-18.613 4.658-21.623l.457 2.206 1.707-2.541a227.516 227.516 0 0 1-5.52 22.877c.982 1.737.3 2.6 1.735 2.38a2.689 2.689 0 0 1-1.176 3.279l3.368 1.287c-.2-4.512 2.517-4.559 2.346-8.314L220.1 39.56c-.194-4.5 1.975-12.826 4.355-12.062.622 1.784-.371 8.026-.3 9.528.291-1.556 2.226-2.99 2.455-1.9l-.988 2.427c1.341 1.676 2.095-6.008 3.733-1.73.548.282 1.7 5.78 1.764 3.118-.948-5.136-1.284-21.04-.731-24.909.194.342 2.928 4.874 3.585 7.4.942 4.023-1.262 9.635-.451 13.081a10.615 10.615 0 0 1 .7-3.245c.588 1.046-.2 3.815 1.05 3.245.16-4.573 2.546.349.548-3.875 1.21-1.321 1.313.919 2.746.7-.485-2.95 1.187-10.071 2.4-11.392a14.743 14.743 0 0 0 .371 3.359c2.512.382 3.882 2.434 6.222 2.441.228 1.106 1.37 2.427.908 4.4.331-.811.622-2.367 1.341-2.488 1.438 3.936-1.6.644-.485 5.371.063-2.655 1.827-3.688 2.837-5.364-.36-4.1-2.38-.751-3.4.925-.063-5.659 1.667-11.613 4.087-14.261 1.929-1.435.879 3.647 1.21 2.829 3.659.939 3.008-9.923 6.079-5.88 1.239 3.587.131 7.168.422 9.769-1.57 1.388-2.455-2.253-3.522-2.092l1.336 1.683c-.491 1.207-1.536 2.125-2.124 1.093 1.039 3.225 6.176.536 9.025 3.487.485-1.22 1.336-2.481.913-3.922l-.891.51c-.851-2.89 1.638-4.043.5-5.377 1.17-2.065 2.477-5.3 4.178-3.674l.36 4.1c-.046-1.2-1.125-2.434-1.587-1.173.685-1.83 2.643 5.525 3.356.134L270.9 13c1.176-2.085 2.614-6.47 4.121-5.2-.719-4.05-.337.469-1.45-4.264.982 5.9-3.819-.194-2.278 5.994-1.142-5.5-1.907-2.306-3.379-6.986.063 1.348.537 2.581-.725 1.931a10.167 10.167 0 0 1-.263 1.2.671.671 0 0 1-.086-.1l.069.161c-.051.2-.057.248.029.054a6.5 6.5 0 0 1 .656 2.052c-.588 3.124-2.58 3.051-3.237 4.673-.748-.63.3-1.556-.126-3l-.982 2.42c-.126-3.01-2.021-4.975-.291-6.765l-1.581-.107c-.942-1.676-2.226-2.327-3-1.053-.748-.644-1.844 3.359-1.222.992l-2.455 1.9-.029-.758c-2.443-.342-4.966 5.062-7.809-.335-.811.771-1.65 1.716-3.031.878l-.3-2.6c-1.045.925-3.191-2.561-3.613.161-1.21-6.993-5.132-1.455-7-2.675l-.034 3.406c-1.279-.174-2.489.8-4.059 2.192l.126 3c-1.341 2.494-3.528-2.085-5.685-1.75.137-1.147.685-.858 1.079-.168-2.649-6.752-5.394 5.015-7.78.1-.577 1.106-1 .738-1.416-.007.057-.013.1-.067.143-.161a.4.4 0 0 0-.24-.034c-.263-.516-.537-1.113-.828-1.589a7.191 7.191 0 0 0 .7 1.6 3.375 3.375 0 0 0-1.787 1.214l-.314-3.225c-.057.04-.1.034-.154.094-.668-1.187-.514 1.535-.137 3.956a8.136 8.136 0 0 0-.868 1.965c-.588-5.21-1.735 1.777-2.517-3.768-.422 2.715-3.339 2.085-3.636 7.791-.034-.738-.234-1.093.126-1.14-.753-.644-1.5-1.281-2.152.335l-.36-4.1-1.57 5.545c-1.016-2.488-1.444-3.936-.491-7.107-2.323 4.895-1.9 1.857-3.87 6.7l.068-2.655c-.719.107-1.832 3.681-2.289 1.5-1.667-5.022-7.98-.583-12.17-5.216.885 7.8-1.958-3.473-2.061 2.588-.257-1.844-.845-2.883-.194-4.5-2.089 1.851-3.2-2.883-4.607 2.246-.263-1.857.422-2.722.2-3.815-.171.4-.656 1.616-.885.516s.291-1.556.617-2.367c-2.158.342-2.312 6.041-2.415 11.392-1.119-2.514-1.661-2.152-2.415 1.368-.4-1.743-1.05-3.56.285-4.211-.759-.248-4.635-2.5-4.669 1.783-.245-1.079-1.056-.3-1.25.2-1.7-.235-1.844-.617-3.5-.188l.468.691c-.6 5.183-1.37 1.173-2.7 1.817l.029-.53c-3.105-3.688-1.307 1.8-4.378-2.407l.2 3.212c-.211 6.919-2.729-4.043-4.458-1.375l.651 1.83c-.936 2.38-2.78-9.367-3.75-10.218-.217-.6.32-.972.611-1.415-2.569-4.05-.285 4.211-2.158 5.216-.371-2.266.388-5.78-.885-6.189-.645-1.824-3.6 7.429-5.366 3.1.4 1.75.793 3.487-.069 4.821-1.33.644-3.688-6.571-4.841-1.033a4.181 4.181 0 0 1-.263-1.358c-1.01 1.435-3.3 2.414-3.887 5.411-1.062-11.09-6.308 5.5-6.393-4.747l-3.145.59.074-1.046c-2.021-.65-2.706 1.817-3.391 4.284-.474-.691-.143-1.649-.108-2.186-2.963-2.025-3.254-1.582-5.668 3.554l-.285-3.319c-.651 1.938-4.31-5.149-7.152-1.234a4.375 4.375 0 0 1 .3-1.5c-3.2 3.942-7.86-9.105-8.928 3.01L94.3 17.058c2.78.905-.36 5.263.8 7.255-1.079.724-2.854-3.614-1.518-4.251l.217.6c.428-6.316-3.465-2.186-3.436-6.484-5.451.389-10.806-3.031-15.915-3.225l.639 4.895-1.778-.248c-.479-1.133-.674-3.828.605-3.641-.7-2.769-2.112 2.353-2.135 3.426-2.506-1.958.913-5.739.148-5.84l-1.033.375.24.57c-.816 2.018-.873 4.144-2.4 3.922-.976-.966-.525-3.017-.908-3.2 0-.349-.131-.51-.588-.134l-2.249-.389.942 3.862c-.976 1.918-2.112-.174-1.033 4.2-1.593-6.745-8.4-2.306-9.356-4.392-1.364 2.836-2.74 2.809-4.447 2.494.434.8.731 5.149-.742 4.633.44-8.985-2.734-3.855-3.99-10.305 1.107 4.271-4.167 1.12-2.437 7.181-1.236-.714-.112-3.362-1.065-5.462-2.883 3.52-6.456-2.172-10.052-.945-.04 1.18.577 2.97-.177 4.74l-1.964-5.865c-.708.59-.588 6.812-1.929 2.736.194.992.485 2.481.011 2.87-7.13-5.646-14.4 4.908-21.686-5.786.993 2.273.348 2.508-.394 2.6.491.543.023 2.917.131 4.512l-3.048-4.391c-.5 4.439-3.219.342-3.493 4.586l.948-.778c-1.216 5.029 1.884 11.1 1.764 17.527C4.33 29 6.8 43.08 9.039 34.9c.525 1.3-.417 2.079-.131 3.56.565-2.756 1.273-3.346 2.6-2.125l-.143.677c3.7-.717 5.314 1.971 9.5 3.721l-.342-3.171c.9.409 1.1 1.4 1.524 2.193.976-4.828-2.517-.235-1.633-5.558 1.25 6.443 6.308.007 7.181 7.342 1.381.02-.44-3.674.936-3.647l.388 1.978.32-2.568c.908.409 1.387 2.89 1.438 4.573-.223-.194-.616.483-.851.63 1.193 2.32 3.288-.845 3.7-.087L32.2 41.209c3.733-1.918 8.346.63 11.93-3.46l-.291-1.5c2.746-2.816 2.238 1.609 5.263.288L49 36.9c.588-1.5 1.393-2.266 2.232-2.105-.748 1.763 1.478 3.386.491 5.344 2.974-3.017 1.461-2.36 3.391-7.959l.485 2.481c.651-2.26.7-3.446 2.209-4.11-1.227 2.152 1 3.775-.36 6.618 3.242 5.391 4.675-5.558 6.222 2.374 1.393-6.906-2.8-3.788-1.992-5.27-.714-2.239 1.153-5.156 2.158-4.479 1.022.134 1.827 8.777 4.39 8.609-.257-.027-.268.489-.525.463.976 1.743 1.855-2.4 3.06.436.617-4.17 1.53.215 1.661-5.1l-2.335 1.261c1.319-1.408 2.506-7.637 4.726-4.653a11.386 11.386 0 0 1-1.233 3.279c.656 1.556 1.222-1.053 1.907.543-.137 5.317-2.848 1.2-4.236 5.27.714 2.233 2.666-3.889 2 1.877.959-7.328 2.534.885 4.213-4.727l-.08 3.185c.268-.5.822-2.011 1.324-1.938l-.868 4.137c1.364-3.54 2.74 3.037 4.064 1.106-2.82.134-.674-3.828-1.889-6.135 3.436-4.3 2.089 8.294 5.965 6.712-.519.463-2-1.877-1.187-3.366a7.443 7.443 0 0 1 2.215 3.513c2.569-.7-.434-3.265.645-5.237.919 3.862 1.25-1.6 2.369-2.856l.04 3.238c2.963 2.032.714-6.752 3.385-4.278l-1.073 4.5 1.37-1.18-.244 3.682c1.473-2.749 1.947-2.052 3.425-1.039-.365-2.273.137-5.873 1.438-5.994.908 1.911-.468 3.084 1.376 2.595-.4 2.032-.828 4.579-1.661 1.609-.074 1.053-.394 2.032-.468 3.078.982 2.192 2.409.469 3.082.429a1.185 1.185 0 0 1-.731-.744l2.632-4.519a4.465 4.465 0 0 1-.217 3.151c.542-.362.9-1.851 1.7-2.146-.177 2.635-.1 5.351-1.222 6.6l2.523-2.957c.183 1.14 1.341 3.124 1.022 4.1 1.427 1.522 3.414-5.149 5.309-3.138a2.49 2.49 0 0 1 .679-1.388c1.764.57 3.362 3.775 5.411.141l1.233 4.7c1.627-1.1-1.667-5.914 1.039-7.731 1.912-1.535.759 4.01 1.45 5.31.936-2.394 2.552-7.248 4.361-3.44-.577.9-1.039.208-1.587.563m20.144-2.374c-.382.684-1.142 2.789-1.444.885.405-3.715.765-1.944 1.444-.885m30.579-8.227c-.28 1.073-.736.55-1.256-.664.365-.275.788-.161 1.256.664m85.164-23.733a.954.954 0 0 0-.04.154c-.885-1.247-.571-.751.04-.154m1.827 1.375A2.385 2.385 0 0 0 262.082 7c-.114.825-.519.885-.988.664.137.845.382 1.428.913.691m-194.372 4.05l.36.838c-.788.945-.571.1-.36-.838" class="cls-1" transform="translate(1.224 3.655)"/>
        <path id="패스_2428" d="M30.505 7.288a11.285 11.285 0 0 1-.188-1.757 2.282 2.282 0 0 0 .188 1.757" class="cls-1" transform="translate(142.302 31.556)"/>
        <path id="패스_2429" d="M19.893 7.016c-.023-.027-.04-.013-.063-.034a4.9 4.9 0 0 0-.057.583z" class="cls-1" transform="translate(93.097 39.833)"/>
        <path id="패스_2430" d="M41.859 7.356a4 4 0 0 1-.736-1.663c-.011.8.166 1.462.736 1.663" class="cls-1" transform="translate(193.614 32.48)"/>
        <path id="패스_2431" d="M48.735.951l-1.153.858c.559-.168.771.536 1.056 1.046-.034-.758-.263-1.851.1-1.9" class="cls-1" transform="translate(224.029 5.427)"/>
        <path id="패스_2432" d="M49.894 5.581c.166-.4.354-.047.519-.456l-.057-1.5a1.157 1.157 0 0 0-.462 1.958" class="cls-1" transform="translate(233.14 20.671)"/>
        <path id="패스_2433" d="M47.991 3.632c.12 2.715.833 1.784 1.644 1.267-.051.013-.1.034-.143 0 .2-3.808-.656-2.534-1.5-1.267" class="cls-1" transform="translate(225.955 13.48)"/>
        <path id="패스_2434" d="M48.312 3.434a.773.773 0 0 1 .748-.08c.086-1.529-.3-.315-.748.08" class="cls-1" transform="translate(227.467 14.852)"/>
        <path id="패스_2435" d="M47.14 4.313c.394.7.206-3.48.434-2.374.394-3.473-2.523 4.224-.434 2.374" class="cls-1" transform="translate(218.364 5.861)"/>
        <path id="패스_2436" d="M48.744 6.739l-.325-3.352-.428 2.713z" class="cls-1" transform="translate(225.954 19.324)"/>
        <path id="패스_2437" d="M47 4l1.307.912a1.628 1.628 0 0 1 .337-1.153C47.835 3.653 46.956 3 47 4" class="cls-1" transform="translate(221.265 19.695)"/>
        <path id="패스_2438" d="M47.283 3.982a.862.862 0 0 0 1.039-.57 1.659 1.659 0 0 0-1.039.57" class="cls-1" transform="translate(222.622 19.467)"/>
        <path id="패스_2439" d="M48.892 4.834l-.388-.7-.919-.234z" class="cls-1" transform="translate(224.042 22.264)"/>
        <path id="패스_2440" d="M45.73 3.466l-1.4.979c-.137 1.153.257 1.857.782 1.395.331-.811.851-1.261.622-2.374" class="cls-1" transform="translate(208.568 19.775)"/>
        <path id="패스_2441" d="M45.854 6.991A8.9 8.9 0 0 1 45.2 4.45v4.164z" class="cls-1" transform="translate(212.828 25.389)"/>
        <path id="패스_2442" d="M45.416 4.983c-.126 1.153-2.016 3.346-.229 3.057.131-1.147 1.541-2.125.228-3.057" class="cls-1" transform="translate(209.145 28.429)"/>
        <path id="패스_2443" d="M40.847 10.1l.36-.06-.12-6.826z" class="cls-1" transform="translate(192.319 18.346)"/>
        <path id="패스_2444" d="M37.744 11.186c1.7 1.609.354-4.217 1.9-2.2.371-1.623-1.262-1.649-.868-3.051-1 1.716-1.541.764-1.027 5.25" class="cls-1" transform="translate(176.779 33.866)"/>
        <path id="패스_2445" d="M37.761 6.826a7.782 7.782 0 0 0 .5-1.046 3.645 3.645 0 0 0-.5 1.046" class="cls-1" transform="translate(177.789 32.976)"/>
        <path id="패스_2446" d="M1.412 3.216L.321 1.808l.719 2.28z" class="cls-1" transform="translate(1.513 10.319)"/>
        <path id="패스_2447" d="M.908 6.475L.611 2.13 0 6.072c.24-.194.714-.577.908.4" class="cls-1" transform="translate(0 12.153)"/>
        <path id="패스_2448" d="M26.774 9.719l.074-1.046c-.183-1.133-.434-1.214-.942-1.381z" class="cls-1" transform="translate(121.973 41.602)"/>
        <path id="패스_2449" d="M23.7 10.468l.251.087-.508-3.929z" class="cls-1" transform="translate(110.376 37.803)"/>
        <path id="패스_2450" d="M21.37 9.819c.5.154 1.085-.731 1.587-.57-1.085.724-1.775-4.338-1.587.57" class="cls-1" transform="translate(100.473 43.648)"/>
    </g>
</svg>
