<svg xmlns="http://www.w3.org/2000/svg" id="line" width="198.83" height="27.858" viewBox="0 0 198.83 27.858">
    <defs>
        <clipPath id="clip-path">
            <path id="사각형_1921" d="M0 0H198.83V27.858H0z" class="cls-1"/>
        </clipPath>
        <style>
            .cls-1{fill:#60e7a3}
        </style>
    </defs>
    <g id="그룹_1471" clip-path="url(#clip-path)">
        <path id="패스_2370" d="M57.02 2.471c.293.124.171-1.323.213-1.582-.488.325-.2 1.958-.213 1.582" class="cls-1" transform="translate(141.455 2.182)"/>
        <path id="패스_2371" d="M56.03 2.735l.08-.591-.7 1.454z" class="cls-1" transform="translate(137.641 5.262)"/>
        <path id="패스_2372" d="M54.29 3.017c.456 2.459 1.637-.418 2.453.449l.143.56.338-1.986c-.976.325-2.233 1.658-2.933.977" class="cls-1" transform="translate(134.851 5.007)"/>
        <path id="패스_2373" d="M53.622.788c.16.957-.512.832.568.294a2.105 2.105 0 0 1-.108-.242 1.016 1.016 0 0 1-.46-.052" class="cls-1" transform="translate(133.039 1.934)"/>
        <path id="패스_2374" d="M53.767 1.068c.477-.073-.321-.8 0 0" class="cls-1" transform="translate(133.357 1.706)"/>
        <path id="패스_2375" d="M53.308 2.366l.617-.863c-.136-.566-.7-.687-.495-1.1-.638.477-.5 1.04-.122 1.965" class="cls-1" transform="translate(131.618 .985)"/>
        <path id="패스_2376" d="M52.916 1.875l.321-.366c-.059-.238-.146-.318-.321.366" class="cls-1" transform="translate(131.438 3.282)"/>
        <path id="패스_2377" d="M53.687 1.162l-.679.774c.094.4.115 1.195.314-.28-.049.729.077.028.366-.494" class="cls-1" transform="translate(131.667 2.852)"/>
        <path id="패스_2378" d="M53.317 1.3c.359.532.819.863.2 1.727 1.195-.356 1-2.086-.2-1.727" class="cls-1" transform="translate(132.434 3.083)"/>
        <path id="패스_2379" d="M54.234 3.267l.481.715.4-.829c-.2.411-.916-.66-.878.114" class="cls-1" transform="translate(134.709 7.309)"/>
        <path id="패스_2380" d="M51.954.614c-.031.525.23 1.4.286 2.065l.453-.608a2.45 2.45 0 0 1-.739-1.457" class="cls-1" transform="translate(129.042 1.508)"/>
        <path id="패스_2381" d="M52.521 1.212l-.683.908c.62.1.728-.332.683-.908" class="cls-1" transform="translate(128.761 2.975)"/>
        <path id="패스_2382" d="M53.05 3.64l1.118-1.906-1.338 1.934z" class="cls-1" transform="translate(131.226 4.254)"/>
        <path id="패스_2383" d="M51.4 1.47l.38-1.219-.675 1.849z" class="cls-1" transform="translate(126.94 .616)"/>
        <path id="패스_2384" d="M51.651 2.321c.279-1.008-.422-1.7-.118-2.321-.477.187-.874 1.057-1.233 1.834.387-.435.8-.332 1.352.487" class="cls-1" transform="translate(124.938 .001)"/>
        <path id="패스_2385" d="M50.126 1.671a6.831 6.831 0 0 0 .6-1.14 3.338 3.338 0 0 0-.6 1.14" class="cls-1" transform="translate(124.508 1.304)"/>
        <path id="패스_2386" d="M51.9 2.464a2.844 2.844 0 0 0-.565-1.492l.289 1.471c.084.01.181.014.275.021" class="cls-1" transform="translate(127.511 2.386)"/>
        <path id="패스_2387" d="M51.849 1.5l-.01-.048c-.3-.024-.5-.059-.589-.073.073.01.254.048.6.121" class="cls-1" transform="translate(127.3 3.38)"/>
        <path id="패스_2388" d="M51.567 1.409a.236.236 0 0 0-.07 0c.028.142.045.19.07 0" class="cls-1" transform="translate(127.914 3.447)"/>
        <path id="패스_2389" d="M52.906 1.9c-.4.829-1.237 1.727-.4 2.974.279-1.015-.2-1.727.4-2.974" class="cls-1" transform="translate(129.532 4.675)"/>
        <path id="패스_2390" d="M51.621 2.678l.742.328a2.937 2.937 0 0 1 .037-1.368z" class="cls-1" transform="translate(128.222 4.02)"/>
        <path id="패스_2391" d="M51.519 2.5l.355-.473L51.6 1.9z" class="cls-1" transform="translate(127.968 4.672)"/>
        <path id="패스_2392" d="M51.241 1.259a1.3 1.3 0 0 1-1.049.812 2.264 2.264 0 0 0 1.275.428c.056-.463.226-1.3-.226-1.24" class="cls-1" transform="translate(124.672 3.083)"/>
        <path id="패스_2393" d="M50.995 1.369c-.021.035-.049.052-.07.086.045.124.08.162.07-.086" class="cls-1" transform="translate(126.493 3.36)"/>
        <path id="패스_2394" d="M49.079 1.5c.024.079.042.18.066.266l.01-.256z" class="cls-1" transform="translate(121.908 3.686)"/>
        <path id="패스_2395" d="M50.642 2.08c.321.28.509-.083.683-.542a1.547 1.547 0 0 1-.756.266c-.024.211-.028.349.073.276" class="cls-1" transform="translate(125.574 3.775)"/>
        <path id="패스_2396" d="M49.818 1.141a5.15 5.15 0 0 0 .561.8c-.167-.466-.505-1.188-.561-.8" class="cls-1" transform="translate(123.743 2.535)"/>
        <path id="패스_2397" d="M50.918 1.452a.349.349 0 0 1 .049-.069c-.111-.314-.094-.159-.049.069" class="cls-1" transform="translate(126.388 2.959)"/>
        <path id="패스_2398" d="M51.184 1.277a4.085 4.085 0 0 0-.408.9 1.758 1.758 0 0 0 .519-.5 3.544 3.544 0 0 1-.111-.408" class="cls-1" transform="translate(126.123 3.134)"/>
        <path id="패스_2399" d="M49.362 10.8c.038-1.368.857-2.642 1.6-1.185.7-1.036.178-5.526-.47-8.037a2.569 2.569 0 0 1-.728 1.965c.265.746 1.637 1.727 1.038 2.974-.955.715-.794-.473-1.275-1.192.422 1.7-1.2 2.494-.958 5l.836-.891c.021.387-.275 1.012-.038 1.368" class="cls-1" transform="translate(120.569 3.875)"/>
        <path id="패스_2400" d="M50.481 3.046l.3-.173c-.341-.235-.592-.777-1.059-1.841a2.875 2.875 0 0 0-.622 1.637l1.481.173z" class="cls-1" transform="translate(121.962 2.533)"/>
        <path id="패스_2401" d="M50.93 2.2c-.216 1.492-.93 2.131-.467 3.737.878-.114.6-1.25 1.118-1.9-1.414.387.4-.832-.641-1.665a1.682 1.682 0 0 1 .766-.4 3.945 3.945 0 0 1-.746-.673l.04.091h.007v.024c.063.183.084.294.014.19a.048.048 0 0 1-.031.028 5.207 5.207 0 0 1-.056.566c-.415-.3-.07-.387.056-.566.007-.073.017-.142.017-.218L51 1.39l-1.414.832c.307.2.683.155 1.348-.021" class="cls-1" transform="translate(123.157 3.183)"/>
        <path id="패스_2402" d="M52.134 3.94a1.173 1.173 0 0 1-.052-.345c-.087.183-.122.311.052.345" class="cls-1" transform="translate(129.186 8.822)"/>
        <path id="패스_2403" d="M52.407 5.994c.1-.211.181-.8.516-.656.3.442.01.715.031 1.2.2-.4.7-1.074.052-1.792l-.1.2a5.609 5.609 0 0 1-1.24-2.556 20.76 20.76 0 0 0 .739 3.6" class="cls-1" transform="translate(128.317 5.878)"/>
        <path id="패스_2404" d="M51.751 2.608l-1.178.746.62 1.278-.038-.77c.676.294.519-.656.6-1.254" class="cls-1" transform="translate(125.619 6.4)"/>
        <path id="패스_2405" d="M49.408 2.407l.139-1.575-.658 2.228z" class="cls-1" transform="translate(121.435 2.043)"/>
        <path id="패스_2406" d="M48.853 2.32l.038-1.368-.4.829z" class="cls-1" transform="translate(120.454 2.338)"/>
        <path id="패스_2407" d="M23.967 6.561l-.348.394a1.211 1.211 0 0 0 .348-.394" class="cls-1" transform="translate(58.667 16.1)"/>
        <path id="패스_2408" d="M24.484 7.057l.056-.673c-.115.373-.16.646-.056.673" class="cls-1" transform="translate(60.67 15.665)"/>
        <path id="패스_2409" d="M38.487 3.136c-.523-1.271-1.115-3.243-1.035-1.706l.174 1.5c.352-.273.627-.111.861.211" class="cls-1" transform="translate(93.01 2.132)"/>
        <path id="패스_2410" d="M30.342 4.9c.052.145.1.3.153.452l.327-1.437c-.146.311-.31.639-.481.984" class="cls-1" transform="translate(75.367 9.62)"/>
        <path id="패스_2411" d="M30.745 6.681l-.679-.957a3.188 3.188 0 0 0 .679.957" class="cls-1" transform="translate(74.681 14.046)"/>
        <path id="패스_2412" d="M20.049 7.069L19.662 8.6c.634-.017.345-.781.387-1.53" class="cls-1" transform="translate(48.839 17.346)"/>
        <path id="패스_2413" d="M44.857 2.2a2.112 2.112 0 0 0-1.1-.891c.537.853.975 2.141 1.1.891" class="cls-1" transform="translate(108.686 3.203)"/>
        <path id="패스_2414" d="M24.151 1.954a1.386 1.386 0 0 0-.286.915 1.118 1.118 0 0 0 .286-.915" class="cls-1" transform="translate(59.278 4.796)"/>
        <path id="패스_2415" d="M43.393 1.772a3.593 3.593 0 0 0 .233.349 1.208 1.208 0 0 1 1.031-.37c-.4-.635-.85-1.026-1.265.021" class="cls-1" transform="translate(107.784 2.757)"/>
        <path id="패스_2416" d="M5.523 7.009a1.719 1.719 0 0 1-.115-.176c-.01.2.042.211.115.176" class="cls-1" transform="translate(13.43 16.767)"/>
        <path id="패스_2417" d="M1.212 2.689a1.433 1.433 0 0 1 .6-.124c-.108-.1-.289-.09-.6.124" class="cls-1" transform="translate(3.01 6.143)"/>
        <path id="패스_2418" d="M46.816 1.253c.327-.1.052-.166 0 0" class="cls-1" transform="translate(116.287 2.827)"/>
        <path id="패스_2419" d="M47.38 2.89a1.894 1.894 0 0 0-.122.729 2.374 2.374 0 0 1 .122-.729" class="cls-1" transform="translate(117.384 7.092)"/>
        <path id="패스_2420" d="M42.512 4.024h-.028c.1.29.084.235.028 0" class="cls-1" transform="translate(105.526 9.867)"/>
        <path id="패스_2421" d="M47.263 1.688a1.61 1.61 0 0 0-.425-.439 1.944 1.944 0 0 0 .425.439" class="cls-1" transform="translate(116.341 3.066)"/>
        <path id="패스_2422" d="M46.938 1.269a2.735 2.735 0 0 0 .289.142c.035-.249 0-.408-.289-.142" class="cls-1" transform="translate(116.59 2.776)"/>
        <path id="패스_2423" d="M46.686 1.266a.813.813 0 0 1 .53.149.314.314 0 0 1-.077-.235 3.273 3.273 0 0 1-.453.086" class="cls-1" transform="translate(115.964 2.896)"/>
        <path id="패스_2424" d="M13.287 5.73c-.021-.048-.049-.076-.073-.142-.321.629-.178.525.073.142" class="cls-1" transform="translate(32.363 13.712)"/>
        <path id="패스_2425" d="M35.366 6.147c.014-.014.021-.055.035-.073l-.045-.052z" class="cls-1" transform="translate(87.821 14.78)"/>
        <path id="패스_2426" d="M35.027 10.345c.477-1.872.763-1.644 1.146-1.254l-.442-4.317z" class="cls-1" transform="translate(87.004 11.715)"/>
        <path id="패스_2427" d="M75.958 21.593l.84 1.337c-.965 2.228-1.693 1.471-.9 3.357.059-4.694 3.195-.518 3.254-5.2l.554.977c-.157-.041-.178.235-.331.187 1.083 2.235.742-3.4 2.111-2.746a1.282 1.282 0 0 1 .5 1.589l1.042-1.171c.307.086.244.9-.063.815l1.606-.394-.01.138a17.92 17.92 0 0 1 .975-2.369c.418.67-.2.5-.087 1.084l.878-1.147c.38 1.209-.345 2.4-.965 2.231.892 4.673.725-1.188 2.557 1.527l-.833.6c.575 2.652 1.219 1.682 2.195 3.329-.237-.863-1.961-4.158-1.007-5.339.279.352.641.518 1.15-.435.024 1.668.53 1.254 1.167 1.15l-.014 2.21c.679-.646.613-1.768 1.007-2.77.77.207.951 1.917 1.15 3.357 1.237.338-.885-2.732.568-3.167 1.035.832 1.745-.079 2.951-1.416.728.753-.108 1.354.157 1.982l.617-1.768c.157.038.112.58.091.853.526-.687.014-2.207.85-2.818.2-2.435 1.77 3.537 2.78.76.265.625-.108 1.357-.017 2.21a12.047 12.047 0 0 0 2.352-3.785L104.1 18.2c-.753-1.647.16-3.623.962-5.246-.268-.8-.5-1.5-.655-1.827l1.3-1.2a4.249 4.249 0 0 1-.164 2.045c.087-.183.171-.366.233-.532.481.812.251 2.089-.07 3.326-.164-.432-.328-.895-.488-1.357a15.093 15.093 0 0 0-.512 4.131 1.235 1.235 0 0 1 .425-.6 2.6 2.6 0 0 0-.091.912c.049.231.181-.259.387-.822l.331 2.456.059-.977 1.735 1.52c1.2-2.494 2.223-6.155 4.156-7.194-.46 1.81-.066 2.949-.066 5.091-.561-2.259-1.5.981-2.515.532.533.231.429 1.254.3 1.609l1.777-2.079c-.021 1.748.4 1.306.878 2.024-.4-3.454 1.313-2.321 2.035-3.388.059 1.16-.1 2.345-1 2.079 1.021 2.59 1.226-4.079 2.223-1.879-.219.035-.338-.145-.418.446.5-1.04 1.756-.235 1.474.781l-.216.028c1.453.39 4.414-.028 4.6-2.97.017.38-.146 3.544-.23 4.138l2.467-9.912c-.2 2.525.753 8.524-.432 9.964.348.352.78.767 1.5-.131-.24-.359-.631-3.64-.314-3.875.92 2.8.634 1.5 1.752 3.875-.362-.535-.017-4.5.544-4.379-.08.594.094 3.906-.1 4.321l1.341-3.9c-.341.7-.021 3.291.3 4.386-.153-.76 1.2.055 1.564-.335l-.6-.891c1.578.566 1.484-5.481 3.041-5.295-.178.8-.4 4.942.394 5.422.334-2 1.484-9.588 2.843-11.138l.279 1.136 1.042-1.309a102.265 102.265 0 0 1-3.369 11.784c.6.895.181 1.34 1.059 1.226a1.317 1.317 0 0 1-.718 1.689l2.056.663c-.122-2.324 1.536-2.349 1.432-4.283L134.44 20.7c-.118-2.317 1.205-6.607 2.658-6.213.38.919-.226 4.134-.185 4.908.178-.8 1.359-1.54 1.5-.977l-.6 1.25c.819.863 1.279-3.095 2.278-.891.334.145 1.035 2.977 1.077 1.606a61.593 61.593 0 0 1-.458-12.843 19.732 19.732 0 0 1 2.188 3.813c.575 2.072-.77 4.963-.275 6.738a4.76 4.76 0 0 1 .429-1.672c.359.539-.122 1.965.641 1.672.1-2.355 1.554.18.334-2 .739-.68.8.473 1.676.363-.3-1.52.725-5.187 1.467-5.868a6.468 6.468 0 0 0 .226 1.73c1.533.2 2.369 1.254 3.8 1.257.139.57.836 1.25.554 2.266.2-.418.38-1.219.819-1.281.878 2.027-.979.332-.3 2.766.038-1.368 1.115-1.9 1.731-2.763-.219-2.11-1.453-.387-2.073.477-.038-2.915 1.017-5.982 2.494-7.346 1.178-.739.537 1.879.739 1.457 2.233.484 1.836-5.112 3.71-3.029.756 1.848.08 3.692.258 5.032-.958.715-1.5-1.16-2.15-1.078l.815.867c-.3.622-.937 1.095-1.3.563.634 1.661 3.77.276 5.508 1.8.3-.629.815-1.278.557-2.02l-.544.262c-.519-1.489 1-2.083.3-2.77.714-1.064 1.512-2.728 2.55-1.893l.23 2.117c-.028-.618-.686-1.254-.969-.6.418-.943 1.613 2.846 2.049.069L165.436 7c.718-1.074 1.6-3.333 2.515-2.677-.439-2.086-.206.242-.885-2.2.6 3.039-2.331-.1-1.39 3.088-.7-2.832-1.164-1.188-2.062-3.6.038.694.327 1.33-.442.995a4.551 4.551 0 0 1-.16.618.369.369 0 0 1-.052-.052l.042.083c-.031.1-.035.128.017.028a3 3 0 0 1 .4 1.057c-.359 1.609-1.575 1.571-1.975 2.407-.456-.325.181-.8-.077-1.544l-.6 1.247c-.077-1.551-1.233-2.563-.178-3.485l-.965-.055c-.575-.863-1.359-1.2-1.829-.542-.456-.332-1.125 1.73-.746.511l-1.5.981-.017-.39c-1.491-.176-3.031 2.608-4.766-.173-.495.4-1.007.884-1.85.452l-.181-1.34c-.638.477-1.948-1.319-2.205.083-.739-3.6-3.132-.749-4.271-1.378l-.021 1.754c-.78-.09-1.519.414-2.477 1.129l.077 1.547c-.819 1.285-2.153-1.074-3.47-.9.084-.591.418-.442.658-.086-1.616-3.478-3.292 2.583-4.749.052-.352.57-.61.38-.864 0a.134.134 0 0 0 .087-.083.281.281 0 0 0-.146-.017c-.16-.266-.327-.573-.505-.819a3.446 3.446 0 0 0 .425.825 2.126 2.126 0 0 0-1.09.625l-.192-1.661c-.035.021-.063.017-.094.048-.408-.611-.314.791-.084 2.038a3.9 3.9 0 0 0-.53 1.012c-.359-2.684-1.059.915-1.536-1.941-.258 1.4-2.038 1.074-2.219 4.013-.021-.38-.143-.563.077-.587-.46-.332-.916-.66-1.313.173l-.22-2.114-.958 2.856a3.888 3.888 0 0 1-.3-3.661c-1.418 2.521-1.16.957-2.362 3.454l.042-1.368c-.439.055-1.118 1.9-1.4.77-1.017-2.587-4.87-.3-7.428-2.687.54 4.02-1.195-1.789-1.258 1.333-.157-.95-.516-1.485-.118-2.317-1.275.953-1.954-1.485-2.811 1.157-.16-.957.258-1.4.122-1.965-.1.207-.4.832-.54.266s.178-.8.376-1.219c-1.317.176-1.411 3.112-1.474 5.868-.683-1.3-1.014-1.109-1.474.7-.244-.9-.641-1.834.174-2.169-.463-.128-2.829-1.288-2.85.919-.15-.556-.645-.152-.763.1a4.55 4.55 0 0 0-2.139-.1l.286.356c-.366 2.67-.836.6-1.648.936l.017-.273c-1.9-1.9-.8.929-2.672-1.24l.122 1.654c-.129 3.564-1.665-2.083-2.721-.708l.4.943C92.127 10.969 91 4.918 90.41 4.48c-.132-.307.2-.5.373-.729-1.568-2.086-.174 2.169-1.317 2.687-.226-1.167.237-2.977-.54-3.188-.394-.939-2.195 3.827-3.275 1.6.244.9.484 1.8-.042 2.483-.812.332-2.251-3.385-2.954-.532a1.859 1.859 0 0 1-.157-.7c-.617.739-2.014 1.243-2.373 2.787-.648-5.712-3.85 2.832-3.9-2.445l-1.92.3.045-.539c-1.233-.335-1.651.936-2.069 2.207-.289-.356-.087-.85-.066-1.126-1.808-1.043-1.986-.815-3.46 1.83L68.579 7.4c-.4 1-2.63-2.652-4.365-.635A1.949 1.949 0 0 1 64.4 6c-1.954 2.031-4.8-4.69-5.449 1.551L57.657 9.1c1.7.466-.219 2.711.488 3.737-.658.373-1.742-1.862-.927-2.19l.132.311c.261-3.253-2.115-1.126-2.1-3.34-3.327.2-6.6-1.561-9.713-1.661l.39 2.521-1.087-.131c-.293-.584-.411-1.972.369-1.875-.425-1.426-1.289 1.212-1.3 1.765-1.529-1.008.557-2.956.091-3.008l-.631.193.146.294c-.5 1.04-.533 2.134-1.467 2.02-.6-.5-.321-1.554-.554-1.647 0-.18-.08-.262-.359-.069l-1.373-.2.575 1.989c-.6.988-1.289-.09-.631 2.162C38.736 6.493 34.58 8.78 34 7.706a2.2 2.2 0 0 1-2.716 1.284c.265.411.446 2.652-.453 2.387.269-4.628-1.669-1.986-2.431-5.309.676 2.2-2.543.577-1.488 3.7-.753-.366-.066-1.73-.648-2.811-1.759 1.813-3.94-1.119-6.135-.487a4.757 4.757 0 0 1-.108 2.442l-1.2-3.022c-.432.3-.359 3.509-1.178 1.409.118.511.3 1.278.007 1.478C13.3 5.868 8.862 11.3 4.413 5.8c.606 1.171.213 1.292-.24 1.34.3.28.014 1.5.08 2.324L2.392 7.2C2.086 9.484.427 7.374.26 9.56l.578-.4c-.742 2.59 1.15 5.719 1.077 9.028.829-2.939 2.334 4.314 3.7.1.321.67-.254 1.071-.08 1.834.345-1.419.777-1.723 1.589-1.095l-.087.349c2.258-.37 3.244 1.015 5.8 1.917l-.209-1.634c.547.211.669.722.93 1.129.6-2.487-1.536-.121-1-2.863.763 3.319 3.85 0 4.383 3.782.843.01-.268-1.893.571-1.879l.237 1.019.2-1.323c.554.211.847 1.489.878 2.355-.136-.1-.376.249-.519.325.728 1.195 2.007-.435 2.258-.045l-.812-.622c2.278-.988 5.093.325 7.281-1.782l-.178-.77c1.676-1.451 1.366.829 3.212.149l-.063.183c.359-.774.85-1.167 1.362-1.084-.456.908.9 1.744.3 2.753 1.815-1.554.892-1.216 2.069-4.1l.3 1.278c.4-1.164.425-1.775 1.348-2.117-.749 1.109.613 1.944-.219 3.409 1.979 2.777 2.853-2.863 3.8 1.223.85-3.557-1.711-1.951-1.216-2.715-.435-1.154.7-2.656 1.317-2.307.624.069 1.115 4.521 2.679 4.435-.157-.014-.164.252-.321.238.6.9 1.132-1.236 1.867.224.376-2.148.934.111 1.014-2.625l-1.425.649c.8-.725 1.529-3.934 2.885-2.4a5.338 5.338 0 0 1-.753 1.689c.4.8.746-.542 1.164.28-.084 2.739-1.738.618-2.585 2.715.435 1.15 1.627-2 1.223.967.585-3.775 1.547.456 2.571-2.435l-.049 1.641c.164-.259.5-1.036.808-1l-.53 2.131c.833-1.824 1.672 1.565 2.481.57-1.721.069-.411-1.972-1.153-3.16 2.1-2.217 1.275 4.272 3.641 3.457-.317.238-1.219-.967-.725-1.734a3.838 3.838 0 0 1 1.352 1.81c1.568-.359-.265-1.682.394-2.7.561 1.989.763-.822 1.446-1.471l.024 1.668c1.808 1.046.435-3.478 2.066-2.2l-.655 2.317.836-.608-.15 1.9c.9-1.416 1.188-1.057 2.09-.535-.223-1.171.084-3.025.878-3.088.554.984-.286 1.589.84 1.337-.244 1.046-.505 2.359-1.014.829-.045.542-.24 1.046-.286 1.585.6 1.129 1.47.242 1.881.221a.68.68 0 0 1-.446-.383l1.606-2.328a1.972 1.972 0 0 1-.132 1.623c.331-.186.55-.953 1.035-1.105-.108 1.357-.063 2.756-.746 3.4l1.54-1.523c.111.587.819 1.609.624 2.11.871.784 2.083-2.652 3.24-1.616a1.217 1.217 0 0 1 .415-.715c1.077.294 2.052 1.944 3.3.073l.753 2.421c.993-.566-1.017-3.046.634-3.982 1.167-.791.463 2.065.885 2.735.571-1.233 1.557-3.733 2.662-1.772-.352.463-.634.107-.969.29m12.291-1.222c-.233.352-.7 1.437-.881.456.247-1.913.467-1 .881-.456m18.663-4.238c-.171.553-.449.283-.766-.342.223-.142.481-.083.766.342M158.9 3.906a.43.43 0 0 0-.024.079c-.54-.642-.348-.387.024-.079m1.115.708a1.047 1.047 0 0 0 .045-.7c-.07.425-.317.456-.6.342.084.435.233.736.557.356M41.381 6.7l.219.432c-.481.487-.348.052-.219-.432" class="cls-1" transform="translate(.646 1.572)"/>
        <path id="패스_2428" d="M30.4 6.436a4.943 4.943 0 0 1-.115-.9 1.014 1.014 0 0 0 .115.9" class="cls-1" transform="translate(75.073 13.572)"/>
        <path id="패스_2429" d="M19.846 7c-.014-.014-.024-.007-.038-.017a2.144 2.144 0 0 0-.035.3z" class="cls-1" transform="translate(49.114 17.133)"/>
        <path id="패스_2430" d="M41.572 6.55a1.921 1.921 0 0 1-.449-.857c-.007.411.1.753.449.857" class="cls-1" transform="translate(102.143 13.97)"/>
        <path id="패스_2431" d="M48.286.951l-.7.442c.341-.086.47.276.645.539-.021-.39-.16-.953.059-.981" class="cls-1" transform="translate(118.189 2.334)"/>
        <path id="패스_2432" d="M49.747 4.631c.1-.207.216-.024.317-.235l-.035-.774a.565.565 0 0 0-.282 1.008" class="cls-1" transform="translate(122.995 8.891)"/>
        <path id="패스_2433" d="M47.991 3.017c.073 1.4.509.919 1 .653-.031.007-.059.017-.087 0 .122-1.962-.4-1.306-.916-.653" class="cls-1" transform="translate(119.205 5.798)"/>
        <path id="패스_2434" d="M48.312 3.031a.547.547 0 0 1 .456-.041c.052-.787-.185-.162-.456.041" class="cls-1" transform="translate(120.002 6.388)"/>
        <path id="패스_2435" d="M46.843 2.719c.24.359.125-1.792.265-1.223.24-1.789-1.54 2.176-.265 1.223" class="cls-1" transform="translate(115.2 2.521)"/>
        <path id="패스_2436" d="M48.451 5.114l-.2-1.727-.261 1.4z" class="cls-1" transform="translate(119.205 8.312)"/>
        <path id="패스_2437" d="M47 3.732l.8.47a.754.754 0 0 1 .2-.594c-.491-.052-1.028-.387-1 .124" class="cls-1" transform="translate(116.731 8.471)"/>
        <path id="패스_2438" d="M47.283 3.706a.55.55 0 0 0 .634-.294 1.083 1.083 0 0 0-.634.294" class="cls-1" transform="translate(117.447 8.373)"/>
        <path id="패스_2439" d="M48.383 4.382l-.237-.359-.561-.123z" class="cls-1" transform="translate(118.196 9.576)"/>
        <path id="패스_2440" d="M45.172 3.466l-.857.5c-.084.594.157.957.477.718.2-.418.519-.649.38-1.223" class="cls-1" transform="translate(110.033 8.506)"/>
        <path id="패스_2441" d="M45.6 5.759a4.03 4.03 0 0 1-.4-1.309v2.145z" class="cls-1" transform="translate(112.28 10.92)"/>
        <path id="패스_2442" d="M45.028 4.983c-.077.594-1.233 1.723-.139 1.575.08-.591.941-1.095.139-1.575" class="cls-1" transform="translate(110.337 12.228)"/>
        <path id="패스_2443" d="M40.847 6.762l.219-.031-.073-3.516z" class="cls-1" transform="translate(101.46 7.891)"/>
        <path id="패스_2444" d="M37.667 8.64c1.035.829.216-2.172 1.157-1.133.226-.836-.77-.85-.53-1.571-.61.884-.941.394-.627 2.7" class="cls-1" transform="translate(93.262 14.566)"/>
        <path id="패스_2445" d="M37.761 6.319a3.78 3.78 0 0 0 .307-.539 1.765 1.765 0 0 0-.307.539" class="cls-1" transform="translate(93.795 14.183)"/>
        <path id="패스_2446" d="M.987 2.534l-.666-.726.439 1.175z" class="cls-1" transform="translate(.798 4.438)"/>
        <path id="패스_2447" d="M.554 4.368L.373 2.13 0 4.161c.146-.1.435-.3.554.207" class="cls-1" transform="translate(0 5.227)"/>
        <path id="패스_2448" d="M26.436 8.542L26.481 8c-.111-.584-.265-.625-.575-.711z" class="cls-1" transform="translate(64.348 17.893)"/>
        <path id="패스_2449" d="M23.6 8.6l.153.045-.31-2.024z" class="cls-1" transform="translate(58.23 16.259)"/>
        <path id="패스_2450" d="M21.358 8.767c.307.079.662-.376.969-.294-.662.373-1.083-2.235-.969.294" class="cls-1" transform="translate(53.006 18.773)"/>
    </g>
</svg>
