<svg xmlns="http://www.w3.org/2000/svg" id="line" width="386" height="54.082" viewBox="0 0 386 54.082">
    <defs>
        <clipPath id="clip-path">
            <path id="사각형_1921" d="M0 0H386V54.082H0z" class="cls-1"/>
        </clipPath>
        <style>
            .cls-1{fill:#60e7a3}
        </style>
    </defs>
    <g id="그룹_1471" clip-path="url(#clip-path)">
        <path id="패스_2370" d="M57.087 3.96c.568.241.331-2.568.413-3.071-.947.63-.379 3.8-.413 3.071" class="cls-1" transform="translate(328.223 5.074)"/>
        <path id="패스_2371" d="M56.61 3.291l.156-1.147-1.353 2.823z" class="cls-1" transform="translate(319.373 12.234)"/>
        <path id="패스_2372" d="M54.29 3.937c.886 4.774 3.179-.811 4.761.872l.278 1.091.656-3.855c-1.894.63-4.335 3.218-5.695 1.9" class="cls-1" transform="translate(312.901 11.64)"/>
        <path id="패스_2373" d="M53.681.788c.311 1.857-.994 1.616 1.1.57a4.087 4.087 0 0 1-.21-.469 1.972 1.972 0 0 1-.893-.1" class="cls-1" transform="translate(308.694 4.497)"/>
        <path id="패스_2374" d="M53.841 1.419c.927-.141-.622-1.556 0 0" class="cls-1" transform="translate(309.434 3.967)"/>
        <path id="패스_2375" d="M53.608 4.216l1.2-1.676c-.264-1.1-1.353-1.334-.96-2.139-1.238.925-.967 2.018-.237 3.815" class="cls-1" transform="translate(305.399 2.29)"/>
        <path id="패스_2376" d="M52.916 2.381l.622-.711c-.115-.463-.284-.617-.622.711" class="cls-1" transform="translate(304.982 7.631)"/>
        <path id="패스_2377" d="M54.327 1.162l-1.319 1.5c.183.771.223 2.32.609-.543-.095 1.415.149.054.71-.959" class="cls-1" transform="translate(305.512 6.631)"/>
        <path id="패스_2378" d="M53.317 1.351c.7 1.033 1.589 1.676.386 3.352 2.32-.691 1.941-4.05-.386-3.352" class="cls-1" transform="translate(307.293 7.167)"/>
        <path id="패스_2379" d="M54.235 3.54l.933 1.388.771-1.609c-.385.8-1.779-1.281-1.7.221" class="cls-1" transform="translate(312.57 16.993)"/>
        <path id="패스_2380" d="M51.956.614c-.061 1.019.446 2.709.555 4.01l.879-1.18c-.467-.691-1.353-1.321-1.434-2.829" class="cls-1" transform="translate(299.421 3.505)"/>
        <path id="패스_2381" d="M53.164 1.212l-1.326 1.763c1.2.194 1.414-.644 1.326-1.763" class="cls-1" transform="translate(298.769 6.916)"/>
        <path id="패스_2382" d="M53.256 5.435l2.171-3.7-2.6 3.755z" class="cls-1" transform="translate(304.488 9.891)"/>
        <path id="패스_2383" d="M51.687 2.618l.737-2.367-1.319 3.58z" class="cls-1" transform="translate(294.544 1.433)"/>
        <path id="패스_2384" d="M52.923 4.506c.541-1.958-.818-3.292-.23-4.506C51.767.362 51 2.052 50.3 3.56c.751-.845 1.562-.644 2.624.945" class="cls-1" transform="translate(289.899 .002)"/>
        <path id="패스_2385" d="M50.126 2.744A13.26 13.26 0 0 0 51.3.531a6.48 6.48 0 0 0-1.17 2.213" class="cls-1" transform="translate(288.901 3.031)"/>
        <path id="패스_2386" d="M52.431 3.869c-.115-.617-.331-2.226-1.1-2.9l.569 2.859c.162.02.352.027.534.04" class="cls-1" transform="translate(295.87 5.547)"/>
        <path id="패스_2387" d="M52.413 1.612l-.02-.094c-.575-.047-.974-.114-1.143-.141.142.02.494.094 1.163.235" class="cls-1" transform="translate(295.38 7.858)"/>
        <path id="패스_2388" d="M51.632 1.414a.459.459 0 0 0-.135-.007c.054.275.088.369.135.007" class="cls-1" transform="translate(296.803 8.015)"/>
        <path id="패스_2389" d="M53.618 1.9c-.771 1.609-2.4 3.352-.771 5.773.541-1.971-.392-3.352.771-5.773" class="cls-1" transform="translate(300.559 10.87)"/>
        <path id="패스_2390" d="M51.621 3.656l1.441.637a5.7 5.7 0 0 1 .074-2.655z" class="cls-1" transform="translate(297.518 9.346)"/>
        <path id="패스_2391" d="M51.519 3.057l.69-.919-.535-.238z" class="cls-1" transform="translate(296.929 10.861)"/>
        <path id="패스_2392" d="M52.228 1.262a2.521 2.521 0 0 1-2.036 1.576 4.395 4.395 0 0 0 2.475.831c.108-.9.44-2.521-.44-2.407" class="cls-1" transform="translate(289.282 7.168)"/>
        <path id="패스_2393" d="M51.06 1.369c-.041.067-.095.1-.135.168.088.241.156.315.135-.168" class="cls-1" transform="translate(293.506 7.812)"/>
        <path id="패스_2394" d="M49.079 1.5c.047.154.081.349.129.516l.02-.5z" class="cls-1" transform="translate(282.867 8.571)"/>
        <path id="패스_2395" d="M50.725 2.591c.622.543.987-.161 1.326-1.053a3 3 0 0 1-1.468.516c-.047.409-.054.677.142.536" class="cls-1" transform="translate(291.373 8.776)"/>
        <path id="패스_2396" d="M49.818 1.243a10 10 0 0 0 1.089 1.562C50.582 1.9 49.926.5 49.818 1.243" class="cls-1" transform="translate(287.126 5.893)"/>
        <path id="패스_2397" d="M50.951 1.684a.679.679 0 0 1 .095-.134c-.216-.61-.183-.308-.095.134" class="cls-1" transform="translate(293.264 6.88)"/>
        <path id="패스_2398" d="M51.567 1.277a7.93 7.93 0 0 0-.791 1.757 3.413 3.413 0 0 0 1.008-.966 6.882 6.882 0 0 1-.216-.791" class="cls-1" transform="translate(292.648 7.287)"/>
        <path id="패스_2399" d="M50.136 19.481c.074-2.655 1.664-5.129 3.1-2.3 1.353-2.011.345-10.728-.913-15.6a4.988 4.988 0 0 1-1.414 3.815c.514 1.448 3.179 3.352 2.016 5.773-1.853 1.388-1.542-.919-2.475-2.313.818 3.3-2.327 4.841-1.86 9.7l1.623-1.73c.041.751-.534 1.965-.074 2.655" class="cls-1" transform="translate(279.76 9.01)"/>
        <path id="패스_2400" d="M51.779 4.941l.575-.335C51.691 4.15 51.2 3.1 50.3 1.032a5.581 5.581 0 0 0-1.2 3.178l2.874.335z" class="cls-1" transform="translate(282.994 5.889)"/>
        <path id="패스_2401" d="M52.2 3.054c-.419 2.9-1.806 4.137-.906 7.255 1.7-.221 1.163-2.427 2.171-3.694-2.746.751.771-1.616-1.244-3.232a3.266 3.266 0 0 1 1.487-.783 7.659 7.659 0 0 1-1.448-1.3l.068.181.014-.007v.047c.122.355.162.57.027.369a.093.093 0 0 1-.061.054 10.107 10.107 0 0 1-.108 1.1c-.8-.59-.135-.751.108-1.1.014-.141.034-.275.034-.422l-.014-.04-2.746 1.612c.6.4 1.326.3 2.618-.04" class="cls-1" transform="translate(285.766 7.401)"/>
        <path id="패스_2402" d="M52.25 4.265a2.277 2.277 0 0 1-.1-.67c-.169.355-.237.6.1.67" class="cls-1" transform="translate(299.756 20.511)"/>
        <path id="패스_2403" d="M53.11 9.381c.2-.409.352-1.562 1-1.274.582.858.02 1.388.061 2.333.386-.771 1.353-2.085.1-3.48l-.189.4c-1.123-.979-2.6-4.566-2.408-4.962a40.3 40.3 0 0 0 1.436 6.983" class="cls-1" transform="translate(297.74 13.665)"/>
        <path id="패스_2404" d="M52.859 2.608l-2.286 1.448 1.2 2.481-.074-1.5c1.312.57 1.008-1.274 1.157-2.434" class="cls-1" transform="translate(291.478 14.88)"/>
        <path id="패스_2405" d="M49.9 3.89l.267-3.058-1.278 4.325z" class="cls-1" transform="translate(281.771 4.751)"/>
        <path id="패스_2406" d="M49.191 3.608l.074-2.656-.771 1.609z" class="cls-1" transform="translate(279.495 5.435)"/>
        <path id="패스_2407" d="M24.3 6.561l-.676.764a2.351 2.351 0 0 0 .676-.764" class="cls-1" transform="translate(136.128 37.432)"/>
        <path id="패스_2408" d="M24.539 7.691l.108-1.307c-.223.724-.311 1.254-.108 1.307" class="cls-1" transform="translate(140.774 36.422)"/>
        <path id="패스_2409" d="M39.468 5.27C38.453 2.8 37.3-1.026 37.459 1.958l.338 2.9c.683-.53 1.217-.215 1.671.409" class="cls-1" transform="translate(215.814 4.957)"/>
        <path id="패스_2410" d="M30.342 5.831c.1.282.2.583.3.878.23-1 .44-1.924.636-2.789-.284.6-.6 1.24-.933 1.911" class="cls-1" transform="translate(174.876 22.365)"/>
        <path id="패스_2411" d="M31.385 7.581l-1.319-1.857a6.189 6.189 0 0 0 1.319 1.857" class="cls-1" transform="translate(173.286 32.657)"/>
        <path id="패스_2412" d="M20.413 7.069l-.751 2.97c1.231-.034.67-1.515.751-2.97" class="cls-1" transform="translate(113.322 40.33)"/>
        <path id="패스_2413" d="M45.893 3.035A4.1 4.1 0 0 0 43.756 1.3c1.042 1.656 1.894 4.157 2.137 1.73" class="cls-1" transform="translate(252.188 7.447)"/>
        <path id="패스_2414" d="M24.421 1.954a2.692 2.692 0 0 0-.555 1.777 2.17 2.17 0 0 0 .555-1.777" class="cls-1" transform="translate(137.545 11.149)"/>
        <path id="패스_2415" d="M43.393 2.382a6.976 6.976 0 0 0 .453.677 2.345 2.345 0 0 1 2-.717c-.771-1.234-1.65-1.991-2.455.04" class="cls-1" transform="translate(250.096 6.41)"/>
        <path id="패스_2416" d="M5.632 7.175a3.337 3.337 0 0 1-.223-.342c-.02.389.081.409.223.342" class="cls-1" transform="translate(31.161 38.983)"/>
        <path id="패스_2417" d="M1.212 2.864a2.783 2.783 0 0 1 1.157-.241c-.21-.194-.561-.174-1.157.241" class="cls-1" transform="translate(6.985 14.283)"/>
        <path id="패스_2418" d="M46.816 1.348c.636-.194.1-.322 0 0" class="cls-1" transform="translate(269.824 6.572)"/>
        <path id="패스_2419" d="M47.495 2.89a3.678 3.678 0 0 0-.237 1.41 4.608 4.608 0 0 1 .237-1.415" class="cls-1" transform="translate(272.372 16.489)"/>
        <path id="패스_2420" d="M42.538 4.028l-.054-.007c.2.563.162.456.054.007" class="cls-1" transform="translate(244.857 22.941)"/>
        <path id="패스_2421" d="M47.663 2.1a3.126 3.126 0 0 0-.825-.852 3.774 3.774 0 0 0 .825.852" class="cls-1" transform="translate(269.951 7.127)"/>
        <path id="패스_2422" d="M46.938 1.4a5.309 5.309 0 0 0 .561.275c.068-.483 0-.791-.561-.275" class="cls-1" transform="translate(270.527 6.455)"/>
        <path id="패스_2423" d="M46.686 1.348a1.578 1.578 0 0 1 1.028.288.609.609 0 0 1-.149-.456 6.355 6.355 0 0 1-.879.168" class="cls-1" transform="translate(269.075 6.734)"/>
        <path id="패스_2424" d="M13.53 5.863c-.041-.094-.095-.148-.142-.275-.622 1.22-.345 1.019.142.275" class="cls-1" transform="translate(75.092 31.881)"/>
        <path id="패스_2425" d="M35.376 6.264c.027-.027.041-.107.068-.141l-.088-.1z" class="cls-1" transform="translate(203.774 34.362)"/>
        <path id="패스_2426" d="M35.027 15.589c.927-3.634 1.481-3.192 2.225-2.434l-.859-8.381z" class="cls-1" transform="translate(201.878 27.237)"/>
        <path id="패스_2427" d="M147.217 41.317l1.63 2.595c-1.874 4.325-3.287 2.856-1.745 6.517.115-9.112 6.2-1.006 6.317-10.1l1.075 1.9c-.3-.08-.345.456-.643.362 2.1 4.338 1.441-6.6 4.1-5.33a2.489 2.489 0 0 1 .974 3.084l2.022-2.273c.6.168.473 1.75-.122 1.582l3.118-.764-.02.268a34.789 34.789 0 0 1 1.894-4.6c.812 1.3-.386.972-.169 2.105l1.7-2.226c.737 2.347-.67 4.653-1.874 4.331 1.731 9.072 1.407-2.306 4.964 2.964l-1.611 1.168c1.116 5.149 2.367 3.265 4.261 6.464-.46-1.676-3.808-8.073-1.955-10.366.541.684 1.244 1.006 2.232-.845.047 3.238 1.028 2.434 2.266 2.233l-.027 4.291c1.319-1.254 1.19-3.433 1.955-5.377 1.495.4 1.846 3.721 2.232 6.517 2.4.657-1.718-5.3 1.1-6.148 2.009 1.616 3.389-.154 5.729-2.749 1.414 1.462-.21 2.628.3 3.849l1.2-3.433c.3.074.216 1.126.176 1.656 1.021-1.334.027-4.284 1.65-5.471.386-4.727 3.436 6.866 5.4 1.475.514 1.214-.21 2.635-.034 4.291 2.726-3.554 2.347-2.581 4.565-7.349l1.975 2.789c-1.461-3.2.311-7.033 1.867-10.185-.521-1.549-.974-2.9-1.272-3.547l2.523-2.333c.318.7.074 2.172-.318 3.969.169-.355.331-.711.453-1.033.933 1.576.487 4.056-.135 6.457-.318-.838-.636-1.737-.947-2.635a29.3 29.3 0 0 0-.994 8.019 2.4 2.4 0 0 1 .825-1.173 5.047 5.047 0 0 0-.176 1.77c.095.449.352-.5.751-1.6l.643 4.767.115-1.9 3.368 2.95c2.327-4.841 4.315-11.948 8.069-13.966-.893 3.513-.129 5.726-.129 9.883-1.089-4.385-2.908 1.9-4.883 1.033 1.035.449.832 2.434.582 3.124l3.449-4.036c-.041 3.393.771 2.534 1.7 3.929-.771-6.7 2.55-4.506 3.95-6.577.115 2.253-.2 4.553-1.941 4.036 1.982 5.029 2.381-7.918 4.315-3.647-.426.067-.656-.282-.812.865.967-2.018 3.409-.456 2.861 1.515l-.419.054c2.82.758 8.569-.054 8.921-5.766.034.738-.284 6.879-.446 8.032l4.789-19.243c-.379 4.9 1.461 16.548-.839 19.344.676.684 1.515 1.488 2.908-.255-.467-.7-1.224-7.067-.609-7.523 1.786 5.431 1.231 2.9 3.4 7.523-.7-1.039-.034-8.73 1.055-8.5-.156 1.153.183 7.583-.2 8.388l2.6-7.57c-.663 1.368-.041 6.39.588 8.515-.3-1.475 2.333.107 3.037-.65l-1.163-1.73c3.064 1.1 2.881-10.641 5.9-10.279-.345 1.562-.785 9.595.764 10.527.649-3.875 2.881-18.613 5.519-21.623l.541 2.206 2.022-2.541a198.527 198.527 0 0 1-6.54 22.877c1.163 1.737.352 2.6 2.056 2.38a2.557 2.557 0 0 1-1.393 3.279l3.991 1.287c-.237-4.512 2.983-4.559 2.78-8.314l-4.254 4.727c-.23-4.5 2.34-12.826 5.161-12.062.737 1.784-.44 8.026-.358 9.528.345-1.556 2.638-2.99 2.908-1.9l-1.17 2.427c1.589 1.676 2.482-6.008 4.423-1.73.649.282 2.009 5.78 2.09 3.118-1.123-5.136-1.522-21.04-.866-24.909.23.342 3.47 4.874 4.247 7.4 1.116 4.023-1.495 9.635-.534 13.081a9.241 9.241 0 0 1 .832-3.245c.7 1.046-.237 3.815 1.244 3.245.189-4.573 3.016.349.649-3.875 1.434-1.321 1.556.919 3.253.7-.575-2.95 1.407-10.071 2.847-11.392a12.556 12.556 0 0 0 .44 3.359c2.976.382 4.6 2.434 7.372 2.441.271 1.106 1.623 2.427 1.075 4.4.392-.811.737-2.367 1.589-2.488 1.7 3.936-1.9.644-.575 5.371.074-2.655 2.164-3.688 3.361-5.364-.426-4.1-2.82-.751-4.024.925-.074-5.659 1.975-11.613 4.843-14.261 2.286-1.435 1.042 3.647 1.434 2.829 4.335.939 3.564-9.923 7.2-5.88 1.468 3.587.156 7.168.5 9.769-1.86 1.388-2.908-2.253-4.173-2.092l1.583 1.683c-.582 1.207-1.819 2.125-2.516 1.093 1.231 3.225 7.318.536 10.693 3.487.575-1.22 1.583-2.481 1.082-3.922l-1.055.51c-1.008-2.89 1.941-4.043.588-5.377 1.387-2.065 2.935-5.3 4.951-3.674l.426 4.1c-.054-1.2-1.332-2.434-1.88-1.173.812-1.83 3.132 5.525 3.977.134L320.925 13c1.393-2.085 3.1-6.47 4.883-5.2-.852-4.05-.4.469-1.718-4.264 1.163 5.9-4.525-.194-2.7 5.994-1.353-5.5-2.259-2.306-4-6.986.074 1.348.636 2.581-.859 1.931a8.833 8.833 0 0 1-.311 1.2.714.714 0 0 1-.1-.1l.081.161c-.061.2-.068.248.034.054a5.814 5.814 0 0 1 .778 2.052c-.7 3.124-3.057 3.051-3.835 4.673-.886-.63.352-1.556-.149-3l-1.163 2.42c-.149-3.01-2.394-4.975-.345-6.765l-1.874-.107c-1.116-1.676-2.638-2.327-3.551-1.053-.886-.644-2.185 3.359-1.447.992l-2.908 1.9-.041-.752c-2.895-.342-5.884 5.062-9.252-.335-.96.771-1.955 1.716-3.591.878l-.352-2.6c-1.238.925-3.781-2.561-4.281.161-1.434-6.993-6.08-1.455-8.292-2.675l-.041 3.406c-1.515-.174-2.949.8-4.809 2.192l.149 3c-1.589 2.494-4.18-2.085-6.736-1.75.162-1.147.812-.858 1.278-.168-3.138-6.752-6.392 5.015-9.219.1-.683 1.106-1.184.738-1.677-.007a.261.261 0 0 0 .169-.161.546.546 0 0 0-.284-.034c-.311-.516-.636-1.113-.981-1.589a6.688 6.688 0 0 0 .825 1.6 4.127 4.127 0 0 0-2.117 1.214l-.372-3.225c-.068.04-.122.034-.183.094-.791-1.187-.609 1.535-.162 3.956a7.573 7.573 0 0 0-1.028 1.965c-.7-5.21-2.056 1.777-2.983-3.768-.5 2.715-3.957 2.085-4.308 7.791-.041-.738-.277-1.093.149-1.14-.893-.644-1.779-1.281-2.55.335l-.426-4.1-1.86 5.545c-1.2-2.488-1.711-3.936-.582-7.107-2.753 4.895-2.252 1.857-4.586 6.7l.081-2.655c-.852.107-2.171 3.681-2.712 1.5-1.975-5.022-9.455-.583-14.42-5.216 1.048 7.8-2.32-3.473-2.442 2.588-.3-1.844-1-2.883-.23-4.5-2.475 1.855-3.791-2.88-5.455 2.249-.311-1.857.5-2.722.237-3.815-.2.4-.778 1.616-1.048.516s.345-1.556.73-2.367c-2.557.342-2.739 6.041-2.861 11.392-1.326-2.514-1.968-2.152-2.861 1.368-.473-1.743-1.244-3.56.338-4.211-.9-.248-5.492-2.5-5.533 1.783-.291-1.079-1.251-.3-1.481.2-2.009-.235-2.185-.617-4.153-.188l.555.691c-.71 5.183-1.623 1.173-3.2 1.817l.034-.53c-3.679-3.688-1.549 1.8-5.188-2.407l.237 3.212c-.25 6.919-3.233-4.043-5.282-1.375l.771 1.83c-1.109 2.38-3.294-9.367-4.444-10.218-.257-.6.379-.972.724-1.415-3.044-4.05-.338 4.211-2.557 5.216-.44-2.266.46-5.78-1.048-6.189-.764-1.824-4.261 7.429-6.358 3.1.473 1.75.94 3.487-.081 4.821-1.576.644-4.369-6.571-5.735-1.033a3.61 3.61 0 0 1-.3-1.368c-1.2 1.435-3.909 2.414-4.606 5.411-1.258-11.09-7.474 5.5-7.575-4.747l-3.727.59.088-1.046c-2.394-.65-3.206 1.817-4.018 4.284-.561-.691-.169-1.649-.129-2.186-3.51-2.025-3.855-1.582-6.716 3.554l-.338-3.319c-.771 1.938-5.106-5.149-8.475-1.234a3.785 3.785 0 0 1 .352-1.5c-3.794 3.942-9.313-9.105-10.578 3.01l-2.5 3.01c3.294.905-.426 5.263.947 7.255-1.278.724-3.382-3.614-1.8-4.251l.257.6c.507-6.316-4.105-2.186-4.072-6.484-6.459.389-12.8-3.031-18.857-3.225l.758 4.895-2.11-.255c-.568-1.133-.8-3.828.717-3.641-.825-2.769-2.5 2.353-2.53 3.426-2.969-1.958 1.082-5.739.176-5.84l-1.224.375.284.57c-.967 2.018-1.035 4.144-2.847 3.922-1.157-.966-.622-3.017-1.075-3.2 0-.349-.156-.51-.7-.134l-2.665-.389 1.116 3.862c-1.157 1.918-2.5-.174-1.224 4.2-1.889-6.737-9.958-2.295-11.087-4.381-1.616 2.836-3.246 2.809-5.269 2.494.514.8.866 5.149-.879 4.633.521-8.985-3.24-3.855-4.728-10.305 1.312 4.271-4.937 1.12-2.888 7.181-1.461-.711-.129-3.359-1.258-5.458-3.416 3.52-7.65-2.172-11.911-.945-.047 1.18.683 2.97-.21 4.74l-2.326-5.866c-.839.59-.7 6.812-2.286 2.736.23.992.575 2.481.014 2.87-8.448-5.646-17.058 4.908-25.695-5.786 1.177 2.273.413 2.508-.467 2.6.582.543.027 2.917.156 4.512L4.4 13.371c-.6 4.438-3.815.342-4.14 4.586l1.123-.778c-1.441 5.029 2.232 11.1 2.09 17.527C5.082 29 8 43.08 10.662 34.9c.622 1.3-.494 2.079-.156 3.56.67-2.756 1.508-3.346 3.084-2.125l-.169.677c4.383-.717 6.3 1.971 11.254 3.721l-.406-3.171c1.062.409 1.3 1.4 1.806 2.193 1.157-4.828-2.983-.235-1.934-5.558 1.481 6.443 7.474.007 8.508 7.342 1.637.02-.521-3.674 1.109-3.647l.46 1.978.382-2.57c1.075.409 1.644 2.89 1.7 4.573-.264-.194-.73.483-1.008.63 1.414 2.32 3.9-.845 4.383-.087L38.1 41.209c4.423-1.918 9.888.63 14.136-3.46l-.345-1.5c3.253-2.816 2.651 1.609 6.236.288l-.122.355c.7-1.5 1.65-2.266 2.645-2.105-.886 1.763 1.752 3.386.582 5.344 3.524-3.017 1.731-2.36 4.018-7.959l.575 2.481c.771-2.26.825-3.446 2.617-4.11-1.454 2.152 1.19 3.775-.426 6.618 3.842 5.391 5.539-5.558 7.372 2.374 1.65-6.906-3.321-3.788-2.36-5.27-.845-2.239 1.366-5.156 2.557-4.479 1.211.134 2.164 8.777 5.2 8.609-.3-.027-.318.489-.622.463 1.157 1.743 2.2-2.4 3.625.436.73-4.17 1.813.215 1.968-5.1l-2.766 1.261c1.562-1.408 2.969-7.637 5.6-4.653a10.362 10.362 0 0 1-1.461 3.279c.778 1.556 1.447-1.053 2.259.543-.162 5.317-3.375 1.2-5.019 5.27.845 2.233 3.159-3.889 2.374 1.877 1.136-7.328 3 .885 4.991-4.727l-.095 3.185c.318-.5.974-2.011 1.569-1.938l-1.028 4.137c1.62-3.528 3.249 3.046 4.82 1.115-3.341.134-.8-3.828-2.239-6.135 4.072-4.3 2.475 8.294 7.068 6.712-.615.463-2.367-1.877-1.407-3.366a7.451 7.451 0 0 1 2.624 3.513c3.044-.7-.514-3.265.764-5.237 1.089 3.862 1.481-1.6 2.807-2.856l.047 3.238c3.51 2.032.845-6.752 4.011-4.278l-1.272 4.5 1.623-1.18-.291 3.681c1.745-2.749 2.306-2.052 4.058-1.039-.433-2.273.162-5.873 1.7-5.994 1.075 1.911-.555 3.084 1.63 2.595-.473 2.032-.981 4.579-1.968 1.609-.088 1.053-.467 2.032-.555 3.078 1.163 2.192 2.854.469 3.652.429a1.319 1.319 0 0 1-.866-.744l3.118-4.519a3.829 3.829 0 0 1-.257 3.151c.643-.362 1.069-1.851 2.009-2.146-.21 2.635-.122 5.351-1.447 6.6L124.8 42.2c.216 1.14 1.589 3.124 1.211 4.1 1.691 1.522 4.045-5.149 6.29-3.138a2.362 2.362 0 0 1 .8-1.388c2.09.57 3.984 3.775 6.412.141l1.461 4.7c1.928-1.1-1.975-5.914 1.231-7.731 2.266-1.535.9 4.01 1.718 5.31 1.109-2.394 3.023-7.248 5.167-3.44-.683.9-1.231.208-1.88.563m23.868-2.374c-.453.684-1.353 2.789-1.711.885.48-3.715.906-1.944 1.711-.885m36.232-8.227c-.331 1.073-.872.55-1.488-.664.433-.275.933-.161 1.488.664M308.229 6.981a.835.835 0 0 0-.047.154c-1.048-1.247-.676-.751.047-.154m2.164 1.375A2.032 2.032 0 0 0 310.482 7c-.135.825-.615.885-1.17.664.162.845.453 1.428 1.082.691m-230.3 4.05l.426.838c-.933.945-.676.1-.426-.838" class="cls-1" transform="translate(1.499 3.655)"/>
        <path id="패스_2428" d="M30.557 7.288a9.6 9.6 0 0 1-.223-1.757 1.968 1.968 0 0 0 .223 1.757" class="cls-1" transform="translate(174.194 31.556)"/>
        <path id="패스_2429" d="M19.915 7.016c-.027-.027-.047-.013-.074-.034a4.162 4.162 0 0 0-.068.583z" class="cls-1" transform="translate(113.962 39.833)"/>
        <path id="패스_2430" d="M42 7.356a3.729 3.729 0 0 1-.872-1.663c-.014.8.2 1.462.872 1.663" class="cls-1" transform="translate(237.006 32.48)"/>
        <path id="패스_2431" d="M48.948.951l-1.366.858c.663-.168.913.536 1.251 1.046-.041-.758-.311-1.851.115-1.9" class="cls-1" transform="translate(274.239 5.427)"/>
        <path id="패스_2432" d="M49.964 5.581c.2-.4.419-.047.615-.456l-.068-1.5a1.1 1.1 0 0 0-.548 1.958" class="cls-1" transform="translate(285.391 20.671)"/>
        <path id="패스_2433" d="M47.991 3.632c.142 2.715.987 1.784 1.948 1.267-.061.013-.115.034-.169 0 .237-3.808-.778-2.534-1.779-1.267" class="cls-1" transform="translate(276.596 13.48)"/>
        <path id="패스_2434" d="M48.312 3.434a1.062 1.062 0 0 1 .886-.08c.1-1.529-.358-.315-.886.08" class="cls-1" transform="translate(278.446 14.852)"/>
        <path id="패스_2435" d="M47.281 4.313c.467.7.243-3.48.514-2.374.467-3.473-2.989 4.224-.514 2.374" class="cls-1" transform="translate(267.304 5.861)"/>
        <path id="패스_2436" d="M48.884 6.739L48.5 3.387 47.991 6.1z" class="cls-1" transform="translate(276.595 19.324)"/>
        <path id="패스_2437" d="M47 4l1.549.912a1.463 1.463 0 0 1 .4-1.153c-.954-.1-2-.751-1.948.241" class="cls-1" transform="translate(270.855 19.695)"/>
        <path id="패스_2438" d="M47.283 3.982a1.068 1.068 0 0 0 1.231-.57 2.1 2.1 0 0 0-1.231.57" class="cls-1" transform="translate(272.516 19.467)"/>
        <path id="패스_2439" d="M49.134 4.834l-.46-.7-1.089-.234z" class="cls-1" transform="translate(274.255 22.264)"/>
        <path id="패스_2440" d="M45.995 3.466l-1.664.979c-.162 1.153.3 1.857.927 1.395.392-.811 1.008-1.261.737-2.374" class="cls-1" transform="translate(255.313 19.775)"/>
        <path id="패스_2441" d="M45.974 6.991A7.823 7.823 0 0 1 45.2 4.45v4.164z" class="cls-1" transform="translate(260.528 25.389)"/>
        <path id="패스_2442" d="M45.6 4.983c-.149 1.153-2.394 3.346-.271 3.057.156-1.147 1.826-2.125.271-3.057" class="cls-1" transform="translate(256.019 28.429)"/>
        <path id="패스_2443" d="M40.847 10.1l.426-.06-.142-6.826z" class="cls-1" transform="translate(235.421 18.346)"/>
        <path id="패스_2444" d="M37.78 11.186c2.009 1.609.419-4.217 2.245-2.2.44-1.623-1.495-1.649-1.028-3.051-1.184 1.716-1.826.764-1.217 5.25" class="cls-1" transform="translate(216.399 33.866)"/>
        <path id="패스_2445" d="M37.761 6.826a7.338 7.338 0 0 0 .6-1.046 3.426 3.426 0 0 0-.6 1.046" class="cls-1" transform="translate(217.636 32.976)"/>
        <path id="패스_2446" d="M1.613 3.216L.321 1.808l.852 2.28z" class="cls-1" transform="translate(1.852 10.319)"/>
        <path id="패스_2447" d="M1.075 6.475L.724 2.13 0 6.072c.284-.194.845-.577 1.075.4" class="cls-1" transform="translate(0 12.153)"/>
        <path id="패스_2448" d="M26.934 9.719l.088-1.046c-.216-1.133-.514-1.214-1.116-1.381z" class="cls-1" transform="translate(149.309 41.602)"/>
        <path id="패스_2449" d="M23.747 10.468l.3.087-.6-3.929z" class="cls-1" transform="translate(135.114 37.803)"/>
        <path id="패스_2450" d="M21.376 9.819c.6.154 1.285-.731 1.88-.57-1.285.724-2.1-4.338-1.88.57" class="cls-1" transform="translate(122.991 43.648)"/>
    </g>
</svg>
