<svg xmlns="http://www.w3.org/2000/svg" id="ilne" width="208.132" height="27.858" viewBox="0 0 208.132 27.858">
    <defs>
        <clipPath id="clip-path">
            <path id="사각형_1921" d="M0 0H208.132V27.858H0z" class="cls-1"/>
        </clipPath>
        <style>
            .cls-1{fill:#60e7a3}
        </style>
    </defs>
    <g id="그룹_1471" clip-path="url(#clip-path)">
        <path id="패스_2370" d="M57.023 2.471c.306.124.179-1.323.222-1.582-.511.325-.2 1.958-.222 1.582" class="cls-1" transform="translate(150.737 2.182)"/>
        <path id="패스_2371" d="M56.058 2.735l.084-.591-.729 1.456z" class="cls-1" transform="translate(146.673 5.262)"/>
        <path id="패스_2372" d="M54.29 3.017c.478 2.459 1.714-.418 2.567.449l.15.56.354-1.986c-1.021.325-2.338 1.658-3.071.977" class="cls-1" transform="translate(143.7 5.007)"/>
        <path id="패스_2373" d="M53.625.788c.168.957-.536.832.594.294a2.058 2.058 0 0 1-.112-.242 1.111 1.111 0 0 1-.481-.052" class="cls-1" transform="translate(141.769 1.934)"/>
        <path id="패스_2374" d="M53.771 1.068c.5-.073-.336-.8 0 0" class="cls-1" transform="translate(142.108 1.706)"/>
        <path id="패스_2375" d="M53.323 2.366l.645-.863C53.826.936 53.239.815 53.45.4c-.667.477-.522 1.04-.128 1.965" class="cls-1" transform="translate(140.255 .985)"/>
        <path id="패스_2376" d="M52.916 1.875l.336-.366c-.062-.238-.153-.318-.336.366" class="cls-1" transform="translate(140.063 3.282)"/>
        <path id="패스_2377" d="M53.719 1.162l-.711.774c.1.4.12 1.195.328-.28-.051.729.08.028.383-.494" class="cls-1" transform="translate(140.307 2.852)"/>
        <path id="패스_2378" d="M53.317 1.3c.376.532.857.863.208 1.727 1.251-.356 1.047-2.086-.208-1.727" class="cls-1" transform="translate(141.125 3.083)"/>
        <path id="패스_2379" d="M54.234 3.267l.5.715.416-.829c-.208.411-.959-.66-.919.114" class="cls-1" transform="translate(143.548 7.309)"/>
        <path id="패스_2380" d="M51.954.614a20.856 20.856 0 0 0 .3 2.065l.474-.608a2.417 2.417 0 0 1-.774-1.457" class="cls-1" transform="translate(137.51 1.508)"/>
        <path id="패스_2381" d="M52.553 1.212l-.715.908c.649.1.762-.332.715-.908" class="cls-1" transform="translate(137.21 2.975)"/>
        <path id="패스_2382" d="M53.06 3.64l1.171-1.906-1.4 1.934z" class="cls-1" transform="translate(139.837 4.254)"/>
        <path id="패스_2383" d="M51.419 1.47l.4-1.219-.714 1.849z" class="cls-1" transform="translate(135.27 .616)"/>
        <path id="패스_2384" d="M51.714 2.321c.292-1.008-.441-1.7-.124-2.321-.5.187-.915 1.057-1.291 1.834.4-.435.842-.332 1.415.487" class="cls-1" transform="translate(133.137 .001)"/>
        <path id="패스_2385" d="M50.126 1.671a6.735 6.735 0 0 0 .631-1.14 3.3 3.3 0 0 0-.631 1.14" class="cls-1" transform="translate(132.679 1.304)"/>
        <path id="패스_2386" d="M51.926 2.464a2.768 2.768 0 0 0-.591-1.492l.3 1.471c.088.01.19.014.288.021" class="cls-1" transform="translate(135.879 2.386)"/>
        <path id="패스_2387" d="M51.877 1.5l-.011-.048c-.31-.024-.525-.059-.616-.073.077.01.266.048.627.121" class="cls-1" transform="translate(135.654 3.38)"/>
        <path id="패스_2388" d="M51.57 1.409a.259.259 0 0 0-.073 0c.029.142.047.19.073 0" class="cls-1" transform="translate(136.307 3.447)"/>
        <path id="패스_2389" d="M52.941 1.9c-.416.829-1.295 1.727-.416 2.974.292-1.015-.212-1.727.416-2.974" class="cls-1" transform="translate(138.032 4.675)"/>
        <path id="패스_2390" d="M51.621 2.678l.777.328a2.81 2.81 0 0 1 .04-1.368z" class="cls-1" transform="translate(136.636 4.02)"/>
        <path id="패스_2391" d="M51.519 2.5l.372-.473L51.6 1.9z" class="cls-1" transform="translate(136.365 4.672)"/>
        <path id="패스_2392" d="M51.29 1.259a1.355 1.355 0 0 1-1.1.812 2.445 2.445 0 0 0 1.335.428c.058-.463.237-1.3-.237-1.24" class="cls-1" transform="translate(132.853 3.083)"/>
        <path id="패스_2393" d="M51 1.369c-.022.035-.051.052-.073.086.047.124.084.162.073-.086" class="cls-1" transform="translate(134.793 3.36)"/>
        <path id="패스_2394" d="M49.079 1.5c.026.079.044.18.069.266l.011-.256z" class="cls-1" transform="translate(129.907 3.686)"/>
        <path id="패스_2395" d="M50.646 2.08c.336.28.532-.083.715-.542a1.669 1.669 0 0 1-.791.266c-.026.211-.029.349.077.276" class="cls-1" transform="translate(133.814 3.775)"/>
        <path id="패스_2396" d="M49.818 1.141a5.153 5.153 0 0 0 .587.8c-.175-.466-.529-1.188-.587-.8" class="cls-1" transform="translate(131.863 2.535)"/>
        <path id="패스_2397" d="M50.92 1.452a.35.35 0 0 1 .051-.069c-.117-.314-.1-.159-.051.069" class="cls-1" transform="translate(134.682 2.959)"/>
        <path id="패스_2398" d="M51.2 1.277a4 4 0 0 0-.427.9 1.808 1.808 0 0 0 .543-.5 3.42 3.42 0 0 1-.117-.408" class="cls-1" transform="translate(134.399 3.134)"/>
        <path id="패스_2399" d="M49.4 10.8c.04-1.368.9-2.642 1.67-1.185.729-1.036.186-5.526-.492-8.037a2.5 2.5 0 0 1-.762 1.965c.277.746 1.714 1.727 1.087 2.974-1 .715-.832-.473-1.335-1.192.441 1.7-1.255 2.494-1 5l.875-.891c.022.387-.288 1.012-.04 1.368" class="cls-1" transform="translate(128.481 3.875)"/>
        <path id="패스_2400" d="M50.545 3.046l.31-.173c-.357-.235-.62-.777-1.109-1.841a2.8 2.8 0 0 0-.646 1.637l1.55.173z" class="cls-1" transform="translate(129.965 2.533)"/>
        <path id="패스_2401" d="M50.993 2.2c-.226 1.492-.974 2.131-.489 3.737.919-.114.627-1.25 1.171-1.9-1.481.387.416-.832-.671-1.665a1.792 1.792 0 0 1 .8-.4 4.071 4.071 0 0 1-.78-.673l.036.093h.007v.024c.066.183.088.294.015.19a.049.049 0 0 1-.033.028 4.98 4.98 0 0 1-.058.566c-.434-.3-.073-.387.058-.566a2.1 2.1 0 0 0 .018-.218l-.007-.021-1.481.832c.321.2.715.155 1.411-.021" class="cls-1" transform="translate(131.239 3.183)"/>
        <path id="패스_2402" d="M52.139 3.94a1.124 1.124 0 0 1-.055-.345c-.091.183-.128.311.055.345" class="cls-1" transform="translate(137.664 8.822)"/>
        <path id="패스_2403" d="M52.442 5.994c.106-.211.19-.8.54-.656.314.442.011.715.033 1.2.208-.4.729-1.074.055-1.792l-.1.2a5.5 5.5 0 0 1-1.3-2.556 19.951 19.951 0 0 0 .773 3.6" class="cls-1" transform="translate(136.738 5.878)"/>
        <path id="패스_2404" d="M51.806 2.608l-1.233.746.649 1.278-.04-.77c.707.294.543-.656.624-1.254" class="cls-1" transform="translate(133.862 6.4)"/>
        <path id="패스_2405" d="M49.432 2.407l.146-1.575-.689 2.228z" class="cls-1" transform="translate(129.404 2.043)"/>
        <path id="패스_2406" d="M48.87 2.32l.04-1.368-.416.829z" class="cls-1" transform="translate(128.359 2.338)"/>
        <path id="패스_2407" d="M23.984 6.561l-.365.394a1.23 1.23 0 0 0 .365-.394" class="cls-1" transform="translate(62.517 16.1)"/>
        <path id="패스_2408" d="M24.487 7.057l.058-.673c-.12.373-.168.646-.058.673" class="cls-1" transform="translate(64.651 15.665)"/>
        <path id="패스_2409" d="M38.536 3.136c-.547-1.271-1.167-3.243-1.083-1.706l.182 1.5c.368-.273.656-.111.9.211" class="cls-1" transform="translate(99.113 2.132)"/>
        <path id="패스_2410" d="M30.342 4.9c.055.145.106.3.16.452.124-.515.237-.991.343-1.437-.153.311-.325.639-.5.984" class="cls-1" transform="translate(80.312 9.62)"/>
        <path id="패스_2411" d="M30.777 6.681l-.711-.957a3.193 3.193 0 0 0 .711.957" class="cls-1" transform="translate(79.582 14.046)"/>
        <path id="패스_2412" d="M20.067 7.069l-.4 1.53c.664-.017.361-.781.4-1.53" class="cls-1" transform="translate(52.043 17.346)"/>
        <path id="패스_2413" d="M44.908 2.2a2.2 2.2 0 0 0-1.152-.9c.562.853 1.021 2.141 1.152.891" class="cls-1" transform="translate(115.818 3.203)"/>
        <path id="패스_2414" d="M24.165 1.954a1.345 1.345 0 0 0-.3.915 1.086 1.086 0 0 0 .3-.915" class="cls-1" transform="translate(63.168 4.796)"/>
        <path id="패스_2415" d="M43.393 1.772a3.587 3.587 0 0 0 .244.349 1.3 1.3 0 0 1 1.079-.37c-.416-.635-.89-1.026-1.324.021" class="cls-1" transform="translate(114.857 2.757)"/>
        <path id="패스_2416" d="M5.528 7.009a1.713 1.713 0 0 1-.12-.176c-.011.2.044.211.12.176" class="cls-1" transform="translate(14.311 16.767)"/>
        <path id="패스_2417" d="M1.212 2.689a1.56 1.56 0 0 1 .624-.124c-.113-.1-.3-.09-.624.124" class="cls-1" transform="translate(3.208 6.143)"/>
        <path id="패스_2418" d="M46.816 1.253c.343-.1.055-.166 0 0" class="cls-1" transform="translate(123.917 2.827)"/>
        <path id="패스_2419" d="M47.386 2.89a1.819 1.819 0 0 0-.128.729 2.279 2.279 0 0 1 .128-.729" class="cls-1" transform="translate(125.087 7.092)"/>
        <path id="패스_2420" d="M42.513 4.024h-.029c.106.29.088.235.029 0" class="cls-1" transform="translate(112.451 9.867)"/>
        <path id="패스_2421" d="M47.283 1.688a1.647 1.647 0 0 0-.445-.439 1.985 1.985 0 0 0 .445.439" class="cls-1" transform="translate(123.976 3.066)"/>
        <path id="패스_2422" d="M46.938 1.269a2.922 2.922 0 0 0 .3.142c.036-.249 0-.408-.3-.142" class="cls-1" transform="translate(124.24 2.776)"/>
        <path id="패스_2423" d="M46.686 1.266a.88.88 0 0 1 .554.149c-.069-.1-.1-.183-.08-.235a3.569 3.569 0 0 1-.474.086" class="cls-1" transform="translate(123.573 2.896)"/>
        <path id="패스_2424" d="M13.3 5.73c-.022-.048-.051-.076-.077-.142-.336.629-.186.525.077.142" class="cls-1" transform="translate(34.486 13.712)"/>
        <path id="패스_2425" d="M35.367 6.147c.015-.014.022-.055.036-.073l-.047-.052z" class="cls-1" transform="translate(93.584 14.78)"/>
        <path id="패스_2426" d="M35.027 10.345c.5-1.872.8-1.644 1.2-1.254l-.463-4.317z" class="cls-1" transform="translate(92.713 11.715)"/>
        <path id="패스_2427" d="M79.5 21.593l.879 1.337c-1.01 2.228-1.772 1.471-.941 3.357.062-4.694 3.344-.518 3.406-5.2l.58.977c-.164-.041-.186.235-.346.187 1.134 2.235.777-3.4 2.21-2.746a1.252 1.252 0 0 1 .525 1.589l1.09-1.171c.321.086.255.9-.066.815l1.681-.394-.011.138a17.481 17.481 0 0 1 1.021-2.369c.438.67-.208.5-.091 1.084l.919-1.147c.4 1.209-.361 2.4-1.01 2.231.934 4.673.759-1.188 2.677 1.527l-.872.6c.6 2.652 1.276 1.682 2.3 3.329-.251-.863-2.051-4.158-1.051-5.337.292.352.671.518 1.2-.435.026 1.668.554 1.254 1.222 1.15l-.015 2.21c.711-.646.642-1.768 1.054-2.77.806.207 1 1.917 1.2 3.357 1.295.338-.926-2.732.594-3.167 1.083.832 1.827-.079 3.089-1.416.762.753-.113 1.354.164 1.982l.646-1.768c.164.038.117.58.095.853.551-.687.015-2.207.89-2.818.208-2.435 1.853 3.537 2.91.76.277.625-.113 1.357-.018 2.21a11.982 11.982 0 0 0 2.462-3.785l1.067 1.437c-.788-1.647.168-3.623 1.007-5.246-.281-.8-.525-1.5-.686-1.827l1.36-1.2a4.067 4.067 0 0 1-.171 2.045c.091-.183.179-.366.244-.532.5.812.263 2.089-.073 3.326-.171-.432-.343-.895-.511-1.357a14.456 14.456 0 0 0-.536 4.131 1.238 1.238 0 0 1 .445-.6 2.488 2.488 0 0 0-.095.912c.051.231.19-.259.4-.822l.346 2.456.062-.977 1.816 1.52c1.255-2.494 2.327-6.155 4.351-7.194-.481 1.81-.069 2.949-.069 5.091-.587-2.259-1.568.981-2.633.532.558.231.449 1.254.314 1.609l1.86-2.079c-.022 1.748.416 1.306.919 2.024-.416-3.454 1.375-2.321 2.13-3.388.062 1.16-.106 2.345-1.047 2.079 1.069 2.59 1.284-4.079 2.327-1.879-.23.035-.354-.145-.438.446.521-1.04 1.838-.235 1.543.781l-.226.028c1.521.39 4.621-.028 4.81-2.97.018.38-.153 3.544-.241 4.138l2.582-9.912c-.2 2.525.788 8.524-.452 9.964.365.352.817.767 1.568-.131-.252-.359-.66-3.64-.328-3.875.963 2.8.664 1.5 1.834 3.875-.379-.535-.018-4.5.569-4.379-.084.594.1 3.906-.109 4.321l1.4-3.9c-.357.7-.022 3.291.317 4.386-.16-.76 1.258.055 1.637-.335l-.627-.891c1.652.566 1.554-5.481 3.184-5.295-.186.8-.423 4.942.412 5.422.35-2 1.554-9.588 2.976-11.138l.292 1.136 1.09-1.309A98.763 98.763 0 0 1 139 18.958c.627.895.19 1.34 1.109 1.226a1.3 1.3 0 0 1-.751 1.689l2.152.663c-.128-2.324 1.608-2.349 1.5-4.283l-2.294 2.435c-.124-2.317 1.262-6.607 2.783-6.213.4.919-.237 4.134-.193 4.908.186-.8 1.422-1.54 1.568-.977l-.631 1.25c.857.863 1.338-3.095 2.385-.891.35.145 1.083 2.977 1.127 1.606a58.864 58.864 0 0 1-.467-12.831 19.544 19.544 0 0 1 2.29 3.813c.6 2.072-.806 4.963-.288 6.738a4.594 4.594 0 0 1 .449-1.672c.376.539-.128 1.965.671 1.672.1-2.355 1.626.18.35-2 .773-.68.839.473 1.754.363-.31-1.52.759-5.187 1.535-5.868a6.2 6.2 0 0 0 .237 1.73c1.6.2 2.48 1.254 3.975 1.257.146.57.875 1.25.58 2.266.212-.418.4-1.219.857-1.281.919 2.027-1.025.332-.31 2.766.04-1.368 1.167-1.9 1.813-2.763-.23-2.11-1.521-.387-2.17.477-.04-2.915 1.065-5.982 2.611-7.346 1.233-.739.562 1.879.773 1.457 2.338.484 1.922-5.112 3.884-3.029.791 1.848.084 3.692.27 5.032-1 .715-1.568-1.16-2.25-1.078l.853.867c-.314.622-.981 1.095-1.357.563.664 1.661 3.946.276 5.766 1.8.31-.629.853-1.278.584-2.02l-.569.262c-.543-1.489 1.047-2.083.317-2.77.748-1.064 1.583-2.728 2.67-1.893L172.806 9c-.029-.618-.718-1.254-1.014-.6.438-.943 1.689 2.846 2.144.069L173.163 7c.751-1.074 1.67-3.333 2.633-2.677-.46-2.086-.215.242-.926-2.2.627 3.039-2.44-.1-1.455 3.088-.729-2.832-1.218-1.188-2.159-3.6.04.694.343 1.33-.463.995a4.386 4.386 0 0 1-.168.618.377.377 0 0 1-.055-.052l.044.083c-.033.1-.036.128.018.028a2.915 2.915 0 0 1 .419 1.057c-.376 1.609-1.648 1.571-2.068 2.407-.478-.325.19-.8-.08-1.544l-.627 1.247c-.08-1.551-1.291-2.563-.186-3.485l-1.01-.055c-.6-.863-1.422-1.2-1.915-.542-.478-.332-1.178 1.73-.78.511l-1.568.981-.018-.39c-1.561-.176-3.173 2.608-4.989-.173-.518.4-1.054.884-1.936.452l-.19-1.34c-.667.477-2.039-1.319-2.308.083-.773-3.6-3.279-.749-4.471-1.378l-.022 1.754a4.079 4.079 0 0 0-2.593 1.129l.08 1.547c-.857 1.285-2.254-1.074-3.632-.9.088-.591.438-.442.689-.086-1.692-3.478-3.446 2.583-4.971.052-.368.57-.638.38-.9 0a.138.138 0 0 0 .091-.083.307.307 0 0 0-.153-.017c-.168-.266-.343-.573-.529-.819a3.394 3.394 0 0 0 .445.825 2.256 2.256 0 0 0-1.141.625l-.2-1.661c-.037.021-.066.017-.1.048-.427-.611-.328.791-.088 2.038a3.845 3.845 0 0 0-.554 1.012c-.376-2.684-1.109.915-1.608-1.941-.27 1.4-2.133 1.074-2.323 4.013-.022-.38-.15-.563.08-.587-.481-.332-.959-.66-1.375.173l-.23-2.114-1 2.856a3.739 3.739 0 0 1-.314-3.661c-1.484 2.521-1.214.957-2.473 3.454l.044-1.368c-.459.055-1.171 1.9-1.462.77-1.065-2.587-5.1-.3-7.775-2.687.565 4.02-1.251-1.789-1.317 1.333-.164-.95-.54-1.485-.124-2.317-1.335.953-2.046-1.485-2.943 1.157-.168-.957.27-1.4.128-1.965-.109.207-.419.832-.565.266s.186-.8.394-1.219c-1.379.176-1.477 3.112-1.543 5.868-.715-1.3-1.061-1.109-1.543.7-.255-.9-.671-1.834.182-2.169-.485-.128-2.961-1.288-2.983.919-.157-.556-.675-.152-.8.1a4.979 4.979 0 0 0-2.239-.1l.3.356c-.383 2.67-.875.6-1.725.936l.018-.273c-1.984-1.9-.835.929-2.8-1.24l.128 1.654c-.135 3.564-1.743-2.083-2.848-.708l.416.943c-.6 1.226-1.776-4.825-2.4-5.263-.139-.307.2-.5.39-.729-1.641-2.086-.182 2.169-1.379 2.687-.237-1.167.248-2.977-.565-3.188-.412-.939-2.3 3.827-3.428 1.6.255.9.507 1.8-.044 2.483-.85.332-2.356-3.385-3.093-.532a1.789 1.789 0 0 1-.164-.7c-.645.739-2.108 1.243-2.484 2.787-.678-5.712-4.03 2.832-4.085-2.445l-2.009.3.047-.539c-1.291-.335-1.729.936-2.166 2.207-.3-.356-.091-.85-.069-1.126-1.893-1.043-2.079-.815-3.621 1.83L71.776 7.4c-.416 1-2.753-2.652-4.57-.635A1.878 1.878 0 0 1 67.4 6c-2.046 2.031-5.022-4.69-5.7 1.551L60.343 9.1c1.776.466-.23 2.711.511 3.737-.689.373-1.823-1.862-.97-2.19l.139.311c.274-3.253-2.214-1.126-2.2-3.34-3.483.2-6.9-1.561-10.168-1.661l.408 2.521-1.138-.131c-.306-.584-.43-1.972.387-1.875-.445-1.426-1.349 1.212-1.364 1.765-1.6-1.008.584-2.956.095-3.008l-.66.193.153.294c-.522 1.04-.558 2.134-1.535 2.02-.624-.5-.336-1.554-.58-1.647 0-.18-.084-.262-.376-.069l-1.437-.2.6 1.989c-.624.988-1.349-.09-.66 2.162-1.017-3.474-5.368-1.188-5.977-2.262a2.34 2.34 0 0 1-2.835 1.281c.277.411.467 2.652-.474 2.387.281-4.628-1.747-1.986-2.549-5.308.707 2.2-2.662.577-1.557 3.7-.788-.366-.069-1.73-.678-2.811-1.842 1.813-4.125-1.119-6.422-.487-.026.608.368 1.53-.113 2.442l-1.256-3.024c-.452.3-.376 3.509-1.233 1.409.124.511.31 1.278.007 1.478C13.907 5.868 9.264 11.3 4.607 5.8c.635 1.171.222 1.292-.252 1.34.314.28.015 1.5.084 2.324L2.492 7.2C2.171 9.484.435 7.374.26 9.56l.605-.4c-.777 2.59 1.2 5.719 1.127 9.028.868-2.939 2.443 4.314 3.877.1.336.67-.266 1.071-.084 1.834.361-1.422.815-1.722 1.663-1.095l-.091.349c2.363-.37 3.4 1.015 6.068 1.917l-.219-1.634c.573.211.7.722.974 1.129.624-2.487-1.608-.121-1.043-2.863.8 3.319 4.03 0 4.588 3.782.883.01-.281-1.893.6-1.879l.248 1.019.2-1.323c.58.211.886 1.489.919 2.355-.142-.1-.394.249-.543.325.762 1.195 2.1-.435 2.363-.045l-.85-.622c2.385-.988 5.332.325 7.622-1.782l-.186-.77c1.754-1.451 1.43.829 3.362.149l-.066.183c.376-.774.89-1.167 1.426-1.084-.478.908.945 1.744.314 2.753 1.9-1.554.934-1.216 2.166-4.1l.31 1.278c.416-1.164.445-1.775 1.411-2.117-.784 1.109.642 1.944-.23 3.409 2.071 2.777 2.987-2.863 3.975 1.223.89-3.557-1.791-1.951-1.273-2.715-.456-1.154.737-2.656 1.379-2.307.653.069 1.167 4.521 2.8 4.435-.164-.014-.171.252-.336.238.624.9 1.185-1.236 1.955.224.394-2.148.977.111 1.061-2.625l-1.492.649c.842-.725 1.6-3.934 3.02-2.4a5.224 5.224 0 0 1-.78 1.692c.419.8.78-.542 1.218.28-.088 2.739-1.82.618-2.706 2.715.456 1.15 1.7-2 1.28.967.613-3.775 1.619.456 2.691-2.435l-.051 1.641c.171-.259.525-1.036.846-1l-.554 2.131c.872-1.824 1.751 1.565 2.6.57-1.8.069-.43-1.972-1.207-3.16 2.2-2.217 1.335 4.272 3.811 3.457-.332.238-1.276-.967-.759-1.734a3.864 3.864 0 0 1 1.415 1.81c1.641-.359-.277-1.682.412-2.7.587 1.989.8-.822 1.513-1.471l.026 1.668c1.893 1.046.456-3.478 2.163-2.2l-.686 2.317.875-.608-.157 1.9c.941-1.416 1.244-1.057 2.188-.535-.233-1.171.088-3.025.919-3.088.58.984-.3 1.589.879 1.337-.255 1.046-.529 2.359-1.061.829-.047.542-.252 1.046-.3 1.585.627 1.129 1.539.242 1.969.221a.7.7 0 0 1-.467-.383l1.681-2.328a1.894 1.894 0 0 1-.139 1.623c.346-.186.576-.953 1.083-1.105-.113 1.357-.066 2.756-.78 3.4l1.612-1.523c.117.587.857 1.609.653 2.11.912.784 2.181-2.652 3.392-1.616a1.206 1.206 0 0 1 .434-.715c1.127.294 2.148 1.944 3.457.073l.788 2.421c1.039-.566-1.065-3.046.664-3.982 1.222-.791.485 2.065.926 2.735.6-1.233 1.63-3.733 2.786-1.772-.368.463-.664.107-1.014.29m12.87-1.225c-.244.352-.729 1.437-.923.456.259-1.913.489-1 .923-.456m19.536-4.238c-.179.553-.47.283-.8-.342.233-.142.5-.083.8.342m54.412-12.226a.417.417 0 0 0-.026.079c-.565-.642-.365-.387.026-.079m1.167.708a1 1 0 0 0 .047-.7c-.073.425-.332.456-.631.342.088.435.244.736.583.356M43.3 6.7l.23.432c-.5.487-.365.052-.23-.432" class="cls-1" transform="translate(.688 1.572)"/>
        <path id="패스_2428" d="M30.4 6.436a4.734 4.734 0 0 1-.12-.9.975.975 0 0 0 .12.9" class="cls-1" transform="translate(79.999 13.572)"/>
        <path id="패스_2429" d="M19.85 7c-.015-.014-.026-.007-.04-.017a2.052 2.052 0 0 0-.036.3z" class="cls-1" transform="translate(52.337 17.133)"/>
        <path id="패스_2430" d="M41.593 6.55a1.894 1.894 0 0 1-.47-.857c-.007.411.106.753.47.857" class="cls-1" transform="translate(108.846 13.97)"/>
        <path id="패스_2431" d="M48.319.951l-.737.442c.357-.086.492.276.675.539-.022-.39-.168-.953.062-.981" class="cls-1" transform="translate(125.945 2.334)"/>
        <path id="패스_2432" d="M49.758 4.631c.106-.207.226-.024.332-.235l-.036-.774a.559.559 0 0 0-.3 1.008" class="cls-1" transform="translate(131.066 8.891)"/>
        <path id="패스_2433" d="M47.991 3.017c.077 1.4.532.919 1.05.653a.119.119 0 0 1-.091 0c.128-1.962-.419-1.306-.959-.653" class="cls-1" transform="translate(127.027 5.798)"/>
        <path id="패스_2434" d="M48.312 3.031a.6.6 0 0 1 .478-.041c.055-.787-.193-.162-.478.041" class="cls-1" transform="translate(127.877 6.388)"/>
        <path id="패스_2435" d="M46.865 2.719c.252.359.131-1.792.277-1.223.252-1.789-1.612 2.176-.277 1.223" class="cls-1" transform="translate(122.76 2.521)"/>
        <path id="패스_2436" d="M48.472 5.114l-.208-1.727-.274 1.4z" class="cls-1" transform="translate(127.027 8.312)"/>
        <path id="패스_2437" d="M47 3.732l.835.47a.734.734 0 0 1 .215-.594c-.514-.052-1.076-.387-1.05.124" class="cls-1" transform="translate(124.391 8.471)"/>
        <path id="패스_2438" d="M47.283 3.706a.585.585 0 0 0 .664-.294 1.16 1.16 0 0 0-.664.294" class="cls-1" transform="translate(125.153 8.373)"/>
        <path id="패스_2439" d="M48.42 4.382l-.248-.359-.587-.123z" class="cls-1" transform="translate(125.952 9.576)"/>
        <path id="패스_2440" d="M45.213 3.466l-.9.5c-.088.594.164.957.5.718.212-.418.543-.649.4-1.223" class="cls-1" transform="translate(117.253 8.506)"/>
        <path id="패스_2441" d="M45.619 5.759A3.9 3.9 0 0 1 45.2 4.45v2.145z" class="cls-1" transform="translate(119.648 10.92)"/>
        <path id="패스_2442" d="M45.056 4.983c-.08.594-1.291 1.723-.146 1.575.084-.591.985-1.095.146-1.575" class="cls-1" transform="translate(117.577 12.228)"/>
        <path id="패스_2443" d="M40.847 6.762l.23-.031L41 3.216z" class="cls-1" transform="translate(108.118 7.891)"/>
        <path id="패스_2444" d="M37.672 8.64c1.083.829.226-2.172 1.211-1.133.237-.836-.806-.85-.554-1.571-.638.884-.985.394-.656 2.7" class="cls-1" transform="translate(99.382 14.566)"/>
        <path id="패스_2445" d="M37.761 6.319a3.74 3.74 0 0 0 .321-.539 1.744 1.744 0 0 0-.321.539" class="cls-1" transform="translate(99.95 14.183)"/>
        <path id="패스_2446" d="M1.018 2.534l-.7-.725.46 1.174z" class="cls-1" transform="translate(.851 4.438)"/>
        <path id="패스_2447" d="M.58 4.368L.39 2.13 0 4.161c.153-.1.456-.3.58.207" class="cls-1" transform="translate(0 5.227)"/>
        <path id="패스_2448" d="M26.46 8.542L26.508 8c-.117-.584-.277-.625-.6-.711z" class="cls-1" transform="translate(68.571 17.893)"/>
        <path id="패스_2449" d="M23.607 8.6l.16.045-.325-2.024z" class="cls-1" transform="translate(62.051 16.259)"/>
        <path id="패스_2450" d="M21.359 8.767c.321.079.693-.376 1.014-.294-.693.373-1.134-2.235-1.014.294" class="cls-1" transform="translate(56.484 18.773)"/>
    </g>
</svg>
