<svg xmlns="http://www.w3.org/2000/svg" id="logo" width="101.98" height="25.216" viewBox="0 0 101.98 25.216">
    <defs>
        <clipPath id="clip-path">
            <path id="사각형_1902" d="M0 0H101.98V25.216H0z" class="cls-1"/>
        </clipPath>
        <clipPath id="clip-path-2">
            <path id="패스_2349" d="M107.589 72.285a1.519 1.519 0 1 0 1.52-1.52 1.519 1.519 0 0 0-1.52 1.52" class="cls-1" transform="translate(-107.589 -70.765)"/>
        </clipPath>
        <clipPath id="clip-path-4">
            <path id="패스_2351" d="M105.943 117.069a5.155 5.155 0 0 0 0 .759 21.634 21.634 0 0 0 .938 5.049c.469 1.141 1.654 2.905 2.681 2.905a1.148 1.148 0 0 0 1.3-1.117 1.576 1.576 0 0 0-.536-1.252 7.661 7.661 0 0 1-1.407-3.128 24.062 24.062 0 0 1-.2-2.972c0-.513-.223-.581-.715-.692a11.285 11.285 0 0 0-1.474-.246h-.041c-.332 0-.51.27-.54.694" class="cls-1" transform="translate(-105.929 -116.375)"/>
        </clipPath>
        <clipPath id="clip-path-6">
            <path id="패스_2353" d="M11.246 0a2.062 2.062 0 0 0-.995.24L1.035 5.565A2.121 2.121 0 0 0 .007 7.226L0 18.067a2.119 2.119 0 0 0 1.027 1.661l9.441 5.443a.35.35 0 0 0 .18.05.366.366 0 0 0 .313-.185l.537-.928a.347.347 0 0 0 .05-.18.356.356 0 0 0-.168-.3l-8.858-5.106a1.581 1.581 0 0 1-.735-1.265V8.035a1.585 1.585 0 0 1 .734-1.265L10.5 2.163a1.59 1.59 0 0 1 1.463 0L19.94 6.77a1.586 1.586 0 0 1 .734 1.265l-.01 10.224a.352.352 0 0 0 .351.351H22.1a.35.35 0 0 0 .351-.351V7.226a2.119 2.119 0 0 0-1.028-1.661L12.2.245A1.907 1.907 0 0 0 11.249 0" class="cls-1" transform="translate(0 -.005)"/>
        </clipPath>
        <clipPath id="clip-path-8">
            <path id="패스_2355" d="M309.529 66.085c-1.19-.3-1.2-1.62-1.188-2.485s.116-2.056 1.073-2.255a2.578 2.578 0 0 1 2.826.725 3.26 3.26 0 0 1 .16 3.23 2.215 2.215 0 0 1-1.956.9 3.8 3.8 0 0 1-.916-.115m-3.317-6.3a3.941 3.941 0 0 0-1.016 2.665c-.064.888-.1 2.012-.092 2.919.007 1.391.033 3.126.068 4.346s-.014 2.245 0 2.891.177 1.717 1.1 1.775a1.868 1.868 0 0 0 2.172-1.482 21.539 21.539 0 0 0 .332-2.816c.115-.865.528-1.084 1.55-1.2s3.007.233 4.092-1.678a6.437 6.437 0 0 0 .495-5.563 3.938 3.938 0 0 0-3.506-2.463c-.393-.022-.96-.045-1.58-.045-1.4 0-3.074.12-3.617.654" class="cls-1" transform="translate(-305.102 -59.134)"/>
        </clipPath>
        <clipPath id="clip-path-10">
            <path id="패스_2358" d="M447.018 66.708c-.093 1.229.034 1.492 0 2.8-.027 1.271.02 3.668.147 5.058a4.762 4.762 0 0 0 1.63 3.508 5.667 5.667 0 0 0 3.915 1.232 4.912 4.912 0 0 0 4.348-1.917c1.091-1.231 1.187-2.561 1.234-4.556s-.053-5.322-.036-6.309-.456-1.724-1.42-1.724-1.57.523-1.6 1.715-.065 2.979-.09 3.987a15.224 15.224 0 0 1-.406 4.174c-.405.986-1.12 1.064-1.961 1.064a2.114 2.114 0 0 1-2.189-1.461 17.3 17.3 0 0 1-.379-4.6 21.029 21.029 0 0 0-.184-4.358c-.285-.724-.887-.781-1.492-.781-.449 0-1.376.223-1.523 2.172" class="cls-1" transform="translate(-446.983 -64.536)"/>
        </clipPath>
        <clipPath id="clip-path-12">
            <path id="패스_2361" d="M603.984 57.653a1.222 1.222 0 0 0-1.309 1.257 1.3 1.3 0 0 0 1.381 1.436c.964 0 2.294.05 2.623.05s1.258.113.655 1.161-3.872 6.807-4.157 7.444a2.781 2.781 0 0 0-.327 2.62c.56 1.032 1.377 1.351 2.835 1.351s4.184-.016 4.905-.016a1.338 1.338 0 0 0 1.525-1.366c0-1.06-.759-1.216-1.441-1.216s-2.547-.051-3.305-.051-1.427-.233-.8-1.326 3.6-6.4 3.948-6.973a6.553 6.553 0 0 0 1.1-2.917c0-1.056-.547-1.37-2.009-1.455z" class="cls-1" transform="translate(-602.622 -57.653)"/>
        </clipPath>
        <clipPath id="clip-path-14">
            <path id="패스_2364" d="M738.823 57.653a1.224 1.224 0 0 0-1.31 1.257 1.3 1.3 0 0 0 1.381 1.436c.965 0 2.3.05 2.622.05s1.261.113.66 1.161-3.876 6.807-4.158 7.443a2.775 2.775 0 0 0-.327 2.62c.558 1.032 1.375 1.351 2.832 1.351s4.185-.016 4.906-.016a1.338 1.338 0 0 0 1.526-1.366c0-1.06-.761-1.216-1.441-1.216s-2.547-.051-3.3-.051-1.427-.233-.8-1.326 3.6-6.4 3.951-6.973a6.615 6.615 0 0 0 1.1-2.917c0-1.056-.547-1.37-2.01-1.455z" class="cls-1" transform="translate(-737.462 -57.653)"/>
        </clipPath>
        <clipPath id="clip-path-16">
            <path id="패스_2366" d="M877.093 67.15c-.1 1.5-.182 2.35-.2 3.847-.028 2.517-.391 7.049 1.474 8.182 1.591.969 4.882.771 5.873.771s2.707-.1 2.877-1.139-.212-1.68-1.1-1.833-3.347-.076-4.012-.254a2.08 2.08 0 0 1-1.313-1.987c-.1-1.089-.125-3.934-.164-5.1s.1-4.393-1.377-4.393-1.963.415-2.062 1.909" class="cls-1" transform="translate(-876.849 -65.241)"/>
        </clipPath>
        <clipPath id="clip-path-18">
            <path id="패스_2368" d="M1006.443 53.037a23.707 23.707 0 0 0-.326 4.4c0 3.109-.045 7.169 1.3 7.915a7.028 7.028 0 0 0 3.827.762c1.37 0 3.833.189 3.833-1.226s-.753-1.4-1.709-1.442-2.789.079-3.476-.422a2.089 2.089 0 0 1-.818-1.988 1.651 1.651 0 0 1 1.522-1.787c.974-.045 3.659-.071 3.659-1.276s-1.857-1.118-3.2-1.244a1.96 1.96 0 0 1-1.863-2.173c0-1.109.316-2.267 2.356-2.232s3.18-.005 3.18-1.072-.937-1.144-2.783-1.179c-.382-.008-.818-.03-1.274-.03-1.748 0-3.791.321-4.227 3" class="cls-1" transform="translate(-1006.117 -50.04)"/>
        </clipPath>
        <style>
            .cls-1{fill:#fff}.cls-2{clip-path:url(#clip-path)}
        </style>
    </defs>
    <g id="그룹_1420">
        <g id="그룹_1419" class="cls-2">
            <path id="패스_2348" d="M107.589 72.285a1.52 1.52 0 1 0 1.52-1.52 1.519 1.519 0 0 0-1.52 1.52" class="cls-1" transform="translate(-98.052 -64.492)"/>
        </g>
    </g>
    <g id="그룹_1422" transform="translate(9.537 6.273)">
        <g id="그룹_1421" clip-path="url(#clip-path-2)">
            <path id="사각형_1903" d="M0 0H4.208V4.208H0z" class="cls-1" transform="rotate(-56.7 1.271 2.353)"/>
        </g>
    </g>
    <g id="그룹_1424">
        <g id="그룹_1423" class="cls-2">
            <path id="패스_2350" d="M105.943 117.069a5.156 5.156 0 0 0 0 .759 21.637 21.637 0 0 0 .938 5.049c.47 1.141 1.654 2.905 2.682 2.905a1.148 1.148 0 0 0 1.3-1.117 1.575 1.575 0 0 0-.536-1.251 7.662 7.662 0 0 1-1.407-3.128 24.059 24.059 0 0 1-.2-2.972c0-.513-.223-.581-.715-.692a11.272 11.272 0 0 0-1.474-.246h-.041c-.332 0-.51.27-.54.694" class="cls-1" transform="translate(-96.539 -106.059)"/>
        </g>
    </g>
    <g id="그룹_1426" transform="translate(9.39 10.316)">
        <g id="그룹_1425" clip-path="url(#clip-path-4)">
            <path id="사각형_1905" d="M0 0H10.572V9.287H0z" class="cls-1" transform="rotate(-56.7 3.931 7.29)"/>
        </g>
    </g>
    <g id="그룹_1428">
        <g id="그룹_1427" class="cls-2">
            <path id="패스_2352" d="M0 18.067zM10.251.245l-9.216 5.32A2.12 2.12 0 0 0 .007 7.226L0 18.067a2.119 2.119 0 0 0 1.027 1.661l9.441 5.443a.351.351 0 0 0 .18.05.366.366 0 0 0 .313-.185l.537-.928a.347.347 0 0 0 .05-.18.357.357 0 0 0-.168-.3l-8.858-5.106a1.581 1.581 0 0 1-.735-1.265V8.035a1.585 1.585 0 0 1 .734-1.265L10.5 2.163a1.591 1.591 0 0 1 1.463 0L19.94 6.77a1.586 1.586 0 0 1 .734 1.265l-.01 10.224a.352.352 0 0 0 .351.351H22.1a.351.351 0 0 0 .351-.351V7.226a2.119 2.119 0 0 0-1.028-1.661L12.2.245A1.908 1.908 0 0 0 11.246 0a2.063 2.063 0 0 0-.994.24" class="cls-1" transform="translate(0 -.005)"/>
        </g>
    </g>
    <g id="그룹_1430">
        <g id="그룹_1429" clip-path="url(#clip-path-6)">
            <path id="사각형_1907" d="M0 0H22.453V25.216H0z" class="cls-1"/>
        </g>
    </g>
    <g id="그룹_1432">
        <g id="그룹_1431" class="cls-2">
            <path id="패스_2354" d="M309.529 66.084c-1.19-.3-1.2-1.62-1.188-2.485s.116-2.056 1.073-2.255a2.578 2.578 0 0 1 2.826.725 3.26 3.26 0 0 1 .16 3.231 2.215 2.215 0 0 1-1.956.9 3.805 3.805 0 0 1-.916-.115m-3.317-6.3a3.941 3.941 0 0 0-1.016 2.665c-.064.888-.1 2.012-.092 2.919.007 1.391.033 3.126.068 4.346s-.014 2.245 0 2.891.177 1.717 1.1 1.775a1.868 1.868 0 0 0 2.172-1.482 21.542 21.542 0 0 0 .332-2.816c.115-.865.528-1.084 1.55-1.205s3.006.233 4.092-1.678a6.437 6.437 0 0 0 .495-5.563 3.938 3.938 0 0 0-3.506-2.463c-.393-.022-.96-.045-1.58-.045-1.4 0-3.074.12-3.617.655" class="cls-1" transform="translate(-278.057 -53.891)"/>
        </g>
    </g>
    <g id="그룹_1434" transform="translate(27.046 5.242)">
        <g id="그룹_1433" clip-path="url(#clip-path-8)">
            <path id="사각형_1909" d="M0 0H13.864V17.393H0z" class="cls-1" transform="rotate(-14.07 1.858 15.114)"/>
        </g>
    </g>
    <g id="그룹_1436">
        <g id="그룹_1435" class="cls-2">
            <path id="패스_2356" d="M447.018 66.708c-.093 1.229.034 1.492 0 2.8-.027 1.271.02 3.668.147 5.058a4.762 4.762 0 0 0 1.63 3.508 5.666 5.666 0 0 0 3.915 1.232 4.912 4.912 0 0 0 4.348-1.917c1.091-1.231 1.187-2.561 1.234-4.556s-.053-5.321-.036-6.309-.456-1.724-1.42-1.724-1.57.523-1.6 1.715-.065 2.979-.09 3.987a15.226 15.226 0 0 1-.406 4.174c-.4.986-1.12 1.064-1.961 1.064a2.114 2.114 0 0 1-2.189-1.461 17.306 17.306 0 0 1-.379-4.6 21.029 21.029 0 0 0-.184-4.358c-.285-.724-.887-.781-1.492-.781-.449 0-1.376.223-1.523 2.172" class="cls-1" transform="translate(-407.36 -58.815)"/>
        </g>
    </g>
    <g id="그룹_1438" transform="translate(39.623 5.721)">
        <g id="그룹_1437" clip-path="url(#clip-path-10)">
            <path id="패스_2357" d="M425.422 50.775L411.2 54.338l-4.156-16.591 14.22-3.563z" class="cls-1" transform="translate(-410.585 -36.874)"/>
        </g>
    </g>
    <g id="그룹_1440">
        <g id="그룹_1439" class="cls-2">
            <path id="패스_2359" d="M603.984 57.653a1.222 1.222 0 0 0-1.309 1.257 1.3 1.3 0 0 0 1.381 1.436c.964 0 2.294.05 2.623.05s1.258.113.655 1.161-3.872 6.807-4.157 7.444a2.781 2.781 0 0 0-.326 2.62c.56 1.032 1.377 1.351 2.834 1.351s4.184-.016 4.905-.016a1.338 1.338 0 0 0 1.525-1.366c0-1.06-.759-1.216-1.441-1.216s-2.547-.051-3.305-.051-1.427-.233-.8-1.326 3.6-6.4 3.948-6.973a6.554 6.554 0 0 0 1.1-2.917c0-1.056-.547-1.37-2.009-1.455z" class="cls-1" transform="translate(-549.202 -52.542)"/>
        </g>
    </g>
    <g id="그룹_1442" transform="translate(53.419 5.111)">
        <g id="그룹_1441" clip-path="url(#clip-path-12)">
            <path id="패스_2360" d="M575.212 48.267l-12.855 3.221-4.192-16.728 12.855-3.221z" class="cls-1" transform="translate(-562.107 -33.853)"/>
        </g>
    </g>
    <g id="그룹_1444">
        <g id="그룹_1443" class="cls-2">
            <path id="패스_2362" d="M738.823 57.653a1.224 1.224 0 0 0-1.31 1.257 1.3 1.3 0 0 0 1.381 1.436c.965 0 2.3.05 2.622.05s1.261.113.66 1.161-3.876 6.807-4.157 7.443a2.774 2.774 0 0 0-.327 2.62c.558 1.032 1.375 1.351 2.832 1.351s4.185-.016 4.906-.016a1.338 1.338 0 0 0 1.526-1.366c0-1.06-.761-1.216-1.441-1.216s-2.547-.051-3.3-.051-1.427-.233-.8-1.326 3.6-6.4 3.951-6.973a6.616 6.616 0 0 0 1.1-2.917c0-1.056-.547-1.37-2.01-1.455z" class="cls-1" transform="translate(-672.09 -52.542)"/>
        </g>
    </g>
    <g id="그룹_1446" transform="translate(65.372 5.111)">
        <g id="그룹_1445" clip-path="url(#clip-path-14)">
            <path id="패스_2363" d="M710.047 48.259l-12.856 3.221L693 34.751l12.855-3.221z" class="cls-1" transform="translate(-696.941 -33.845)"/>
        </g>
    </g>
    <g id="그룹_1448">
        <g id="그룹_1447" class="cls-2">
            <path id="패스_2365" d="M877.093 67.15c-.1 1.5-.182 2.35-.2 3.847-.028 2.517-.391 7.049 1.474 8.182 1.591.969 4.882.771 5.873.771s2.707-.1 2.877-1.139-.212-1.68-1.1-1.833-3.347-.076-4.012-.254a2.08 2.08 0 0 1-1.313-1.987c-.1-1.089-.125-3.934-.164-5.1s.1-4.392-1.377-4.392-1.963.415-2.062 1.909" class="cls-1" transform="translate(-799.121 -59.458)"/>
        </g>
    </g>
    <g id="그룹_1450" transform="translate(77.728 5.783)">
        <g id="그룹_1449" clip-path="url(#clip-path-16)">
            <path id="사각형_1914" d="M0 0H14.086V17.082H0z" class="cls-1" transform="rotate(-14.067 1.64 16.083)"/>
        </g>
    </g>
    <g id="그룹_1452">
        <g id="그룹_1451" class="cls-2">
            <path id="패스_2367" d="M1006.443 53.038a23.706 23.706 0 0 0-.326 4.4c0 3.109-.045 7.169 1.3 7.915a7.028 7.028 0 0 0 3.827.762c1.37 0 3.833.189 3.833-1.226s-.753-1.4-1.709-1.442-2.789.079-3.476-.422a2.089 2.089 0 0 1-.818-1.988 1.651 1.651 0 0 1 1.522-1.787c.974-.044 3.659-.071 3.659-1.276s-1.857-1.118-3.2-1.244a1.96 1.96 0 0 1-1.863-2.173c0-1.109.316-2.268 2.356-2.232s3.18-.005 3.18-1.072-.937-1.144-2.783-1.179c-.382-.008-.818-.03-1.274-.03-1.748 0-3.792.32-4.227 3" class="cls-1" transform="translate(-916.93 -45.605)"/>
        </g>
    </g>
    <g id="그룹_1454" transform="translate(89.187 4.436)">
        <g id="그룹_1453" clip-path="url(#clip-path-18)">
            <path id="사각형_1916" d="M0 0H12.686V17.961H0z" class="cls-1" transform="rotate(-14.067 1.956 16.196)"/>
        </g>
    </g>
</svg>
