<svg xmlns="http://www.w3.org/2000/svg" id="logo" width="148.589" height="36.74" viewBox="0 0 148.589 36.74">
    <defs>
        <clipPath id="clip-path">
            <path id="사각형_1902" d="M0 0H148.589V36.74H0z" class="cls-1"/>
        </clipPath>
        <clipPath id="clip-path-2">
            <path id="패스_2349" d="M107.589 72.979a2.214 2.214 0 1 0 2.214-2.214 2.213 2.213 0 0 0-2.214 2.214" class="cls-1" transform="translate(-107.589 -70.765)"/>
        </clipPath>
        <clipPath id="clip-path-4">
            <path id="패스_2351" d="M105.949 117.386a7.514 7.514 0 0 0 0 1.106 31.522 31.522 0 0 0 1.366 7.357c.684 1.662 2.41 4.233 3.907 4.233a1.672 1.672 0 0 0 1.888-1.627 2.3 2.3 0 0 0-.78-1.824 11.162 11.162 0 0 1-2.051-4.557 35.059 35.059 0 0 1-.294-4.331c0-.747-.325-.846-1.041-1.008a16.442 16.442 0 0 0-2.148-.358h-.059c-.484 0-.743.393-.787 1.011" class="cls-1" transform="translate(-105.929 -116.375)"/>
        </clipPath>
        <clipPath id="clip-path-6">
            <path id="패스_2353" d="M16.386 0a3 3 0 0 0-1.449.35L1.507 8.106a3.09 3.09 0 0 0-1.5 2.42L0 26.322a3.088 3.088 0 0 0 1.5 2.421l13.756 7.931a.511.511 0 0 0 .262.073.533.533 0 0 0 .456-.27l.782-1.353a.505.505 0 0 0 .072-.262.519.519 0 0 0-.245-.433L3.675 26.986A2.3 2.3 0 0 1 2.6 25.143V11.7a2.31 2.31 0 0 1 1.074-1.839l11.618-6.712a2.317 2.317 0 0 1 2.132 0l11.629 6.712a2.31 2.31 0 0 1 1.07 1.844l-.015 14.9a.513.513 0 0 0 .512.511h1.58a.511.511 0 0 0 .511-.511V10.526a3.088 3.088 0 0 0-1.5-2.42L17.78.355A2.778 2.778 0 0 0 16.39 0" class="cls-1" transform="translate(0 -.005)"/>
        </clipPath>
        <clipPath id="clip-path-8">
            <path id="패스_2355" d="M311.552 69.262c-1.734-.431-1.742-2.36-1.73-3.62s.169-3 1.563-3.285 3.151-.356 4.117 1.056a4.751 4.751 0 0 1 .235 4.71 3.227 3.227 0 0 1-2.85 1.307 5.538 5.538 0 0 1-1.335-.167m-4.833-9.174a5.742 5.742 0 0 0-1.481 3.883c-.093 1.293-.146 2.931-.134 4.253.01 2.026.048 4.555.1 6.333s-.021 3.271 0 4.213.258 2.5 1.606 2.586a2.722 2.722 0 0 0 3.164-2.159 31.387 31.387 0 0 0 .483-4.1c.168-1.26.769-1.579 2.259-1.756s4.381.339 5.963-2.445a9.379 9.379 0 0 0 .721-8.105 5.738 5.738 0 0 0-5.11-3.592c-.572-.032-1.4-.066-2.3-.066-2.043 0-4.478.175-5.269.954" class="cls-1" transform="translate(-305.102 -59.134)"/>
        </clipPath>
        <clipPath id="clip-path-10">
            <path id="패스_2358" d="M447.033 67.7c-.135 1.791.049 2.174 0 4.082-.04 1.851.03 5.344.214 7.37s.977 4.23 2.375 5.111a8.257 8.257 0 0 0 5.7 1.8c3.374 0 4.749-1 6.335-2.793s1.729-3.731 1.8-6.638-.077-7.754-.053-9.193-.665-2.521-2.07-2.521-2.288.763-2.325 2.5-.095 4.34-.131 5.809 0 4.643-.591 6.081-1.632 1.55-2.857 1.55a3.08 3.08 0 0 1-3.19-2.129c-.592-1.715-.552-4.865-.552-6.7s.137-5.291-.268-6.35-1.292-1.138-2.173-1.138c-.654 0-2.005.325-2.219 3.165" class="cls-1" transform="translate(-446.983 -64.536)"/>
        </clipPath>
        <clipPath id="clip-path-12">
            <path id="패스_2361" d="M604.607 57.653a1.78 1.78 0 0 0-1.907 1.832 1.888 1.888 0 0 0 2.013 2.093c1.4 0 3.342.072 3.821.072s1.833.165.955 1.691-5.642 9.918-6.057 10.846-1.29 2.317-.476 3.817 2.006 1.969 4.13 1.969 6.1-.023 7.147-.023a1.949 1.949 0 0 0 2.223-1.991c0-1.545-1.106-1.771-2.1-1.771s-3.71-.075-4.816-.075-2.08-.34-1.161-1.931 5.244-9.318 5.753-10.16a9.547 9.547 0 0 0 1.606-4.25c0-1.538-.8-2-2.927-2.119z" class="cls-1" transform="translate(-602.622 -57.653)"/>
        </clipPath>
        <clipPath id="clip-path-14">
            <path id="패스_2364" d="M739.445 57.653a1.783 1.783 0 0 0-1.908 1.832 1.888 1.888 0 0 0 2.012 2.093c1.406 0 3.347.072 3.82.072s1.837.165.961 1.691-5.646 9.918-6.057 10.846S736.981 76.5 737.8 78s2 1.969 4.127 1.969 6.1-.023 7.148-.023a1.95 1.95 0 0 0 2.224-1.991c0-1.545-1.108-1.771-2.1-1.771s-3.711-.075-4.814-.075-2.08-.34-1.163-1.931 5.244-9.318 5.757-10.16a9.637 9.637 0 0 0 1.6-4.25c0-1.538-.8-2-2.928-2.119z" class="cls-1" transform="translate(-737.462 -57.653)"/>
        </clipPath>
        <clipPath id="clip-path-16">
            <path id="패스_2366" d="M877.2 68.023c-.14 2.179-.266 3.425-.288 5.606-.041 3.667-.57 10.271 2.147 11.922 2.318 1.412 7.113 1.123 8.558 1.123s3.944-.145 4.192-1.659-.309-2.448-1.6-2.671-4.877-.111-5.846-.37a3.03 3.03 0 0 1-1.913-2.895c-.141-1.587-.182-5.732-.239-7.437s.141-6.4-2.006-6.4-2.86.605-3 2.782" class="cls-1" transform="translate(-876.849 -65.241)"/>
        </clipPath>
        <clipPath id="clip-path-18">
            <path id="패스_2368" d="M1006.592 54.407a34.544 34.544 0 0 0-.475 6.408c.005 4.53-.066 10.445 1.894 11.533a10.24 10.24 0 0 0 5.576 1.11c2 0 5.585.275 5.585-1.786s-1.1-2.044-2.49-2.1-4.063.115-5.065-.615a3.044 3.044 0 0 1-1.192-2.9 2.406 2.406 0 0 1 2.218-2.6c1.42-.065 5.331-.1 5.331-1.859s-2.706-1.629-4.663-1.813a2.856 2.856 0 0 1-2.715-3.166c0-1.616.46-3.3 3.432-3.252s4.633-.008 4.633-1.562-1.366-1.667-4.055-1.717c-.557-.012-1.192-.044-1.857-.044-2.547 0-5.524.467-6.158 4.367" class="cls-1" transform="translate(-1006.117 -50.04)"/>
        </clipPath>
        <style>
            .cls-1{fill:#60e7a3}.cls-2{clip-path:url(#clip-path)}
        </style>
    </defs>
    <g id="그룹_1420">
        <g id="그룹_1419" class="cls-2">
            <path id="패스_2348" d="M107.589 72.979a2.214 2.214 0 1 0 2.214-2.214 2.214 2.214 0 0 0-2.214 2.214" class="cls-1" transform="translate(-93.693 -61.625)"/>
        </g>
    </g>
    <g id="그룹_1422" transform="translate(13.896 9.14)">
        <g id="그룹_1421" clip-path="url(#clip-path-2)">
            <path id="사각형_1903" d="M0 0H6.131V6.131H0z" class="cls-1" transform="rotate(-56.7 1.852 3.428)"/>
        </g>
    </g>
    <g id="그룹_1424">
        <g id="그룹_1423" class="cls-2">
            <path id="패스_2350" d="M105.949 117.386a7.515 7.515 0 0 0 0 1.106 31.527 31.527 0 0 0 1.366 7.357c.684 1.662 2.41 4.233 3.907 4.233a1.672 1.672 0 0 0 1.888-1.627 2.3 2.3 0 0 0-.78-1.823 11.164 11.164 0 0 1-2.051-4.557 35.056 35.056 0 0 1-.294-4.331c0-.747-.325-.846-1.041-1.008a16.425 16.425 0 0 0-2.148-.358h-.059c-.484 0-.743.393-.787 1.011" class="cls-1" transform="translate(-92.247 -101.344)"/>
        </g>
    </g>
    <g id="그룹_1426" transform="translate(13.682 15.031)">
        <g id="그룹_1425" clip-path="url(#clip-path-4)">
            <path id="사각형_1905" d="M0 0H15.404V13.532H0z" class="cls-1" transform="rotate(-56.7 5.728 10.622)"/>
        </g>
    </g>
    <g id="그룹_1428">
        <g id="그룹_1427" class="cls-2">
            <path id="패스_2352" d="M0 26.323zM14.937.354L1.507 8.107a3.09 3.09 0 0 0-1.5 2.42L0 26.322a3.087 3.087 0 0 0 1.5 2.421l13.756 7.931a.511.511 0 0 0 .263.073.533.533 0 0 0 .456-.27l.782-1.353a.506.506 0 0 0 .072-.262.52.52 0 0 0-.245-.433L3.675 26.986A2.3 2.3 0 0 1 2.6 25.143V11.7a2.31 2.31 0 0 1 1.074-1.839l11.618-6.712a2.317 2.317 0 0 1 2.132 0l11.629 6.712a2.31 2.31 0 0 1 1.07 1.844l-.015 14.9a.513.513 0 0 0 .512.511h1.58a.511.511 0 0 0 .511-.511V10.526a3.087 3.087 0 0 0-1.5-2.42L17.78.354A2.78 2.78 0 0 0 16.386 0a3.005 3.005 0 0 0-1.449.35" class="cls-1" transform="translate(0 -.004)"/>
        </g>
    </g>
    <g id="그룹_1430" transform="translate(0 .001)">
        <g id="그룹_1429" clip-path="url(#clip-path-6)">
            <path id="사각형_1907" d="M0 0H32.715V36.74H0z" class="cls-1" transform="translate(0 -.001)"/>
        </g>
    </g>
    <g id="그룹_1432">
        <g id="그룹_1431" class="cls-2">
            <path id="패스_2354" d="M311.553 69.261c-1.734-.431-1.742-2.36-1.73-3.62s.169-3 1.563-3.285 3.151-.356 4.117 1.056a4.75 4.75 0 0 1 .235 4.71 3.227 3.227 0 0 1-2.85 1.306 5.545 5.545 0 0 1-1.335-.167m-4.833-9.174a5.742 5.742 0 0 0-1.481 3.883c-.093 1.293-.146 2.931-.134 4.253.01 2.026.048 4.555.1 6.333s-.021 3.271 0 4.213.258 2.5 1.606 2.586a2.722 2.722 0 0 0 3.164-2.159 31.389 31.389 0 0 0 .483-4.1c.168-1.26.769-1.579 2.259-1.756s4.381.34 5.963-2.444a9.379 9.379 0 0 0 .721-8.105 5.738 5.738 0 0 0-5.109-3.588c-.572-.032-1.4-.066-2.3-.066-2.043 0-4.478.175-5.269.954" class="cls-1" transform="translate(-265.696 -51.495)"/>
        </g>
    </g>
    <g id="그룹_1434" transform="translate(39.407 7.638)">
        <g id="그룹_1433" clip-path="url(#clip-path-8)">
            <path id="사각형_1909" d="M0 0H20.201V25.342H0z" class="cls-1" transform="rotate(-14.07 2.705 22.021)"/>
        </g>
    </g>
    <g id="그룹_1436">
        <g id="그룹_1435" class="cls-2">
            <path id="패스_2356" d="M447.033 67.7c-.135 1.791.049 2.174 0 4.082-.04 1.851.03 5.344.214 7.37s.977 4.23 2.375 5.111a8.256 8.256 0 0 0 5.7 1.8c3.374 0 4.749-1 6.335-2.793s1.729-3.731 1.8-6.638-.077-7.754-.053-9.193-.665-2.521-2.07-2.521-2.288.763-2.325 2.5-.095 4.34-.131 5.809 0 4.643-.591 6.081-1.632 1.55-2.857 1.55a3.08 3.08 0 0 1-3.19-2.129c-.592-1.715-.552-4.865-.552-6.7s.137-5.291-.268-6.35-1.292-1.138-2.173-1.138c-.654 0-2.005.325-2.219 3.165" class="cls-1" transform="translate(-389.251 -56.201)"/>
        </g>
    </g>
    <g id="그룹_1438" transform="translate(57.732 8.335)">
        <g id="그룹_1437" clip-path="url(#clip-path-10)">
            <path id="패스_2357" d="M433.821 58.357L413.1 63.549l-6.056-24.174 20.719-5.191z" class="cls-1" transform="translate(-412.203 -38.104)"/>
        </g>
    </g>
    <g id="그룹_1440">
        <g id="그룹_1439" class="cls-2">
            <path id="패스_2359" d="M604.607 57.653a1.781 1.781 0 0 0-1.907 1.831 1.888 1.888 0 0 0 2.013 2.093c1.4 0 3.342.073 3.821.073s1.833.165.955 1.691-5.642 9.918-6.057 10.846-1.29 2.317-.476 3.817 2.006 1.969 4.13 1.969 6.1-.023 7.147-.023a1.949 1.949 0 0 0 2.223-1.991c0-1.545-1.106-1.771-2.1-1.771s-3.71-.075-4.816-.075-2.08-.34-1.161-1.932 5.244-9.318 5.753-10.16a9.549 9.549 0 0 0 1.606-4.25c0-1.538-.8-2-2.927-2.119z" class="cls-1" transform="translate(-524.788 -50.207)"/>
        </g>
    </g>
    <g id="그룹_1442" transform="translate(77.834 7.446)">
        <g id="그룹_1441" clip-path="url(#clip-path-12)">
            <path id="패스_2360" d="M583 55.912L564.274 60.6l-6.108-24.374 18.734-4.687z" class="cls-1" transform="translate(-563.908 -34.911)"/>
        </g>
    </g>
    <g id="그룹_1444">
        <g id="그룹_1443" class="cls-2">
            <path id="패스_2362" d="M739.446 57.653a1.783 1.783 0 0 0-1.908 1.831 1.888 1.888 0 0 0 2.012 2.093c1.406 0 3.347.073 3.82.073s1.837.165.961 1.691-5.646 9.918-6.057 10.846S736.981 76.5 737.8 78s2 1.969 4.127 1.969 6.1-.023 7.148-.023a1.95 1.95 0 0 0 2.224-1.991c0-1.545-1.109-1.771-2.1-1.771s-3.711-.075-4.814-.075-2.08-.34-1.164-1.932 5.244-9.318 5.757-10.16a9.639 9.639 0 0 0 1.6-4.25c0-1.538-.8-2-2.928-2.119z" class="cls-1" transform="translate(-642.213 -50.207)"/>
        </g>
    </g>
    <g id="그룹_1446" transform="translate(95.249 7.446)">
        <g id="그룹_1445" clip-path="url(#clip-path-14)">
            <path id="패스_2363" d="M717.839 55.9l-18.732 4.7L693 36.223l18.73-4.694z" class="cls-1" transform="translate(-698.742 -34.904)"/>
        </g>
    </g>
    <g id="그룹_1448">
        <g id="그룹_1447" class="cls-2">
            <path id="패스_2365" d="M877.2 68.023c-.139 2.179-.266 3.425-.288 5.605-.041 3.667-.57 10.271 2.147 11.922 2.318 1.412 7.113 1.123 8.558 1.123s3.944-.145 4.192-1.659-.309-2.448-1.6-2.671-4.877-.111-5.846-.37a3.03 3.03 0 0 1-1.913-2.9c-.141-1.586-.183-5.732-.239-7.437s.141-6.4-2.006-6.4-2.86.605-3 2.782" class="cls-1" transform="translate(-763.596 -56.815)"/>
        </g>
    </g>
    <g id="그룹_1450" transform="translate(113.253 8.426)">
        <g id="그룹_1449" clip-path="url(#clip-path-16)">
            <path id="사각형_1914" d="M0 0H20.523V24.889H0z" class="cls-1" transform="rotate(-14.067 2.392 23.434)"/>
        </g>
    </g>
    <g id="그룹_1452">
        <g id="그룹_1451" class="cls-2">
            <path id="패스_2367" d="M1006.592 54.408a34.538 34.538 0 0 0-.475 6.408c.005 4.53-.066 10.445 1.894 11.533a10.24 10.24 0 0 0 5.576 1.11c2 0 5.585.275 5.585-1.787s-1.1-2.044-2.49-2.1-4.063.115-5.065-.615a3.044 3.044 0 0 1-1.192-2.9 2.406 2.406 0 0 1 2.218-2.6c1.419-.065 5.331-.1 5.331-1.859s-2.706-1.629-4.663-1.813a2.856 2.856 0 0 1-2.715-3.166c0-1.616.46-3.3 3.432-3.252s4.633-.008 4.633-1.562-1.366-1.667-4.055-1.717c-.557-.012-1.192-.044-1.857-.044-2.547 0-5.524.467-6.158 4.367" class="cls-1" transform="translate(-876.168 -43.578)"/>
        </g>
    </g>
    <g id="그룹_1454" transform="translate(129.949 6.463)">
        <g id="그룹_1453" clip-path="url(#clip-path-18)">
            <path id="사각형_1916" d="M0 0H18.484V26.169H0z" class="cls-1" transform="rotate(-14.067 2.853 23.598)"/>
        </g>
    </g>
</svg>
