<svg xmlns="http://www.w3.org/2000/svg" width="488" height="54.082" viewBox="0 0 488 54.082">
    <defs>
        <clipPath id="clip-path">
            <path id="사각형_1921" d="M0 0H488V54.082H0z" class="cls-1"/>
        </clipPath>
        <style>
            .cls-1{fill:#ffffb2}
        </style>
    </defs>
    <g id="line">
        <g id="그룹_1471" clip-path="url(#clip-path)">
            <path id="패스_2370" d="M57.124 3.96c.718.241.419-2.568.522-3.071-1.2.63-.479 3.8-.522 3.071" class="cls-1" transform="translate(430.004 5.074)"/>
            <path id="패스_2371" d="M56.926 3.291l.2-1.147-1.71 2.823z" class="cls-1" transform="translate(418.41 12.234)"/>
            <path id="패스_2372" d="M54.29 3.937c1.12 4.774 4.019-.811 6.02.872l.35 1.091.83-3.86c-2.394.63-5.481 3.218-7.2 1.9" class="cls-1" transform="translate(409.93 11.64)"/>
            <path id="패스_2373" d="M53.712.788c.393 1.857-1.257 1.616 1.394.57a3.723 3.723 0 0 1-.265-.469 3.121 3.121 0 0 1-1.129-.1" class="cls-1" transform="translate(404.42 4.497)"/>
            <path id="패스_2374" d="M53.881 1.419c1.171-.141-.787-1.556 0 0" class="cls-1" transform="translate(405.389 3.967)"/>
            <path id="패스_2375" d="M53.772 4.216l1.513-1.676c-.333-1.1-1.71-1.334-1.214-2.139-1.565.925-1.223 2.018-.3 3.815" class="cls-1" transform="translate(400.102 2.29)"/>
            <path id="패스_2376" d="M52.916 2.381l.784-.711c-.145-.463-.359-.617-.787.711" class="cls-1" transform="translate(399.556 7.631)"/>
            <path id="패스_2377" d="M54.675 1.162l-1.667 1.5c.231.771.282 2.32.77-.543-.12 1.415.188.054.9-.959" class="cls-1" transform="translate(400.25 6.631)"/>
            <path id="패스_2378" d="M53.317 1.351c.883 1.032 2.009 1.676.483 3.349 2.933-.691 2.454-4.05-.487-3.352" class="cls-1" transform="translate(402.583 7.167)"/>
            <path id="패스_2379" d="M54.236 3.54l1.18 1.388.975-1.609c-.487.8-2.249-1.281-2.155.221" class="cls-1" transform="translate(409.497 16.993)"/>
            <path id="패스_2380" d="M51.958.614c-.077 1.019.564 2.709.7 4.01l1.112-1.18c-.59-.691-1.71-1.321-1.813-2.829" class="cls-1" transform="translate(392.271 3.505)"/>
            <path id="패스_2381" d="M53.514 1.212l-1.676 1.763c1.522.194 1.787-.644 1.676-1.763" class="cls-1" transform="translate(391.416 6.916)"/>
            <path id="패스_2382" d="M53.369 5.435l2.745-3.7-3.284 3.753z" class="cls-1" transform="translate(398.909 9.891)"/>
            <path id="패스_2383" d="M51.84 2.618l.932-2.367-1.667 3.58z" class="cls-1" transform="translate(385.882 1.433)"/>
            <path id="패스_2384" d="M53.617 4.506C54.3 2.548 52.582 1.214 53.326 0 52.154.362 51.18 2.052 50.3 3.56c.949-.845 1.975-.644 3.318.945" class="cls-1" transform="translate(379.795 .002)"/>
            <path id="패스_2385" d="M50.126 2.744A12.648 12.648 0 0 0 51.605.531a6.218 6.218 0 0 0-1.479 2.213" class="cls-1" transform="translate(378.489 3.031)"/>
            <path id="패스_2386" d="M52.72 3.869c-.145-.617-.419-2.226-1.385-2.9l.71 2.856c.205.02.445.027.676.04" class="cls-1" transform="translate(387.618 5.547)"/>
            <path id="패스_2387" d="M52.721 1.612l-.021-.094c-.727-.047-1.231-.114-1.445-.141.18.02.624.094 1.471.235" class="cls-1" transform="translate(386.976 7.858)"/>
            <path id="패스_2388" d="M51.668 1.414a.731.731 0 0 0-.171-.007c.068.275.111.369.171.007" class="cls-1" transform="translate(388.841 8.015)"/>
            <path id="패스_2389" d="M54.007 1.9c-.975 1.609-3.035 3.352-.975 5.773.684-1.971-.5-3.352.975-5.773" class="cls-1" transform="translate(393.762 10.87)"/>
            <path id="패스_2390" d="M51.621 3.656l1.821.637c-.043-.758-.393-1.857.094-2.655z" class="cls-1" transform="translate(389.777 9.346)"/>
            <path id="패스_2391" d="M51.519 3.057l.872-.919-.676-.238z" class="cls-1" transform="translate(389.006 10.861)"/>
            <path id="패스_2392" d="M52.766 1.262a3.214 3.214 0 0 1-2.574 1.576 6.591 6.591 0 0 0 3.13.831c.137-.9.556-2.521-.556-2.407" class="cls-1" transform="translate(378.987 7.168)"/>
            <path id="패스_2393" d="M51.1 1.369c-.051.067-.12.1-.171.168.111.241.2.315.171-.168" class="cls-1" transform="translate(384.522 7.812)"/>
            <path id="패스_2394" d="M49.079 1.5c.06.154.1.349.162.516l.026-.5z" class="cls-1" transform="translate(370.583 8.571)"/>
            <path id="패스_2395" d="M50.77 2.591c.787.543 1.248-.161 1.676-1.053a4.484 4.484 0 0 1-1.856.516c-.06.409-.068.677.18.536" class="cls-1" transform="translate(381.727 8.776)"/>
            <path id="패스_2396" d="M49.818 1.243a10.346 10.346 0 0 0 1.377 1.562C50.784 1.9 49.955.5 49.818 1.243" class="cls-1" transform="translate(376.163 5.893)"/>
            <path id="패스_2397" d="M50.969 1.684a.705.705 0 0 1 .12-.134c-.274-.61-.231-.308-.12.134" class="cls-1" transform="translate(384.205 6.88)"/>
            <path id="패스_2398" d="M51.776 1.277a7.264 7.264 0 0 0-1 1.757 4.06 4.06 0 0 0 1.274-.966 5.791 5.791 0 0 1-.274-.791" class="cls-1" transform="translate(383.397 7.287)"/>
            <path id="패스_2399" d="M50.558 19.481c.094-2.655 2.1-5.129 3.916-2.3 1.71-2.011.436-10.728-1.154-15.6a4.405 4.405 0 0 1-1.787 3.815c.65 1.448 4.019 3.352 2.548 5.773-2.343 1.388-1.95-.919-3.13-2.313 1.035 3.3-2.941 4.841-2.351 9.7l2.052-1.73c.051.751-.676 1.965-.094 2.655" class="cls-1" transform="translate(366.513 9.01)"/>
            <path id="패스_2400" d="M52.487 4.941l.727-.335c-.838-.456-1.454-1.509-2.6-3.574A4.918 4.918 0 0 0 49.1 4.21l3.634.335z" class="cls-1" transform="translate(370.75 5.889)"/>
            <path id="패스_2401" d="M52.891 3.054c-.53 2.9-2.283 4.137-1.146 7.255 2.155-.221 1.471-2.427 2.745-3.694-3.472.751.975-1.616-1.573-3.232A4.6 4.6 0 0 1 54.8 2.6a9.29 9.29 0 0 1-1.832-1.3l.086.181.017-.007v.047c.154.355.205.57.034.369a.114.114 0 0 1-.077.054 8.067 8.067 0 0 1-.137 1.1c-1.018-.59-.171-.751.137-1.1a3.4 3.4 0 0 0 .043-.422l-.017-.04-3.472 1.612c.752.4 1.676.3 3.309-.04" class="cls-1" transform="translate(374.381 7.401)"/>
            <path id="패스_2402" d="M52.314 4.265a1.841 1.841 0 0 1-.128-.67c-.214.355-.3.6.128.67" class="cls-1" transform="translate(392.71 20.511)"/>
            <path id="패스_2403" d="M53.493 9.381c.248-.409.445-1.562 1.266-1.274.735.858.026 1.388.077 2.333.487-.771 1.71-2.085.128-3.48l-.239.4c-1.419-.979-3.284-4.566-3.044-4.962a33.073 33.073 0 0 0 1.813 6.986" class="cls-1" transform="translate(390.068 13.665)"/>
            <path id="패스_2404" d="M53.463 2.608l-2.89 1.448L52.1 6.537 52 5.042c1.659.57 1.274-1.274 1.462-2.434" class="cls-1" transform="translate(381.864 14.88)"/>
            <path id="패스_2405" d="M50.163 3.89L50.5.832l-1.611 4.325z" class="cls-1" transform="translate(369.147 4.751)"/>
            <path id="패스_2406" d="M49.375 3.608l.094-2.656-.975 1.609z" class="cls-1" transform="translate(366.165 5.435)"/>
            <path id="패스_2407" d="M24.474 6.561l-.855.764a2.629 2.629 0 0 0 .855-.764" class="cls-1" transform="translate(178.341 37.432)"/>
            <path id="패스_2408" d="M24.569 7.691l.137-1.307c-.282.724-.393 1.254-.137 1.307" class="cls-1" transform="translate(184.428 36.422)"/>
            <path id="패스_2409" d="M40 5.27c-1.283-2.467-2.736-6.3-2.54-3.312l.428 2.9A1.521 1.521 0 0 1 40 5.27" class="cls-1" transform="translate(282.737 4.957)"/>
            <path id="패스_2410" d="M30.342 5.831c.128.282.248.583.376.878.291-1 .556-1.924.8-2.789-.359.6-.761 1.24-1.18 1.911" class="cls-1" transform="translate(229.105 22.365)"/>
            <path id="패스_2411" d="M31.733 7.581l-1.667-1.857a6.432 6.432 0 0 0 1.667 1.857" class="cls-1" transform="translate(227.021 32.657)"/>
            <path id="패스_2412" d="M20.611 7.069l-.949 2.97c1.556-.034.847-1.515.949-2.97" class="cls-1" transform="translate(148.463 40.33)"/>
            <path id="패스_2413" d="M46.458 3.035a5.2 5.2 0 0 0-2.7-1.73c1.317 1.656 2.394 4.157 2.7 1.73" class="cls-1" transform="translate(330.391 7.447)"/>
            <path id="패스_2414" d="M24.568 1.954a2.33 2.33 0 0 0-.7 1.777 1.894 1.894 0 0 0 .7-1.777" class="cls-1" transform="translate(180.197 11.149)"/>
            <path id="패스_2415" d="M43.393 2.382a7.122 7.122 0 0 0 .573.677 3.454 3.454 0 0 1 2.534-.717c-.975-1.234-2.086-1.991-3.1.04" class="cls-1" transform="translate(327.65 6.41)"/>
            <path id="패스_2416" d="M5.692 7.175a3.379 3.379 0 0 1-.282-.342c-.026.389.1.409.282.342" class="cls-1" transform="translate(40.824 38.983)"/>
            <path id="패스_2417" d="M1.212 2.864a4.32 4.32 0 0 1 1.462-.241c-.265-.194-.71-.174-1.462.241" class="cls-1" transform="translate(9.152 14.283)"/>
            <path id="패스_2418" d="M46.816 1.348c.8-.194.128-.322 0 0" class="cls-1" transform="translate(353.496 6.572)"/>
            <path id="패스_2419" d="M47.557 2.89a3.005 3.005 0 0 0-.3 1.415 3.759 3.759 0 0 1 .3-1.415" class="cls-1" transform="translate(356.833 16.489)"/>
            <path id="패스_2420" d="M42.552 4.028l-.068-.007c.248.563.205.456.068.007" class="cls-1" transform="translate(320.786 22.941)"/>
            <path id="패스_2421" d="M47.881 2.1a3.625 3.625 0 0 0-1.043-.852 4.339 4.339 0 0 0 1.043.852" class="cls-1" transform="translate(353.662 7.127)"/>
            <path id="패스_2422" d="M46.938 1.4a7.584 7.584 0 0 0 .71.275c.085-.483 0-.791-.71-.275" class="cls-1" transform="translate(354.417 6.455)"/>
            <path id="패스_2423" d="M46.686 1.348a2.4 2.4 0 0 1 1.3.288c-.162-.194-.231-.355-.188-.456a9.943 9.943 0 0 1-1.112.168" class="cls-1" transform="translate(352.514 6.734)"/>
            <path id="패스_2424" d="M13.663 5.863a3.2 3.2 0 0 1-.18-.275c-.787 1.22-.436 1.019.18.275" class="cls-1" transform="translate(98.378 31.881)"/>
            <path id="패스_2425" d="M35.382 6.264c.034-.027.051-.107.086-.141l-.111-.1z" class="cls-1" transform="translate(266.964 34.362)"/>
            <path id="패스_2426" d="M35.027 15.589C36.2 11.955 36.9 12.4 37.84 13.155l-1.086-8.381z" class="cls-1" transform="translate(264.48 27.237)"/>
            <path id="패스_2427" d="M186.051 41.317l2.061 2.595c-2.369 4.325-4.156 2.856-2.206 6.517.145-9.112 7.841-1.006 7.986-10.1l1.36 1.9c-.385-.08-.436.456-.812.362 2.659 4.338 1.821-6.6 5.182-5.33 1.171.684 2.009 2 1.231 3.084l2.557-2.273c.752.168.6 1.75-.154 1.582l3.942-.764-.026.268a31.213 31.213 0 0 1 2.394-4.6c1.026 1.3-.487.972-.214 2.105l2.155-2.226c.932 2.347-.847 4.653-2.369 4.331 2.189 9.072 1.779-2.306 6.276 2.964L213.37 42.9c1.411 5.149 2.993 3.265 5.387 6.464-.581-1.676-4.814-8.073-2.471-10.366.684.684 1.573 1.006 2.822-.845.06 3.238 1.3 2.434 2.864 2.233l-.034 4.291c1.667-1.254 1.5-3.433 2.471-5.377 1.89.4 2.334 3.721 2.822 6.517 3.036.657-2.172-5.3 1.394-6.148 2.54 1.616 4.284-.154 7.242-2.749 1.787 1.462-.265 2.628.385 3.849l1.513-3.433c.385.074.274 1.126.222 1.656 1.291-1.334.034-4.284 2.086-5.471.487-4.727 4.344 6.866 6.824 1.475.65 1.214-.265 2.635-.043 4.291 3.446-3.554 2.967-2.581 5.772-7.349l2.5 2.789c-1.847-3.2.393-7.033 2.36-10.185-.658-1.549-1.231-2.9-1.608-3.547l3.189-2.333c.4.7.094 2.172-.4 3.969.214-.355.419-.711.573-1.033 1.18 1.576.616 4.056-.171 6.457-.4-.838-.8-1.737-1.2-2.635a23.552 23.552 0 0 0-1.257 8.019 2.5 2.5 0 0 1 1.043-1.173 4.04 4.04 0 0 0-.222 1.77c.12.449.445-.5.949-1.6l.812 4.767.145-1.9 4.258 2.95c2.941-4.841 5.455-11.948 10.2-13.966-1.129 3.513-.162 5.726-.162 9.883-1.377-4.385-3.677 1.9-6.174 1.033 1.308.449 1.052 2.434.735 3.124l4.361-4.036c-.051 3.393.975 2.534 2.155 3.929-.975-6.7 3.224-4.506 4.994-6.577.145 2.253-.248 4.553-2.454 4.036 2.505 5.029 3.01-7.918 5.455-3.647-.539.067-.829-.282-1.026.865 1.223-2.018 4.31-.456 3.617 1.515l-.53.054c3.566.758 10.834-.054 11.278-5.766.043.738-.359 6.879-.564 8.032l6.054-19.243c-.479 4.9 1.847 16.548-1.06 19.344.855.684 1.915 1.488 3.677-.255-.59-.7-1.548-7.067-.77-7.523 2.257 5.431 1.556 2.9 4.3 7.523-.889-1.039-.043-8.73 1.334-8.5-.2 1.153.231 7.583-.257 8.388l3.292-7.57c-.838 1.368-.051 6.39.744 8.515-.376-1.475 2.95.107 3.839-.65l-1.471-1.73c3.874 1.1 3.643-10.641 7.465-10.279-.436 1.562-.992 9.595.966 10.527.821-3.875 3.643-18.613 6.977-21.623l.684 2.206 2.557-2.541c-1.531 5.827-5.866 18.1-8.269 22.877 1.471 1.737.445 2.6 2.6 2.38a2.473 2.473 0 0 1-1.761 3.279l5.045 1.287c-.3-4.512 3.771-4.559 3.514-8.314l-5.378 4.727c-.291-4.5 2.959-12.826 6.524-12.062.932 1.784-.556 8.026-.453 9.528.436-1.556 3.335-2.99 3.677-1.9l-1.479 2.427c2.009 1.676 3.138-6.008 5.592-1.73.821.282 2.54 5.78 2.642 3.118-1.419-5.136-1.924-21.04-1.094-24.909.291.342 4.387 4.874 5.37 7.4 1.411 4.023-1.89 9.635-.676 13.081a7.777 7.777 0 0 1 1.052-3.245c.881 1.046-.3 3.815 1.573 3.245.239-4.573 3.814.349.821-3.875 1.813-1.321 1.967.919 4.113.7-.727-2.95 1.779-10.071 3.6-11.392a10.117 10.117 0 0 0 .556 3.359c3.762.382 5.815 2.434 9.32 2.441.342 1.106 2.052 2.427 1.36 4.4.5-.811.932-2.367 2.009-2.488 2.155 3.936-2.4.644-.727 5.371.094-2.655 2.736-3.688 4.25-5.364-.539-4.1-3.566-.751-5.088.925-.094-5.659 2.5-11.613 6.122-14.261 2.89-1.435 1.317 3.647 1.813 2.829 5.481.939 4.506-9.923 9.107-5.88 1.856 3.587.2 7.168.633 9.769-2.351 1.388-3.677-2.253-5.276-2.092l2 1.683c-.735 1.207-2.3 2.125-3.181 1.093 1.556 3.225 9.252.536 13.519 3.487.727-1.22 2-2.481 1.368-3.922l-1.334.51c-1.274-2.89 2.454-4.043.744-5.377 1.753-2.065 3.711-5.3 6.259-3.674l.539 4.1c-.068-1.2-1.685-2.434-2.377-1.173 1.026-1.83 3.959 5.525 5.028.134L405.66 13c1.761-2.085 3.916-6.47 6.174-5.2-1.077-4.05-.5.469-2.172-4.264 1.471 5.9-5.72-.194-3.412 5.994-1.71-5.5-2.856-2.306-5.062-6.986.094 1.348.8 2.581-1.086 1.931a7.386 7.386 0 0 1-.393 1.2.84.84 0 0 1-.128-.1l.1.161c-.077.2-.086.248.043.054a5.147 5.147 0 0 1 .983 2.052c-.881 3.124-3.865 3.051-4.848 4.673-1.12-.63.445-1.556-.188-3l-1.471 2.42c-.188-3.01-3.027-4.975-.436-6.765l-2.364-.107c-1.411-1.676-3.335-2.327-4.489-1.053-1.12-.644-2.762 3.359-1.83.992l-3.677 1.9-.043-.758c-3.66-.342-7.439 5.062-11.7-.335-1.214.771-2.471 1.716-4.54.878l-.445-2.6c-1.565.925-4.78-2.561-5.413.161-1.813-6.993-7.687-1.455-10.483-2.675l-.051 3.406c-1.915-.174-3.728.8-6.08 2.192l.188 3c-2.009 2.494-5.284-2.085-8.517-1.75.205-1.147 1.026-.858 1.616-.168-3.968-6.752-8.08 5.015-11.655.1-.864 1.106-1.5.738-2.121-.007a.313.313 0 0 0 .214-.161.86.86 0 0 0-.359-.034c-.393-.516-.8-1.113-1.24-1.589a6.357 6.357 0 0 0 1.043 1.6 5.717 5.717 0 0 0-2.676 1.214l-.47-3.225c-.086.04-.154.034-.231.094-1-1.187-.77 1.535-.205 3.956a7.2 7.2 0 0 0-1.3 1.965c-.881-5.21-2.6 1.777-3.771-3.768-.633 2.715-5 2.085-5.447 7.791-.051-.738-.351-1.093.188-1.14-1.129-.644-2.249-1.281-3.224.335l-.539-4.1-2.351 5.545c-1.522-2.488-2.163-3.936-.735-7.107-3.48 4.895-2.847 1.857-5.8 6.7l.1-2.655c-1.077.107-2.745 3.681-3.429 1.5-2.5-5.022-11.954-.583-18.23-5.216 1.325 7.8-2.933-3.473-3.087 2.588-.385-1.844-1.266-2.883-.291-4.5-3.13 1.851-4.8-2.883-6.9 2.246-.393-1.857.633-2.722.3-3.815-.257.4-.983 1.616-1.325.516s.436-1.556.923-2.367c-3.232.342-3.463 6.041-3.617 11.392-1.676-2.514-2.488-2.152-3.617 1.368-.6-1.743-1.573-3.56.428-4.211-1.137-.248-6.943-2.5-6.995 1.783-.368-1.079-1.582-.3-1.873.2-2.54-.235-2.762-.617-5.25-.188l.7.691c-.9 5.183-2.052 1.173-4.045 1.817l.043-.53c-4.652-3.688-1.958 1.8-6.558-2.407l.3 3.212c-.316 6.919-4.087-4.043-6.678-1.375l.975 1.83c-1.4 2.38-4.164-9.367-5.618-10.218-.325-.6.479-.972.915-1.415-3.848-4.05-.428 4.211-3.232 5.216-.556-2.266.581-5.78-1.325-6.189-.966-1.824-5.387 7.429-8.038 3.1.6 1.75 1.189 3.487-.1 4.821-1.992.644-5.524-6.571-7.251-1.033a2.988 2.988 0 0 1-.385-1.368c-1.513 1.435-4.942 2.414-5.823 5.411-1.59-11.09-9.449 5.5-9.577-4.747l-4.711.59.111-1.046c-3.027-.65-4.053 1.817-5.079 4.284-.71-.691-.214-1.649-.162-2.186-4.438-2.025-4.874-1.582-8.491 3.554l-.428-3.319c-.975 1.938-6.456-5.149-10.714-1.234a3.146 3.146 0 0 1 .445-1.5c-4.8 3.942-11.774-9.105-13.373 3.01l-3.164 3.01c4.164.905-.539 5.263 1.2 7.255-1.616.724-4.275-3.614-2.275-4.251l.325.6c.641-6.316-5.19-2.186-5.148-6.484-8.166.389-16.187-3.031-23.839-3.225l.958 4.895-2.668-.255c-.718-1.133-1.009-3.828.906-3.641-1.043-2.769-3.164 2.353-3.2 3.426-3.754-1.958 1.368-5.739.222-5.84l-1.548.375.359.57c-1.223 2.018-1.308 4.144-3.6 3.922-1.462-.966-.787-3.017-1.36-3.2 0-.349-.2-.51-.881-.134l-3.369-.389 1.411 3.862c-1.462 1.918-3.164-.174-1.548 4.2-2.381-6.728-12.583-2.286-14.011-4.372-2.044 2.836-4.1 2.809-6.661 2.494.65.8 1.094 5.149-1.112 4.633.658-8.985-4.1-3.855-5.977-10.305 1.659 4.271-6.242 1.12-3.651 7.181-1.846-.711-.164-3.359-1.59-5.459-4.318 3.52-9.671-2.172-15.058-.945-.06 1.18.864 2.97-.265 4.74L45.81 10.83c-1.06.59-.881 6.812-2.89 2.736.291.992.727 2.481.017 2.87-10.68-5.646-21.565 4.908-32.484-5.786 1.488 2.273.522 2.508-.59 2.6.735.543.034 2.917.2 4.512l-4.57-4.391C4.741 17.809.67 13.713.26 17.957l1.419-.778C-.142 22.208 4.5 28.282 4.322 34.706c2.035-5.706 5.729 8.374 9.089.194.787 1.3-.624 2.079-.2 3.56.847-2.756 1.907-3.346 3.9-2.125l-.214.677c5.541-.717 7.961 1.971 14.228 3.721l-.513-3.171c1.342.409 1.642 1.4 2.283 2.193 1.462-4.828-3.771-.235-2.446-5.558 1.873 6.443 9.449.007 10.757 7.342 2.069.02-.658-3.674 1.4-3.647l.581 1.978.479-2.568c1.36.409 2.078 2.89 2.155 4.573-.333-.194-.923.483-1.274.63 1.787 2.32 4.925-.845 5.541-.087L48.1 41.209c5.592-1.918 12.5.63 17.871-3.46l-.436-1.5c4.113-2.816 3.352 1.609 7.884.288l-.154.355c.881-1.5 2.086-2.266 3.343-2.105-1.12 1.763 2.215 3.386.735 5.344 4.455-3.017 2.189-2.36 5.079-7.959l.727 2.481c.975-2.26 1.043-3.446 3.309-4.11-1.838 2.152 1.5 3.775-.539 6.618 4.857 5.391 7-5.558 9.32 2.374 2.086-6.906-4.2-3.788-2.984-5.27-1.069-2.239 1.727-5.156 3.232-4.479 1.531.134 2.736 8.777 6.576 8.609-.385-.027-.4.489-.787.463 1.462 1.743 2.779-2.4 4.583.436.923-4.17 2.292.215 2.488-5.1l-3.5 1.261c1.975-1.408 3.754-7.637 7.08-4.653a9.473 9.473 0 0 1-1.847 3.279c.983 1.556 1.83-1.053 2.856.543-.205 5.317-4.267 1.2-6.345 5.27 1.069 2.233 3.993-3.889 3 1.877 1.437-7.328 3.8.885 6.31-4.727l-.12 3.185c.4-.5 1.231-2.011 1.984-1.938l-1.3 4.137c2.044-3.54 4.1 3.037 6.088 1.106-4.224.134-1.009-3.828-2.83-6.135 5.148-4.3 3.13 8.294 8.936 6.712-.778.463-2.993-1.877-1.779-3.366a7.948 7.948 0 0 1 3.318 3.513c3.848-.7-.65-3.265.966-5.237 1.377 3.862 1.873-1.6 3.549-2.856l.06 3.238c4.438 2.032 1.069-6.752 5.071-4.278l-1.608 4.5 2.052-1.18-.368 3.681c2.206-2.749 2.916-2.052 5.13-1.039-.547-2.273.205-5.873 2.155-5.994 1.36 1.911-.7 3.084 2.061 2.595-.6 2.032-1.24 4.579-2.488 1.609-.111 1.053-.59 2.032-.7 3.078 1.471 2.192 3.608.469 4.617.429a1.626 1.626 0 0 1-1.095-.744l3.942-4.519c.641 1.207.162 2.186-.325 3.151.812-.362 1.351-1.851 2.54-2.146-.265 2.635-.154 5.351-1.83 6.6l3.779-2.957c.274 1.14 2.009 3.124 1.531 4.1 2.138 1.522 5.113-5.149 7.952-3.138a2.311 2.311 0 0 1 1.018-1.388c2.642.57 5.036 3.775 8.106.141l1.847 4.7c2.437-1.1-2.5-5.914 1.556-7.731 2.865-1.535 1.137 4.01 2.172 5.31 1.4-2.394 3.822-7.248 6.533-3.44-.864.9-1.556.208-2.377.563m30.176-2.374c-.573.684-1.71 2.789-2.163.885.607-3.715 1.146-1.944 2.163-.885m45.806-8.227c-.419 1.073-1.1.55-1.881-.664.547-.275 1.18-.161 1.881.664M389.61 6.981a.714.714 0 0 0-.06.154c-1.325-1.247-.855-.751.06-.154m2.736 1.375A1.641 1.641 0 0 0 392.457 7c-.171.825-.778.885-1.479.664.205.845.573 1.428 1.368.691m-291.162 4.05l.539.838c-1.18.945-.855.1-.539-.838" class="cls-1" transform="translate(1.963 3.655)"/>
            <path id="패스_2428" d="M30.645 7.288a7.71 7.71 0 0 1-.282-1.757 1.625 1.625 0 0 0 .282 1.757" class="cls-1" transform="translate(228.212 31.556)"/>
            <path id="패스_2429" d="M19.953 7.016c-.034-.027-.06-.013-.094-.034a3.334 3.334 0 0 0-.086.583z" class="cls-1" transform="translate(149.301 39.833)"/>
            <path id="패스_2430" d="M42.226 7.356a3.552 3.552 0 0 1-1.1-1.663 1.454 1.454 0 0 0 1.1 1.663" class="cls-1" transform="translate(310.501 32.48)"/>
            <path id="패스_2431" d="M49.309.951l-1.727.858c.838-.168 1.154.536 1.582 1.046-.051-.758-.393-1.851.145-1.9" class="cls-1" transform="translate(359.28 5.427)"/>
            <path id="패스_2432" d="M50.082 5.581c.248-.4.53-.047.778-.456l-.086-1.5c-1.086.114-1.821 1.328-.693 1.958" class="cls-1" transform="translate(373.89 20.671)"/>
            <path id="패스_2433" d="M47.991 3.632c.18 2.715 1.248 1.784 2.463 1.267a.333.333 0 0 1-.214 0c.3-3.808-.983-2.534-2.249-1.267" class="cls-1" transform="translate(362.368 13.48)"/>
            <path id="패스_2434" d="M48.312 3.434a1.661 1.661 0 0 1 1.12-.08c.128-1.529-.453-.315-1.12.08" class="cls-1" transform="translate(364.792 14.852)"/>
            <path id="패스_2435" d="M47.519 4.313c.59.7.308-3.48.65-2.374.59-3.473-3.779 4.224-.65 2.374" class="cls-1" transform="translate(350.194 5.861)"/>
            <path id="패스_2436" d="M49.12 6.739l-.487-3.352-.642 2.713z" class="cls-1" transform="translate(362.367 19.324)"/>
            <path id="패스_2437" d="M47 4l1.958.912a1.3 1.3 0 0 1 .5-1.153C48.254 3.653 46.937 3 47 4" class="cls-1" transform="translate(354.846 19.695)"/>
            <path id="패스_2438" d="M47.283 3.982a1.491 1.491 0 0 0 1.556-.57 3.03 3.03 0 0 0-1.556.57" class="cls-1" transform="translate(357.022 19.467)"/>
            <path id="패스_2439" d="M49.543 4.834l-.581-.7-1.377-.234z" class="cls-1" transform="translate(359.3 22.264)"/>
            <path id="패스_2440" d="M46.443 3.466l-2.1.979c-.209 1.155.381 1.855 1.168 1.395.5-.811 1.274-1.261.932-2.374" class="cls-1" transform="translate(334.485 19.775)"/>
            <path id="패스_2441" d="M46.178 6.991A6.7 6.7 0 0 1 45.2 4.45v4.164z" class="cls-1" transform="translate(341.317 25.389)"/>
            <path id="패스_2442" d="M45.911 4.983c-.188 1.153-3.027 3.346-.342 3.057.2-1.147 2.309-2.125.342-3.057" class="cls-1" transform="translate(335.41 28.429)"/>
            <path id="패스_2443" d="M40.847 10.1l.539-.06-.18-6.826z" class="cls-1" transform="translate(308.425 18.346)"/>
            <path id="패스_2444" d="M37.842 11.186c2.54 1.609.53-4.217 2.839-2.2.556-1.623-1.89-1.649-1.3-3.051-1.5 1.716-2.309.764-1.539 5.25" class="cls-1" transform="translate(283.504 33.866)"/>
            <path id="패스_2445" d="M37.761 6.826a7.139 7.139 0 0 0 .752-1.046 3.31 3.31 0 0 0-.752 1.046" class="cls-1" transform="translate(285.124 32.976)"/>
            <path id="패스_2446" d="M1.955 3.216L.321 1.808 1.4 4.088z" class="cls-1" transform="translate(2.427 10.319)"/>
            <path id="패스_2447" d="M1.36 6.475L.915 2.13 0 6.072c.359-.194 1.069-.577 1.36.4" class="cls-1" transform="translate(0 12.153)"/>
            <path id="패스_2448" d="M27.206 9.719l.111-1.046c-.274-1.133-.65-1.214-1.411-1.381z" class="cls-1" transform="translate(195.61 41.602)"/>
            <path id="패스_2449" d="M23.828 10.468l.376.087-.761-3.929z" class="cls-1" transform="translate(177.012 37.803)"/>
            <path id="패스_2450" d="M21.386 9.819c.752.154 1.625-.731 2.377-.57-1.625.724-2.659-4.338-2.377.57" class="cls-1" transform="translate(161.13 43.648)"/>
        </g>
    </g>
</svg>
