<svg xmlns="http://www.w3.org/2000/svg" width="377.567" height="51.812" viewBox="0 0 377.567 51.812">
    <defs>
        <clipPath id="clip-path">
            <path id="사각형_1921" d="M0 0H377.567V51.812H0z" class="cls-1"/>
        </clipPath>
        <style>
            .cls-1{fill:#60e7a3}
        </style>
    </defs>
    <g id="line">
        <g id="그룹_1471" clip-path="url(#clip-path)">
            <path id="패스_2370" d="M57.084 3.831c.556.231.324-2.46.4-2.942-.926.6-.37 3.642-.4 2.942" class="cls-1" transform="translate(319.808 4.823)"/>
            <path id="패스_2371" d="M56.584 3.243l.152-1.1-1.323 2.7z" class="cls-1" transform="translate(311.185 11.631)"/>
            <path id="패스_2372" d="M54.29 3.858c.867 4.574 3.109-.777 4.657.835l.271 1.041.642-3.694c-1.852.6-4.241 3.083-5.57 1.818" class="cls-1" transform="translate(304.879 11.066)"/>
            <path id="패스_2373" d="M53.678.788c.3 1.779-.972 1.548 1.078.546a3.872 3.872 0 0 1-.205-.45 1.967 1.967 0 0 1-.873-.1" class="cls-1" transform="translate(300.78 4.276)"/>
            <path id="패스_2374" d="M53.837 1.388c.906-.135-.609-1.49 0 0" class="cls-1" transform="translate(301.501 3.771)"/>
            <path id="패스_2375" d="M53.595 4.056l1.171-1.606c-.258-1.05-1.324-1.278-.94-2.05-1.211.886-.946 1.933-.232 3.655" class="cls-1" transform="translate(297.569 2.177)"/>
            <path id="패스_2376" d="M52.916 2.337l.609-.681c-.112-.443-.278-.591-.609.681" class="cls-1" transform="translate(297.163 7.255)"/>
            <path id="패스_2377" d="M54.3 1.162L53.008 2.6c.179.739.218 2.223.6-.52-.093 1.355.146.051.695-.919" class="cls-1" transform="translate(297.679 6.304)"/>
            <path id="패스_2378" d="M53.317 1.347c.681.989 1.555 1.606.377 3.212 2.269-.662 1.9-3.88-.377-3.212" class="cls-1" transform="translate(299.414 6.813)"/>
            <path id="패스_2379" d="M54.235 3.516l.913 1.33L55.9 3.3c-.377.764-1.74-1.227-1.667.212" class="cls-1" transform="translate(304.556 16.155)"/>
            <path id="패스_2380" d="M51.956.614c-.06.976.437 2.6.542 3.841l.86-1.131a4.528 4.528 0 0 1-1.4-2.711" class="cls-1" transform="translate(291.745 3.332)"/>
            <path id="패스_2381" d="M53.135 1.212L51.838 2.9c1.178.186 1.383-.617 1.3-1.689" class="cls-1" transform="translate(291.109 6.575)"/>
            <path id="패스_2382" d="M53.247 5.279l2.124-3.546-2.54 3.6z" class="cls-1" transform="translate(296.681 9.403)"/>
            <path id="패스_2383" d="M51.674 2.518L52.4.251l-1.29 3.43z" class="cls-1" transform="translate(286.993 1.362)"/>
            <path id="패스_2384" d="M52.866 4.317c.529-1.876-.8-3.154-.225-4.317-.906.347-1.661 1.966-2.341 3.411.734-.809 1.528-.617 2.567.906" class="cls-1" transform="translate(282.466 .002)"/>
            <path id="패스_2385" d="M50.126 2.651a12.619 12.619 0 0 0 1.145-2.12 6.169 6.169 0 0 0-1.145 2.12" class="cls-1" transform="translate(281.495 2.882)"/>
            <path id="패스_2386" d="M52.407 3.747c-.112-.591-.324-2.133-1.072-2.775l.549 2.736c.159.019.344.026.523.039" class="cls-1" transform="translate(288.284 5.273)"/>
            <path id="패스_2387" d="M52.388 1.6l-.02-.09c-.562-.045-.953-.109-1.118-.135.139.019.483.09 1.138.225" class="cls-1" transform="translate(287.807 7.47)"/>
            <path id="패스_2388" d="M51.629 1.414a.458.458 0 0 0-.132-.006c.053.263.086.353.132.006" class="cls-1" transform="translate(289.194 7.62)"/>
            <path id="패스_2389" d="M53.586 1.9c-.754 1.542-2.349 3.212-.754 5.531.529-1.889-.384-3.212.754-5.531" class="cls-1" transform="translate(292.854 10.334)"/>
            <path id="패스_2390" d="M51.621 3.571l1.409.61a5.354 5.354 0 0 1 .07-2.543z" class="cls-1" transform="translate(289.89 8.886)"/>
            <path id="패스_2391" d="M51.519 3.008l.675-.88-.523-.228z" class="cls-1" transform="translate(289.316 10.326)"/>
            <path id="패스_2392" d="M52.183 1.262a2.462 2.462 0 0 1-1.991 1.51 4.36 4.36 0 0 0 2.421.8c.106-.861.43-2.415-.43-2.306" class="cls-1" transform="translate(281.865 6.815)"/>
            <path id="패스_2393" d="M51.057 1.369c-.04.064-.093.1-.132.161.086.231.152.3.132-.161" class="cls-1" transform="translate(285.982 7.427)"/>
            <path id="패스_2394" d="M49.079 1.5c.046.148.079.334.126.495l.02-.475z" class="cls-1" transform="translate(275.615 8.148)"/>
            <path id="패스_2395" d="M50.721 2.546c.609.52.966-.154 1.3-1.008a2.979 2.979 0 0 1-1.436.495c-.046.392-.053.649.139.514" class="cls-1" transform="translate(283.903 8.343)"/>
            <path id="패스_2396" d="M49.818 1.234a9.577 9.577 0 0 0 1.065 1.5c-.318-.867-.959-2.21-1.065-1.5" class="cls-1" transform="translate(279.765 5.602)"/>
            <path id="패스_2397" d="M50.949 1.664a.65.65 0 0 1 .093-.128c-.212-.585-.179-.3-.093.128" class="cls-1" transform="translate(285.746 6.541)"/>
            <path id="패스_2398" d="M51.55 1.277a7.522 7.522 0 0 0-.774 1.683 3.31 3.31 0 0 0 .986-.925 6.483 6.483 0 0 1-.212-.758" class="cls-1" transform="translate(285.145 6.928)"/>
            <path id="패스_2399" d="M50.1 18.73c.073-2.544 1.627-4.914 3.03-2.2 1.323-1.927.337-10.278-.893-14.947a4.719 4.719 0 0 1-1.383 3.655c.5 1.387 3.109 3.212 1.971 5.531-1.813 1.33-1.508-.88-2.421-2.216.8 3.16-2.276 4.638-1.819 9.295l1.588-1.657c.04.719-.523 1.882-.073 2.544" class="cls-1" transform="translate(272.588 8.566)"/>
            <path id="패스_2400" d="M51.721 4.777l.562-.321c-.648-.437-1.125-1.445-2.011-3.424A5.279 5.279 0 0 0 49.1 4.077l2.812.321z" class="cls-1" transform="translate(275.738 5.599)"/>
            <path id="패스_2401" d="M52.142 2.98c-.41 2.775-1.766 3.963-.887 6.95 1.667-.212 1.138-2.325 2.124-3.539-2.686.719.754-1.548-1.217-3.1a3.219 3.219 0 0 1 1.455-.745A7.441 7.441 0 0 1 52.2 1.3l.066.173.013-.006v.045c.119.34.159.546.026.353a.09.09 0 0 1-.06.051 9.492 9.492 0 0 1-.106 1.053c-.787-.565-.132-.719.106-1.053a4.006 4.006 0 0 0 .033-.4l-.013-.039-2.683 1.541c.582.379 1.3.289 2.56-.039" class="cls-1" transform="translate(278.44 7.036)"/>
            <path id="패스_2402" d="M52.245 4.237a2.14 2.14 0 0 1-.1-.642c-.165.34-.232.578.1.642" class="cls-1" transform="translate(292.071 19.499)"/>
            <path id="패스_2403" d="M53.078 9.088c.192-.392.344-1.5.979-1.22.569.822.02 1.33.06 2.235.377-.739 1.323-2 .1-3.334l-.185.379c-1.1-.938-2.54-4.374-2.355-4.753a37.917 37.917 0 0 0 1.4 6.693" class="cls-1" transform="translate(290.107 12.991)"/>
            <path id="패스_2404" d="M52.809 2.608L50.573 4l1.178 2.377-.073-1.437c1.283.546.986-1.22 1.131-2.332" class="cls-1" transform="translate(284.005 14.146)"/>
            <path id="패스_2405" d="M49.875 3.762l.264-2.93-1.25 4.143z" class="cls-1" transform="translate(274.547 4.516)"/>
            <path id="패스_2406" d="M49.175 3.5l.073-2.548-.754 1.542z" class="cls-1" transform="translate(272.329 5.167)"/>
            <path id="패스_2407" d="M24.281 6.561l-.662.732a2.268 2.268 0 0 0 .662-.732" class="cls-1" transform="translate(132.638 35.585)"/>
            <path id="패스_2408" d="M24.537 7.637l.106-1.253c-.218.694-.3 1.2-.106 1.253" class="cls-1" transform="translate(137.165 34.625)"/>
            <path id="패스_2409" d="M39.424 5.085c-.992-2.364-2.117-6.032-1.965-3.173l.331 2.781c.668-.507 1.191-.206 1.634.392" class="cls-1" transform="translate(210.281 4.712)"/>
            <path id="패스_2410" d="M30.342 5.751c.1.27.192.559.291.841.225-.957.43-1.844.622-2.672-.278.578-.589 1.188-.913 1.831" class="cls-1" transform="translate(170.393 21.262)"/>
            <path id="패스_2411" d="M31.356 7.5l-1.29-1.779a5.932 5.932 0 0 0 1.29 1.779" class="cls-1" transform="translate(168.843 31.046)"/>
            <path id="패스_2412" d="M20.4 7.069l-.734 2.846c1.2-.032.655-1.452.734-2.846" class="cls-1" transform="translate(110.417 38.341)"/>
            <path id="패스_2413" d="M45.847 2.962A4 4 0 0 0 43.756 1.3c1.019 1.587 1.852 3.983 2.091 1.657" class="cls-1" transform="translate(245.722 7.079)"/>
            <path id="패스_2414" d="M24.409 1.954a2.543 2.543 0 0 0-.542 1.7 2.051 2.051 0 0 0 .542-1.7" class="cls-1" transform="translate(134.018 10.599)"/>
            <path id="패스_2415" d="M43.393 2.329a6.675 6.675 0 0 0 .443.649 2.322 2.322 0 0 1 1.958-.687c-.754-1.182-1.614-1.908-2.4.039" class="cls-1" transform="translate(243.684 6.094)"/>
            <path id="패스_2416" d="M5.627 7.161a3.191 3.191 0 0 1-.218-.328c-.02.373.079.392.218.328" class="cls-1" transform="translate(30.362 37.061)"/>
            <path id="패스_2417" d="M1.212 2.848a2.77 2.77 0 0 1 1.131-.231c-.205-.186-.549-.167-1.131.231" class="cls-1" transform="translate(6.806 13.578)"/>
            <path id="패스_2418" d="M46.816 1.34c.622-.186.1-.308 0 0" class="cls-1" transform="translate(262.907 6.248)"/>
            <path id="패스_2419" d="M47.49 2.89a3.459 3.459 0 0 0-.232 1.355 4.334 4.334 0 0 1 .232-1.355" class="cls-1" transform="translate(265.389 15.676)"/>
            <path id="패스_2420" d="M42.537 4.027l-.053-.006c.192.54.159.437.053.006" class="cls-1" transform="translate(238.579 21.81)"/>
            <path id="패스_2421" d="M47.645 2.065a3.024 3.024 0 0 0-.807-.816 3.648 3.648 0 0 0 .807.816" class="cls-1" transform="translate(263.03 6.776)"/>
            <path id="패스_2422" d="M46.938 1.387a5.239 5.239 0 0 0 .549.263c.066-.462 0-.758-.549-.263" class="cls-1" transform="translate(263.592 6.136)"/>
            <path id="패스_2423" d="M46.686 1.341a1.567 1.567 0 0 1 1.006.276c-.126-.186-.179-.34-.146-.437a6.332 6.332 0 0 1-.86.161" class="cls-1" transform="translate(262.176 6.402)"/>
            <path id="패스_2424" d="M13.519 5.851c-.04-.09-.093-.141-.139-.263-.609 1.169-.337.976.139.263" class="cls-1" transform="translate(73.167 30.308)"/>
            <path id="패스_2425" d="M35.376 6.254c.026-.026.04-.1.066-.135l-.086-.1z" class="cls-1" transform="translate(198.55 32.668)"/>
            <path id="패스_2426" d="M35.027 15.135c.906-3.482 1.449-3.058 2.177-2.332l-.84-8.029z" class="cls-1" transform="translate(196.703 25.894)"/>
            <path id="패스_2427" d="M144.007 39.61l1.593 2.49c-1.833 4.143-3.215 2.736-1.707 6.244.112-8.73 6.067-.964 6.179-9.68l1.052 1.818c-.3-.077-.337.437-.628.347 2.057 4.156 1.409-6.321 4.009-5.107a2.358 2.358 0 0 1 .953 2.955l1.978-2.178c.582.161.463 1.677-.119 1.516l3.05-.732-.02.257a32.948 32.948 0 0 1 1.852-4.407c.794 1.246-.377.931-.165 2.017l1.667-2.133c.721 2.248-.655 4.458-1.833 4.15 1.694 8.691 1.376-2.21 4.856 2.839l-1.581 1.124c1.092 4.933 2.315 3.128 4.168 6.192-.45-1.606-3.725-7.734-1.912-9.931.529.655 1.217.964 2.183-.809.046 3.1 1.006 2.332 2.216 2.139l-.026 4.111c1.29-1.2 1.164-3.289 1.912-5.152 1.462.385 1.806 3.565 2.183 6.244 2.349.63-1.68-5.081 1.078-5.89 1.965 1.548 3.314-.148 5.6-2.634 1.383 1.4-.205 2.518.3 3.687l1.171-3.289c.3.071.212 1.079.172 1.587 1-1.278.026-4.1 1.614-5.242.377-4.529 3.361 6.578 5.279 1.413.5 1.163-.205 2.524-.033 4.111 2.666-3.4 2.3-2.473 4.466-7.04l1.932 2.672c-1.429-3.064.3-6.738 1.826-9.757-.509-1.484-.953-2.781-1.244-3.4L200.5 17.9c.311.668.073 2.081-.311 3.8.165-.34.324-.681.443-.989.913 1.51.476 3.886-.132 6.186-.311-.8-.622-1.664-.926-2.524a27.528 27.528 0 0 0-.973 7.683 2.3 2.3 0 0 1 .807-1.124 4.74 4.74 0 0 0-.172 1.7c.093.43.344-.482.734-1.529l.628 4.567.112-1.818 3.295 2.826c2.276-4.638 4.221-11.447 7.893-13.38-.873 3.366-.126 5.486-.126 9.468-1.065-4.2-2.845 1.824-4.777.989 1.012.43.814 2.332.569 2.993l3.374-3.867c-.04 3.25.754 2.428 1.667 3.764-.754-6.424 2.494-4.317 3.864-6.3.112 2.158-.192 4.362-1.9 3.867 1.938 4.818 2.329-7.586 4.221-3.494-.417.064-.642-.27-.794.829.946-1.933 3.334-.437 2.8 1.452l-.41.051c2.759.726 8.382-.051 8.726-5.524.033.707-.278 6.591-.437 7.7l4.684-18.435c-.37 4.7 1.429 15.853-.82 18.532.662.655 1.482 1.426 2.845-.244-.456-.668-1.2-6.77-.6-7.207 1.747 5.2 1.2 2.781 3.328 7.207-.688-1-.033-8.363 1.032-8.145-.152 1.1.179 7.265-.2 8.036l2.547-7.252c-.648 1.31-.04 6.122.576 8.158-.291-1.413 2.282.1 2.97-.623l-1.137-1.662c3 1.053 2.818-10.194 5.776-9.847-.337 1.5-.767 9.192.748 10.085.635-3.713 2.818-17.832 5.4-20.716l.529 2.113 1.978-2.435a187.182 187.182 0 0 1-6.4 21.917c1.138 1.664.344 2.492 2.011 2.28a2.438 2.438 0 0 1-1.363 3.141l3.9 1.233c-.232-4.323 2.918-4.368 2.719-7.965l-4.161 4.529c-.225-4.31 2.289-12.288 5.048-11.556.721 1.709-.43 7.689-.351 9.128.337-1.49 2.58-2.865 2.845-1.818l-1.144 2.325c1.555 1.606 2.428-5.755 4.327-1.657.635.27 1.965 5.537 2.044 2.987-1.1-4.92-1.489-20.157-.847-23.863.225.328 3.394 4.67 4.155 7.092 1.092 3.854-1.462 9.231-.523 12.532a8.712 8.712 0 0 1 .814-3.109c.681 1-.232 3.655 1.217 3.109.185-4.381 2.951.334.635-3.713 1.4-1.265 1.522.88 3.182.674-.562-2.826 1.376-9.648 2.785-10.914a11.8 11.8 0 0 0 .43 3.218c2.911.366 4.5 2.332 7.211 2.338.265 1.06 1.588 2.325 1.052 4.214.384-.777.721-2.267 1.555-2.383 1.667 3.771-1.859.617-.562 5.145.073-2.544 2.117-3.533 3.288-5.139-.417-3.925-2.759-.719-3.936.886C288.2 22 290.2 16.3 293.007 13.761c2.236-1.375 1.019 3.494 1.4 2.711 4.241.9 3.487-9.507 7.046-5.633 1.436 3.437.152 6.867.49 9.359-1.819 1.33-2.845-2.158-4.082-2l1.548 1.612c-.569 1.156-1.78 2.036-2.461 1.047 1.2 3.09 7.158.514 10.46 3.34.562-1.169 1.548-2.377 1.059-3.758l-1.032.488c-.986-2.769 1.9-3.873.576-5.152 1.356-1.978 2.871-5.075 4.843-3.52l.417 3.931c-.053-1.15-1.3-2.332-1.839-1.124.794-1.754 3.063 5.293 3.89.128l-1.4-2.711c1.363-2 3.03-6.2 4.777-4.978-.834-3.88-.39.45-1.68-4.085 1.138 5.653-4.426-.186-2.64 5.743-1.323-5.267-2.21-2.21-3.917-6.693.073 1.291.622 2.473-.84 1.85a8.309 8.309 0 0 1-.3 1.15.7.7 0 0 1-.1-.1l.079.154c-.06.193-.066.238.033.051a5.5 5.5 0 0 1 .761 1.966c-.681 2.993-2.99 2.923-3.751 4.477-.867-.6.344-1.49-.146-2.871l-1.138 2.319c-.146-2.884-2.342-4.766-.337-6.481l-1.833-.1c-1.092-1.606-2.58-2.229-3.473-1.008-.867-.617-2.137 3.218-1.416.951l-2.851 1.82-.033-.726c-2.832-.328-5.756 4.85-9.05-.321-.939.739-1.912 1.644-3.513.841l-.344-2.492c-1.211.886-3.7-2.454-4.188.154-1.4-6.7-5.948-1.394-8.111-2.563l-.04 3.263c-1.482-.167-2.884.771-4.7 2.1l.146 2.878c-1.555 2.39-4.089-2-6.589-1.677.159-1.1.794-.822 1.25-.161-3.07-6.468-6.252 4.8-9.017.1-.668 1.06-1.158.707-1.641-.006a.253.253 0 0 0 .165-.154.544.544 0 0 0-.278-.032c-.3-.495-.622-1.066-.959-1.522a6.365 6.365 0 0 0 .807 1.535 4.061 4.061 0 0 0-2.071 1.163l-.364-3.09c-.066.039-.119.032-.179.09-.774-1.137-.6 1.471-.159 3.79a7.207 7.207 0 0 0-1.006 1.882c-.681-4.991-2.011 1.7-2.918-3.61-.49 2.6-3.87 2-4.214 7.464-.04-.707-.271-1.047.146-1.092-.873-.617-1.74-1.227-2.494.321l-.417-3.931-1.819 5.312c-1.178-2.383-1.674-3.771-.569-6.809-2.693 4.689-2.2 1.779-4.486 6.424l.079-2.544c-.834.1-2.124 3.527-2.653 1.432-1.932-4.811-9.249-.559-14.1-5 1.025 7.477-2.269-3.327-2.388 2.479-.3-1.766-.979-2.762-.225-4.31-2.421 1.773-3.711-2.762-5.339 2.152-.3-1.779.49-2.608.232-3.655-.2.385-.761 1.548-1.025.495s.337-1.49.715-2.267c-2.5.328-2.679 5.788-2.8 10.914-1.3-2.409-1.925-2.062-2.8 1.31-.463-1.67-1.217-3.411.331-4.034-.88-.238-5.372-2.4-5.412 1.709-.284-1.034-1.224-.283-1.449.193-1.965-.225-2.137-.591-4.062-.18l.543.662c-.695 4.965-1.588 1.124-3.129 1.741l.033-.507c-3.6-3.533-1.515 1.728-5.074-2.306l.232 3.077c-.245 6.629-3.162-3.873-5.167-1.317l.754 1.754c-1.085 2.28-3.222-8.974-4.347-9.789-.251-.572.37-.931.708-1.355-2.977-3.88-.331 4.034-2.5 5-.43-2.171.45-5.537-1.025-5.929-.748-1.747-4.168 7.117-6.219 2.968.463 1.677.92 3.34-.079 4.618-1.541.617-4.274-6.3-5.61-.989a3.4 3.4 0 0 1-.3-1.31c-1.171 1.375-3.824 2.312-4.505 5.184-1.231-10.624-7.31 5.267-7.41-4.548l-3.645.565.086-1c-2.342-.623-3.136 1.741-3.93 4.1-.549-.662-.165-1.58-.126-2.094-3.434-1.94-3.771-1.516-6.569 3.4l-.331-3.18c-.754 1.856-4.995-4.933-8.29-1.182a3.564 3.564 0 0 1 .344-1.432c-3.711 3.777-9.11-8.723-10.347 2.884l-2.448 2.884c3.222.867-.417 5.042.926 6.95-1.25.694-3.308-3.462-1.76-4.073l.251.578c.5-6.051-4.016-2.094-3.983-6.212-6.318.373-12.524-2.9-18.445-3.09l.741 4.689-2.064-.244c-.556-1.086-.781-3.668.7-3.488-.807-2.653-2.448 2.255-2.474 3.282-2.9-1.876 1.059-5.5.172-5.595l-1.2.36.278.546c-.946 1.933-1.012 3.97-2.785 3.758-1.131-.925-.609-2.891-1.052-3.064 0-.334-.152-.488-.681-.128l-2.607-.373 1.092 3.7c-1.131 1.837-2.448-.167-1.2 4.021-1.846-6.462-9.738-2.21-10.843-4.207-1.581 2.717-3.176 2.691-5.154 2.39.5.764.847 4.933-.86 4.439.509-8.607-3.169-3.694-4.624-9.873 1.283 4.092-4.829 1.073-2.825 6.88-1.429-.681-.126-3.218-1.231-5.229-3.341 3.372-7.482-2.081-11.65-.906-.046 1.131.668 2.846-.205 4.541L35.5 10.4c-.82.565-.681 6.526-2.236 2.621.225.951.562 2.377.013 2.749-8.263-5.409-16.685 4.7-25.133-5.543 1.151 2.178.4 2.4-.456 2.492.569.52.026 2.794.152 4.323l-3.531-4.206C3.727 17.089.578 13.164.26 17.23l1.1-.745C-.051 21.3 3.541 27.122 3.4 33.276c1.575-5.466 4.433 8.023 7.033.186.609 1.246-.483 1.991-.152 3.411.655-2.64 1.475-3.205 3.017-2.036l-.165.649c4.287-.687 6.159 1.889 11.009 3.565l-.4-3.038c1.039.392 1.27 1.343 1.766 2.1 1.131-4.625-2.918-.225-1.892-5.325 1.449 6.173 7.31.006 8.323 7.034 1.6.019-.509-3.52 1.085-3.494l.45 1.895.37-2.46c1.052.392 1.608 2.769 1.667 4.381-.258-.186-.714.462-.986.6 1.383 2.223 3.811-.809 4.287-.084l-1.541-1.156c4.327-1.837 9.672.6 13.827-3.315l-.337-1.432c3.182-2.7 2.593 1.542 6.1.276l-.119.34c.681-1.439 1.614-2.171 2.587-2.017-.867 1.689 1.713 3.244.569 5.12 3.447-2.891 1.694-2.261 3.93-7.625l.562 2.377c.754-2.165.807-3.3 2.56-3.938-1.422 2.062 1.164 3.616-.417 6.34 3.758 5.165 5.418-5.325 7.211 2.274 1.614-6.616-3.248-3.629-2.309-5.049-.827-2.145 1.336-4.94 2.5-4.291 1.184.128 2.117 8.408 5.087 8.248-.3-.026-.311.469-.609.443 1.131 1.67 2.15-2.3 3.546.418.715-4 1.773.206 1.925-4.882L81.184 34c1.528-1.349 2.9-7.316 5.478-4.458a9.829 9.829 0 0 1-1.429 3.141c.761 1.49 1.416-1.008 2.21.52-.159 5.094-3.3 1.15-4.909 5.049.827 2.139 3.09-3.726 2.322 1.8 1.111-7.021 2.937.848 4.882-4.529l-.093 3.051c.311-.482.953-1.927 1.535-1.856l-1.006 3.963c1.581-3.392 3.176 2.91 4.71 1.06-3.268.128-.781-3.668-2.19-5.878 3.983-4.124 2.421 7.946 6.913 6.43-.6.443-2.316-1.8-1.376-3.225a7.158 7.158 0 0 1 2.567 3.366c2.977-.668-.5-3.128.748-5.017 1.065 3.7 1.449-1.529 2.746-2.736l.046 3.1c3.434 1.946.827-6.468 3.923-4.1L107.018 38l1.588-1.131-.284 3.527c1.707-2.634 2.256-1.966 3.969-1-.423-2.178.159-5.627 1.667-5.743 1.052 1.831-.542 2.955 1.594 2.486-.463 1.946-.959 4.387-1.925 1.542-.086 1.008-.456 1.946-.542 2.948 1.138 2.1 2.792.45 3.573.411a1.284 1.284 0 0 1-.847-.713L118.86 36a3.6 3.6 0 0 1-.251 3.019c.628-.347 1.045-1.773 1.965-2.056-.205 2.524-.119 5.126-1.416 6.327l2.924-2.833c.212 1.092 1.555 2.993 1.184 3.925 1.654 1.458 3.956-4.933 6.153-3.006a2.253 2.253 0 0 1 .787-1.33c2.044.546 3.9 3.616 6.272.135l1.429 4.5c1.885-1.053-1.932-5.666 1.2-7.406 2.216-1.471.88 3.841 1.68 5.087 1.085-2.293 2.957-6.944 5.054-3.3-.668.861-1.2.2-1.839.54m23.347-2.274c-.443.655-1.323 2.672-1.674.848.47-3.559.887-1.863 1.674-.848m35.441-7.882c-.324 1.028-.853.527-1.455-.636.423-.263.913-.154 1.455.636M301.5 6.715a.789.789 0 0 0-.046.148c-1.025-1.195-.662-.719.046-.148m2.117 1.317a1.91 1.91 0 0 0 .086-1.3c-.132.79-.6.848-1.145.636.159.809.443 1.368 1.059.662M78.346 11.911l.417.8c-.913.906-.662.1-.417-.8" class="cls-1" transform="translate(1.46 3.475)"/>
            <path id="패스_2428" d="M30.55 7.214a9.015 9.015 0 0 1-.218-1.683 1.852 1.852 0 0 0 .218 1.683" class="cls-1" transform="translate(169.728 29.999)"/>
            <path id="패스_2429" d="M19.912 7.014c-.026-.026-.046-.013-.073-.032a3.909 3.909 0 0 0-.066.559z" class="cls-1" transform="translate(111.04 37.869)"/>
            <path id="패스_2430" d="M41.976 7.286a3.549 3.549 0 0 1-.853-1.593c-.013.764.192 1.4.853 1.593" class="cls-1" transform="translate(230.93 30.878)"/>
            <path id="패스_2431" d="M48.918.951l-1.336.822c.648-.161.893.514 1.224 1-.04-.726-.3-1.773.112-1.824" class="cls-1" transform="translate(267.208 5.16)"/>
            <path id="패스_2432" d="M49.954 5.5c.192-.385.41-.045.6-.437l-.064-1.44a1.046 1.046 0 0 0-.536 1.877" class="cls-1" transform="translate(278.074 19.651)"/>
            <path id="패스_2433" d="M47.991 3.579c.139 2.6.966 1.709 1.905 1.214a.211.211 0 0 1-.165 0c.232-3.649-.761-2.428-1.74-1.214" class="cls-1" transform="translate(269.505 12.816)"/>
            <path id="패스_2434" d="M48.312 3.4a1.058 1.058 0 0 1 .867-.077c.1-1.465-.351-.3-.867.077" class="cls-1" transform="translate(271.308 14.119)"/>
            <path id="패스_2435" d="M47.261 4.175c.456.668.238-3.334.5-2.274.456-3.327-2.924 4.047-.5 2.274" class="cls-1" transform="translate(260.451 5.572)"/>
            <path id="패스_2436" d="M48.864 6.6l-.377-3.212-.5 2.6z" class="cls-1" transform="translate(269.504 18.371)"/>
            <path id="패스_2437" d="M47 3.973l1.515.874a1.385 1.385 0 0 1 .39-1.1c-.933-.1-1.952-.719-1.905.231" class="cls-1" transform="translate(263.91 18.723)"/>
            <path id="패스_2438" d="M47.283 3.958a1.052 1.052 0 0 0 1.2-.546 2.078 2.078 0 0 0-1.2.546" class="cls-1" transform="translate(265.529 18.507)"/>
            <path id="패스_2439" d="M49.1 4.8l-.45-.668-1.065-.232z" class="cls-1" transform="translate(267.223 21.166)"/>
            <path id="패스_2440" d="M45.957 3.466L44.33 4.4c-.159 1.1.3 1.779.906 1.336.384-.777.986-1.208.721-2.274" class="cls-1" transform="translate(248.767 18.8)"/>
            <path id="패스_2441" d="M45.957 6.885A7.383 7.383 0 0 1 45.2 4.45v3.989z" class="cls-1" transform="translate(253.848 24.136)"/>
            <path id="패스_2442" d="M45.574 4.983c-.146 1.1-2.342 3.205-.265 2.929.152-1.1 1.786-2.036.265-2.929" class="cls-1" transform="translate(249.455 27.027)"/>
            <path id="패스_2443" d="M40.847 9.812l.417-.058-.139-6.539z" class="cls-1" transform="translate(229.386 17.441)"/>
            <path id="패스_2444" d="M37.775 10.966c1.965 1.542.41-4.04 2.2-2.107.43-1.554-1.462-1.58-1.006-2.923-1.158 1.644-1.786.732-1.191 5.03" class="cls-1" transform="translate(210.851 32.196)"/>
            <path id="패스_2445" d="M37.761 6.782a6.994 6.994 0 0 0 .582-1 3.263 3.263 0 0 0-.582 1" class="cls-1" transform="translate(212.056 31.35)"/>
            <path id="패스_2446" d="M1.585 3.157L.321 1.808l.834 2.184z" class="cls-1" transform="translate(1.805 9.81)"/>
            <path id="패스_2447" d="M1.052 6.292L.708 2.13 0 5.907c.278-.186.827-.552 1.052.385" class="cls-1" transform="translate(0 11.554)"/>
            <path id="패스_2448" d="M26.912 9.617l.086-1c-.212-1.086-.5-1.163-1.092-1.323z" class="cls-1" transform="translate(145.481 39.55)"/>
            <path id="패스_2449" d="M23.741 10.307l.291.084-.589-3.764z" class="cls-1" transform="translate(131.65 35.938)"/>
            <path id="패스_2450" d="M21.375 9.728c.582.148 1.257-.7 1.839-.546-1.257.694-2.057-4.156-1.839.546" class="cls-1" transform="translate(119.838 41.495)"/>
        </g>
    </g>
</svg>
