<svg xmlns="http://www.w3.org/2000/svg" id="logo" width="243.164" height="60.125" viewBox="0 0 243.164 60.125">
    <defs>
        <clipPath id="clip-path">
            <path id="사각형_1902" d="M0 0H243.164V60.124H0z" class="cls-1"/>
        </clipPath>
        <clipPath id="clip-path-2">
            <path id="패스_2349" d="M107.589 74.389a3.623 3.623 0 1 0 3.623-3.624 3.622 3.622 0 0 0-3.623 3.624" class="cls-1" transform="translate(-107.589 -70.765)"/>
        </clipPath>
        <clipPath id="clip-path-4">
            <path id="패스_2351" d="M105.962 118.03a12.292 12.292 0 0 0 0 1.81c.1 2.558 1.118 9.326 2.236 12.04s3.944 6.927 6.394 6.927 3.089-1.7 3.089-2.663a3.757 3.757 0 0 0-1.277-2.984 18.267 18.267 0 0 1-3.356-7.458 57.373 57.373 0 0 1-.481-7.088c0-1.223-.533-1.385-1.7-1.649a26.907 26.907 0 0 0-3.515-.586h-.1c-.792 0-1.216.643-1.288 1.655" class="cls-1" transform="translate(-105.929 -116.375)"/>
        </clipPath>
        <clipPath id="clip-path-6">
            <path id="패스_2353" d="M26.815 0a4.916 4.916 0 0 0-2.371.572L2.467 13.263a5.057 5.057 0 0 0-2.451 3.96L0 43.072a5.053 5.053 0 0 0 2.449 3.961L24.96 60.012a.836.836 0 0 0 .429.12.872.872 0 0 0 .747-.442l1.28-2.213a.827.827 0 0 0 .118-.428.85.85 0 0 0-.4-.709L6.014 44.158a3.771 3.771 0 0 1-1.754-3.015V19.152a3.78 3.78 0 0 1 1.753-3.017L25.026 5.151a3.792 3.792 0 0 1 3.489 0l19.03 10.982a3.781 3.781 0 0 1 1.755 3.019l-.029 24.378a.839.839 0 0 0 .838.836H52.7a.836.836 0 0 0 .837-.836V17.223a5.053 5.053 0 0 0-2.45-3.96L29.1.577A4.546 4.546 0 0 0 26.822 0h-.007" class="cls-1" transform="translate(0 -.005)"/>
        </clipPath>
        <clipPath id="clip-path-8">
            <path id="패스_2355" d="M315.657 75.708c-2.837-.7-2.852-3.862-2.832-5.924s.277-4.9 2.558-5.376c2.3-.475 5.157-.583 6.737 1.728a7.774 7.774 0 0 1 .385 7.708 5.281 5.281 0 0 1-4.664 2.138 9.063 9.063 0 0 1-2.185-.274m-7.909-15.013c-1.866 1.834-2.265 4.24-2.424 6.354s-.239 4.8-.219 6.96c.016 3.316.079 7.455.162 10.364s-.034 5.353 0 6.894.423 4.094 2.629 4.233 4.483-.565 5.178-3.533a51.37 51.37 0 0 0 .791-6.714c.275-2.062 1.259-2.584 3.7-2.873s7.169.555 9.758-4a15.348 15.348 0 0 0 1.178-13.266 9.39 9.39 0 0 0-8.361-5.872c-.937-.052-2.289-.108-3.767-.108-3.343 0-7.329.286-8.623 1.561" class="cls-1" transform="translate(-305.102 -59.134)"/>
        </clipPath>
        <clipPath id="clip-path-10">
            <path id="패스_2358" d="M447.066 69.716c-.221 2.931.081 3.558 0 6.68-.065 3.03.048 8.745.351 12.061s1.6 6.922 3.887 8.364 3.813 2.938 9.335 2.938 7.771-1.641 10.367-4.571 2.83-6.106 2.943-10.864-.126-12.689-.086-15.044-1.088-4.126-3.388-4.126-3.744 1.248-3.8 4.088-.155 7.1-.214 9.506 0 7.6-.967 9.952-2.67 2.537-4.675 2.537a5.04 5.04 0 0 1-5.22-3.485c-.969-2.807-.9-7.962-.9-10.963s.225-8.659-.439-10.392c-.68-1.726-2.114-1.863-3.556-1.863-1.07 0-3.281.532-3.632 5.18" class="cls-1" transform="translate(-446.983 -64.536)"/>
        </clipPath>
        <clipPath id="clip-path-12">
            <path id="패스_2361" d="M605.871 57.653a2.914 2.914 0 0 0-3.121 3 3.09 3.09 0 0 0 3.294 3.425c2.3 0 5.47.119 6.254.119s3 .27 1.563 2.767-9.233 16.231-9.913 17.75-2.111 3.792-.779 6.246 3.283 3.222 6.759 3.222 9.977-.038 11.7-.038 3.637-.735 3.637-3.258-1.811-2.9-3.436-2.9-6.072-.122-7.881-.122-3.4-.556-1.9-3.161 8.582-15.249 9.414-16.626 2.629-4.43 2.629-6.955-1.3-3.267-4.79-3.469z" class="cls-1" transform="translate(-602.622 -57.653)"/>
        </clipPath>
        <clipPath id="clip-path-14">
            <path id="패스_2364" d="M740.708 57.653a2.918 2.918 0 0 0-3.123 3 3.089 3.089 0 0 0 3.292 3.425c2.3 0 5.477.119 6.251.119s3.006.27 1.573 2.767-9.24 16.231-9.912 17.75-2.114 3.792-.779 6.246 3.278 3.222 6.754 3.222 9.979-.038 11.7-.038 3.639-.735 3.639-3.258-1.814-2.9-3.436-2.9-6.073-.122-7.879-.122-3.4-.556-1.9-3.161 8.582-15.249 9.421-16.626 2.623-4.43 2.623-6.955-1.3-3.267-4.792-3.469z" class="cls-1" transform="translate(-737.462 -57.653)"/>
        </clipPath>
        <clipPath id="clip-path-16">
            <path id="패스_2366" d="M877.431 69.794c-.228 3.566-.435 5.6-.471 9.174-.067 6-.933 16.808 3.513 19.51 3.794 2.31 11.64 1.838 14 1.838s6.455-.238 6.859-2.715-.505-4.006-2.62-4.371-7.981-.182-9.567-.606-2.918-2.147-3.13-4.738c-.23-2.6-.3-9.38-.39-12.171s.23-10.474-3.283-10.474-4.68.991-4.916 4.553" class="cls-1" transform="translate(-876.849 -65.241)"/>
        </clipPath>
        <clipPath id="clip-path-18">
            <path id="패스_2368" d="M1006.9 57.187a56.519 56.519 0 0 0-.777 10.486c.009 7.413-.108 17.094 3.1 18.874s5.863 1.816 9.125 1.816 9.139.45 9.139-2.923-1.8-3.344-4.074-3.438-6.649.189-8.289-1.007-1.951-2.548-1.951-4.741 1.3-4.152 3.63-4.261 8.724-.169 8.724-3.042-4.428-2.666-7.631-2.967-4.443-2.553-4.443-5.182c0-2.645.753-5.407 5.617-5.322s7.582-.013 7.582-2.557-2.235-2.727-6.636-2.81c-.912-.02-1.951-.072-3.039-.072-4.168 0-9.041.764-10.078 7.147" class="cls-1" transform="translate(-1006.117 -50.04)"/>
        </clipPath>
        <style>
            .cls-1{fill:#fff}.cls-2{clip-path:url(#clip-path)}
        </style>
    </defs>
    <g id="그룹_1420">
        <g id="그룹_1419" class="cls-2">
            <path id="패스_2348" d="M107.589 74.389a3.623 3.623 0 1 0 3.623-3.624 3.623 3.623 0 0 0-3.623 3.624" class="cls-1" transform="translate(-84.848 -55.808)"/>
        </g>
    </g>
    <g id="그룹_1422" transform="translate(22.741 14.957)">
        <g id="그룹_1421" clip-path="url(#clip-path-2)">
            <path id="사각형_1903" d="M0 0H10.034V10.034H0z" class="cls-1" transform="rotate(-56.7 3.03 5.61)"/>
        </g>
    </g>
    <g id="그룹_1424">
        <g id="그룹_1423" class="cls-2">
            <path id="패스_2350" d="M105.962 118.03a12.3 12.3 0 0 0 0 1.81c.1 2.558 1.118 9.326 2.235 12.039s3.944 6.927 6.394 6.927 3.089-1.7 3.089-2.663a3.756 3.756 0 0 0-1.277-2.984 18.27 18.27 0 0 1-3.356-7.458 57.368 57.368 0 0 1-.481-7.088c0-1.223-.533-1.385-1.7-1.649a26.879 26.879 0 0 0-3.515-.586h-.1c-.792 0-1.216.644-1.288 1.655" class="cls-1" transform="translate(-83.539 -91.777)"/>
        </g>
    </g>
    <g id="그룹_1426" transform="translate(22.39 24.598)">
        <g id="그룹_1425" clip-path="url(#clip-path-4)">
            <path id="사각형_1905" d="M0 0H25.208V22.144H0z" class="cls-1" transform="rotate(-56.7 9.374 17.382)"/>
        </g>
    </g>
    <g id="그룹_1428">
        <g id="그룹_1427" class="cls-2">
            <path id="패스_2352" d="M0 43.073zM24.444.577L2.467 13.263a5.056 5.056 0 0 0-2.451 3.96L0 43.072a5.053 5.053 0 0 0 2.449 3.961L24.96 60.012a.837.837 0 0 0 .43.12.872.872 0 0 0 .747-.442l1.28-2.213a.828.828 0 0 0 .118-.428.85.85 0 0 0-.4-.709L6.014 44.158a3.771 3.771 0 0 1-1.754-3.015V19.152a3.78 3.78 0 0 1 1.753-3.017L25.025 5.151a3.792 3.792 0 0 1 3.489 0l19.03 10.982a3.781 3.781 0 0 1 1.756 3.019l-.025 24.379a.839.839 0 0 0 .838.836H52.7a.836.836 0 0 0 .836-.836V17.223a5.053 5.053 0 0 0-2.45-3.96L29.1.577A4.55 4.55 0 0 0 26.815 0a4.918 4.918 0 0 0-2.371.572" class="cls-1" transform="translate(0 -.004)"/>
        </g>
    </g>
    <g id="그룹_1430" transform="translate(0 .001)">
        <g id="그룹_1429" clip-path="url(#clip-path-6)">
            <path id="사각형_1907" d="M0 0H53.537V60.124H0z" class="cls-1" transform="translate(0 -.001)"/>
        </g>
    </g>
    <g id="그룹_1432">
        <g id="그룹_1431" class="cls-2">
            <path id="패스_2354" d="M315.658 75.707c-2.837-.7-2.852-3.862-2.832-5.924s.277-4.9 2.559-5.376c2.3-.475 5.157-.583 6.737 1.728a7.773 7.773 0 0 1 .385 7.708 5.281 5.281 0 0 1-4.664 2.138 9.074 9.074 0 0 1-2.185-.273m-7.909-15.013c-1.866 1.834-2.265 4.24-2.424 6.354s-.239 4.8-.219 6.96c.016 3.316.079 7.455.162 10.364s-.034 5.353 0 6.894.422 4.094 2.629 4.233 4.483-.565 5.178-3.533a51.371 51.371 0 0 0 .791-6.714c.275-2.062 1.259-2.584 3.7-2.873s7.169.556 9.758-4a15.349 15.349 0 0 0 1.176-13.267 9.39 9.39 0 0 0-8.361-5.872c-.937-.052-2.289-.108-3.767-.108-3.343 0-7.329.286-8.623 1.561" class="cls-1" transform="translate(-240.614 -46.634)"/>
        </g>
    </g>
    <g id="그룹_1434" transform="translate(64.488 12.499)">
        <g id="그룹_1433" clip-path="url(#clip-path-8)">
            <path id="사각형_1909" d="M0 0H33.058V41.473H0z" class="cls-1" transform="rotate(-14.07 4.428 36.036)"/>
        </g>
    </g>
    <g id="그룹_1436">
        <g id="그룹_1435" class="cls-2">
            <path id="패스_2356" d="M447.066 69.716c-.221 2.931.081 3.558 0 6.68-.065 3.03.048 8.746.35 12.061s1.6 6.922 3.887 8.364 3.813 2.938 9.335 2.938 7.771-1.641 10.367-4.571 2.83-6.106 2.943-10.864-.126-12.689-.086-15.044-1.088-4.126-3.387-4.126-3.744 1.248-3.8 4.089-.155 7.1-.214 9.506 0 7.6-.967 9.952-2.67 2.537-4.675 2.537a5.04 5.04 0 0 1-5.22-3.485c-.969-2.807-.9-7.962-.9-10.962s.225-8.659-.439-10.392c-.68-1.726-2.114-1.863-3.556-1.863-1.07 0-3.281.532-3.632 5.18" class="cls-1" transform="translate(-352.506 -50.895)"/>
        </g>
    </g>
    <g id="그룹_1438" transform="translate(94.477 13.641)">
        <g id="그룹_1437" clip-path="url(#clip-path-10)">
            <path id="패스_2357" d="M450.864 73.744l-33.909 8.5-9.91-39.56 33.907-8.5z" class="cls-1" transform="translate(-415.486 -40.599)"/>
        </g>
    </g>
    <g id="그룹_1440">
        <g id="그룹_1439" class="cls-2">
            <path id="패스_2359" d="M605.871 57.653a2.914 2.914 0 0 0-3.122 3 3.09 3.09 0 0 0 3.294 3.425c2.3 0 5.47.119 6.253.119s3 .27 1.563 2.767-9.233 16.231-9.913 17.75-2.111 3.792-.778 6.246 3.283 3.222 6.758 3.222 9.977-.038 11.7-.038 3.637-.735 3.637-3.258-1.811-2.9-3.436-2.9-6.072-.122-7.881-.122-3.4-.556-1.9-3.161 8.582-15.249 9.414-16.626 2.629-4.43 2.629-6.955-1.3-3.267-4.79-3.468z" class="cls-1" transform="translate(-475.248 -45.467)"/>
        </g>
    </g>
    <g id="그룹_1442" transform="translate(127.374 12.186)">
        <g id="그룹_1441" clip-path="url(#clip-path-12)">
            <path id="패스_2360" d="M598.812 71.426L568.161 79.1l-9.995-39.887 30.653-7.679z" class="cls-1" transform="translate(-567.562 -37.058)"/>
        </g>
    </g>
    <g id="그룹_1444">
        <g id="그룹_1443" class="cls-2">
            <path id="패스_2362" d="M740.708 57.653a2.918 2.918 0 0 0-3.123 3 3.089 3.089 0 0 0 3.292 3.425c2.3 0 5.477.119 6.251.119s3.007.27 1.573 2.767-9.24 16.231-9.912 17.75-2.115 3.792-.779 6.246 3.278 3.222 6.753 3.222 9.979-.038 11.7-.038 3.639-.735 3.639-3.258-1.814-2.9-3.436-2.9-6.073-.122-7.879-.122-3.4-.556-1.9-3.161 8.582-15.249 9.422-16.626 2.623-4.43 2.623-6.955-1.3-3.267-4.792-3.468z" class="cls-1" transform="translate(-581.588 -45.467)"/>
        </g>
    </g>
    <g id="그룹_1446" transform="translate(155.875 12.186)">
        <g id="그룹_1445" clip-path="url(#clip-path-14)">
            <path id="패스_2363" d="M733.649 71.418L702.995 79.1 693 39.211l30.652-7.681z" class="cls-1" transform="translate(-702.397 -37.051)"/>
        </g>
    </g>
    <g id="그룹_1448">
        <g id="그룹_1447" class="cls-2">
            <path id="패스_2365" d="M877.431 69.794c-.228 3.565-.435 5.6-.471 9.173-.066 6-.933 16.808 3.514 19.51 3.794 2.31 11.64 1.837 14 1.837s6.455-.237 6.859-2.715-.505-4.006-2.62-4.371-7.982-.182-9.568-.606-2.918-2.147-3.13-4.738c-.23-2.6-.3-9.38-.391-12.171s.23-10.473-3.283-10.473-4.68.991-4.916 4.553" class="cls-1" transform="translate(-691.512 -51.451)"/>
        </g>
    </g>
    <g id="그룹_1450" transform="translate(185.337 13.79)">
        <g id="그룹_1449" clip-path="url(#clip-path-16)">
            <path id="사각형_1914" d="M0 0H33.586V40.73H0z" class="cls-1" transform="rotate(-14.067 3.912 38.35)"/>
        </g>
    </g>
    <g id="그룹_1452">
        <g id="그룹_1451" class="cls-2">
            <path id="패스_2367" d="M1006.895 57.188a56.517 56.517 0 0 0-.777 10.486c.009 7.413-.108 17.094 3.1 18.874s5.863 1.816 9.125 1.816 9.139.45 9.139-2.924-1.8-3.344-4.074-3.438-6.649.189-8.289-1.007-1.951-2.548-1.951-4.741 1.3-4.151 3.63-4.261 8.724-.169 8.724-3.042-4.428-2.666-7.631-2.967-4.443-2.553-4.443-5.182c0-2.645.753-5.407 5.617-5.322s7.582-.013 7.582-2.557-2.235-2.728-6.637-2.811c-.912-.02-1.951-.072-3.038-.072-4.168 0-9.041.764-10.078 7.147" class="cls-1" transform="translate(-793.457 -39.464)"/>
        </g>
    </g>
    <g id="그룹_1454" transform="translate(212.659 10.577)">
        <g id="그룹_1453" clip-path="url(#clip-path-18)">
            <path id="사각형_1916" d="M0 0H30.249V42.826H0z" class="cls-1" transform="rotate(-14.067 4.665 38.62)"/>
        </g>
    </g>
</svg>
