<svg xmlns="http://www.w3.org/2000/svg" width="507.857" height="56.282" viewBox="0 0 507.857 56.282">
    <defs>
        <clipPath id="clip-path">
            <path id="사각형_1921" d="M0 0H507.857V56.282H0z" class="cls-1"/>
        </clipPath>
        <style>
            .cls-1{fill:#60e7a3}
        </style>
    </defs>
    <g id="line">
        <g id="그룹_1471" clip-path="url(#clip-path)">
            <path id="패스_2370" d="M57.131 4.085c.747.251.436-2.672.543-3.2-1.246.656-.5 3.956-.543 3.2" class="cls-1" transform="translate(449.819 5.316)"/>
            <path id="패스_2371" d="M56.988 3.337l.2-1.193-1.78 2.938z" class="cls-1" transform="translate(437.69 12.819)"/>
            <path id="패스_2372" d="M54.29 4.015c1.166 4.968 4.182-.844 6.265.907l.365 1.13.863-4.012c-2.492.656-5.7 3.349-7.493 1.975" class="cls-1" transform="translate(428.82 12.196)"/>
            <path id="패스_2373" d="M53.719.788c.409 1.933-1.308 1.682 1.451.593a3.873 3.873 0 0 1-.276-.488 3.248 3.248 0 0 1-1.175-.1" class="cls-1" transform="translate(423.055 4.712)"/>
            <path id="패스_2374" d="M53.889 1.448c1.219-.147-.819-1.619 0 0" class="cls-1" transform="translate(424.069 4.157)"/>
            <path id="패스_2375" d="M53.8 4.371l1.575-1.744C55.032 1.483 53.6 1.238 54.115.4c-1.628.963-1.273 2.1-.311 3.97" class="cls-1" transform="translate(418.539 2.399)"/>
            <path id="패스_2376" d="M52.916 2.423l.819-.74c-.151-.481-.374-.642-.819.74" class="cls-1" transform="translate(417.967 7.996)"/>
            <path id="패스_2377" d="M54.743 1.162l-1.735 1.563c.24.8.294 2.414.8-.565-.125 1.472.2.056.934-1" class="cls-1" transform="translate(418.694 6.948)"/>
            <path id="패스_2378" d="M53.317 1.354c.917 1.075 2.091 1.744.507 3.489 3.052-.719 2.554-4.215-.507-3.489" class="cls-1" transform="translate(421.134 7.509)"/>
            <path id="패스_2379" d="M54.236 3.562l1.228 1.444 1.014-1.675c-.507.83-2.34-1.333-2.242.23" class="cls-1" transform="translate(428.366 17.805)"/>
            <path id="패스_2380" d="M51.958.614c-.08 1.061.587 2.819.73 4.173l1.157-1.228c-.614-.719-1.78-1.375-1.887-2.945" class="cls-1" transform="translate(410.347 3.672)"/>
            <path id="패스_2381" d="M53.582 1.212l-1.744 1.835c1.584.2 1.86-.67 1.744-1.835" class="cls-1" transform="translate(409.452 7.247)"/>
            <path id="패스_2382" d="M53.391 5.585l2.856-3.852-3.417 3.908z" class="cls-1" transform="translate(417.29 10.364)"/>
            <path id="패스_2383" d="M51.87 2.714l.97-2.463-1.735 3.726z" class="cls-1" transform="translate(403.663 1.501)"/>
            <path id="패스_2384" d="M53.752 4.689c.712-2.037-1.077-3.426-.3-4.689-1.222.377-2.236 2.135-3.152 3.705.988-.879 2.056-.67 3.453.984" class="cls-1" transform="translate(397.296 .002)"/>
            <path id="패스_2385" d="M50.126 2.834a13.163 13.163 0 0 0 1.539-2.3 6.471 6.471 0 0 0-1.539 2.3" class="cls-1" transform="translate(395.93 3.176)"/>
            <path id="패스_2386" d="M52.777 3.986c-.151-.642-.436-2.317-1.442-3.014l.739 2.973c.214.021.463.028.7.042" class="cls-1" transform="translate(405.479 5.812)"/>
            <path id="패스_2387" d="M52.781 1.621l-.027-.1c-.756-.049-1.281-.119-1.5-.147.187.021.65.1 1.531.244" class="cls-1" transform="translate(404.808 8.233)"/>
            <path id="패스_2388" d="M51.675 1.414a.76.76 0 0 0-.178-.007c.071.286.116.384.178.007" class="cls-1" transform="translate(406.759 8.398)"/>
            <path id="패스_2389" d="M54.082 1.9c-1.014 1.675-3.159 3.489-1.014 6.008.712-2.051-.516-3.489 1.014-6.008" class="cls-1" transform="translate(411.906 11.39)"/>
            <path id="패스_2390" d="M51.621 3.738l1.9.663c-.044-.788-.409-1.933.1-2.763z" class="cls-1" transform="translate(407.738 9.793)"/>
            <path id="패스_2391" d="M51.519 3.1l.908-.956-.7-.244z" class="cls-1" transform="translate(406.931 11.381)"/>
            <path id="패스_2392" d="M52.87 1.262A3.345 3.345 0 0 1 50.192 2.9a6.859 6.859 0 0 0 3.257.865c.142-.935.578-2.624-.578-2.505" class="cls-1" transform="translate(396.451 7.511)"/>
            <path id="패스_2393" d="M51.1 1.369c-.053.07-.125.1-.178.174.116.251.2.328.178-.174" class="cls-1" transform="translate(402.241 8.185)"/>
            <path id="패스_2394" d="M49.079 1.5c.062.16.107.363.169.537l.027-.516z" class="cls-1" transform="translate(387.66 8.98)"/>
            <path id="패스_2395" d="M50.778 2.634c.819.565 1.3-.167 1.744-1.1a4.667 4.667 0 0 1-1.931.537c-.062.426-.071.7.187.558" class="cls-1" transform="translate(399.317 9.196)"/>
            <path id="패스_2396" d="M49.818 1.251a10.767 10.767 0 0 0 1.433 1.626c-.427-.942-1.29-2.4-1.433-1.626" class="cls-1" transform="translate(393.497 6.175)"/>
            <path id="패스_2397" d="M50.972 1.7a.734.734 0 0 1 .125-.14c-.285-.635-.24-.321-.125.14" class="cls-1" transform="translate(401.909 7.209)"/>
            <path id="패스_2398" d="M51.817 1.277a7.56 7.56 0 0 0-1.041 1.828 4.225 4.225 0 0 0 1.326-1 6.026 6.026 0 0 1-.285-.823" class="cls-1" transform="translate(401.064 7.636)"/>
            <path id="패스_2399" d="M50.64 20.21c.1-2.763 2.189-5.338 4.076-2.393 1.78-2.093.454-11.164-1.2-16.237a4.585 4.585 0 0 1-1.86 3.97c.676 1.507 4.182 3.489 2.652 6.008-2.44 1.442-2.03-.958-3.258-2.408 1.077 3.433-3.061 5.038-2.447 10.1l2.136-1.8c.053.782-.7 2.044-.1 2.763" class="cls-1" transform="translate(383.402 9.441)"/>
            <path id="패스_2400" d="M52.625 5.1l.756-.349c-.872-.474-1.513-1.57-2.705-3.719A5.118 5.118 0 0 0 49.1 4.339l3.782.349z" class="cls-1" transform="translate(387.833 6.171)"/>
            <path id="패스_2401" d="M53.026 3.125c-.552 3.014-2.376 4.305-1.192 7.55 2.243-.23 1.531-2.526 2.856-3.845-3.613.782 1.014-1.682-1.637-3.363a4.79 4.79 0 0 1 1.958-.809 9.668 9.668 0 0 1-1.9-1.361l.089.188.018-.007v.049c.16.37.214.593.036.384a.118.118 0 0 1-.08.056 8.4 8.4 0 0 1-.142 1.144c-1.059-.614-.178-.782.142-1.144a3.535 3.535 0 0 0 .045-.44l-.018-.042-3.619 1.682c.783.412 1.744.314 3.444-.042" class="cls-1" transform="translate(391.633 7.755)"/>
            <path id="패스_2402" d="M52.327 4.293a1.916 1.916 0 0 1-.133-.7c-.222.37-.311.628.133.7" class="cls-1" transform="translate(410.806 21.492)"/>
            <path id="패스_2403" d="M53.568 9.666c.258-.426.463-1.626 1.317-1.326.765.893.027 1.444.08 2.428.507-.8 1.78-2.17.133-3.621l-.249.412c-1.477-1.019-3.417-4.752-3.168-5.164a34.419 34.419 0 0 0 1.887 7.271" class="cls-1" transform="translate(408.043 14.319)"/>
            <path id="패스_2404" d="M53.581 2.608l-3.008 1.507L52.157 6.7l-.1-1.556c1.726.593 1.326-1.326 1.522-2.533" class="cls-1" transform="translate(399.46 15.592)"/>
            <path id="패스_2405" d="M50.215 4.014l.356-3.182-1.682 4.5z" class="cls-1" transform="translate(386.157 4.978)"/>
            <path id="패스_2406" d="M49.41 3.716l.1-2.763-1.016 1.674z" class="cls-1" transform="translate(383.038 5.695)"/>
            <path id="패스_2407" d="M24.509 6.561l-.89.8a2.736 2.736 0 0 0 .89-.8" class="cls-1" transform="translate(186.559 39.222)"/>
            <path id="패스_2408" d="M24.575 7.745l.142-1.361c-.294.754-.409 1.3-.142 1.361" class="cls-1" transform="translate(192.927 38.164)"/>
            <path id="패스_2409" d="M40.107 5.449C38.772 2.881 37.259-1.1 37.464 2l.445 3.021a1.583 1.583 0 0 1 2.2.426" class="cls-1" transform="translate(295.766 5.194)"/>
            <path id="패스_2410" d="M30.342 5.909c.133.293.258.607.392.914.3-1.04.578-2 .836-2.9-.374.628-.792 1.291-1.228 1.989" class="cls-1" transform="translate(239.662 23.435)"/>
            <path id="패스_2411" d="M31.8 7.657l-1.734-1.933A6.694 6.694 0 0 0 31.8 7.657" class="cls-1" transform="translate(237.482 34.218)"/>
            <path id="패스_2412" d="M20.65 7.069l-.988 3.091c1.62-.035.881-1.577.988-3.091" class="cls-1" transform="translate(155.304 42.258)"/>
            <path id="패스_2413" d="M46.568 3.105a5.416 5.416 0 0 0-2.812-1.8c1.37 1.723 2.492 4.326 2.812 1.8" class="cls-1" transform="translate(345.615 7.803)"/>
            <path id="패스_2414" d="M24.6 1.954a2.425 2.425 0 0 0-.73 1.849 1.972 1.972 0 0 0 .73-1.849" class="cls-1" transform="translate(188.5 11.682)"/>
            <path id="패스_2415" d="M43.393 2.433a7.411 7.411 0 0 0 .6.7 3.6 3.6 0 0 1 2.634-.747c-1.014-1.284-2.171-2.072-3.23.042" class="cls-1" transform="translate(342.748 6.716)"/>
            <path id="패스_2416" d="M5.7 7.189a3.517 3.517 0 0 1-.294-.356c-.027.4.107.426.294.356" class="cls-1" transform="translate(42.705 40.848)"/>
            <path id="패스_2417" d="M1.212 2.878a4.5 4.5 0 0 1 1.522-.251c-.276-.2-.739-.181-1.522.251" class="cls-1" transform="translate(9.573 14.966)"/>
            <path id="패스_2418" d="M46.816 1.356c.836-.2.133-.335 0 0" class="cls-1" transform="translate(369.785 6.886)"/>
            <path id="패스_2419" d="M47.569 2.89a3.128 3.128 0 0 0-.311 1.472 3.912 3.912 0 0 1 .311-1.472" class="cls-1" transform="translate(373.276 17.278)"/>
            <path id="패스_2420" d="M42.555 4.028l-.071-.007c.258.586.214.474.071.007" class="cls-1" transform="translate(335.568 24.038)"/>
            <path id="패스_2421" d="M47.924 2.135a3.773 3.773 0 0 0-1.086-.886 4.516 4.516 0 0 0 1.086.886" class="cls-1" transform="translate(369.959 7.468)"/>
            <path id="패스_2422" d="M46.938 1.409a7.892 7.892 0 0 0 .739.286c.089-.5 0-.823-.739-.286" class="cls-1" transform="translate(370.749 6.764)"/>
            <path id="패스_2423" d="M46.686 1.354a2.494 2.494 0 0 1 1.353.3c-.169-.2-.24-.37-.2-.474a10.347 10.347 0 0 1-1.157.174" class="cls-1" transform="translate(368.758 7.056)"/>
            <path id="패스_2424" d="M13.688 5.874a3.332 3.332 0 0 1-.187-.286c-.819 1.27-.454 1.061.187.286" class="cls-1" transform="translate(102.911 33.405)"/>
            <path id="패스_2425" d="M35.383 6.274c.036-.028.053-.112.089-.147l-.116-.1z" class="cls-1" transform="translate(279.266 36.006)"/>
            <path id="패스_2426" d="M35.027 16.029c1.219-3.782 1.949-3.321 2.928-2.533l-1.13-8.722z" class="cls-1" transform="translate(276.667 28.54)"/>
            <path id="패스_2427" d="M193.611 42.972l2.145 2.7c-2.465 4.5-4.325 2.973-2.3 6.782.151-9.483 8.16-1.047 8.311-10.515l1.415 1.975c-.4-.084-.454.474-.845.377 2.767 4.515 1.9-6.866 5.393-5.547 1.219.712 2.091 2.079 1.281 3.21l2.661-2.365c.783.174.623 1.821-.16 1.647l4.1-.8-.027.279a32.483 32.483 0 0 1 2.492-4.787c1.068 1.354-.507 1.012-.222 2.191l2.242-2.317c.97 2.442-.881 4.843-2.465 4.508 2.278 9.441 1.851-2.4 6.532 3.084l-2.127 1.221c1.468 5.359 3.115 3.4 5.606 6.727-.605-1.744-5.01-8.4-2.572-10.788.712.712 1.637 1.047 2.937-.879.062 3.37 1.353 2.533 2.981 2.324l-.036 4.466c1.735-1.3 1.566-3.573 2.572-5.6 1.967.419 2.429 3.873 2.937 6.782 3.159.684-2.26-5.519 1.45-6.4 2.643 1.682 4.458-.16 7.537-2.861 1.86 1.521-.276 2.735.4 4.005l1.575-3.573c.4.077.285 1.172.231 1.723 1.344-1.389.036-4.459 2.171-5.694.507-4.919 4.521 7.145 7.1 1.535.676 1.263-.276 2.742-.044 4.466 3.586-3.7 3.088-2.686 6.007-7.648l2.6 2.9c-1.922-3.328.409-7.32 2.456-10.6-.685-1.612-1.281-3.021-1.673-3.691l3.319-2.428c.418.726.1 2.261-.418 4.131.222-.37.436-.74.6-1.075 1.228 1.64.641 4.222-.178 6.72-.418-.872-.836-1.807-1.246-2.742a24.511 24.511 0 0 0-1.308 8.345 2.6 2.6 0 0 1 1.086-1.221 4.2 4.2 0 0 0-.231 1.842c.125.468.463-.523.988-1.661l.845 4.961.151-1.975 4.432 3.07c3.061-5.038 5.677-12.434 10.616-14.535-1.175 3.656-.169 5.959-.169 10.285-1.433-4.563-3.826 1.982-6.425 1.075 1.362.468 1.095 2.533.765 3.252l4.538-4.2c-.053 3.531 1.014 2.638 2.242 4.089-1.014-6.978 3.355-4.689 5.2-6.845.151 2.345-.258 4.738-2.554 4.2 2.607 5.233 3.132-8.241 5.677-3.8-.561.07-.863-.293-1.068.9 1.272-2.1 4.485-.474 3.764 1.577l-.552.056c3.711.788 11.275-.056 11.737-6 .044.768-.374 7.159-.587 8.359l6.3-20.026c-.5 5.1 1.922 17.221-1.1 20.131.89.712 1.993 1.549 3.826-.265-.614-.726-1.611-7.355-.8-7.829 2.349 5.652 1.62 3.021 4.476 7.829-.925-1.082-.044-9.085 1.388-8.848-.2 1.2.24 7.892-.267 8.729l3.426-7.878c-.872 1.423-.053 6.65.774 8.862-.392-1.535 3.07.112 4-.677l-1.531-1.8c4.031 1.144 3.791-11.074 7.769-10.7-.454 1.626-1.032 9.985 1.006 10.955.854-4.033 3.791-19.37 7.261-22.5l.712 2.3 2.661-2.645c-1.593 6.064-6.1 18.833-8.605 23.808 1.531 1.807.463 2.707 2.705 2.477a2.573 2.573 0 0 1-1.833 3.412l5.25 1.34c-.311-4.7 3.924-4.745 3.657-8.652l-5.6 4.919c-.3-4.682 3.079-13.348 6.79-12.553.97 1.856-.578 8.352-.472 9.915.454-1.619 3.47-3.112 3.826-1.975l-1.539 2.526c2.091 1.744 3.266-6.252 5.82-1.8.854.293 2.643 6.015 2.75 3.245-1.477-5.345-2-21.9-1.139-25.922.3.356 4.565 5.073 5.588 7.7 1.468 4.187-1.967 10.027-.7 13.614a8.094 8.094 0 0 1 1.095-3.377c.917 1.089-.311 3.97 1.637 3.377.249-4.759 3.969.363.854-4.033 1.887-1.375 2.047.956 4.28.733-.761-3.055 1.839-10.466 3.739-11.84a10.528 10.528 0 0 0 .578 3.5c3.915.4 6.051 2.533 9.7 2.54.356 1.151 2.136 2.526 1.415 4.577.516-.844.97-2.463 2.091-2.589 2.242 4.1-2.5.67-.756 5.589.1-2.763 2.848-3.838 4.423-5.582-.561-4.263-3.711-.782-5.295.963-.1-5.889 2.6-12.085 6.371-14.842 3.008-1.493 1.37 3.8 1.887 2.945 5.7.977 4.69-10.327 9.477-6.119 1.931 3.733.2 7.459.659 10.167-2.447 1.444-3.826-2.345-5.49-2.177l2.082 1.751c-.765 1.256-2.394 2.212-3.31 1.137 1.62 3.356 9.628.558 14.069 3.628.756-1.27 2.082-2.582 1.424-4.082l-1.388.53c-1.326-3.007 2.554-4.208.774-5.6 1.824-2.149 3.862-5.512 6.514-3.824l.561 4.27c-.071-1.249-1.753-2.533-2.474-1.221 1.068-1.9 4.12 5.75 5.232.14l-1.888-2.942c1.833-2.17 4.076-6.733 6.425-5.408-1.121-4.215-.525.488-2.26-4.438 1.531 6.14-5.953-.2-3.551 6.238-1.78-5.722-2.972-2.4-5.268-7.271.1 1.4.836 2.686-1.13 2.01a7.686 7.686 0 0 1-.409 1.249.875.875 0 0 1-.134-.1l.107.167c-.08.209-.089.258.044.056A5.357 5.357 0 0 1 417 8.132c-.917 3.252-4.022 3.175-5.046 4.863-1.166-.656.463-1.619-.2-3.119l-1.523 2.524c-.2-3.133-3.15-5.177-.454-7.041l-2.465-.112c-1.468-1.744-3.47-2.421-4.672-1.1-1.166-.67-2.874 3.5-1.9 1.033l-3.83 1.982-.044-.788c-3.809-.356-7.742 5.268-12.173-.349-1.264.8-2.572 1.786-4.725.914l-.468-2.707c-1.628.963-4.974-2.665-5.633.167-1.887-7.278-8-1.514-10.91-2.784l-.053 3.545c-1.993-.181-3.88.837-6.327 2.282l.2 3.126c-2.091 2.6-5.5-2.17-8.863-1.821.214-1.193 1.068-.893 1.682-.174-4.129-7.027-8.409 5.219-12.129.1-.9 1.151-1.557.768-2.207-.007a.325.325 0 0 0 .222-.167.9.9 0 0 0-.374-.035c-.409-.537-.836-1.158-1.29-1.654a6.615 6.615 0 0 0 1.082 1.671 5.95 5.95 0 0 0-2.785 1.263l-.489-3.356c-.089.042-.16.035-.24.1-1.041-1.235-.8 1.6-.214 4.117a7.5 7.5 0 0 0-1.353 2.044c-.917-5.422-2.705 1.849-3.924-3.921-.658 2.826-5.206 2.17-5.668 8.108-.053-.768-.365-1.137.2-1.186-1.175-.67-2.34-1.333-3.355.349l-.561-4.27-2.448 5.771c-1.584-2.589-2.251-4.1-.765-7.4-3.622 5.094-2.963 1.933-6.033 6.978l.107-2.763c-1.121.112-2.856 3.831-3.568 1.556-2.6-5.226-12.44-.607-18.972-5.429 1.379 8.122-3.052-3.614-3.212 2.693-.4-1.919-1.317-3-.3-4.682-3.257 1.926-4.992-3-7.181 2.338-.409-1.933.659-2.833.311-3.97-.267.419-1.023 1.682-1.379.537s.454-1.619.961-2.463c-3.364.356-3.6 6.287-3.764 11.855-1.744-2.617-2.59-2.24-3.764 1.423-.623-1.814-1.637-3.705.445-4.382-1.184-.258-7.226-2.6-7.279 1.856-.383-1.123-1.646-.307-1.949.209-2.643-.244-2.874-.642-5.464-.2l.73.719c-.934 5.394-2.136 1.221-4.209 1.891l.044-.551c-4.841-3.838-2.038 1.877-6.825-2.505l.311 3.342c-.329 7.2-4.254-4.208-6.95-1.43l1.014 1.9c-1.459 2.477-4.334-9.748-5.846-10.634-.338-.621.5-1.012.952-1.472-4-4.215-.445 4.382-3.364 5.429-.578-2.358.605-6.015-1.379-6.44-1.006-1.9-5.606 7.731-8.365 3.224.623 1.821 1.237 3.628-.107 5.017-2.073.67-5.749-6.838-7.546-1.075a3.11 3.11 0 0 1-.4-1.423c-1.575 1.493-5.143 2.512-6.06 5.631-1.655-11.541-9.833 5.722-9.967-4.94l-4.9.614.116-1.089c-3.15-.677-4.218 1.891-5.286 4.459-.739-.719-.222-1.717-.169-2.275-4.618-2.107-5.072-1.647-8.836 3.7l-.445-3.454c-1.014 2.017-6.719-5.359-11.15-1.284a3.274 3.274 0 0 1 .463-1.556c-4.992 4.1-12.253-9.476-13.918 3.133l-3.292 3.133c4.334.942-.561 5.478 1.246 7.55-1.682.754-4.449-3.761-2.367-4.424l.338.628c.667-6.573-5.4-2.275-5.357-6.747-8.5.4-16.845-3.154-24.81-3.356l1 5.094-2.776-.265c-.747-1.179-1.05-3.984.943-3.789-1.086-2.882-3.293 2.449-3.328 3.566-3.907-2.037 1.424-5.973.231-6.078l-1.611.391.374.593c-1.273 2.1-1.361 4.312-3.746 4.082-1.522-1-.819-3.14-1.415-3.328 0-.363-.2-.53-.917-.14l-3.506-.4 1.468 4.019c-1.522 2-3.293-.181-1.611 4.368-2.483-7.02-13.1-2.4-14.585-4.57-2.127 2.952-4.271 2.924-6.932 2.6.676.83 1.139 5.359-1.157 4.822.685-9.35-4.262-4.012-6.22-10.725 1.726 4.445-6.5 1.165-3.8 7.473-1.922-.74-.169-3.5-1.655-5.68-4.503 3.66-10.074-2.264-15.68-.988-.062 1.228.9 3.091-.276 4.933l-3.061-6.106c-1.1.614-.917 7.089-3.008 2.847.3 1.033.756 2.582.018 2.986-11.114-5.876-22.442 5.109-33.806-6.02 1.548 2.365.543 2.61-.614 2.707.765.565.036 3.035.2 4.7l-4.752-4.57c-.778 4.615-5.014.352-5.441 4.769l1.477-.809c-1.9 5.233 2.937 11.555 2.75 18.24 2.118-5.938 5.962 8.715 9.459.2.819 1.354-.65 2.163-.2 3.705.881-2.868 1.984-3.482 4.058-2.212l-.222.7c5.766-.747 8.285 2.051 14.807 3.873l-.534-3.3c1.4.426 1.709 1.458 2.376 2.282 1.522-5.024-3.924-.244-2.545-5.785 1.949 6.706 9.833.007 11.195 7.641 2.153.021-.685-3.824 1.459-3.8l.605 2.058.5-2.672c1.415.426 2.162 3.007 2.242 4.759-.347-.2-.961.5-1.326.656 1.86 2.414 5.126-.879 5.766-.091l-2.079-1.247c5.82-2 13.01.656 18.6-3.6l-.455-1.56c4.28-2.931 3.488 1.675 8.2.3l-.16.37c.917-1.563 2.171-2.358 3.479-2.191-1.166 1.835 2.3 3.524.765 5.561 4.636-3.14 2.278-2.456 5.286-8.283l.756 2.582c1.014-2.351 1.086-3.587 3.444-4.277-1.913 2.24 1.566 3.928-.561 6.887 5.054 5.61 7.288-5.785 9.7 2.47 2.171-7.187-4.369-3.942-3.106-5.484-1.112-2.331 1.8-5.366 3.364-4.661 1.593.14 2.848 9.134 6.843 8.959-.4-.028-.418.509-.819.481 1.522 1.814 2.892-2.5 4.77.454.961-4.34 2.385.223 2.59-5.3l-3.64 1.312c2.056-1.465 3.907-7.948 7.368-4.843a9.859 9.859 0 0 1-1.922 3.412c1.023 1.619 1.9-1.1 2.972.565-.214 5.533-4.44 1.249-6.6 5.484 1.112 2.324 4.156-4.047 3.123 1.954 1.495-7.627 3.951.921 6.567-4.919l-.125 3.314c.418-.523 1.281-2.093 2.064-2.017l-1.351 4.307c2.127-3.684 4.271 3.161 6.336 1.151-4.4.14-1.05-3.984-2.945-6.385 5.357-4.48 3.257 8.631 9.3 6.985-.81.481-3.115-1.954-1.851-3.5a8.271 8.271 0 0 1 3.453 3.656c4-.726-.676-3.4 1.006-5.45 1.433 4.019 1.949-1.661 3.693-2.973l.062 3.37c4.618 2.114 1.112-7.027 5.277-4.452l-1.673 4.682 2.136-1.228-.383 3.831c2.3-2.861 3.034-2.135 5.339-1.082-.57-2.365.214-6.112 2.242-6.238 1.415 1.989-.73 3.21 2.145 2.7-.623 2.114-1.29 4.766-2.59 1.675-.116 1.1-.614 2.114-.73 3.2 1.531 2.282 3.755.488 4.805.447a1.692 1.692 0 0 1-1.139-.775l4.1-4.7c.667 1.256.169 2.275-.338 3.28.845-.377 1.406-1.926 2.643-2.233-.276 2.742-.16 5.568-1.9 6.873l3.933-3.077c.285 1.186 2.091 3.252 1.593 4.263 2.225 1.584 5.321-5.359 8.276-3.266a2.406 2.406 0 0 1 1.059-1.444c2.75.593 5.241 3.928 8.436.147l1.922 4.891c2.536-1.144-2.6-6.154 1.62-8.045 2.981-1.6 1.184 4.173 2.26 5.526 1.459-2.491 3.978-7.543 6.8-3.58-.9.935-1.62.216-2.474.586m31.4-2.47c-.6.712-1.78 2.9-2.251.921.632-3.866 1.192-2.024 2.251-.921m47.67-8.562c-.436 1.116-1.148.572-1.958-.691.569-.286 1.228-.167 1.958.691m132.768-24.7a.745.745 0 0 0-.062.16c-1.379-1.3-.89-.782.062-.16m2.848 1.43a1.708 1.708 0 0 0 .116-1.409c-.178.858-.81.921-1.539.691.214.879.6 1.486 1.424.719m-303.009 4.213l.561.872c-1.228.984-.89.1-.561-.872" class="cls-1" transform="translate(2.054 3.83)"/>
            <path id="패스_2428" d="M30.663 7.359a8.023 8.023 0 0 1-.294-1.828 1.691 1.691 0 0 0 .294 1.828" class="cls-1" transform="translate(238.727 33.065)"/>
            <path id="패스_2429" d="M19.96 7.017c-.036-.028-.062-.014-.1-.035a3.47 3.47 0 0 0-.089.607z" class="cls-1" transform="translate(156.181 41.738)"/>
            <path id="패스_2430" d="M42.271 7.423a3.7 3.7 0 0 1-1.148-1.73 1.513 1.513 0 0 0 1.148 1.73" class="cls-1" transform="translate(324.809 34.033)"/>
            <path id="패스_2431" d="M49.38.951l-1.8.893c.872-.174 1.2.558 1.646 1.089-.053-.788-.409-1.926.151-1.982" class="cls-1" transform="translate(375.835 5.687)"/>
            <path id="패스_2432" d="M50.1 5.66c.258-.419.552-.049.81-.474l-.089-1.563C49.7 3.742 48.93 5 50.1 5.66" class="cls-1" transform="translate(391.119 21.659)"/>
            <path id="패스_2433" d="M47.991 3.684C48.178 6.51 49.29 5.54 50.554 5a.347.347 0 0 1-.222 0c.311-3.963-1.023-2.638-2.34-1.319" class="cls-1" transform="translate(379.066 14.125)"/>
            <path id="패스_2434" d="M48.312 3.468a1.728 1.728 0 0 1 1.166-.084c.133-1.591-.472-.328-1.166.084" class="cls-1" transform="translate(381.601 15.562)"/>
            <path id="패스_2435" d="M47.565 4.446c.614.726.32-3.621.676-2.47.614-3.614-3.933 4.4-.676 2.47" class="cls-1" transform="translate(366.331 6.141)"/>
            <path id="패스_2436" d="M49.165 6.876l-.507-3.489-.667 2.819z" class="cls-1" transform="translate(379.064 20.249)"/>
            <path id="패스_2437" d="M47 4.018l2.038.949a1.356 1.356 0 0 1 .525-1.2c-1.255-.1-2.625-.782-2.563.251" class="cls-1" transform="translate(371.197 20.637)"/>
            <path id="패스_2438" d="M47.283 4.005a1.552 1.552 0 0 0 1.62-.593 3.154 3.154 0 0 0-1.62.593" class="cls-1" transform="translate(373.474 20.398)"/>
            <path id="패스_2439" d="M49.622 4.872l-.605-.726-1.432-.246z" class="cls-1" transform="translate(375.857 23.329)"/>
            <path id="패스_2440" d="M46.53 3.466l-2.189 1.019c-.214 1.2.4 1.933 1.219 1.451.516-.844 1.326-1.312.97-2.47" class="cls-1" transform="translate(349.898 20.721)"/>
            <path id="패스_2441" d="M46.217 7.095A6.972 6.972 0 0 1 45.2 4.45v4.333z" class="cls-1" transform="translate(357.044 26.603)"/>
            <path id="패스_2442" d="M45.972 4.983c-.2 1.2-3.15 3.482-.356 3.182.2-1.193 2.4-2.212.356-3.182" class="cls-1" transform="translate(350.865 29.789)"/>
            <path id="패스_2443" d="M40.847 10.382l.561-.063-.187-7.1z" class="cls-1" transform="translate(322.637 19.223)"/>
            <path id="패스_2444" d="M37.854 11.4c2.643 1.675.552-4.389 2.954-2.289.578-1.689-1.967-1.717-1.353-3.175-1.557 1.786-2.4.8-1.6 5.464" class="cls-1" transform="translate(296.568 35.486)"/>
            <path id="패스_2445" d="M37.761 6.869a7.43 7.43 0 0 0 .783-1.089 3.445 3.445 0 0 0-.783 1.089" class="cls-1" transform="translate(298.262 34.553)"/>
            <path id="패스_2446" d="M2.021 3.274l-1.7-1.466 1.122 2.373z" class="cls-1" transform="translate(2.539 10.812)"/>
            <path id="패스_2447" d="M1.415 6.652L.952 2.13 0 6.233c.374-.2 1.112-.6 1.415.419" class="cls-1" transform="translate(0 12.734)"/>
            <path id="패스_2448" d="M27.259 9.818l.116-1.089c-.285-1.179-.675-1.263-1.469-1.437z" class="cls-1" transform="translate(204.623 43.591)"/>
            <path id="패스_2449" d="M23.843 10.624l.392.091-.792-4.089z" class="cls-1" transform="translate(185.169 39.61)"/>
            <path id="패스_2450" d="M21.388 9.907c.783.16 1.691-.761 2.474-.593-1.691.754-2.767-4.515-2.474.593" class="cls-1" transform="translate(168.555 45.735)"/>
        </g>
    </g>
</svg>
