<svg xmlns="http://www.w3.org/2000/svg" id="logo" width="311.203" height="76.948" viewBox="0 0 311.203 76.948">
    <defs>
        <clipPath id="clip-path">
            <path id="사각형_1902" d="M0 0H311.203V76.948H0z" class="cls-1"/>
        </clipPath>
        <clipPath id="clip-path-2">
            <path id="패스_2349" d="M107.589 75.4a4.637 4.637 0 1 0 4.637-4.638 4.636 4.636 0 0 0-4.637 4.638" class="cls-1" transform="translate(-107.589 -70.765)"/>
        </clipPath>
        <clipPath id="clip-path-4">
            <path id="패스_2351" d="M105.971 118.493a15.731 15.731 0 0 0 0 2.316c.129 3.273 1.43 11.936 2.861 15.408s5.047 8.866 8.183 8.866 3.953-2.181 3.953-3.408a4.808 4.808 0 0 0-1.634-3.819c-1.434-1.433-3.818-6.41-4.295-9.544a73.426 73.426 0 0 1-.615-9.071c0-1.565-.682-1.772-2.181-2.111a34.432 34.432 0 0 0-4.5-.75h-.124c-1.013 0-1.556.823-1.649 2.118" class="cls-1" transform="translate(-105.929 -116.375)"/>
        </clipPath>
        <clipPath id="clip-path-6">
            <path id="패스_2353" d="M34.318 0a6.292 6.292 0 0 0-3.035.732L3.157 16.973A6.472 6.472 0 0 0 .02 22.041L0 55.122a6.467 6.467 0 0 0 3.134 5.07L31.945 76.8a1.069 1.069 0 0 0 .55.153 1.115 1.115 0 0 0 .956-.566l1.638-2.833a1.058 1.058 0 0 0 .15-.554 1.088 1.088 0 0 0-.512-.907L7.7 56.513a4.826 4.826 0 0 1-2.244-3.86V24.509A4.838 4.838 0 0 1 7.7 20.647L32.028 6.591a4.853 4.853 0 0 1 4.465 0l24.355 14.057a4.838 4.838 0 0 1 2.241 3.862l-.032 31.2a1.074 1.074 0 0 0 1.072 1.07h3.318a1.069 1.069 0 0 0 1.071-1.07V22.041a6.467 6.467 0 0 0-3.136-5.068L37.238.737A5.819 5.819 0 0 0 34.327 0h-.008" class="cls-1" transform="translate(0 -.005)"/>
        </clipPath>
        <clipPath id="clip-path-8">
            <path id="패스_2355" d="M318.611 80.345c-3.631-.9-3.649-4.943-3.624-7.582s.354-6.273 3.274-6.881c2.941-.608 6.6-.746 8.622 2.211a9.95 9.95 0 0 1 .492 9.865c-1.093 1.8-3.385 2.736-5.969 2.736a11.6 11.6 0 0 1-2.8-.35m-10.118-19.213c-2.389 2.347-2.9 5.426-3.1 8.132s-.306 6.139-.281 8.907c.021 4.243.1 9.541.207 13.264s-.044 6.851 0 8.823.541 5.239 3.364 5.417 5.737-.723 6.627-4.522c.87-3.8.656-5.941 1.013-8.592s1.611-3.307 4.731-3.677 9.175.711 12.488-5.12a19.643 19.643 0 0 0 1.509-16.975 12.017 12.017 0 0 0-10.7-7.515c-1.2-.067-2.929-.138-4.821-.138-4.278 0-9.38.366-11.036 2" class="cls-1" transform="translate(-305.102 -59.134)"/>
        </clipPath>
        <clipPath id="clip-path-10">
            <path id="패스_2358" d="M447.089 71.165c-.283 3.751.1 4.554 0 8.549-.083 3.877.062 11.193.449 15.436s2.046 8.859 4.975 10.7 4.88 3.76 11.947 3.76 9.945-2.1 13.268-5.849 3.622-7.815 3.767-13.9-.161-16.239-.11-19.253-1.393-5.281-4.335-5.281-4.791 1.6-4.869 5.232c-.076 3.618-.2 9.09-.274 12.166-.057 3.072 0 9.724-1.238 12.737s-3.417 3.247-5.983 3.247-5.437-.87-6.68-4.46-1.155-10.189-1.155-14.03c0-3.822.288-11.082-.561-13.3-.87-2.209-2.706-2.384-4.552-2.384-1.369 0-4.2.681-4.648 6.629" class="cls-1" transform="translate(-446.983 -64.536)"/>
        </clipPath>
        <clipPath id="clip-path-12">
            <path id="패스_2361" d="M606.78 57.653a3.729 3.729 0 0 0-3.994 3.836c0 2.412 1.263 4.384 4.215 4.384s7 .152 8 .152 3.838.345 2 3.541-11.817 20.772-12.686 22.716-2.7 4.853-1 7.994 4.2 4.124 8.65 4.124 12.769-.048 14.968-.048 4.655-.941 4.655-4.169-2.317-3.709-4.4-3.709-7.771-.157-10.086-.157-4.356-.711-2.432-4.045 10.983-19.516 12.048-21.278c1.08-1.781 3.365-5.67 3.365-8.9s-1.669-4.181-6.131-4.439z" class="cls-1" transform="translate(-602.622 -57.653)"/>
        </clipPath>
        <clipPath id="clip-path-14">
            <path id="패스_2364" d="M741.616 57.653a3.735 3.735 0 0 0-4 3.836c0 2.412 1.263 4.384 4.214 4.384s7.009.152 8 .152c1.008 0 3.848.345 2.013 3.541s-11.822 20.772-12.683 22.716-2.706 4.853-1 7.994 4.2 4.124 8.643 4.124 12.771-.048 14.971-.048 4.657-.941 4.657-4.169-2.321-3.709-4.4-3.709-7.773-.157-10.083-.157-4.356-.711-2.437-4.045 10.989-19.517 12.064-21.279c1.064-1.781 3.357-5.67 3.357-8.9s-1.668-4.181-6.132-4.439z" class="cls-1" transform="translate(-737.462 -57.653)"/>
        </clipPath>
        <clipPath id="clip-path-16">
            <path id="패스_2366" d="M877.594 71.067c-.292 4.563-.557 7.173-.6 11.74-.085 7.681-1.194 21.511 4.5 24.969 4.856 2.957 14.9 2.352 17.923 2.352s8.261-.3 8.779-3.475c.523-3.187-.646-5.127-3.353-5.594s-10.214-.233-12.244-.776-3.735-2.747-4.006-6.063c-.294-3.323-.382-12-.5-15.576s.295-13.4-4.2-13.4-5.99 1.268-6.291 5.826" class="cls-1" transform="translate(-876.849 -65.241)"/>
        </clipPath>
        <clipPath id="clip-path-18">
            <path id="패스_2368" d="M1007.113 59.187a72.333 72.333 0 0 0-.994 13.42c.011 9.488-.138 21.877 3.967 24.155s7.5 2.324 11.678 2.324 11.7.575 11.7-3.741-2.3-4.28-5.215-4.4c-2.927-.1-8.51.241-10.608-1.289s-2.5-3.261-2.5-6.068 1.668-5.313 4.646-5.454 11.165-.216 11.165-3.893-5.667-3.412-9.766-3.8-5.686-3.267-5.686-6.632c0-3.385.964-6.919 7.189-6.811s9.7-.016 9.7-3.272-2.86-3.491-8.493-3.6c-1.167-.025-2.5-.092-3.889-.092-5.334 0-11.57.978-12.9 9.147" class="cls-1" transform="translate(-1006.117 -50.04)"/>
        </clipPath>
        <style>
            .cls-1{fill:#fff}.cls-2{clip-path:url(#clip-path)}
        </style>
    </defs>
    <g id="그룹_1420">
        <g id="그룹_1419" class="cls-2">
            <path id="패스_2348" d="M107.589 75.4a4.637 4.637 0 1 0 4.637-4.638 4.636 4.636 0 0 0-4.637 4.638" class="cls-1" transform="translate(-78.485 -51.623)"/>
        </g>
    </g>
    <g id="그룹_1422" transform="translate(29.104 19.142)">
        <g id="그룹_1421" clip-path="url(#clip-path-2)">
            <path id="사각형_1903" d="M0 0H12.841V12.842H0z" class="cls-1" transform="rotate(-56.7 3.879 7.18)"/>
        </g>
    </g>
    <g id="그룹_1424">
        <g id="그룹_1423" class="cls-2">
            <path id="패스_2350" d="M105.971 118.493a15.734 15.734 0 0 0 0 2.316c.129 3.273 1.43 11.935 2.861 15.408s5.048 8.866 8.183 8.866 3.953-2.181 3.953-3.408a4.807 4.807 0 0 0-1.634-3.819c-1.434-1.433-3.818-6.41-4.295-9.545a73.42 73.42 0 0 1-.615-9.071c0-1.565-.682-1.772-2.181-2.111a34.4 34.4 0 0 0-4.5-.75h-.124c-1.013 0-1.556.824-1.649 2.118" class="cls-1" transform="translate(-77.274 -84.895)"/>
        </g>
    </g>
    <g id="그룹_1426" transform="translate(28.655 31.48)">
        <g id="그룹_1425" clip-path="url(#clip-path-4)">
            <path id="사각형_1905" d="M0 0H32.262V28.341H0z" class="cls-1" transform="rotate(-56.7 11.997 22.246)"/>
        </g>
    </g>
    <g id="그룹_1428">
        <g id="그룹_1427" class="cls-2">
            <path id="패스_2352" d="M0 55.124zM31.283.737L3.157 16.973A6.471 6.471 0 0 0 .02 22.041L0 55.123a6.466 6.466 0 0 0 3.134 5.07L31.944 76.8a1.071 1.071 0 0 0 .55.153 1.116 1.116 0 0 0 .956-.566l1.638-2.833a1.06 1.06 0 0 0 .151-.554 1.088 1.088 0 0 0-.513-.907L7.7 56.513a4.826 4.826 0 0 1-2.244-3.86V24.509A4.838 4.838 0 0 1 7.7 20.648L32.028 6.591a4.854 4.854 0 0 1 4.466 0l24.354 14.057a4.838 4.838 0 0 1 2.241 3.861l-.032 31.2a1.074 1.074 0 0 0 1.072 1.07h3.318a1.07 1.07 0 0 0 1.07-1.07V22.041a6.466 6.466 0 0 0-3.136-5.068L37.238.737A5.823 5.823 0 0 0 34.318 0a6.294 6.294 0 0 0-3.035.732" class="cls-1" transform="translate(0 -.004)"/>
        </g>
    </g>
    <g id="그룹_1430" transform="translate(0 .001)">
        <g id="그룹_1429" clip-path="url(#clip-path-6)">
            <path id="사각형_1907" d="M0 0H68.517V76.948H0z" class="cls-1" transform="translate(0 -.001)"/>
        </g>
    </g>
    <g id="그룹_1432">
        <g id="그룹_1431" class="cls-2">
            <path id="패스_2354" d="M318.611 80.345c-3.631-.9-3.649-4.943-3.624-7.582s.355-6.273 3.275-6.88c2.941-.608 6.6-.746 8.622 2.211a9.948 9.948 0 0 1 .492 9.865c-1.093 1.8-3.385 2.736-5.969 2.736a11.613 11.613 0 0 1-2.8-.35M308.489 61.13c-2.389 2.347-2.9 5.426-3.1 8.132s-.306 6.139-.281 8.908c.021 4.243.1 9.541.207 13.264s-.044 6.851 0 8.823.541 5.239 3.364 5.417 5.737-.723 6.627-4.522c.87-3.8.656-5.941 1.013-8.592s1.611-3.307 4.731-3.677 9.174.711 12.488-5.12a19.643 19.643 0 0 0 1.509-16.975 12.017 12.017 0 0 0-10.7-7.515c-1.2-.067-2.929-.138-4.821-.138-4.278 0-9.379.366-11.036 2" class="cls-1" transform="translate(-222.57 -43.137)"/>
        </g>
    </g>
    <g id="그룹_1434" transform="translate(82.533 15.996)">
        <g id="그룹_1433" clip-path="url(#clip-path-8)">
            <path id="사각형_1909" d="M0 0H42.308V53.077H0z" class="cls-1" transform="rotate(-14.07 5.668 46.124)"/>
        </g>
    </g>
    <g id="그룹_1436">
        <g id="그룹_1435" class="cls-2">
            <path id="패스_2356" d="M447.089 71.165c-.283 3.751.1 4.554 0 8.549-.083 3.877.062 11.193.448 15.435s2.046 8.859 4.975 10.7 4.88 3.76 11.947 3.76 9.945-2.1 13.268-5.849 3.622-7.814 3.767-13.9-.161-16.239-.11-19.253-1.392-5.281-4.335-5.281-4.791 1.6-4.869 5.233c-.076 3.617-.2 9.089-.274 12.166-.058 3.072 0 9.724-1.238 12.737s-3.417 3.247-5.983 3.247-5.438-.87-6.68-4.46-1.155-10.189-1.155-14.03c0-3.822.288-11.082-.561-13.3-.87-2.209-2.706-2.384-4.552-2.384-1.369 0-4.2.681-4.648 6.629" class="cls-1" transform="translate(-326.07 -47.079)"/>
        </g>
    </g>
    <g id="그룹_1438" transform="translate(120.912 17.458)">
        <g id="그룹_1437" clip-path="url(#clip-path-10)">
            <path id="패스_2357" d="M463.124 84.813l-43.4 10.873-12.679-50.629 43.394-10.873z" class="cls-1" transform="translate(-417.848 -42.394)"/>
        </g>
    </g>
    <g id="그룹_1440">
        <g id="그룹_1439" class="cls-2">
            <path id="패스_2359" d="M606.78 57.653a3.729 3.729 0 0 0-3.995 3.836c0 2.412 1.263 4.384 4.216 4.384s7 .152 8 .152 3.839.345 2 3.541-11.816 20.772-12.686 22.716-2.7 4.853-1 7.994 4.2 4.124 8.65 4.124 12.769-.048 14.969-.048 4.655-.941 4.655-4.17-2.317-3.709-4.4-3.709-7.771-.156-10.086-.156-4.356-.711-2.432-4.045 10.983-19.516 12.048-21.278c1.079-1.781 3.365-5.67 3.365-8.9s-1.669-4.181-6.13-4.439z" class="cls-1" transform="translate(-439.608 -42.057)"/>
        </g>
    </g>
    <g id="그룹_1442" transform="translate(163.014 15.596)">
        <g id="그룹_1441" clip-path="url(#clip-path-12)">
            <path id="패스_2360" d="M610.185 82.586l-39.227 9.828-12.792-51.048 39.234-9.827z" class="cls-1" transform="translate(-570.192 -38.603)"/>
        </g>
    </g>
    <g id="그룹_1444">
        <g id="그룹_1443" class="cls-2">
            <path id="패스_2362" d="M741.616 57.653a3.734 3.734 0 0 0-4 3.836c0 2.412 1.264 4.384 4.213 4.384s7.009.152 8 .152c1.008 0 3.848.345 2.013 3.541s-11.825 20.772-12.686 22.716-2.706 4.853-1 7.994 4.2 4.124 8.643 4.124 12.771-.048 14.971-.048 4.657-.941 4.657-4.17-2.322-3.709-4.4-3.709-7.773-.156-10.083-.156-4.356-.711-2.437-4.045 10.993-19.517 12.069-21.279c1.063-1.781 3.357-5.67 3.357-8.9s-1.668-4.181-6.132-4.439z" class="cls-1" transform="translate(-537.973 -42.057)"/>
        </g>
    </g>
    <g id="그룹_1446" transform="translate(199.489 15.596)">
        <g id="그룹_1445" clip-path="url(#clip-path-14)">
            <path id="패스_2363" d="M745.023 82.58l-39.231 9.828L693 41.36l39.229-9.83z" class="cls-1" transform="translate(-705.027 -38.596)"/>
        </g>
    </g>
    <g id="그룹_1448">
        <g id="그룹_1447" class="cls-2">
            <path id="패스_2365" d="M877.594 71.067c-.292 4.563-.557 7.173-.6 11.74-.085 7.681-1.194 21.511 4.5 24.97 4.855 2.957 14.9 2.352 17.923 2.352s8.261-.3 8.779-3.475c.522-3.187-.646-5.127-3.353-5.594s-10.215-.233-12.245-.776-3.735-2.748-4.006-6.063c-.294-3.323-.382-12-.5-15.576s.295-13.4-4.2-13.4-5.99 1.268-6.291 5.826" class="cls-1" transform="translate(-639.654 -47.593)"/>
        </g>
    </g>
    <g id="그룹_1450" transform="translate(237.195 17.648)">
        <g id="그룹_1449" clip-path="url(#clip-path-16)">
            <path id="사각형_1914" d="M0 0H42.984V52.127H0z" class="cls-1" transform="rotate(-14.067 5.004 49.08)"/>
        </g>
    </g>
    <g id="그룹_1452">
        <g id="그룹_1451" class="cls-2">
            <path id="패스_2367" d="M1007.113 59.188a72.326 72.326 0 0 0-.994 13.42c.011 9.488-.138 21.877 3.967 24.155s7.5 2.324 11.678 2.324 11.7.575 11.7-3.742-2.3-4.28-5.214-4.4c-2.927-.1-8.51.241-10.608-1.289s-2.5-3.261-2.5-6.068 1.668-5.313 4.646-5.454 11.164-.216 11.164-3.893-5.667-3.412-9.766-3.8-5.686-3.267-5.686-6.632c0-3.385.964-6.92 7.188-6.811s9.7-.016 9.7-3.272-2.86-3.491-8.493-3.6c-1.167-.025-2.5-.092-3.889-.092-5.334 0-11.57.978-12.9 9.147" class="cls-1" transform="translate(-733.954 -36.505)"/>
        </g>
    </g>
    <g id="그룹_1454" transform="translate(272.163 13.536)">
        <g id="그룹_1453" clip-path="url(#clip-path-18)">
            <path id="사각형_1916" d="M0 0H38.712V54.809H0z" class="cls-1" transform="rotate(-14.067 5.973 49.425)"/>
        </g>
    </g>
</svg>
